<svg version="1.2" xmlns="http://www.w3.org/2000/svg" viewBox="0 0 40 40" width="40" height="40"><style>.a{fill:#ebf6f3}.b{opacity:.6;fill:#6a9586}.c{fill:#6a9586}</style><path class="a" d="m20 40c-11.1 0-20-8.9-20-20 0-11.1 8.9-20 20-20 11.1 0 20 8.9 20 20 0 11.1-8.9 20-20 20z"/><path fill-rule="evenodd" class="b" d="m30 19.3v8.1c0 0.8-0.7 1.5-1.5 1.5h-5.6v-12.3l5.9 1.3c0.7 0.1 1.2 0.7 1.2 1.4zm-2.5 6.4c0-0.3-0.3-0.6-0.6-0.6h-1.3c-0.3 0-0.6 0.3-0.6 0.6 0 0.4 0.3 0.7 0.6 0.7h1.3c0.3 0 0.6-0.3 0.6-0.7zm0-2.5c0-0.3-0.3-0.6-0.6-0.6h-1.3c-0.3 0-0.6 0.3-0.6 0.6 0 0.4 0.3 0.7 0.6 0.7h1.3c0.3 0 0.6-0.3 0.6-0.7zm0-2.5c0-0.3-0.3-0.6-0.6-0.6h-1.3c-0.3 0-0.6 0.3-0.6 0.6 0 0.4 0.3 0.7 0.6 0.7h1.3c0.3 0 0.6-0.3 0.6-0.7z"/><path fill-rule="evenodd" class="c" d="m22.1 11.9v17h-3.6v-4.4c0-0.8-0.6-1.5-1.4-1.5h-2.1c-0.8 0-1.5 0.7-1.5 1.5v4.4h-2.7c-0.4 0-0.8-0.4-0.8-0.9v-17.5c0-0.5 0.2-0.9 0.5-1.2 0.3-0.2 0.8-0.3 1.2-0.3l9.2 1.4c0.7 0.1 1.2 0.7 1.2 1.5zm-6.9 8.6c0-0.3-0.3-0.6-0.6-0.6h-1.3c-0.3 0-0.6 0.3-0.6 0.6 0 0.4 0.3 0.6 0.6 0.6h1.3c0.3 0 0.6-0.2 0.6-0.6zm0-2.5c0-0.3-0.3-0.6-0.6-0.6h-1.3c-0.3 0-0.6 0.3-0.6 0.6 0 0.4 0.3 0.6 0.6 0.6h1.3c0.3 0 0.6-0.2 0.6-0.6zm0-2.5c0-0.3-0.3-0.6-0.6-0.6h-1.3c-0.3 0-0.6 0.3-0.6 0.6 0 0.4 0.3 0.6 0.6 0.6h1.3c0.3 0 0.6-0.2 0.6-0.6zm0-2.5c0-0.3-0.3-0.6-0.6-0.6h-1.3c-0.3 0-0.6 0.3-0.6 0.6 0 0.4 0.3 0.6 0.6 0.6h1.3c0.3 0 0.6-0.2 0.6-0.6zm4.2 7.5c0-0.3-0.3-0.6-0.7-0.6h-1.2c-0.3 0-0.6 0.3-0.6 0.6 0 0.4 0.3 0.6 0.6 0.6h1.2c0.4 0 0.7-0.2 0.7-0.6zm0-2.5c0-0.3-0.3-0.6-0.7-0.6h-1.2c-0.3 0-0.6 0.3-0.6 0.6 0 0.4 0.3 0.6 0.6 0.6h1.2c0.4 0 0.7-0.2 0.7-0.6zm0-2.5c0-0.3-0.3-0.6-0.7-0.6h-1.2c-0.3 0-0.6 0.3-0.6 0.6 0 0.4 0.3 0.6 0.6 0.6h1.2c0.4 0 0.7-0.2 0.7-0.6zm0-2.5c0-0.3-0.3-0.6-0.7-0.6h-1.2c-0.3 0-0.6 0.3-0.6 0.6 0 0.4 0.3 0.6 0.6 0.6h1.2c0.4 0 0.7-0.2 0.7-0.6z"/></svg>