<svg version="1.2" xmlns="http://www.w3.org/2000/svg" viewBox="0 0 101 96" width="101" height="96"><defs><clipPath clipPathUnits="userSpaceOnUse" id="cp1"><path d="m0 6h101v84h-101z"/></clipPath></defs><style>.a{fill:#f5f5f5}.b{fill:#212121}</style><g clip-path="url(#cp1)"><path class="a" d="m0 6h101v84h-101z"/><path class="b" d="m58.7 36.8h-5.6l1.2-10.1c0.1-0.6-0.6-0.9-1.1-0.5l-11.5 11.8c-0.4 0.5-0.1 1.2 0.6 1.2h5.6v10.1c0 0.6 0.7 0.9 1.2 0.5l10.2-11.8c0.4-0.5 0.1-1.2-0.6-1.2z"/></g><path fill-rule="evenodd" class="b" d="m22.2 57h3.3q1.1 0 1.8 0.4 0.8 0.3 1.2 1 0.4 0.7 0.4 1.6 0 0.7-0.2 1.3-0.3 0.5-0.8 0.9-0.4 0.3-0.9 0.5l2.4 4.2v0.1h-1.4l-2.2-4h-2.3v4h-1.3zm1.3 5.9v-1.1h-0.3v1.1zm2-1.1q0.7 0 1.2-0.2 0.4-0.3 0.7-0.7 0.2-0.4 0.2-0.9 0-0.6-0.2-1-0.2-0.4-0.7-0.7-0.5-0.2-1.3-0.2h-1.9v3.7zm8.1 5.3q-0.7 0-1.4-0.3-0.6-0.2-1-0.7-0.5-0.5-0.7-1.1-0.3-0.7-0.3-1.5v-0.3q0-0.9 0.3-1.6 0.3-0.7 0.7-1.2 0.5-0.5 1.1-0.7 0.5-0.3 1.2-0.3 0.8 0 1.3 0.3 0.6 0.3 1 0.8 0.4 0.4 0.5 1.1 0.2 0.7 0.2 1.4v0.6h-5q0 0.5 0.2 0.9 0.1 0.5 0.4 0.8 0.3 0.4 0.7 0.6 0.4 0.2 0.9 0.2 0.7 0 1.1-0.3 0.5-0.3 0.9-0.7l0.7 0.6q-0.2 0.3-0.6 0.7-0.4 0.3-0.9 0.5-0.5 0.2-1.3 0.2zm-2.1-3.5q0 0 0-0.1v-0.3q0-0.3 0-0.6h-0.5v1zm3.7-1v-0.1q0-0.5-0.2-1-0.1-0.4-0.5-0.7-0.4-0.3-1-0.3-0.5 0-0.8 0.1-0.4 0.2-0.7 0.6-0.2 0.3-0.4 0.8 0 0.3-0.1 0.6zm7.4 7.2v-3.5q-0.3 0.3-0.8 0.6-0.5 0.2-1.2 0.2-0.7 0-1.2-0.3-0.6-0.3-1-0.8-0.3-0.5-0.5-1.2-0.2-0.7-0.2-1.5v-0.1q0-0.9 0.2-1.5 0.2-0.7 0.5-1.2 0.4-0.5 1-0.8 0.5-0.3 1.2-0.3 0.7 0 1.2 0.3 0.5 0.2 0.9 0.6v-0.7h1.2v10.2zm-3.7-6.6v0.1q0 0.6 0.1 1.1 0.1 0.5 0.4 0.8 0.2 0.4 0.6 0.6 0.4 0.3 0.9 0.3 0.6 0 1-0.3 0.4-0.3 0.7-0.7 0.2-0.5 0.4-1v-1.7q-0.1-0.3-0.3-0.7-0.1-0.3-0.4-0.6-0.2-0.3-0.6-0.5-0.3-0.1-0.8-0.1-0.5 0-0.9 0.2-0.4 0.2-0.6 0.6-0.3 0.4-0.4 0.8-0.1 0.5-0.1 1.1zm11.5-3.6h1.3v7.4h-1.2v-0.8q-0.4 0.4-0.9 0.6-0.5 0.3-1.3 0.3-0.5 0-1-0.2-0.4-0.1-0.8-0.5-0.3-0.3-0.5-0.8-0.1-0.5-0.1-1.3v-4.7h1.2v4.7q0 0.5 0.1 0.9 0.2 0.3 0.4 0.5 0.1 0.2 0.4 0.2 0.2 0.1 0.5 0.1 0.8 0 1.3-0.3 0.4-0.3 0.6-0.8zm6.3 7.6q-0.8 0-1.4-0.3-0.6-0.3-1.1-0.7-0.4-0.5-0.7-1.2-0.2-0.6-0.2-1.4v-0.3q0-0.9 0.3-1.6 0.2-0.7 0.7-1.2 0.4-0.5 1-0.7 0.6-0.3 1.2-0.3 0.8 0 1.4 0.3 0.6 0.2 0.9 0.7 0.4 0.5 0.6 1.2 0.2 0.6 0.2 1.4v0.6h-5q0 0.5 0.1 0.9 0.2 0.4 0.4 0.8 0.3 0.3 0.7 0.5 0.4 0.2 1 0.2 0.6 0 1.1-0.2 0.5-0.3 0.8-0.8l0.8 0.6q-0.3 0.4-0.6 0.7-0.4 0.4-0.9 0.6-0.6 0.2-1.3 0.2zm-2.1-3.5q0-0.1 0-0.1v-0.3q0-0.3 0-0.6h-0.6v1zm3.8-1v-0.1q0-0.5-0.2-1-0.2-0.5-0.6-0.8-0.3-0.3-1-0.3-0.4 0-0.8 0.2-0.3 0.2-0.6 0.6-0.3 0.3-0.4 0.8-0.1 0.3-0.1 0.6zm7 2.4q0-0.3-0.1-0.5-0.1-0.3-0.5-0.5-0.3-0.2-1.1-0.3-0.6-0.1-1.1-0.3-0.5-0.2-0.8-0.4-0.4-0.3-0.6-0.6-0.1-0.4-0.1-0.8 0-0.5 0.2-0.9 0.2-0.4 0.5-0.7 0.4-0.3 0.9-0.4 0.5-0.2 1.1-0.2 0.9 0 1.5 0.3 0.7 0.3 1 0.9 0.3 0.5 0.3 1.1h-1.2q0-0.3-0.2-0.6-0.2-0.3-0.6-0.5-0.3-0.2-0.8-0.2-0.5 0-0.9 0.2-0.3 0.2-0.4 0.4-0.2 0.3-0.2 0.5 0 0.2 0.1 0.4 0.1 0.2 0.3 0.3 0.1 0.1 0.5 0.2 0.3 0.1 0.8 0.3 0.9 0.2 1.5 0.5 0.6 0.2 0.9 0.7 0.3 0.4 0.3 1 0 0.5-0.2 0.9-0.2 0.4-0.6 0.7-0.4 0.2-0.9 0.4-0.5 0.2-1.2 0.2-0.9 0-1.6-0.4-0.7-0.3-1-0.9-0.4-0.5-0.4-1.2h1.3q0 0.6 0.3 0.9 0.3 0.3 0.7 0.4 0.3 0.1 0.7 0.1 0.6 0 0.9-0.1 0.4-0.1 0.5-0.4 0.2-0.2 0.2-0.5zm6.1-5.5v1h-1.4v4.6q0 0.4 0.1 0.6 0.1 0.2 0.3 0.2 0.2 0.1 0.4 0.1 0.1 0 0.3 0 0.2-0.1 0.3-0.1v1q-0.2 0.1-0.4 0.1-0.2 0.1-0.6 0.1-0.5 0-0.8-0.2-0.4-0.2-0.7-0.6-0.2-0.5-0.2-1.2v-4.6h-1.3v-1h1.3v-1.8h1.3v1.8zm5.8 5.5q0-0.3-0.2-0.5-0.1-0.3-0.4-0.5-0.4-0.2-1.1-0.3-0.7-0.1-1.2-0.3-0.4-0.2-0.8-0.4-0.3-0.3-0.5-0.6-0.2-0.4-0.2-0.8 0-0.5 0.2-0.9 0.2-0.4 0.5-0.7 0.4-0.3 0.9-0.4 0.5-0.2 1.1-0.2 0.9 0 1.6 0.3 0.6 0.3 0.9 0.9 0.4 0.5 0.4 1.1h-1.3q0-0.3-0.2-0.6-0.2-0.3-0.5-0.5-0.4-0.2-0.9-0.2-0.5 0-0.8 0.2-0.3 0.2-0.5 0.4-0.1 0.3-0.1 0.5 0 0.2 0 0.4 0.1 0.2 0.3 0.3 0.2 0.1 0.5 0.2 0.3 0.1 0.9 0.3 0.9 0.2 1.5 0.5 0.6 0.2 0.8 0.7 0.3 0.4 0.3 1 0 0.5-0.2 0.9-0.2 0.4-0.6 0.7-0.3 0.2-0.9 0.4-0.5 0.2-1.1 0.2-1 0-1.7-0.4-0.7-0.3-1-0.9-0.4-0.5-0.4-1.2h1.3q0 0.6 0.3 0.9 0.3 0.3 0.7 0.4 0.4 0.1 0.8 0.1 0.5 0 0.8-0.1 0.4-0.1 0.6-0.4 0.2-0.2 0.2-0.5z"/><path fill-rule="evenodd" class="a" d="m101-1c0 3.9-3.1 7-7 7h7z"/><path fill-rule="evenodd" class="a" d="m94 90c3.9 0 7 3.1 7 7v-7z"/></svg>