<svg width="101" height="84" viewBox="0 0 101 84" fill="none" xmlns="http://www.w3.org/2000/svg">
<path d="M58.7272 30.8H53.0714L54.3468 20.6683C54.4163 20.0898 53.6513 19.7682 53.2321 20.1979L41.7019 31.9952C41.2519 32.4584 41.6029 33.2 42.2728 33.2H47.9286L47.9389 43.3317C47.8695 43.9102 48.6344 44.2318 49.0536 43.8021L59.2981 32.0048C59.7481 31.5416 59.3971 30.8 58.7272 30.8Z" fill="white"/>
<path d="M22.1553 51.0469H25.4502C26.1976 51.0469 26.8288 51.1608 27.3438 51.3887C27.8633 51.6165 28.2575 51.9538 28.5264 52.4004C28.7998 52.8424 28.9365 53.387 28.9365 54.0342C28.9365 54.4899 28.8431 54.9069 28.6562 55.2852C28.474 55.6589 28.2096 55.9779 27.8633 56.2422C27.5215 56.502 27.1113 56.6956 26.6328 56.8232L26.2637 56.9668H23.167L23.1533 55.8936H25.4912C25.9652 55.8936 26.3594 55.8115 26.6738 55.6475C26.9883 55.4788 27.2253 55.2533 27.3848 54.9707C27.5443 54.6882 27.624 54.376 27.624 54.0342C27.624 53.6514 27.5488 53.3164 27.3984 53.0293C27.248 52.7422 27.0111 52.5212 26.6875 52.3662C26.3685 52.2067 25.9561 52.127 25.4502 52.127H23.4746V61H22.1553V51.0469ZM27.9727 61L25.5527 56.4883L26.9268 56.4814L29.3809 60.918V61H27.9727ZM33.6602 61.1367C33.1452 61.1367 32.6781 61.0501 32.2588 60.877C31.8441 60.6992 31.4863 60.4508 31.1855 60.1318C30.8893 59.8128 30.6615 59.4346 30.502 58.9971C30.3424 58.5596 30.2627 58.0811 30.2627 57.5615V57.2744C30.2627 56.6729 30.3516 56.1374 30.5293 55.668C30.707 55.194 30.9486 54.793 31.2539 54.4648C31.5592 54.1367 31.9056 53.8883 32.293 53.7197C32.6803 53.5511 33.0814 53.4668 33.4961 53.4668C34.0247 53.4668 34.4805 53.5579 34.8633 53.7402C35.2507 53.9225 35.5674 54.1777 35.8135 54.5059C36.0596 54.8294 36.2419 55.2122 36.3604 55.6543C36.4788 56.0918 36.5381 56.5703 36.5381 57.0898V57.6572H31.0146V56.625H35.2734V56.5293C35.2552 56.2012 35.1868 55.8822 35.0684 55.5723C34.9544 55.2624 34.7721 55.0072 34.5215 54.8066C34.2708 54.6061 33.929 54.5059 33.4961 54.5059C33.209 54.5059 32.9447 54.5674 32.7031 54.6904C32.4616 54.8089 32.2542 54.9867 32.0811 55.2236C31.9079 55.4606 31.7734 55.75 31.6777 56.0918C31.582 56.4336 31.5342 56.8278 31.5342 57.2744V57.5615C31.5342 57.9124 31.582 58.2428 31.6777 58.5527C31.778 58.8581 31.9215 59.127 32.1084 59.3594C32.2998 59.5918 32.5299 59.7741 32.7988 59.9062C33.0723 60.0384 33.3822 60.1045 33.7285 60.1045C34.1751 60.1045 34.5534 60.0133 34.8633 59.8311C35.1732 59.6488 35.4443 59.4049 35.6768 59.0996L36.4424 59.708C36.2829 59.9495 36.0801 60.1797 35.834 60.3984C35.5879 60.6172 35.2848 60.7949 34.9248 60.9316C34.5693 61.0684 34.1478 61.1367 33.6602 61.1367ZM42.6699 63.8438V55.0254L42.7793 53.6035H43.9414V63.8438H42.6699ZM37.7002 57.3838V57.2402C37.7002 56.6751 37.7663 56.1624 37.8984 55.7021C38.0306 55.2373 38.2243 54.8385 38.4795 54.5059C38.7347 54.1732 39.0423 53.918 39.4023 53.7402C39.7669 53.5579 40.1816 53.4668 40.6465 53.4668C41.1113 53.4668 41.5192 53.5488 41.8701 53.7129C42.2256 53.8724 42.5264 54.1071 42.7725 54.417C43.0231 54.7223 43.2214 55.0915 43.3672 55.5244C43.513 55.9574 43.6133 56.4473 43.668 56.9941V57.623C43.6178 58.1654 43.5199 58.653 43.374 59.0859C43.2282 59.5189 43.0299 59.888 42.7793 60.1934C42.5332 60.4987 42.2301 60.7334 41.8701 60.8975C41.5146 61.057 41.1022 61.1367 40.6328 61.1367C40.1771 61.1367 39.7669 61.0433 39.4023 60.8564C39.0423 60.6696 38.7347 60.4076 38.4795 60.0703C38.2288 59.7331 38.0352 59.3366 37.8984 58.8809C37.7663 58.4206 37.7002 57.9215 37.7002 57.3838ZM38.9717 57.2402V57.3838C38.9717 57.7529 39.0104 58.1016 39.0879 58.4297C39.1654 58.7533 39.2839 59.0404 39.4434 59.291C39.6074 59.5417 39.8125 59.7399 40.0586 59.8857C40.3092 60.027 40.6055 60.0977 40.9473 60.0977C41.3665 60.0977 41.7152 60.0065 41.9932 59.8242C42.2757 59.6419 42.5013 59.4027 42.6699 59.1064C42.8385 58.8057 42.9684 58.4844 43.0596 58.1426V56.4951C43.0094 56.2445 42.9297 56.0007 42.8203 55.7637C42.7155 55.5267 42.5788 55.3148 42.4102 55.1279C42.2415 54.9365 42.0365 54.7861 41.7949 54.6768C41.5579 54.5628 41.2799 54.5059 40.9609 54.5059C40.6146 54.5059 40.3161 54.5788 40.0654 54.7246C39.8148 54.8704 39.6074 55.071 39.4434 55.3262C39.2839 55.5768 39.1654 55.8662 39.0879 56.1943C39.0104 56.5225 38.9717 56.8711 38.9717 57.2402ZM50.4971 59.291V53.6035H51.7686V61H50.5586L50.4971 59.291ZM50.7363 57.7324L51.2627 57.7188C51.2627 58.2109 51.2103 58.6667 51.1055 59.0859C51.0052 59.5007 50.8411 59.8607 50.6133 60.166C50.3854 60.4714 50.0869 60.7106 49.7178 60.8838C49.3486 61.0524 48.8997 61.1367 48.3711 61.1367C48.0111 61.1367 47.6807 61.0843 47.3799 60.9795C47.0837 60.8747 46.8285 60.7129 46.6143 60.4941C46.4001 60.2754 46.2337 59.9906 46.1152 59.6396C46.0013 59.2887 45.9443 58.8672 45.9443 58.375V53.6035H47.209V58.3887C47.209 58.7214 47.2454 58.9971 47.3184 59.2158C47.3958 59.43 47.4984 59.6009 47.626 59.7285C47.7581 59.8516 47.904 59.9382 48.0635 59.9883C48.2275 60.0384 48.3962 60.0635 48.5693 60.0635C49.1071 60.0635 49.5332 59.9609 49.8477 59.7559C50.1621 59.5462 50.3877 59.266 50.5244 58.915C50.6657 58.5596 50.7363 58.1654 50.7363 57.7324ZM56.7656 61.1367C56.2507 61.1367 55.7835 61.0501 55.3643 60.877C54.9495 60.6992 54.5918 60.4508 54.291 60.1318C53.9948 59.8128 53.7669 59.4346 53.6074 58.9971C53.4479 58.5596 53.3682 58.0811 53.3682 57.5615V57.2744C53.3682 56.6729 53.457 56.1374 53.6348 55.668C53.8125 55.194 54.054 54.793 54.3594 54.4648C54.6647 54.1367 55.0111 53.8883 55.3984 53.7197C55.7858 53.5511 56.1868 53.4668 56.6016 53.4668C57.1302 53.4668 57.5859 53.5579 57.9688 53.7402C58.3561 53.9225 58.6729 54.1777 58.9189 54.5059C59.165 54.8294 59.3473 55.2122 59.4658 55.6543C59.5843 56.0918 59.6436 56.5703 59.6436 57.0898V57.6572H54.1201V56.625H58.3789V56.5293C58.3607 56.2012 58.2923 55.8822 58.1738 55.5723C58.0599 55.2624 57.8776 55.0072 57.627 54.8066C57.3763 54.6061 57.0345 54.5059 56.6016 54.5059C56.3145 54.5059 56.0501 54.5674 55.8086 54.6904C55.5671 54.8089 55.3597 54.9867 55.1865 55.2236C55.0133 55.4606 54.8789 55.75 54.7832 56.0918C54.6875 56.4336 54.6396 56.8278 54.6396 57.2744V57.5615C54.6396 57.9124 54.6875 58.2428 54.7832 58.5527C54.8835 58.8581 55.027 59.127 55.2139 59.3594C55.4053 59.5918 55.6354 59.7741 55.9043 59.9062C56.1777 60.0384 56.4876 60.1045 56.834 60.1045C57.2806 60.1045 57.6589 60.0133 57.9688 59.8311C58.2786 59.6488 58.5498 59.4049 58.7822 59.0996L59.5479 59.708C59.3883 59.9495 59.1855 60.1797 58.9395 60.3984C58.6934 60.6172 58.3903 60.7949 58.0303 60.9316C57.6748 61.0684 57.2533 61.1367 56.7656 61.1367ZM65.4268 59.0381C65.4268 58.8558 65.3857 58.6872 65.3037 58.5322C65.2262 58.3727 65.0645 58.2292 64.8184 58.1016C64.5768 57.9694 64.2122 57.8555 63.7246 57.7598C63.3145 57.6732 62.943 57.5706 62.6104 57.4521C62.2822 57.3337 62.002 57.1901 61.7695 57.0215C61.5417 56.8529 61.3662 56.6546 61.2432 56.4268C61.1201 56.1989 61.0586 55.9323 61.0586 55.627C61.0586 55.3353 61.1224 55.0596 61.25 54.7998C61.3822 54.54 61.5667 54.3099 61.8037 54.1094C62.0452 53.9089 62.3346 53.7516 62.6719 53.6377C63.0091 53.5238 63.3851 53.4668 63.7998 53.4668C64.3923 53.4668 64.8981 53.5716 65.3174 53.7812C65.7367 53.9909 66.0579 54.2712 66.2812 54.6221C66.5046 54.9684 66.6162 55.3535 66.6162 55.7773H65.3516C65.3516 55.5723 65.29 55.374 65.167 55.1826C65.0485 54.9867 64.873 54.8249 64.6406 54.6973C64.4128 54.5697 64.1325 54.5059 63.7998 54.5059C63.4489 54.5059 63.1641 54.5605 62.9453 54.6699C62.7311 54.7747 62.5739 54.9092 62.4736 55.0732C62.3779 55.2373 62.3301 55.4105 62.3301 55.5928C62.3301 55.7295 62.3529 55.8525 62.3984 55.9619C62.4486 56.0667 62.5352 56.1647 62.6582 56.2559C62.7812 56.3424 62.9544 56.4245 63.1777 56.502C63.401 56.5794 63.6859 56.6569 64.0322 56.7344C64.6383 56.8711 65.1374 57.0352 65.5293 57.2266C65.9212 57.418 66.2129 57.6527 66.4043 57.9307C66.5957 58.2087 66.6914 58.5459 66.6914 58.9424C66.6914 59.266 66.623 59.5622 66.4863 59.8311C66.3542 60.0999 66.1605 60.3324 65.9053 60.5283C65.6546 60.7197 65.3538 60.8701 65.0029 60.9795C64.6566 61.0843 64.2669 61.1367 63.834 61.1367C63.1823 61.1367 62.6309 61.0205 62.1797 60.7881C61.7285 60.5557 61.3867 60.2549 61.1543 59.8857C60.9219 59.5166 60.8057 59.127 60.8057 58.7168H62.0771C62.0954 59.0632 62.1956 59.3389 62.3779 59.5439C62.5602 59.7445 62.7835 59.888 63.0479 59.9746C63.3122 60.0566 63.5742 60.0977 63.834 60.0977C64.1803 60.0977 64.4697 60.0521 64.7021 59.9609C64.9391 59.8698 65.1191 59.7445 65.2422 59.585C65.3652 59.4255 65.4268 59.2432 65.4268 59.0381ZM71.4492 53.6035V54.5742H67.4502V53.6035H71.4492ZM68.8037 51.8057H70.0684V59.168C70.0684 59.4186 70.1071 59.6077 70.1846 59.7354C70.262 59.863 70.3623 59.9473 70.4854 59.9883C70.6084 60.0293 70.7406 60.0498 70.8818 60.0498C70.9867 60.0498 71.096 60.0407 71.21 60.0225C71.3285 59.9997 71.4173 59.9814 71.4766 59.9678L71.4834 61C71.3831 61.0319 71.251 61.0615 71.0869 61.0889C70.9274 61.1208 70.7337 61.1367 70.5059 61.1367C70.196 61.1367 69.9111 61.0752 69.6514 60.9521C69.3916 60.8291 69.1842 60.624 69.0293 60.3369C68.8789 60.0452 68.8037 59.6533 68.8037 59.1611V51.8057ZM77.2393 59.0381C77.2393 58.8558 77.1982 58.6872 77.1162 58.5322C77.0387 58.3727 76.877 58.2292 76.6309 58.1016C76.3893 57.9694 76.0247 57.8555 75.5371 57.7598C75.127 57.6732 74.7555 57.5706 74.4229 57.4521C74.0947 57.3337 73.8145 57.1901 73.582 57.0215C73.3542 56.8529 73.1787 56.6546 73.0557 56.4268C72.9326 56.1989 72.8711 55.9323 72.8711 55.627C72.8711 55.3353 72.9349 55.0596 73.0625 54.7998C73.1947 54.54 73.3792 54.3099 73.6162 54.1094C73.8577 53.9089 74.1471 53.7516 74.4844 53.6377C74.8216 53.5238 75.1976 53.4668 75.6123 53.4668C76.2048 53.4668 76.7106 53.5716 77.1299 53.7812C77.5492 53.9909 77.8704 54.2712 78.0938 54.6221C78.3171 54.9684 78.4287 55.3535 78.4287 55.7773H77.1641C77.1641 55.5723 77.1025 55.374 76.9795 55.1826C76.861 54.9867 76.6855 54.8249 76.4531 54.6973C76.2253 54.5697 75.945 54.5059 75.6123 54.5059C75.2614 54.5059 74.9766 54.5605 74.7578 54.6699C74.5436 54.7747 74.3864 54.9092 74.2861 55.0732C74.1904 55.2373 74.1426 55.4105 74.1426 55.5928C74.1426 55.7295 74.1654 55.8525 74.2109 55.9619C74.2611 56.0667 74.3477 56.1647 74.4707 56.2559C74.5938 56.3424 74.7669 56.4245 74.9902 56.502C75.2135 56.5794 75.4984 56.6569 75.8447 56.7344C76.4508 56.8711 76.9499 57.0352 77.3418 57.2266C77.7337 57.418 78.0254 57.6527 78.2168 57.9307C78.4082 58.2087 78.5039 58.5459 78.5039 58.9424C78.5039 59.266 78.4355 59.5622 78.2988 59.8311C78.1667 60.0999 77.973 60.3324 77.7178 60.5283C77.4671 60.7197 77.1663 60.8701 76.8154 60.9795C76.4691 61.0843 76.0794 61.1367 75.6465 61.1367C74.9948 61.1367 74.4434 61.0205 73.9922 60.7881C73.541 60.5557 73.1992 60.2549 72.9668 59.8857C72.7344 59.5166 72.6182 59.127 72.6182 58.7168H73.8896C73.9079 59.0632 74.0081 59.3389 74.1904 59.5439C74.3727 59.7445 74.596 59.888 74.8604 59.9746C75.1247 60.0566 75.3867 60.0977 75.6465 60.0977C75.9928 60.0977 76.2822 60.0521 76.5146 59.9609C76.7516 59.8698 76.9316 59.7445 77.0547 59.585C77.1777 59.4255 77.2393 59.2432 77.2393 59.0381Z" fill="white"/>
<rect x="55" y="11" width="21" height="13" rx="4" fill="#F5A200"/>
<path d="M64.3516 19.9014V21H59.4883V20.0625L61.7881 17.5967C62.0192 17.3395 62.2015 17.1133 62.335 16.918C62.4684 16.7194 62.5645 16.542 62.623 16.3857C62.6849 16.2262 62.7158 16.0749 62.7158 15.9316C62.7158 15.7168 62.68 15.5329 62.6084 15.3799C62.5368 15.2236 62.431 15.1032 62.291 15.0186C62.1543 14.9339 61.985 14.8916 61.7832 14.8916C61.5684 14.8916 61.3828 14.9437 61.2266 15.0479C61.0736 15.152 60.9564 15.2969 60.875 15.4824C60.7969 15.668 60.7578 15.8779 60.7578 16.1123H59.3467C59.3467 15.6891 59.4476 15.3018 59.6494 14.9502C59.8512 14.5954 60.1361 14.3138 60.5039 14.1055C60.8717 13.8939 61.3079 13.7881 61.8125 13.7881C62.3105 13.7881 62.7305 13.8695 63.0723 14.0322C63.4173 14.1917 63.6777 14.4229 63.8535 14.7256C64.0326 15.0251 64.1221 15.3831 64.1221 15.7998C64.1221 16.0342 64.0846 16.2637 64.0098 16.4883C63.9349 16.7096 63.8275 16.931 63.6875 17.1523C63.5508 17.3704 63.3848 17.5918 63.1895 17.8164C62.9941 18.041 62.7777 18.2738 62.54 18.5146L61.3047 19.9014H64.3516ZM67.6709 16.835H68.4229C68.6637 16.835 68.8623 16.7943 69.0186 16.7129C69.1748 16.6283 69.2904 16.5111 69.3652 16.3613C69.4434 16.2083 69.4824 16.0309 69.4824 15.8291C69.4824 15.6468 69.4466 15.4857 69.375 15.3457C69.3066 15.2025 69.2008 15.0918 69.0576 15.0137C68.9144 14.9323 68.7337 14.8916 68.5156 14.8916C68.3431 14.8916 68.1836 14.9258 68.0371 14.9941C67.8906 15.0625 67.7734 15.1585 67.6855 15.2822C67.5977 15.4059 67.5537 15.5557 67.5537 15.7314H66.1426C66.1426 15.3408 66.2467 15.0007 66.4551 14.7109C66.6667 14.4212 66.9499 14.195 67.3047 14.0322C67.6595 13.8695 68.0501 13.7881 68.4766 13.7881C68.9583 13.7881 69.3799 13.8662 69.7412 14.0225C70.1025 14.1755 70.3841 14.4017 70.5859 14.7012C70.7878 15.0007 70.8887 15.3717 70.8887 15.8145C70.8887 16.0391 70.8366 16.2572 70.7324 16.4688C70.6283 16.6771 70.4785 16.8659 70.2832 17.0352C70.0911 17.2012 69.8568 17.3346 69.5801 17.4355C69.3034 17.5332 68.9925 17.582 68.6475 17.582H67.6709V16.835ZM67.6709 17.9043V17.1768H68.6475C69.0348 17.1768 69.375 17.2207 69.668 17.3086C69.9609 17.3965 70.2067 17.5234 70.4053 17.6895C70.6038 17.8522 70.7536 18.0459 70.8545 18.2705C70.9554 18.4919 71.0059 18.7376 71.0059 19.0078C71.0059 19.3398 70.9424 19.6361 70.8154 19.8965C70.6885 20.1536 70.5094 20.3717 70.2783 20.5508C70.0505 20.7298 69.7835 20.8665 69.4775 20.9609C69.1715 21.0521 68.8379 21.0977 68.4766 21.0977C68.1771 21.0977 67.8825 21.057 67.5928 20.9756C67.3063 20.891 67.0459 20.7656 66.8115 20.5996C66.5804 20.4303 66.3949 20.2188 66.2549 19.9648C66.1182 19.7077 66.0498 19.4033 66.0498 19.0518H67.4609C67.4609 19.234 67.5065 19.3968 67.5977 19.54C67.6888 19.6833 67.8141 19.7956 67.9736 19.877C68.1364 19.9583 68.3171 19.999 68.5156 19.999C68.7402 19.999 68.9323 19.9583 69.0918 19.877C69.2546 19.7923 69.3783 19.6751 69.4629 19.5254C69.5508 19.3724 69.5947 19.195 69.5947 18.9932C69.5947 18.7327 69.5475 18.5244 69.4531 18.3682C69.3587 18.2087 69.2236 18.0915 69.0479 18.0166C68.8721 17.9417 68.6637 17.9043 68.4229 17.9043H67.6709Z" fill="white"/>
</svg>
