<svg width="101" height="98" viewBox="0 0 101 98" fill="none" xmlns="http://www.w3.org/2000/svg">
<rect width="101" height="84" transform="translate(0 7)" fill="#F5F5F5"/>
<path d="M45.5 29C44.9696 29 44.4609 29.2107 44.0858 29.5858C43.7107 29.9609 43.5 30.4696 43.5 31C43.5 31.5304 43.7107 32.0391 44.0858 32.4142C44.4609 32.7893 44.9696 33 45.5 33C46.0304 33 46.5391 32.7893 46.9142 32.4142C47.2893 32.0391 47.5 31.5304 47.5 31C47.5 30.4696 47.2893 29.9609 46.9142 29.5858C46.5391 29.2107 46.0304 29 45.5 29ZM50.5 29C49.9696 29 49.4609 29.2107 49.0858 29.5858C48.7107 29.9609 48.5 30.4696 48.5 31C48.5 31.5304 48.7107 32.0391 49.0858 32.4142C49.4609 32.7893 49.9696 33 50.5 33C51.0304 33 51.5391 32.7893 51.9142 32.4142C52.2893 32.0391 52.5 31.5304 52.5 31C52.5 30.4696 52.2893 29.9609 51.9142 29.5858C51.5391 29.2107 51.0304 29 50.5 29ZM55.5 29C54.9696 29 54.4609 29.2107 54.0858 29.5858C53.7107 29.9609 53.5 30.4696 53.5 31C53.5 31.5304 53.7107 32.0391 54.0858 32.4142C54.4609 32.7893 54.9696 33 55.5 33C56.0304 33 56.5391 32.7893 56.9142 32.4142C57.2893 32.0391 57.5 31.5304 57.5 31C57.5 30.4696 57.2893 29.9609 56.9142 29.5858C56.5391 29.2107 56.0304 29 55.5 29ZM43.5 34C42.395 34 41.5 34.895 41.5 36V43H42.5V49H44.5V41H43.5V36H44.6016C44.7536 35.257 45.0834 34.584 45.5254 34H43.5ZM49.5 34C47.843 34 46.5 35.343 46.5 37V45H47.5V49H49.5V45H51.5V49H53.5V45H54.5V37C54.5 35.343 53.157 34 51.5 34H49.5ZM55.4746 34C55.9166 34.584 56.2474 35.257 56.3984 36H57.5V41H56.5V49H58.5V43H59.5V36C59.5 34.895 58.605 34 57.5 34H55.4746Z" fill="#212121"/>
<path d="M18.0703 58.0469V68H16.751V58.0469H18.0703ZM21.543 62.1826V68H20.2783V60.6035H21.4746L21.543 62.1826ZM21.2422 64.0215L20.7158 64.001C20.7204 63.4951 20.7956 63.028 20.9414 62.5996C21.0872 62.1667 21.2923 61.7907 21.5566 61.4717C21.821 61.1527 22.1354 60.9066 22.5 60.7334C22.8691 60.5557 23.277 60.4668 23.7236 60.4668C24.0882 60.4668 24.4163 60.5169 24.708 60.6172C24.9997 60.7129 25.248 60.8678 25.4531 61.082C25.6628 61.2962 25.8223 61.5742 25.9316 61.916C26.041 62.2533 26.0957 62.6657 26.0957 63.1533V68H24.8242V63.1396C24.8242 62.7523 24.7673 62.4424 24.6533 62.21C24.5394 61.973 24.373 61.8021 24.1543 61.6973C23.9355 61.5879 23.6667 61.5332 23.3477 61.5332C23.0332 61.5332 22.7461 61.5993 22.4863 61.7314C22.2311 61.8636 22.0101 62.0459 21.8232 62.2783C21.641 62.5107 21.4974 62.7773 21.3926 63.0781C21.2923 63.3743 21.2422 63.6888 21.2422 64.0215ZM29.9033 68H28.6387V59.8242C28.6387 59.291 28.7367 58.8421 28.9326 58.4775C29.1331 58.1084 29.4202 57.8304 29.7939 57.6436C30.1722 57.4521 30.6302 57.3564 31.168 57.3564C31.3685 57.3564 31.6191 57.377 31.9199 57.418C32.2253 57.459 32.5488 57.5114 32.8906 57.5752C33.237 57.639 33.5742 57.7051 33.9023 57.7734L33.3145 58.6895C32.8815 58.6074 32.4919 58.5459 32.1455 58.5049C31.7992 58.4593 31.5052 58.4365 31.2637 58.4365C30.9674 58.4365 30.7168 58.4912 30.5117 58.6006C30.3112 58.7054 30.1585 58.8604 30.0537 59.0654C29.9535 59.2705 29.9033 59.5234 29.9033 59.8242V68ZM32.6377 68V57.7734H33.9023V68H32.6377ZM31.4756 60.6035V61.5742H27.4697V60.6035H31.4756ZM40.499 66.291V60.6035H41.7705V68H40.5605L40.499 66.291ZM40.7383 64.7324L41.2646 64.7188C41.2646 65.2109 41.2122 65.6667 41.1074 66.0859C41.0072 66.5007 40.8431 66.8607 40.6152 67.166C40.3874 67.4714 40.0889 67.7106 39.7197 67.8838C39.3506 68.0524 38.9017 68.1367 38.373 68.1367C38.013 68.1367 37.6826 68.0843 37.3818 67.9795C37.0856 67.8747 36.8304 67.7129 36.6162 67.4941C36.402 67.2754 36.2357 66.9906 36.1172 66.6396C36.0033 66.2887 35.9463 65.8672 35.9463 65.375V60.6035H37.2109V65.3887C37.2109 65.7214 37.2474 65.9971 37.3203 66.2158C37.3978 66.43 37.5003 66.6009 37.6279 66.7285C37.7601 66.8516 37.9059 66.9382 38.0654 66.9883C38.2295 67.0384 38.3981 67.0635 38.5713 67.0635C39.109 67.0635 39.5352 66.9609 39.8496 66.7559C40.1641 66.5462 40.3896 66.266 40.5264 65.915C40.6676 65.5596 40.7383 65.1654 40.7383 64.7324ZM46.7676 68.1367C46.2526 68.1367 45.7855 68.0501 45.3662 67.877C44.9515 67.6992 44.5938 67.4508 44.293 67.1318C43.9967 66.8128 43.7689 66.4346 43.6094 65.9971C43.4499 65.5596 43.3701 65.0811 43.3701 64.5615V64.2744C43.3701 63.6729 43.459 63.1374 43.6367 62.668C43.8145 62.194 44.056 61.793 44.3613 61.4648C44.6667 61.1367 45.013 60.8883 45.4004 60.7197C45.7878 60.5511 46.1888 60.4668 46.6035 60.4668C47.1322 60.4668 47.5879 60.5579 47.9707 60.7402C48.3581 60.9225 48.6748 61.1777 48.9209 61.5059C49.167 61.8294 49.3493 62.2122 49.4678 62.6543C49.5863 63.0918 49.6455 63.5703 49.6455 64.0898V64.6572H44.1221V63.625H48.3809V63.5293C48.3626 63.2012 48.2943 62.8822 48.1758 62.5723C48.0618 62.2624 47.8796 62.0072 47.6289 61.8066C47.3783 61.6061 47.0365 61.5059 46.6035 61.5059C46.3164 61.5059 46.0521 61.5674 45.8105 61.6904C45.569 61.8089 45.3617 61.9867 45.1885 62.2236C45.0153 62.4606 44.8809 62.75 44.7852 63.0918C44.6895 63.4336 44.6416 63.8278 44.6416 64.2744V64.5615C44.6416 64.9124 44.6895 65.2428 44.7852 65.5527C44.8854 65.8581 45.029 66.127 45.2158 66.3594C45.4072 66.5918 45.6374 66.7741 45.9062 66.9062C46.1797 67.0384 46.4896 67.1045 46.8359 67.1045C47.2826 67.1045 47.6608 67.0133 47.9707 66.8311C48.2806 66.6488 48.5518 66.4049 48.7842 66.0996L49.5498 66.708C49.3903 66.9495 49.1875 67.1797 48.9414 67.3984C48.6953 67.6172 48.3923 67.7949 48.0322 67.9316C47.6768 68.0684 47.2552 68.1367 46.7676 68.1367ZM52.3867 62.1826V68H51.1221V60.6035H52.3184L52.3867 62.1826ZM52.0859 64.0215L51.5596 64.001C51.5641 63.4951 51.6393 63.028 51.7852 62.5996C51.931 62.1667 52.1361 61.7907 52.4004 61.4717C52.6647 61.1527 52.9792 60.9066 53.3438 60.7334C53.7129 60.5557 54.1208 60.4668 54.5674 60.4668C54.932 60.4668 55.2601 60.5169 55.5518 60.6172C55.8434 60.7129 56.0918 60.8678 56.2969 61.082C56.5065 61.2962 56.666 61.5742 56.7754 61.916C56.8848 62.2533 56.9395 62.6657 56.9395 63.1533V68H55.668V63.1396C55.668 62.7523 55.611 62.4424 55.4971 62.21C55.3831 61.973 55.2168 61.8021 54.998 61.6973C54.7793 61.5879 54.5104 61.5332 54.1914 61.5332C53.877 61.5332 53.5898 61.5993 53.3301 61.7314C53.0749 61.8636 52.8538 62.0459 52.667 62.2783C52.4847 62.5107 52.3411 62.7773 52.2363 63.0781C52.1361 63.3743 52.0859 63.6888 52.0859 64.0215ZM61.8203 67.0977C62.1211 67.0977 62.3991 67.0361 62.6543 66.9131C62.9095 66.79 63.1191 66.6214 63.2832 66.4072C63.4473 66.1885 63.5407 65.9401 63.5635 65.6621H64.7666C64.7438 66.0996 64.5957 66.5075 64.3223 66.8857C64.0534 67.2594 63.7002 67.5625 63.2627 67.7949C62.8252 68.0228 62.3444 68.1367 61.8203 68.1367C61.2643 68.1367 60.779 68.0387 60.3643 67.8428C59.9541 67.6468 59.6123 67.3779 59.3389 67.0361C59.07 66.6943 58.8672 66.3024 58.7305 65.8604C58.5983 65.4137 58.5322 64.9421 58.5322 64.4453V64.1582C58.5322 63.6615 58.5983 63.1921 58.7305 62.75C58.8672 62.3034 59.07 61.9092 59.3389 61.5674C59.6123 61.2256 59.9541 60.9567 60.3643 60.7607C60.779 60.5648 61.2643 60.4668 61.8203 60.4668C62.3991 60.4668 62.9049 60.5853 63.3379 60.8223C63.7708 61.0547 64.1104 61.3737 64.3564 61.7793C64.6071 62.1803 64.7438 62.6361 64.7666 63.1465H63.5635C63.5407 62.8411 63.4541 62.5654 63.3037 62.3193C63.1579 62.0732 62.9574 61.8773 62.7021 61.7314C62.4515 61.5811 62.1576 61.5059 61.8203 61.5059C61.4329 61.5059 61.1071 61.5833 60.8428 61.7383C60.583 61.8887 60.3757 62.0938 60.2207 62.3535C60.0703 62.6087 59.9609 62.8936 59.8926 63.208C59.8288 63.5179 59.7969 63.8346 59.7969 64.1582V64.4453C59.7969 64.7689 59.8288 65.0879 59.8926 65.4023C59.9564 65.7168 60.0635 66.0016 60.2139 66.2568C60.3688 66.512 60.5762 66.7171 60.8359 66.8721C61.1003 67.0225 61.4284 67.0977 61.8203 67.0977ZM69.2578 68.1367C68.7428 68.1367 68.2757 68.0501 67.8564 67.877C67.4417 67.6992 67.084 67.4508 66.7832 67.1318C66.487 66.8128 66.2591 66.4346 66.0996 65.9971C65.9401 65.5596 65.8604 65.0811 65.8604 64.5615V64.2744C65.8604 63.6729 65.9492 63.1374 66.127 62.668C66.3047 62.194 66.5462 61.793 66.8516 61.4648C67.1569 61.1367 67.5033 60.8883 67.8906 60.7197C68.278 60.5511 68.679 60.4668 69.0938 60.4668C69.6224 60.4668 70.0781 60.5579 70.4609 60.7402C70.8483 60.9225 71.165 61.1777 71.4111 61.5059C71.6572 61.8294 71.8395 62.2122 71.958 62.6543C72.0765 63.0918 72.1357 63.5703 72.1357 64.0898V64.6572H66.6123V63.625H70.8711V63.5293C70.8529 63.2012 70.7845 62.8822 70.666 62.5723C70.5521 62.2624 70.3698 62.0072 70.1191 61.8066C69.8685 61.6061 69.5267 61.5059 69.0938 61.5059C68.8066 61.5059 68.5423 61.5674 68.3008 61.6904C68.0592 61.8089 67.8519 61.9867 67.6787 62.2236C67.5055 62.4606 67.3711 62.75 67.2754 63.0918C67.1797 63.4336 67.1318 63.8278 67.1318 64.2744V64.5615C67.1318 64.9124 67.1797 65.2428 67.2754 65.5527C67.3757 65.8581 67.5192 66.127 67.7061 66.3594C67.8975 66.5918 68.1276 66.7741 68.3965 66.9062C68.6699 67.0384 68.9798 67.1045 69.3262 67.1045C69.7728 67.1045 70.151 67.0133 70.4609 66.8311C70.7708 66.6488 71.042 66.4049 71.2744 66.0996L72.04 66.708C71.8805 66.9495 71.6777 67.1797 71.4316 67.3984C71.1855 67.6172 70.8825 67.7949 70.5225 67.9316C70.167 68.0684 69.7454 68.1367 69.2578 68.1367ZM74.877 61.7656V68H73.6123V60.6035H74.8428L74.877 61.7656ZM77.1875 60.5625L77.1807 61.7383C77.0758 61.7155 76.9756 61.7018 76.8799 61.6973C76.7887 61.6882 76.6839 61.6836 76.5654 61.6836C76.2738 61.6836 76.0163 61.7292 75.793 61.8203C75.5697 61.9115 75.3805 62.0391 75.2256 62.2031C75.0706 62.3672 74.9476 62.5632 74.8564 62.791C74.7699 63.0143 74.7129 63.2604 74.6855 63.5293L74.3301 63.7344C74.3301 63.2878 74.3734 62.8685 74.46 62.4766C74.5511 62.0846 74.6901 61.7383 74.877 61.4375C75.0638 61.1322 75.3008 60.8952 75.5879 60.7266C75.8796 60.5534 76.2259 60.4668 76.627 60.4668C76.7181 60.4668 76.8229 60.4782 76.9414 60.501C77.0599 60.5192 77.1419 60.5397 77.1875 60.5625ZM82.6631 66.0381C82.6631 65.8558 82.6221 65.6872 82.54 65.5322C82.4626 65.3727 82.3008 65.2292 82.0547 65.1016C81.8132 64.9694 81.4486 64.8555 80.9609 64.7598C80.5508 64.6732 80.1794 64.5706 79.8467 64.4521C79.5186 64.3337 79.2383 64.1901 79.0059 64.0215C78.778 63.8529 78.6025 63.6546 78.4795 63.4268C78.3564 63.1989 78.2949 62.9323 78.2949 62.627C78.2949 62.3353 78.3587 62.0596 78.4863 61.7998C78.6185 61.54 78.8031 61.3099 79.04 61.1094C79.2816 60.9089 79.571 60.7516 79.9082 60.6377C80.2454 60.5238 80.6214 60.4668 81.0361 60.4668C81.6286 60.4668 82.1344 60.5716 82.5537 60.7812C82.973 60.9909 83.2943 61.2712 83.5176 61.6221C83.7409 61.9684 83.8525 62.3535 83.8525 62.7773H82.5879C82.5879 62.5723 82.5264 62.374 82.4033 62.1826C82.2848 61.9867 82.1094 61.8249 81.877 61.6973C81.6491 61.5697 81.3688 61.5059 81.0361 61.5059C80.6852 61.5059 80.4004 61.5605 80.1816 61.6699C79.9674 61.7747 79.8102 61.9092 79.71 62.0732C79.6143 62.2373 79.5664 62.4105 79.5664 62.5928C79.5664 62.7295 79.5892 62.8525 79.6348 62.9619C79.6849 63.0667 79.7715 63.1647 79.8945 63.2559C80.0176 63.3424 80.1908 63.4245 80.4141 63.502C80.6374 63.5794 80.9222 63.6569 81.2686 63.7344C81.8747 63.8711 82.3737 64.0352 82.7656 64.2266C83.1576 64.418 83.4492 64.6527 83.6406 64.9307C83.832 65.2087 83.9277 65.5459 83.9277 65.9424C83.9277 66.266 83.8594 66.5622 83.7227 66.8311C83.5905 67.0999 83.3968 67.3324 83.1416 67.5283C82.891 67.7197 82.5902 67.8701 82.2393 67.9795C81.8929 68.0843 81.5033 68.1367 81.0703 68.1367C80.4186 68.1367 79.8672 68.0205 79.416 67.7881C78.9648 67.5557 78.623 67.2549 78.3906 66.8857C78.1582 66.5166 78.042 66.127 78.042 65.7168H79.3135C79.3317 66.0632 79.432 66.3389 79.6143 66.5439C79.7965 66.7445 80.0199 66.888 80.2842 66.9746C80.5485 67.0566 80.8105 67.0977 81.0703 67.0977C81.4167 67.0977 81.7061 67.0521 81.9385 66.9609C82.1755 66.8698 82.3555 66.7445 82.4785 66.585C82.6016 66.4255 82.6631 66.2432 82.6631 66.0381Z" fill="#212121"/>
<path fill-rule="evenodd" clip-rule="evenodd" d="M101 0C101 3.86599 97.866 7 94 7H101V0Z" fill="#F5F5F5"/>
<path fill-rule="evenodd" clip-rule="evenodd" d="M94 91C97.866 91 101 94.134 101 98L101 91L94 91Z" fill="#F5F5F5"/>
</svg>
