<svg width="101" height="84" viewBox="0 0 101 84" fill="none" xmlns="http://www.w3.org/2000/svg">
<path d="M45.5 22C44.9696 22 44.4609 22.2107 44.0858 22.5858C43.7107 22.9609 43.5 23.4696 43.5 24C43.5 24.5304 43.7107 25.0391 44.0858 25.4142C44.4609 25.7893 44.9696 26 45.5 26C46.0304 26 46.5391 25.7893 46.9142 25.4142C47.2893 25.0391 47.5 24.5304 47.5 24C47.5 23.4696 47.2893 22.9609 46.9142 22.5858C46.5391 22.2107 46.0304 22 45.5 22ZM50.5 22C49.9696 22 49.4609 22.2107 49.0858 22.5858C48.7107 22.9609 48.5 23.4696 48.5 24C48.5 24.5304 48.7107 25.0391 49.0858 25.4142C49.4609 25.7893 49.9696 26 50.5 26C51.0304 26 51.5391 25.7893 51.9142 25.4142C52.2893 25.0391 52.5 24.5304 52.5 24C52.5 23.4696 52.2893 22.9609 51.9142 22.5858C51.5391 22.2107 51.0304 22 50.5 22ZM55.5 22C54.9696 22 54.4609 22.2107 54.0858 22.5858C53.7107 22.9609 53.5 23.4696 53.5 24C53.5 24.5304 53.7107 25.0391 54.0858 25.4142C54.4609 25.7893 54.9696 26 55.5 26C56.0304 26 56.5391 25.7893 56.9142 25.4142C57.2893 25.0391 57.5 24.5304 57.5 24C57.5 23.4696 57.2893 22.9609 56.9142 22.5858C56.5391 22.2107 56.0304 22 55.5 22ZM43.5 27C42.395 27 41.5 27.895 41.5 29V36H42.5V42H44.5V34H43.5V29H44.6016C44.7536 28.257 45.0834 27.584 45.5254 27H43.5ZM49.5 27C47.843 27 46.5 28.343 46.5 30V38H47.5V42H49.5V38H51.5V42H53.5V38H54.5V30C54.5 28.343 53.157 27 51.5 27H49.5ZM55.4746 27C55.9166 27.584 56.2474 28.257 56.3984 29H57.5V34H56.5V42H58.5V36H59.5V29C59.5 27.895 58.605 27 57.5 27H55.4746Z" fill="white"/>
<path d="M18.0703 51.0469V61H16.751V51.0469H18.0703ZM21.543 55.1826V61H20.2783V53.6035H21.4746L21.543 55.1826ZM21.2422 57.0215L20.7158 57.001C20.7204 56.4951 20.7956 56.028 20.9414 55.5996C21.0872 55.1667 21.2923 54.7907 21.5566 54.4717C21.821 54.1527 22.1354 53.9066 22.5 53.7334C22.8691 53.5557 23.277 53.4668 23.7236 53.4668C24.0882 53.4668 24.4163 53.5169 24.708 53.6172C24.9997 53.7129 25.248 53.8678 25.4531 54.082C25.6628 54.2962 25.8223 54.5742 25.9316 54.916C26.041 55.2533 26.0957 55.6657 26.0957 56.1533V61H24.8242V56.1396C24.8242 55.7523 24.7673 55.4424 24.6533 55.21C24.5394 54.973 24.373 54.8021 24.1543 54.6973C23.9355 54.5879 23.6667 54.5332 23.3477 54.5332C23.0332 54.5332 22.7461 54.5993 22.4863 54.7314C22.2311 54.8636 22.0101 55.0459 21.8232 55.2783C21.641 55.5107 21.4974 55.7773 21.3926 56.0781C21.2923 56.3743 21.2422 56.6888 21.2422 57.0215ZM29.9033 61H28.6387V52.8242C28.6387 52.291 28.7367 51.8421 28.9326 51.4775C29.1331 51.1084 29.4202 50.8304 29.7939 50.6436C30.1722 50.4521 30.6302 50.3564 31.168 50.3564C31.3685 50.3564 31.6191 50.377 31.9199 50.418C32.2253 50.459 32.5488 50.5114 32.8906 50.5752C33.237 50.639 33.5742 50.7051 33.9023 50.7734L33.3145 51.6895C32.8815 51.6074 32.4919 51.5459 32.1455 51.5049C31.7992 51.4593 31.5052 51.4365 31.2637 51.4365C30.9674 51.4365 30.7168 51.4912 30.5117 51.6006C30.3112 51.7054 30.1585 51.8604 30.0537 52.0654C29.9535 52.2705 29.9033 52.5234 29.9033 52.8242V61ZM32.6377 61V50.7734H33.9023V61H32.6377ZM31.4756 53.6035V54.5742H27.4697V53.6035H31.4756ZM40.499 59.291V53.6035H41.7705V61H40.5605L40.499 59.291ZM40.7383 57.7324L41.2646 57.7188C41.2646 58.2109 41.2122 58.6667 41.1074 59.0859C41.0072 59.5007 40.8431 59.8607 40.6152 60.166C40.3874 60.4714 40.0889 60.7106 39.7197 60.8838C39.3506 61.0524 38.9017 61.1367 38.373 61.1367C38.013 61.1367 37.6826 61.0843 37.3818 60.9795C37.0856 60.8747 36.8304 60.7129 36.6162 60.4941C36.402 60.2754 36.2357 59.9906 36.1172 59.6396C36.0033 59.2887 35.9463 58.8672 35.9463 58.375V53.6035H37.2109V58.3887C37.2109 58.7214 37.2474 58.9971 37.3203 59.2158C37.3978 59.43 37.5003 59.6009 37.6279 59.7285C37.7601 59.8516 37.9059 59.9382 38.0654 59.9883C38.2295 60.0384 38.3981 60.0635 38.5713 60.0635C39.109 60.0635 39.5352 59.9609 39.8496 59.7559C40.1641 59.5462 40.3896 59.266 40.5264 58.915C40.6676 58.5596 40.7383 58.1654 40.7383 57.7324ZM46.7676 61.1367C46.2526 61.1367 45.7855 61.0501 45.3662 60.877C44.9515 60.6992 44.5938 60.4508 44.293 60.1318C43.9967 59.8128 43.7689 59.4346 43.6094 58.9971C43.4499 58.5596 43.3701 58.0811 43.3701 57.5615V57.2744C43.3701 56.6729 43.459 56.1374 43.6367 55.668C43.8145 55.194 44.056 54.793 44.3613 54.4648C44.6667 54.1367 45.013 53.8883 45.4004 53.7197C45.7878 53.5511 46.1888 53.4668 46.6035 53.4668C47.1322 53.4668 47.5879 53.5579 47.9707 53.7402C48.3581 53.9225 48.6748 54.1777 48.9209 54.5059C49.167 54.8294 49.3493 55.2122 49.4678 55.6543C49.5863 56.0918 49.6455 56.5703 49.6455 57.0898V57.6572H44.1221V56.625H48.3809V56.5293C48.3626 56.2012 48.2943 55.8822 48.1758 55.5723C48.0618 55.2624 47.8796 55.0072 47.6289 54.8066C47.3783 54.6061 47.0365 54.5059 46.6035 54.5059C46.3164 54.5059 46.0521 54.5674 45.8105 54.6904C45.569 54.8089 45.3617 54.9867 45.1885 55.2236C45.0153 55.4606 44.8809 55.75 44.7852 56.0918C44.6895 56.4336 44.6416 56.8278 44.6416 57.2744V57.5615C44.6416 57.9124 44.6895 58.2428 44.7852 58.5527C44.8854 58.8581 45.029 59.127 45.2158 59.3594C45.4072 59.5918 45.6374 59.7741 45.9062 59.9062C46.1797 60.0384 46.4896 60.1045 46.8359 60.1045C47.2826 60.1045 47.6608 60.0133 47.9707 59.8311C48.2806 59.6488 48.5518 59.4049 48.7842 59.0996L49.5498 59.708C49.3903 59.9495 49.1875 60.1797 48.9414 60.3984C48.6953 60.6172 48.3923 60.7949 48.0322 60.9316C47.6768 61.0684 47.2552 61.1367 46.7676 61.1367ZM52.3867 55.1826V61H51.1221V53.6035H52.3184L52.3867 55.1826ZM52.0859 57.0215L51.5596 57.001C51.5641 56.4951 51.6393 56.028 51.7852 55.5996C51.931 55.1667 52.1361 54.7907 52.4004 54.4717C52.6647 54.1527 52.9792 53.9066 53.3438 53.7334C53.7129 53.5557 54.1208 53.4668 54.5674 53.4668C54.932 53.4668 55.2601 53.5169 55.5518 53.6172C55.8434 53.7129 56.0918 53.8678 56.2969 54.082C56.5065 54.2962 56.666 54.5742 56.7754 54.916C56.8848 55.2533 56.9395 55.6657 56.9395 56.1533V61H55.668V56.1396C55.668 55.7523 55.611 55.4424 55.4971 55.21C55.3831 54.973 55.2168 54.8021 54.998 54.6973C54.7793 54.5879 54.5104 54.5332 54.1914 54.5332C53.877 54.5332 53.5898 54.5993 53.3301 54.7314C53.0749 54.8636 52.8538 55.0459 52.667 55.2783C52.4847 55.5107 52.3411 55.7773 52.2363 56.0781C52.1361 56.3743 52.0859 56.6888 52.0859 57.0215ZM61.8203 60.0977C62.1211 60.0977 62.3991 60.0361 62.6543 59.9131C62.9095 59.79 63.1191 59.6214 63.2832 59.4072C63.4473 59.1885 63.5407 58.9401 63.5635 58.6621H64.7666C64.7438 59.0996 64.5957 59.5075 64.3223 59.8857C64.0534 60.2594 63.7002 60.5625 63.2627 60.7949C62.8252 61.0228 62.3444 61.1367 61.8203 61.1367C61.2643 61.1367 60.779 61.0387 60.3643 60.8428C59.9541 60.6468 59.6123 60.3779 59.3389 60.0361C59.07 59.6943 58.8672 59.3024 58.7305 58.8604C58.5983 58.4137 58.5322 57.9421 58.5322 57.4453V57.1582C58.5322 56.6615 58.5983 56.1921 58.7305 55.75C58.8672 55.3034 59.07 54.9092 59.3389 54.5674C59.6123 54.2256 59.9541 53.9567 60.3643 53.7607C60.779 53.5648 61.2643 53.4668 61.8203 53.4668C62.3991 53.4668 62.9049 53.5853 63.3379 53.8223C63.7708 54.0547 64.1104 54.3737 64.3564 54.7793C64.6071 55.1803 64.7438 55.6361 64.7666 56.1465H63.5635C63.5407 55.8411 63.4541 55.5654 63.3037 55.3193C63.1579 55.0732 62.9574 54.8773 62.7021 54.7314C62.4515 54.5811 62.1576 54.5059 61.8203 54.5059C61.4329 54.5059 61.1071 54.5833 60.8428 54.7383C60.583 54.8887 60.3757 55.0938 60.2207 55.3535C60.0703 55.6087 59.9609 55.8936 59.8926 56.208C59.8288 56.5179 59.7969 56.8346 59.7969 57.1582V57.4453C59.7969 57.7689 59.8288 58.0879 59.8926 58.4023C59.9564 58.7168 60.0635 59.0016 60.2139 59.2568C60.3688 59.512 60.5762 59.7171 60.8359 59.8721C61.1003 60.0225 61.4284 60.0977 61.8203 60.0977ZM69.2578 61.1367C68.7428 61.1367 68.2757 61.0501 67.8564 60.877C67.4417 60.6992 67.084 60.4508 66.7832 60.1318C66.487 59.8128 66.2591 59.4346 66.0996 58.9971C65.9401 58.5596 65.8604 58.0811 65.8604 57.5615V57.2744C65.8604 56.6729 65.9492 56.1374 66.127 55.668C66.3047 55.194 66.5462 54.793 66.8516 54.4648C67.1569 54.1367 67.5033 53.8883 67.8906 53.7197C68.278 53.5511 68.679 53.4668 69.0938 53.4668C69.6224 53.4668 70.0781 53.5579 70.4609 53.7402C70.8483 53.9225 71.165 54.1777 71.4111 54.5059C71.6572 54.8294 71.8395 55.2122 71.958 55.6543C72.0765 56.0918 72.1357 56.5703 72.1357 57.0898V57.6572H66.6123V56.625H70.8711V56.5293C70.8529 56.2012 70.7845 55.8822 70.666 55.5723C70.5521 55.2624 70.3698 55.0072 70.1191 54.8066C69.8685 54.6061 69.5267 54.5059 69.0938 54.5059C68.8066 54.5059 68.5423 54.5674 68.3008 54.6904C68.0592 54.8089 67.8519 54.9867 67.6787 55.2236C67.5055 55.4606 67.3711 55.75 67.2754 56.0918C67.1797 56.4336 67.1318 56.8278 67.1318 57.2744V57.5615C67.1318 57.9124 67.1797 58.2428 67.2754 58.5527C67.3757 58.8581 67.5192 59.127 67.7061 59.3594C67.8975 59.5918 68.1276 59.7741 68.3965 59.9062C68.6699 60.0384 68.9798 60.1045 69.3262 60.1045C69.7728 60.1045 70.151 60.0133 70.4609 59.8311C70.7708 59.6488 71.042 59.4049 71.2744 59.0996L72.04 59.708C71.8805 59.9495 71.6777 60.1797 71.4316 60.3984C71.1855 60.6172 70.8825 60.7949 70.5225 60.9316C70.167 61.0684 69.7454 61.1367 69.2578 61.1367ZM74.877 54.7656V61H73.6123V53.6035H74.8428L74.877 54.7656ZM77.1875 53.5625L77.1807 54.7383C77.0758 54.7155 76.9756 54.7018 76.8799 54.6973C76.7887 54.6882 76.6839 54.6836 76.5654 54.6836C76.2738 54.6836 76.0163 54.7292 75.793 54.8203C75.5697 54.9115 75.3805 55.0391 75.2256 55.2031C75.0706 55.3672 74.9476 55.5632 74.8564 55.791C74.7699 56.0143 74.7129 56.2604 74.6855 56.5293L74.3301 56.7344C74.3301 56.2878 74.3734 55.8685 74.46 55.4766C74.5511 55.0846 74.6901 54.7383 74.877 54.4375C75.0638 54.1322 75.3008 53.8952 75.5879 53.7266C75.8796 53.5534 76.2259 53.4668 76.627 53.4668C76.7181 53.4668 76.8229 53.4782 76.9414 53.501C77.0599 53.5192 77.1419 53.5397 77.1875 53.5625ZM82.6631 59.0381C82.6631 58.8558 82.6221 58.6872 82.54 58.5322C82.4626 58.3727 82.3008 58.2292 82.0547 58.1016C81.8132 57.9694 81.4486 57.8555 80.9609 57.7598C80.5508 57.6732 80.1794 57.5706 79.8467 57.4521C79.5186 57.3337 79.2383 57.1901 79.0059 57.0215C78.778 56.8529 78.6025 56.6546 78.4795 56.4268C78.3564 56.1989 78.2949 55.9323 78.2949 55.627C78.2949 55.3353 78.3587 55.0596 78.4863 54.7998C78.6185 54.54 78.8031 54.3099 79.04 54.1094C79.2816 53.9089 79.571 53.7516 79.9082 53.6377C80.2454 53.5238 80.6214 53.4668 81.0361 53.4668C81.6286 53.4668 82.1344 53.5716 82.5537 53.7812C82.973 53.9909 83.2943 54.2712 83.5176 54.6221C83.7409 54.9684 83.8525 55.3535 83.8525 55.7773H82.5879C82.5879 55.5723 82.5264 55.374 82.4033 55.1826C82.2848 54.9867 82.1094 54.8249 81.877 54.6973C81.6491 54.5697 81.3688 54.5059 81.0361 54.5059C80.6852 54.5059 80.4004 54.5605 80.1816 54.6699C79.9674 54.7747 79.8102 54.9092 79.71 55.0732C79.6143 55.2373 79.5664 55.4105 79.5664 55.5928C79.5664 55.7295 79.5892 55.8525 79.6348 55.9619C79.6849 56.0667 79.7715 56.1647 79.8945 56.2559C80.0176 56.3424 80.1908 56.4245 80.4141 56.502C80.6374 56.5794 80.9222 56.6569 81.2686 56.7344C81.8747 56.8711 82.3737 57.0352 82.7656 57.2266C83.1576 57.418 83.4492 57.6527 83.6406 57.9307C83.832 58.2087 83.9277 58.5459 83.9277 58.9424C83.9277 59.266 83.8594 59.5622 83.7227 59.8311C83.5905 60.0999 83.3968 60.3324 83.1416 60.5283C82.891 60.7197 82.5902 60.8701 82.2393 60.9795C81.8929 61.0843 81.5033 61.1367 81.0703 61.1367C80.4186 61.1367 79.8672 61.0205 79.416 60.7881C78.9648 60.5557 78.623 60.2549 78.3906 59.8857C78.1582 59.5166 78.042 59.127 78.042 58.7168H79.3135C79.3317 59.0632 79.432 59.3389 79.6143 59.5439C79.7965 59.7445 80.0199 59.888 80.2842 59.9746C80.5485 60.0566 80.8105 60.0977 81.0703 60.0977C81.4167 60.0977 81.7061 60.0521 81.9385 59.9609C82.1755 59.8698 82.3555 59.7445 82.4785 59.585C82.6016 59.4255 82.6631 59.2432 82.6631 59.0381Z" fill="white"/>
</svg>
