<svg width="101" height="98" viewBox="0 0 101 98" fill="none" xmlns="http://www.w3.org/2000/svg">
<rect width="101" height="84" transform="translate(0 7)" fill="#F5F5F5"/>
<path d="M42.5 30V32H58.5V30H42.5ZM42.5 34L40.5 40V42H41.5V48H51.5V42H57.5V48H59.5V42H60.5V40L58.5 34H42.5ZM43.5 42H49.5V46H43.5V42Z" fill="#212121"/>
<path d="M13.0723 58.0469H14.3506L17.6113 66.1611L20.8652 58.0469H22.1504L18.1035 68H17.1055L13.0723 58.0469ZM12.6553 58.0469H13.7832L13.9678 64.1172V68H12.6553V58.0469ZM21.4326 58.0469H22.5605V68H21.248V64.1172L21.4326 58.0469ZM29.0479 66.7354V62.9277C29.0479 62.6361 28.9886 62.3831 28.8701 62.1689C28.7562 61.9502 28.583 61.7816 28.3506 61.6631C28.1182 61.5446 27.8311 61.4854 27.4893 61.4854C27.1702 61.4854 26.89 61.54 26.6484 61.6494C26.4115 61.7588 26.2246 61.9023 26.0879 62.0801C25.9557 62.2578 25.8896 62.4492 25.8896 62.6543H24.625C24.625 62.39 24.6934 62.1279 24.8301 61.8682C24.9668 61.6084 25.1628 61.3737 25.418 61.1641C25.6777 60.9499 25.9876 60.7812 26.3477 60.6582C26.7122 60.5306 27.1178 60.4668 27.5645 60.4668C28.1022 60.4668 28.5762 60.5579 28.9863 60.7402C29.401 60.9225 29.7246 61.1982 29.957 61.5674C30.194 61.932 30.3125 62.39 30.3125 62.9414V66.3867C30.3125 66.6328 30.333 66.8949 30.374 67.1729C30.4196 67.4508 30.4857 67.6901 30.5723 67.8906V68H29.2529C29.1891 67.8542 29.139 67.6605 29.1025 67.4189C29.0661 67.1729 29.0479 66.945 29.0479 66.7354ZM29.2666 63.5156L29.2803 64.4043H28.002C27.6419 64.4043 27.3206 64.4339 27.0381 64.4932C26.7555 64.5479 26.5186 64.6322 26.3271 64.7461C26.1357 64.86 25.9899 65.0036 25.8896 65.1768C25.7894 65.3454 25.7393 65.5436 25.7393 65.7715C25.7393 66.0039 25.7917 66.2158 25.8965 66.4072C26.0013 66.5986 26.1585 66.7513 26.3682 66.8652C26.5824 66.9746 26.8444 67.0293 27.1543 67.0293C27.5417 67.0293 27.8835 66.9473 28.1797 66.7832C28.4759 66.6191 28.7106 66.4186 28.8838 66.1816C29.0615 65.9447 29.1572 65.7145 29.1709 65.4912L29.7109 66.0996C29.679 66.291 29.5924 66.5029 29.4512 66.7354C29.3099 66.9678 29.1208 67.1911 28.8838 67.4053C28.6514 67.6149 28.3734 67.7904 28.0498 67.9316C27.7308 68.0684 27.3708 68.1367 26.9697 68.1367C26.4684 68.1367 26.0286 68.0387 25.6504 67.8428C25.2767 67.6468 24.985 67.3848 24.7754 67.0566C24.5703 66.724 24.4678 66.3525 24.4678 65.9424C24.4678 65.5459 24.5452 65.1973 24.7002 64.8965C24.8551 64.5911 25.0785 64.3382 25.3701 64.1377C25.6618 63.9326 26.0127 63.7777 26.4229 63.6729C26.833 63.568 27.291 63.5156 27.7969 63.5156H29.2666ZM33.5664 61.7656V68H32.3018V60.6035H33.5322L33.5664 61.7656ZM35.877 60.5625L35.8701 61.7383C35.7653 61.7155 35.665 61.7018 35.5693 61.6973C35.4782 61.6882 35.3734 61.6836 35.2549 61.6836C34.9632 61.6836 34.7057 61.7292 34.4824 61.8203C34.2591 61.9115 34.07 62.0391 33.915 62.2031C33.7601 62.3672 33.637 62.5632 33.5459 62.791C33.4593 63.0143 33.4023 63.2604 33.375 63.5293L33.0195 63.7344C33.0195 63.2878 33.0628 62.8685 33.1494 62.4766C33.2406 62.0846 33.3796 61.7383 33.5664 61.4375C33.7533 61.1322 33.9902 60.8952 34.2773 60.7266C34.569 60.5534 34.9154 60.4668 35.3164 60.4668C35.4076 60.4668 35.5124 60.4782 35.6309 60.501C35.7493 60.5192 35.8314 60.5397 35.877 60.5625ZM38.3174 57.5V68H37.0459V57.5H38.3174ZM42.8359 60.6035L39.6094 64.0557L37.8047 65.9287L37.7021 64.582L38.9941 63.0371L41.291 60.6035H42.8359ZM41.6807 68L39.042 64.4727L39.6982 63.3447L43.1709 68H41.6807ZM47.0742 68.1367C46.5592 68.1367 46.0921 68.0501 45.6729 67.877C45.2581 67.6992 44.9004 67.4508 44.5996 67.1318C44.3034 66.8128 44.0755 66.4346 43.916 65.9971C43.7565 65.5596 43.6768 65.0811 43.6768 64.5615V64.2744C43.6768 63.6729 43.7656 63.1374 43.9434 62.668C44.1211 62.194 44.3626 61.793 44.668 61.4648C44.9733 61.1367 45.3197 60.8883 45.707 60.7197C46.0944 60.5511 46.4954 60.4668 46.9102 60.4668C47.4388 60.4668 47.8945 60.5579 48.2773 60.7402C48.6647 60.9225 48.9814 61.1777 49.2275 61.5059C49.4736 61.8294 49.6559 62.2122 49.7744 62.6543C49.8929 63.0918 49.9521 63.5703 49.9521 64.0898V64.6572H44.4287V63.625H48.6875V63.5293C48.6693 63.2012 48.6009 62.8822 48.4824 62.5723C48.3685 62.2624 48.1862 62.0072 47.9355 61.8066C47.6849 61.6061 47.3431 61.5059 46.9102 61.5059C46.623 61.5059 46.3587 61.5674 46.1172 61.6904C45.8757 61.8089 45.6683 61.9867 45.4951 62.2236C45.3219 62.4606 45.1875 62.75 45.0918 63.0918C44.9961 63.4336 44.9482 63.8278 44.9482 64.2744V64.5615C44.9482 64.9124 44.9961 65.2428 45.0918 65.5527C45.1921 65.8581 45.3356 66.127 45.5225 66.3594C45.7139 66.5918 45.944 66.7741 46.2129 66.9062C46.4863 67.0384 46.7962 67.1045 47.1426 67.1045C47.5892 67.1045 47.9674 67.0133 48.2773 66.8311C48.5872 66.6488 48.8584 66.4049 49.0908 66.0996L49.8564 66.708C49.6969 66.9495 49.4941 67.1797 49.248 67.3984C49.002 67.6172 48.6989 67.7949 48.3389 67.9316C47.9834 68.0684 47.5618 68.1367 47.0742 68.1367ZM54.5254 60.6035V61.5742H50.5264V60.6035H54.5254ZM51.8799 58.8057H53.1445V66.168C53.1445 66.4186 53.1833 66.6077 53.2607 66.7354C53.3382 66.863 53.4385 66.9473 53.5615 66.9883C53.6846 67.0293 53.8167 67.0498 53.958 67.0498C54.0628 67.0498 54.1722 67.0407 54.2861 67.0225C54.4046 66.9997 54.4935 66.9814 54.5527 66.9678L54.5596 68C54.4593 68.0319 54.3271 68.0615 54.1631 68.0889C54.0036 68.1208 53.8099 68.1367 53.582 68.1367C53.2721 68.1367 52.9873 68.0752 52.7275 67.9521C52.4678 67.8291 52.2604 67.624 52.1055 67.3369C51.9551 67.0452 51.8799 66.6533 51.8799 66.1611V58.8057ZM57.2734 62.0254V70.8438H56.002V60.6035H57.1641L57.2734 62.0254ZM62.2568 64.2402V64.3838C62.2568 64.9215 62.193 65.4206 62.0654 65.8809C61.9378 66.3366 61.751 66.7331 61.5049 67.0703C61.2633 67.4076 60.9648 67.6696 60.6094 67.8564C60.2539 68.0433 59.846 68.1367 59.3857 68.1367C58.9163 68.1367 58.5016 68.0592 58.1416 67.9043C57.7816 67.7493 57.4762 67.5238 57.2256 67.2275C56.9749 66.9313 56.7744 66.5758 56.624 66.1611C56.4782 65.7464 56.3779 65.2793 56.3232 64.7598V63.9941C56.3779 63.4473 56.4805 62.9574 56.6309 62.5244C56.7812 62.0915 56.9795 61.7223 57.2256 61.417C57.4762 61.1071 57.7793 60.8724 58.1348 60.7129C58.4902 60.5488 58.9004 60.4668 59.3652 60.4668C59.8301 60.4668 60.2425 60.5579 60.6025 60.7402C60.9626 60.918 61.2656 61.1732 61.5117 61.5059C61.7578 61.8385 61.9424 62.2373 62.0654 62.7021C62.193 63.1624 62.2568 63.6751 62.2568 64.2402ZM60.9854 64.3838V64.2402C60.9854 63.8711 60.9466 63.5247 60.8691 63.2012C60.7917 62.873 60.6709 62.5859 60.5068 62.3398C60.3473 62.0892 60.1423 61.8932 59.8916 61.752C59.641 61.6061 59.3424 61.5332 58.9961 61.5332C58.6771 61.5332 58.3991 61.5879 58.1621 61.6973C57.9297 61.8066 57.7314 61.9548 57.5674 62.1416C57.4033 62.3239 57.2689 62.5335 57.1641 62.7705C57.0638 63.0029 56.9886 63.2445 56.9385 63.4951V65.2656C57.0296 65.5846 57.1572 65.8854 57.3213 66.168C57.4854 66.446 57.7041 66.6715 57.9775 66.8447C58.251 67.0133 58.5951 67.0977 59.0098 67.0977C59.3516 67.0977 59.6455 67.027 59.8916 66.8857C60.1423 66.7399 60.3473 66.5417 60.5068 66.291C60.6709 66.0404 60.7917 65.7533 60.8691 65.4297C60.9466 65.1016 60.9854 64.7529 60.9854 64.3838ZM65.2441 57.5V68H63.9727V57.5H65.2441ZM71.6357 66.7354V62.9277C71.6357 62.6361 71.5765 62.3831 71.458 62.1689C71.3441 61.9502 71.1709 61.7816 70.9385 61.6631C70.7061 61.5446 70.4189 61.4854 70.0771 61.4854C69.7581 61.4854 69.4779 61.54 69.2363 61.6494C68.9993 61.7588 68.8125 61.9023 68.6758 62.0801C68.5436 62.2578 68.4775 62.4492 68.4775 62.6543H67.2129C67.2129 62.39 67.2812 62.1279 67.418 61.8682C67.5547 61.6084 67.7507 61.3737 68.0059 61.1641C68.2656 60.9499 68.5755 60.7812 68.9355 60.6582C69.3001 60.5306 69.7057 60.4668 70.1523 60.4668C70.6901 60.4668 71.1641 60.5579 71.5742 60.7402C71.9889 60.9225 72.3125 61.1982 72.5449 61.5674C72.7819 61.932 72.9004 62.39 72.9004 62.9414V66.3867C72.9004 66.6328 72.9209 66.8949 72.9619 67.1729C73.0075 67.4508 73.0736 67.6901 73.1602 67.8906V68H71.8408C71.777 67.8542 71.7269 67.6605 71.6904 67.4189C71.654 67.1729 71.6357 66.945 71.6357 66.7354ZM71.8545 63.5156L71.8682 64.4043H70.5898C70.2298 64.4043 69.9085 64.4339 69.626 64.4932C69.3434 64.5479 69.1064 64.6322 68.915 64.7461C68.7236 64.86 68.5778 65.0036 68.4775 65.1768C68.3773 65.3454 68.3271 65.5436 68.3271 65.7715C68.3271 66.0039 68.3796 66.2158 68.4844 66.4072C68.5892 66.5986 68.7464 66.7513 68.9561 66.8652C69.1702 66.9746 69.4323 67.0293 69.7422 67.0293C70.1296 67.0293 70.4714 66.9473 70.7676 66.7832C71.0638 66.6191 71.2985 66.4186 71.4717 66.1816C71.6494 65.9447 71.7451 65.7145 71.7588 65.4912L72.2988 66.0996C72.2669 66.291 72.1803 66.5029 72.0391 66.7354C71.8978 66.9678 71.7087 67.1911 71.4717 67.4053C71.2393 67.6149 70.9613 67.7904 70.6377 67.9316C70.3187 68.0684 69.9587 68.1367 69.5576 68.1367C69.0563 68.1367 68.6165 68.0387 68.2383 67.8428C67.8646 67.6468 67.5729 67.3848 67.3633 67.0566C67.1582 66.724 67.0557 66.3525 67.0557 65.9424C67.0557 65.5459 67.1331 65.1973 67.2881 64.8965C67.443 64.5911 67.6663 64.3382 67.958 64.1377C68.2497 63.9326 68.6006 63.7777 69.0107 63.6729C69.4209 63.568 69.8789 63.5156 70.3848 63.5156H71.8545ZM77.8496 67.0977C78.1504 67.0977 78.4284 67.0361 78.6836 66.9131C78.9388 66.79 79.1484 66.6214 79.3125 66.4072C79.4766 66.1885 79.57 65.9401 79.5928 65.6621H80.7959C80.7731 66.0996 80.625 66.5075 80.3516 66.8857C80.0827 67.2594 79.7295 67.5625 79.292 67.7949C78.8545 68.0228 78.3737 68.1367 77.8496 68.1367C77.2936 68.1367 76.8083 68.0387 76.3936 67.8428C75.9834 67.6468 75.6416 67.3779 75.3682 67.0361C75.0993 66.6943 74.8965 66.3024 74.7598 65.8604C74.6276 65.4137 74.5615 64.9421 74.5615 64.4453V64.1582C74.5615 63.6615 74.6276 63.1921 74.7598 62.75C74.8965 62.3034 75.0993 61.9092 75.3682 61.5674C75.6416 61.2256 75.9834 60.9567 76.3936 60.7607C76.8083 60.5648 77.2936 60.4668 77.8496 60.4668C78.4284 60.4668 78.9342 60.5853 79.3672 60.8223C79.8001 61.0547 80.1396 61.3737 80.3857 61.7793C80.6364 62.1803 80.7731 62.6361 80.7959 63.1465H79.5928C79.57 62.8411 79.4834 62.5654 79.333 62.3193C79.1872 62.0732 78.9867 61.8773 78.7314 61.7314C78.4808 61.5811 78.1868 61.5059 77.8496 61.5059C77.4622 61.5059 77.1364 61.5833 76.8721 61.7383C76.6123 61.8887 76.4049 62.0938 76.25 62.3535C76.0996 62.6087 75.9902 62.8936 75.9219 63.208C75.8581 63.5179 75.8262 63.8346 75.8262 64.1582V64.4453C75.8262 64.7689 75.8581 65.0879 75.9219 65.4023C75.9857 65.7168 76.0928 66.0016 76.2432 66.2568C76.3981 66.512 76.6055 66.7171 76.8652 66.8721C77.1296 67.0225 77.4577 67.0977 77.8496 67.0977ZM85.2871 68.1367C84.7721 68.1367 84.305 68.0501 83.8857 67.877C83.471 67.6992 83.1133 67.4508 82.8125 67.1318C82.5163 66.8128 82.2884 66.4346 82.1289 65.9971C81.9694 65.5596 81.8896 65.0811 81.8896 64.5615V64.2744C81.8896 63.6729 81.9785 63.1374 82.1562 62.668C82.334 62.194 82.5755 61.793 82.8809 61.4648C83.1862 61.1367 83.5326 60.8883 83.9199 60.7197C84.3073 60.5511 84.7083 60.4668 85.123 60.4668C85.6517 60.4668 86.1074 60.5579 86.4902 60.7402C86.8776 60.9225 87.1943 61.1777 87.4404 61.5059C87.6865 61.8294 87.8688 62.2122 87.9873 62.6543C88.1058 63.0918 88.165 63.5703 88.165 64.0898V64.6572H82.6416V63.625H86.9004V63.5293C86.8822 63.2012 86.8138 62.8822 86.6953 62.5723C86.5814 62.2624 86.3991 62.0072 86.1484 61.8066C85.8978 61.6061 85.556 61.5059 85.123 61.5059C84.8359 61.5059 84.5716 61.5674 84.3301 61.6904C84.0885 61.8089 83.8812 61.9867 83.708 62.2236C83.5348 62.4606 83.4004 62.75 83.3047 63.0918C83.209 63.4336 83.1611 63.8278 83.1611 64.2744V64.5615C83.1611 64.9124 83.209 65.2428 83.3047 65.5527C83.4049 65.8581 83.5485 66.127 83.7354 66.3594C83.9268 66.5918 84.1569 66.7741 84.4258 66.9062C84.6992 67.0384 85.0091 67.1045 85.3555 67.1045C85.8021 67.1045 86.1803 67.0133 86.4902 66.8311C86.8001 66.6488 87.0713 66.4049 87.3037 66.0996L88.0693 66.708C87.9098 66.9495 87.707 67.1797 87.4609 67.3984C87.2148 67.6172 86.9118 67.7949 86.5518 67.9316C86.1963 68.0684 85.7747 68.1367 85.2871 68.1367Z" fill="#212121"/>
<path fill-rule="evenodd" clip-rule="evenodd" d="M101 0C101 3.86599 97.866 7 94 7H101V0Z" fill="#F5F5F5"/>
<path fill-rule="evenodd" clip-rule="evenodd" d="M94 91C97.866 91 101 94.134 101 98L101 91L94 91Z" fill="#F5F5F5"/>
</svg>
