<svg width="101" height="84" viewBox="0 0 101 84" fill="none" xmlns="http://www.w3.org/2000/svg">
<path d="M42.5 23V25H58.5V23H42.5ZM42.5 27L40.5 33V35H41.5V41H51.5V35H57.5V41H59.5V35H60.5V33L58.5 27H42.5ZM43.5 35H49.5V39H43.5V35Z" fill="white"/>
<path d="M13.0723 51.0469H14.3506L17.6113 59.1611L20.8652 51.0469H22.1504L18.1035 61H17.1055L13.0723 51.0469ZM12.6553 51.0469H13.7832L13.9678 57.1172V61H12.6553V51.0469ZM21.4326 51.0469H22.5605V61H21.248V57.1172L21.4326 51.0469ZM29.0479 59.7354V55.9277C29.0479 55.6361 28.9886 55.3831 28.8701 55.1689C28.7562 54.9502 28.583 54.7816 28.3506 54.6631C28.1182 54.5446 27.8311 54.4854 27.4893 54.4854C27.1702 54.4854 26.89 54.54 26.6484 54.6494C26.4115 54.7588 26.2246 54.9023 26.0879 55.0801C25.9557 55.2578 25.8896 55.4492 25.8896 55.6543H24.625C24.625 55.39 24.6934 55.1279 24.8301 54.8682C24.9668 54.6084 25.1628 54.3737 25.418 54.1641C25.6777 53.9499 25.9876 53.7812 26.3477 53.6582C26.7122 53.5306 27.1178 53.4668 27.5645 53.4668C28.1022 53.4668 28.5762 53.5579 28.9863 53.7402C29.401 53.9225 29.7246 54.1982 29.957 54.5674C30.194 54.932 30.3125 55.39 30.3125 55.9414V59.3867C30.3125 59.6328 30.333 59.8949 30.374 60.1729C30.4196 60.4508 30.4857 60.6901 30.5723 60.8906V61H29.2529C29.1891 60.8542 29.139 60.6605 29.1025 60.4189C29.0661 60.1729 29.0479 59.945 29.0479 59.7354ZM29.2666 56.5156L29.2803 57.4043H28.002C27.6419 57.4043 27.3206 57.4339 27.0381 57.4932C26.7555 57.5479 26.5186 57.6322 26.3271 57.7461C26.1357 57.86 25.9899 58.0036 25.8896 58.1768C25.7894 58.3454 25.7393 58.5436 25.7393 58.7715C25.7393 59.0039 25.7917 59.2158 25.8965 59.4072C26.0013 59.5986 26.1585 59.7513 26.3682 59.8652C26.5824 59.9746 26.8444 60.0293 27.1543 60.0293C27.5417 60.0293 27.8835 59.9473 28.1797 59.7832C28.4759 59.6191 28.7106 59.4186 28.8838 59.1816C29.0615 58.9447 29.1572 58.7145 29.1709 58.4912L29.7109 59.0996C29.679 59.291 29.5924 59.5029 29.4512 59.7354C29.3099 59.9678 29.1208 60.1911 28.8838 60.4053C28.6514 60.6149 28.3734 60.7904 28.0498 60.9316C27.7308 61.0684 27.3708 61.1367 26.9697 61.1367C26.4684 61.1367 26.0286 61.0387 25.6504 60.8428C25.2767 60.6468 24.985 60.3848 24.7754 60.0566C24.5703 59.724 24.4678 59.3525 24.4678 58.9424C24.4678 58.5459 24.5452 58.1973 24.7002 57.8965C24.8551 57.5911 25.0785 57.3382 25.3701 57.1377C25.6618 56.9326 26.0127 56.7777 26.4229 56.6729C26.833 56.568 27.291 56.5156 27.7969 56.5156H29.2666ZM33.5664 54.7656V61H32.3018V53.6035H33.5322L33.5664 54.7656ZM35.877 53.5625L35.8701 54.7383C35.7653 54.7155 35.665 54.7018 35.5693 54.6973C35.4782 54.6882 35.3734 54.6836 35.2549 54.6836C34.9632 54.6836 34.7057 54.7292 34.4824 54.8203C34.2591 54.9115 34.07 55.0391 33.915 55.2031C33.7601 55.3672 33.637 55.5632 33.5459 55.791C33.4593 56.0143 33.4023 56.2604 33.375 56.5293L33.0195 56.7344C33.0195 56.2878 33.0628 55.8685 33.1494 55.4766C33.2406 55.0846 33.3796 54.7383 33.5664 54.4375C33.7533 54.1322 33.9902 53.8952 34.2773 53.7266C34.569 53.5534 34.9154 53.4668 35.3164 53.4668C35.4076 53.4668 35.5124 53.4782 35.6309 53.501C35.7493 53.5192 35.8314 53.5397 35.877 53.5625ZM38.3174 50.5V61H37.0459V50.5H38.3174ZM42.8359 53.6035L39.6094 57.0557L37.8047 58.9287L37.7021 57.582L38.9941 56.0371L41.291 53.6035H42.8359ZM41.6807 61L39.042 57.4727L39.6982 56.3447L43.1709 61H41.6807ZM47.0742 61.1367C46.5592 61.1367 46.0921 61.0501 45.6729 60.877C45.2581 60.6992 44.9004 60.4508 44.5996 60.1318C44.3034 59.8128 44.0755 59.4346 43.916 58.9971C43.7565 58.5596 43.6768 58.0811 43.6768 57.5615V57.2744C43.6768 56.6729 43.7656 56.1374 43.9434 55.668C44.1211 55.194 44.3626 54.793 44.668 54.4648C44.9733 54.1367 45.3197 53.8883 45.707 53.7197C46.0944 53.5511 46.4954 53.4668 46.9102 53.4668C47.4388 53.4668 47.8945 53.5579 48.2773 53.7402C48.6647 53.9225 48.9814 54.1777 49.2275 54.5059C49.4736 54.8294 49.6559 55.2122 49.7744 55.6543C49.8929 56.0918 49.9521 56.5703 49.9521 57.0898V57.6572H44.4287V56.625H48.6875V56.5293C48.6693 56.2012 48.6009 55.8822 48.4824 55.5723C48.3685 55.2624 48.1862 55.0072 47.9355 54.8066C47.6849 54.6061 47.3431 54.5059 46.9102 54.5059C46.623 54.5059 46.3587 54.5674 46.1172 54.6904C45.8757 54.8089 45.6683 54.9867 45.4951 55.2236C45.3219 55.4606 45.1875 55.75 45.0918 56.0918C44.9961 56.4336 44.9482 56.8278 44.9482 57.2744V57.5615C44.9482 57.9124 44.9961 58.2428 45.0918 58.5527C45.1921 58.8581 45.3356 59.127 45.5225 59.3594C45.7139 59.5918 45.944 59.7741 46.2129 59.9062C46.4863 60.0384 46.7962 60.1045 47.1426 60.1045C47.5892 60.1045 47.9674 60.0133 48.2773 59.8311C48.5872 59.6488 48.8584 59.4049 49.0908 59.0996L49.8564 59.708C49.6969 59.9495 49.4941 60.1797 49.248 60.3984C49.002 60.6172 48.6989 60.7949 48.3389 60.9316C47.9834 61.0684 47.5618 61.1367 47.0742 61.1367ZM54.5254 53.6035V54.5742H50.5264V53.6035H54.5254ZM51.8799 51.8057H53.1445V59.168C53.1445 59.4186 53.1833 59.6077 53.2607 59.7354C53.3382 59.863 53.4385 59.9473 53.5615 59.9883C53.6846 60.0293 53.8167 60.0498 53.958 60.0498C54.0628 60.0498 54.1722 60.0407 54.2861 60.0225C54.4046 59.9997 54.4935 59.9814 54.5527 59.9678L54.5596 61C54.4593 61.0319 54.3271 61.0615 54.1631 61.0889C54.0036 61.1208 53.8099 61.1367 53.582 61.1367C53.2721 61.1367 52.9873 61.0752 52.7275 60.9521C52.4678 60.8291 52.2604 60.624 52.1055 60.3369C51.9551 60.0452 51.8799 59.6533 51.8799 59.1611V51.8057ZM57.2734 55.0254V63.8438H56.002V53.6035H57.1641L57.2734 55.0254ZM62.2568 57.2402V57.3838C62.2568 57.9215 62.193 58.4206 62.0654 58.8809C61.9378 59.3366 61.751 59.7331 61.5049 60.0703C61.2633 60.4076 60.9648 60.6696 60.6094 60.8564C60.2539 61.0433 59.846 61.1367 59.3857 61.1367C58.9163 61.1367 58.5016 61.0592 58.1416 60.9043C57.7816 60.7493 57.4762 60.5238 57.2256 60.2275C56.9749 59.9313 56.7744 59.5758 56.624 59.1611C56.4782 58.7464 56.3779 58.2793 56.3232 57.7598V56.9941C56.3779 56.4473 56.4805 55.9574 56.6309 55.5244C56.7812 55.0915 56.9795 54.7223 57.2256 54.417C57.4762 54.1071 57.7793 53.8724 58.1348 53.7129C58.4902 53.5488 58.9004 53.4668 59.3652 53.4668C59.8301 53.4668 60.2425 53.5579 60.6025 53.7402C60.9626 53.918 61.2656 54.1732 61.5117 54.5059C61.7578 54.8385 61.9424 55.2373 62.0654 55.7021C62.193 56.1624 62.2568 56.6751 62.2568 57.2402ZM60.9854 57.3838V57.2402C60.9854 56.8711 60.9466 56.5247 60.8691 56.2012C60.7917 55.873 60.6709 55.5859 60.5068 55.3398C60.3473 55.0892 60.1423 54.8932 59.8916 54.752C59.641 54.6061 59.3424 54.5332 58.9961 54.5332C58.6771 54.5332 58.3991 54.5879 58.1621 54.6973C57.9297 54.8066 57.7314 54.9548 57.5674 55.1416C57.4033 55.3239 57.2689 55.5335 57.1641 55.7705C57.0638 56.0029 56.9886 56.2445 56.9385 56.4951V58.2656C57.0296 58.5846 57.1572 58.8854 57.3213 59.168C57.4854 59.446 57.7041 59.6715 57.9775 59.8447C58.251 60.0133 58.5951 60.0977 59.0098 60.0977C59.3516 60.0977 59.6455 60.027 59.8916 59.8857C60.1423 59.7399 60.3473 59.5417 60.5068 59.291C60.6709 59.0404 60.7917 58.7533 60.8691 58.4297C60.9466 58.1016 60.9854 57.7529 60.9854 57.3838ZM65.2441 50.5V61H63.9727V50.5H65.2441ZM71.6357 59.7354V55.9277C71.6357 55.6361 71.5765 55.3831 71.458 55.1689C71.3441 54.9502 71.1709 54.7816 70.9385 54.6631C70.7061 54.5446 70.4189 54.4854 70.0771 54.4854C69.7581 54.4854 69.4779 54.54 69.2363 54.6494C68.9993 54.7588 68.8125 54.9023 68.6758 55.0801C68.5436 55.2578 68.4775 55.4492 68.4775 55.6543H67.2129C67.2129 55.39 67.2812 55.1279 67.418 54.8682C67.5547 54.6084 67.7507 54.3737 68.0059 54.1641C68.2656 53.9499 68.5755 53.7812 68.9355 53.6582C69.3001 53.5306 69.7057 53.4668 70.1523 53.4668C70.6901 53.4668 71.1641 53.5579 71.5742 53.7402C71.9889 53.9225 72.3125 54.1982 72.5449 54.5674C72.7819 54.932 72.9004 55.39 72.9004 55.9414V59.3867C72.9004 59.6328 72.9209 59.8949 72.9619 60.1729C73.0075 60.4508 73.0736 60.6901 73.1602 60.8906V61H71.8408C71.777 60.8542 71.7269 60.6605 71.6904 60.4189C71.654 60.1729 71.6357 59.945 71.6357 59.7354ZM71.8545 56.5156L71.8682 57.4043H70.5898C70.2298 57.4043 69.9085 57.4339 69.626 57.4932C69.3434 57.5479 69.1064 57.6322 68.915 57.7461C68.7236 57.86 68.5778 58.0036 68.4775 58.1768C68.3773 58.3454 68.3271 58.5436 68.3271 58.7715C68.3271 59.0039 68.3796 59.2158 68.4844 59.4072C68.5892 59.5986 68.7464 59.7513 68.9561 59.8652C69.1702 59.9746 69.4323 60.0293 69.7422 60.0293C70.1296 60.0293 70.4714 59.9473 70.7676 59.7832C71.0638 59.6191 71.2985 59.4186 71.4717 59.1816C71.6494 58.9447 71.7451 58.7145 71.7588 58.4912L72.2988 59.0996C72.2669 59.291 72.1803 59.5029 72.0391 59.7354C71.8978 59.9678 71.7087 60.1911 71.4717 60.4053C71.2393 60.6149 70.9613 60.7904 70.6377 60.9316C70.3187 61.0684 69.9587 61.1367 69.5576 61.1367C69.0563 61.1367 68.6165 61.0387 68.2383 60.8428C67.8646 60.6468 67.5729 60.3848 67.3633 60.0566C67.1582 59.724 67.0557 59.3525 67.0557 58.9424C67.0557 58.5459 67.1331 58.1973 67.2881 57.8965C67.443 57.5911 67.6663 57.3382 67.958 57.1377C68.2497 56.9326 68.6006 56.7777 69.0107 56.6729C69.4209 56.568 69.8789 56.5156 70.3848 56.5156H71.8545ZM77.8496 60.0977C78.1504 60.0977 78.4284 60.0361 78.6836 59.9131C78.9388 59.79 79.1484 59.6214 79.3125 59.4072C79.4766 59.1885 79.57 58.9401 79.5928 58.6621H80.7959C80.7731 59.0996 80.625 59.5075 80.3516 59.8857C80.0827 60.2594 79.7295 60.5625 79.292 60.7949C78.8545 61.0228 78.3737 61.1367 77.8496 61.1367C77.2936 61.1367 76.8083 61.0387 76.3936 60.8428C75.9834 60.6468 75.6416 60.3779 75.3682 60.0361C75.0993 59.6943 74.8965 59.3024 74.7598 58.8604C74.6276 58.4137 74.5615 57.9421 74.5615 57.4453V57.1582C74.5615 56.6615 74.6276 56.1921 74.7598 55.75C74.8965 55.3034 75.0993 54.9092 75.3682 54.5674C75.6416 54.2256 75.9834 53.9567 76.3936 53.7607C76.8083 53.5648 77.2936 53.4668 77.8496 53.4668C78.4284 53.4668 78.9342 53.5853 79.3672 53.8223C79.8001 54.0547 80.1396 54.3737 80.3857 54.7793C80.6364 55.1803 80.7731 55.6361 80.7959 56.1465H79.5928C79.57 55.8411 79.4834 55.5654 79.333 55.3193C79.1872 55.0732 78.9867 54.8773 78.7314 54.7314C78.4808 54.5811 78.1868 54.5059 77.8496 54.5059C77.4622 54.5059 77.1364 54.5833 76.8721 54.7383C76.6123 54.8887 76.4049 55.0938 76.25 55.3535C76.0996 55.6087 75.9902 55.8936 75.9219 56.208C75.8581 56.5179 75.8262 56.8346 75.8262 57.1582V57.4453C75.8262 57.7689 75.8581 58.0879 75.9219 58.4023C75.9857 58.7168 76.0928 59.0016 76.2432 59.2568C76.3981 59.512 76.6055 59.7171 76.8652 59.8721C77.1296 60.0225 77.4577 60.0977 77.8496 60.0977ZM85.2871 61.1367C84.7721 61.1367 84.305 61.0501 83.8857 60.877C83.471 60.6992 83.1133 60.4508 82.8125 60.1318C82.5163 59.8128 82.2884 59.4346 82.1289 58.9971C81.9694 58.5596 81.8896 58.0811 81.8896 57.5615V57.2744C81.8896 56.6729 81.9785 56.1374 82.1562 55.668C82.334 55.194 82.5755 54.793 82.8809 54.4648C83.1862 54.1367 83.5326 53.8883 83.9199 53.7197C84.3073 53.5511 84.7083 53.4668 85.123 53.4668C85.6517 53.4668 86.1074 53.5579 86.4902 53.7402C86.8776 53.9225 87.1943 54.1777 87.4404 54.5059C87.6865 54.8294 87.8688 55.2122 87.9873 55.6543C88.1058 56.0918 88.165 56.5703 88.165 57.0898V57.6572H82.6416V56.625H86.9004V56.5293C86.8822 56.2012 86.8138 55.8822 86.6953 55.5723C86.5814 55.2624 86.3991 55.0072 86.1484 54.8066C85.8978 54.6061 85.556 54.5059 85.123 54.5059C84.8359 54.5059 84.5716 54.5674 84.3301 54.6904C84.0885 54.8089 83.8812 54.9867 83.708 55.2236C83.5348 55.4606 83.4004 55.75 83.3047 56.0918C83.209 56.4336 83.1611 56.8278 83.1611 57.2744V57.5615C83.1611 57.9124 83.209 58.2428 83.3047 58.5527C83.4049 58.8581 83.5485 59.127 83.7354 59.3594C83.9268 59.5918 84.1569 59.7741 84.4258 59.9062C84.6992 60.0384 85.0091 60.1045 85.3555 60.1045C85.8021 60.1045 86.1803 60.0133 86.4902 59.8311C86.8001 59.6488 87.0713 59.4049 87.3037 59.0996L88.0693 59.708C87.9098 59.9495 87.707 60.1797 87.4609 60.3984C87.2148 60.6172 86.9118 60.7949 86.5518 60.9316C86.1963 61.0684 85.7747 61.1367 85.2871 61.1367Z" fill="white"/>
</svg>
