<svg width="20" height="21" viewBox="0 0 20 21" fill="none" xmlns="http://www.w3.org/2000/svg">
<path d="M10.3061 16.9879L7.73976 19.5597C6.88337 20.4179 5.74488 20.8906 4.53291 20.8906C3.32094 20.8906 2.18241 20.4179 1.32607 19.5597C-0.442024 17.787 -0.442024 14.9034 1.32607 13.1315L5.1743 9.27427C6.94146 7.50243 9.81993 7.50154 11.5889 9.27427C11.9436 9.62881 11.9436 10.2043 11.5889 10.5597C11.2351 10.9151 10.6609 10.9151 10.3062 10.5597C9.2448 9.49607 7.51846 9.4979 6.45707 10.5597L2.60884 14.417C1.54745 15.4806 1.54745 17.2106 2.60884 18.2742C3.63668 19.3042 5.42923 19.3042 6.45707 18.2742L9.02346 15.7024C9.37815 15.3479 9.9524 15.3479 10.3062 15.7024C10.6609 16.0579 10.6609 16.6333 10.3061 16.9879ZM18.6739 8.65062L14.1471 13.187C13.2908 14.0452 12.1523 14.5179 10.9403 14.5179C9.72834 14.5179 8.59074 14.0452 7.73346 13.187C7.37967 12.8315 7.37967 12.2561 7.73346 11.9006C8.08815 11.546 8.66239 11.546 9.01619 11.9006C10.044 12.9306 11.8375 12.9306 12.8644 11.9006L17.3912 7.36513C18.4526 6.3015 18.4526 4.57151 17.3912 3.50787C16.3634 2.47786 14.5708 2.47786 13.543 3.50787L10.464 6.59242C10.1102 6.94786 9.536 6.94786 9.18131 6.59242C8.82751 6.23787 8.82751 5.66242 9.18131 5.30698L12.2602 2.22243C13.1166 1.36334 14.2551 0.890625 15.4671 0.890625C16.6791 0.890625 17.8176 1.36334 18.6739 2.22243C20.442 3.99422 20.442 6.87789 18.6739 8.65062Z" fill="#9397B2"/>
</svg>
