<svg width="101" height="98" viewBox="0 0 101 98" fill="none" xmlns="http://www.w3.org/2000/svg">
<rect width="101" height="84" transform="translate(0 7)" fill="#F9F9FF"/>
<path d="M58.5 30L57.5 31.2852L44.5 36V42L46.9512 42.8887L46.668 43.6895C46.455 44.2905 46.7691 44.9491 47.3711 45.1621L49.5488 45.9336C50.1498 46.1466 50.8104 45.8305 51.0234 45.2285L51.293 44.4648L57.5 46.7148L58.5 48H60.5V30H58.5ZM40.5 36V42H42.5V36H40.5Z" fill="#212121"/>
<path d="M28.6641 64.835H29.9766C29.9082 65.4639 29.7282 66.0267 29.4365 66.5234C29.1449 67.0202 28.7324 67.4144 28.1992 67.7061C27.666 67.9932 27.0007 68.1367 26.2031 68.1367C25.6198 68.1367 25.0889 68.0273 24.6104 67.8086C24.1364 67.5898 23.7285 67.2799 23.3867 66.8789C23.0449 66.4733 22.7806 65.988 22.5938 65.4229C22.4115 64.8532 22.3203 64.2197 22.3203 63.5225V62.5312C22.3203 61.834 22.4115 61.2028 22.5938 60.6377C22.7806 60.068 23.0472 59.5804 23.3936 59.1748C23.7445 58.7692 24.166 58.457 24.6582 58.2383C25.1504 58.0195 25.7041 57.9102 26.3193 57.9102C27.0713 57.9102 27.707 58.0514 28.2266 58.334C28.7461 58.6165 29.1494 59.0085 29.4365 59.5098C29.7282 60.0065 29.9082 60.583 29.9766 61.2393H28.6641C28.6003 60.7744 28.4818 60.3757 28.3086 60.043C28.1354 59.7057 27.8893 59.446 27.5703 59.2637C27.2513 59.0814 26.8343 58.9902 26.3193 58.9902C25.8773 58.9902 25.4876 59.0745 25.1504 59.2432C24.8177 59.4118 24.5374 59.651 24.3096 59.9609C24.0863 60.2708 23.9176 60.6423 23.8037 61.0752C23.6898 61.5081 23.6328 61.9889 23.6328 62.5176V63.5225C23.6328 64.0101 23.6829 64.4681 23.7832 64.8965C23.888 65.3249 24.0452 65.7008 24.2549 66.0244C24.4645 66.348 24.7311 66.6032 25.0547 66.79C25.3783 66.9723 25.7611 67.0635 26.2031 67.0635C26.7637 67.0635 27.2103 66.9746 27.543 66.7969C27.8757 66.6191 28.1263 66.3639 28.2949 66.0312C28.4681 65.6986 28.5911 65.2998 28.6641 64.835ZM32.8477 57.5V68H31.583V57.5H32.8477ZM32.5469 64.0215L32.0205 64.001C32.0251 63.4951 32.1003 63.028 32.2461 62.5996C32.3919 62.1667 32.597 61.7907 32.8613 61.4717C33.1257 61.1527 33.4401 60.9066 33.8047 60.7334C34.1738 60.5557 34.5817 60.4668 35.0283 60.4668C35.3929 60.4668 35.721 60.5169 36.0127 60.6172C36.3044 60.7129 36.5527 60.8678 36.7578 61.082C36.9674 61.2962 37.127 61.5742 37.2363 61.916C37.3457 62.2533 37.4004 62.6657 37.4004 63.1533V68H36.1289V63.1396C36.1289 62.7523 36.0719 62.4424 35.958 62.21C35.8441 61.973 35.6777 61.8021 35.459 61.6973C35.2402 61.5879 34.9714 61.5332 34.6523 61.5332C34.3379 61.5332 34.0508 61.5993 33.791 61.7314C33.5358 61.8636 33.3148 62.0459 33.1279 62.2783C32.9456 62.5107 32.8021 62.7773 32.6973 63.0781C32.597 63.3743 32.5469 63.6888 32.5469 64.0215ZM43.6553 66.7354V62.9277C43.6553 62.6361 43.596 62.3831 43.4775 62.1689C43.3636 61.9502 43.1904 61.7816 42.958 61.6631C42.7256 61.5446 42.4385 61.4854 42.0967 61.4854C41.7777 61.4854 41.4974 61.54 41.2559 61.6494C41.0189 61.7588 40.832 61.9023 40.6953 62.0801C40.5632 62.2578 40.4971 62.4492 40.4971 62.6543H39.2324C39.2324 62.39 39.3008 62.1279 39.4375 61.8682C39.5742 61.6084 39.7702 61.3737 40.0254 61.1641C40.2852 60.9499 40.5951 60.7812 40.9551 60.6582C41.3197 60.5306 41.7253 60.4668 42.1719 60.4668C42.7096 60.4668 43.1836 60.5579 43.5938 60.7402C44.0085 60.9225 44.332 61.1982 44.5645 61.5674C44.8014 61.932 44.9199 62.39 44.9199 62.9414V66.3867C44.9199 66.6328 44.9404 66.8949 44.9814 67.1729C45.027 67.4508 45.0931 67.6901 45.1797 67.8906V68H43.8604C43.7965 67.8542 43.7464 67.6605 43.71 67.4189C43.6735 67.1729 43.6553 66.945 43.6553 66.7354ZM43.874 63.5156L43.8877 64.4043H42.6094C42.2493 64.4043 41.9281 64.4339 41.6455 64.4932C41.363 64.5479 41.126 64.6322 40.9346 64.7461C40.7432 64.86 40.5973 65.0036 40.4971 65.1768C40.3968 65.3454 40.3467 65.5436 40.3467 65.7715C40.3467 66.0039 40.3991 66.2158 40.5039 66.4072C40.6087 66.5986 40.766 66.7513 40.9756 66.8652C41.1898 66.9746 41.4518 67.0293 41.7617 67.0293C42.1491 67.0293 42.4909 66.9473 42.7871 66.7832C43.0833 66.6191 43.318 66.4186 43.4912 66.1816C43.6689 65.9447 43.7646 65.7145 43.7783 65.4912L44.3184 66.0996C44.2865 66.291 44.1999 66.5029 44.0586 66.7354C43.9173 66.9678 43.7282 67.1911 43.4912 67.4053C43.2588 67.6149 42.9808 67.7904 42.6572 67.9316C42.3382 68.0684 41.9782 68.1367 41.5771 68.1367C41.0758 68.1367 40.6361 68.0387 40.2578 67.8428C39.8841 67.6468 39.5924 67.3848 39.3828 67.0566C39.1777 66.724 39.0752 66.3525 39.0752 65.9424C39.0752 65.5459 39.1527 65.1973 39.3076 64.8965C39.4626 64.5911 39.6859 64.3382 39.9775 64.1377C40.2692 63.9326 40.6201 63.7777 41.0303 63.6729C41.4404 63.568 41.8984 63.5156 42.4043 63.5156H43.874ZM48.1738 62.1826V68H46.9092V60.6035H48.1055L48.1738 62.1826ZM47.873 64.0215L47.3467 64.001C47.3512 63.4951 47.4264 63.028 47.5723 62.5996C47.7181 62.1667 47.9232 61.7907 48.1875 61.4717C48.4518 61.1527 48.7663 60.9066 49.1309 60.7334C49.5 60.5557 49.9079 60.4668 50.3545 60.4668C50.7191 60.4668 51.0472 60.5169 51.3389 60.6172C51.6305 60.7129 51.8789 60.8678 52.084 61.082C52.2936 61.2962 52.4531 61.5742 52.5625 61.916C52.6719 62.2533 52.7266 62.6657 52.7266 63.1533V68H51.4551V63.1396C51.4551 62.7523 51.3981 62.4424 51.2842 62.21C51.1702 61.973 51.0039 61.8021 50.7852 61.6973C50.5664 61.5879 50.2975 61.5332 49.9785 61.5332C49.6641 61.5332 49.377 61.5993 49.1172 61.7314C48.862 61.8636 48.641 62.0459 48.4541 62.2783C48.2718 62.5107 48.1283 62.7773 48.0234 63.0781C47.9232 63.3743 47.873 63.6888 47.873 64.0215ZM55.9121 62.1826V68H54.6475V60.6035H55.8438L55.9121 62.1826ZM55.6113 64.0215L55.085 64.001C55.0895 63.4951 55.1647 63.028 55.3105 62.5996C55.4564 62.1667 55.6615 61.7907 55.9258 61.4717C56.1901 61.1527 56.5046 60.9066 56.8691 60.7334C57.2383 60.5557 57.6462 60.4668 58.0928 60.4668C58.4574 60.4668 58.7855 60.5169 59.0771 60.6172C59.3688 60.7129 59.6172 60.8678 59.8223 61.082C60.0319 61.2962 60.1914 61.5742 60.3008 61.916C60.4102 62.2533 60.4648 62.6657 60.4648 63.1533V68H59.1934V63.1396C59.1934 62.7523 59.1364 62.4424 59.0225 62.21C58.9085 61.973 58.7422 61.8021 58.5234 61.6973C58.3047 61.5879 58.0358 61.5332 57.7168 61.5332C57.4023 61.5332 57.1152 61.5993 56.8555 61.7314C56.6003 61.8636 56.3792 62.0459 56.1924 62.2783C56.0101 62.5107 55.8665 62.7773 55.7617 63.0781C55.6615 63.3743 55.6113 63.6888 55.6113 64.0215ZM65.4551 68.1367C64.9401 68.1367 64.473 68.0501 64.0537 67.877C63.639 67.6992 63.2812 67.4508 62.9805 67.1318C62.6842 66.8128 62.4564 66.4346 62.2969 65.9971C62.1374 65.5596 62.0576 65.0811 62.0576 64.5615V64.2744C62.0576 63.6729 62.1465 63.1374 62.3242 62.668C62.502 62.194 62.7435 61.793 63.0488 61.4648C63.3542 61.1367 63.7005 60.8883 64.0879 60.7197C64.4753 60.5511 64.8763 60.4668 65.291 60.4668C65.8197 60.4668 66.2754 60.5579 66.6582 60.7402C67.0456 60.9225 67.3623 61.1777 67.6084 61.5059C67.8545 61.8294 68.0368 62.2122 68.1553 62.6543C68.2738 63.0918 68.333 63.5703 68.333 64.0898V64.6572H62.8096V63.625H67.0684V63.5293C67.0501 63.2012 66.9818 62.8822 66.8633 62.5723C66.7493 62.2624 66.5671 62.0072 66.3164 61.8066C66.0658 61.6061 65.724 61.5059 65.291 61.5059C65.0039 61.5059 64.7396 61.5674 64.498 61.6904C64.2565 61.8089 64.0492 61.9867 63.876 62.2236C63.7028 62.4606 63.5684 62.75 63.4727 63.0918C63.377 63.4336 63.3291 63.8278 63.3291 64.2744V64.5615C63.3291 64.9124 63.377 65.2428 63.4727 65.5527C63.5729 65.8581 63.7165 66.127 63.9033 66.3594C64.0947 66.5918 64.3249 66.7741 64.5938 66.9062C64.8672 67.0384 65.1771 67.1045 65.5234 67.1045C65.9701 67.1045 66.3483 67.0133 66.6582 66.8311C66.9681 66.6488 67.2393 66.4049 67.4717 66.0996L68.2373 66.708C68.0778 66.9495 67.875 67.1797 67.6289 67.3984C67.3828 67.6172 67.0798 67.7949 66.7197 67.9316C66.3643 68.0684 65.9427 68.1367 65.4551 68.1367ZM71.1836 57.5V68H69.9121V57.5H71.1836ZM77.5205 66.0381C77.5205 65.8558 77.4795 65.6872 77.3975 65.5322C77.32 65.3727 77.1582 65.2292 76.9121 65.1016C76.6706 64.9694 76.306 64.8555 75.8184 64.7598C75.4082 64.6732 75.0368 64.5706 74.7041 64.4521C74.376 64.3337 74.0957 64.1901 73.8633 64.0215C73.6354 63.8529 73.46 63.6546 73.3369 63.4268C73.2139 63.1989 73.1523 62.9323 73.1523 62.627C73.1523 62.3353 73.2161 62.0596 73.3438 61.7998C73.4759 61.54 73.6605 61.3099 73.8975 61.1094C74.139 60.9089 74.4284 60.7516 74.7656 60.6377C75.1029 60.5238 75.4788 60.4668 75.8936 60.4668C76.486 60.4668 76.9919 60.5716 77.4111 60.7812C77.8304 60.9909 78.1517 61.2712 78.375 61.6221C78.5983 61.9684 78.71 62.3535 78.71 62.7773H77.4453C77.4453 62.5723 77.3838 62.374 77.2607 62.1826C77.1423 61.9867 76.9668 61.8249 76.7344 61.6973C76.5065 61.5697 76.2262 61.5059 75.8936 61.5059C75.5426 61.5059 75.2578 61.5605 75.0391 61.6699C74.8249 61.7747 74.6676 61.9092 74.5674 62.0732C74.4717 62.2373 74.4238 62.4105 74.4238 62.5928C74.4238 62.7295 74.4466 62.8525 74.4922 62.9619C74.5423 63.0667 74.6289 63.1647 74.752 63.2559C74.875 63.3424 75.0482 63.4245 75.2715 63.502C75.4948 63.5794 75.7796 63.6569 76.126 63.7344C76.7321 63.8711 77.2311 64.0352 77.623 64.2266C78.015 64.418 78.3066 64.6527 78.498 64.9307C78.6895 65.2087 78.7852 65.5459 78.7852 65.9424C78.7852 66.266 78.7168 66.5622 78.5801 66.8311C78.4479 67.0999 78.2542 67.3324 77.999 67.5283C77.7484 67.7197 77.4476 67.8701 77.0967 67.9795C76.7503 68.0843 76.3607 68.1367 75.9277 68.1367C75.276 68.1367 74.7246 68.0205 74.2734 67.7881C73.8223 67.5557 73.4805 67.2549 73.248 66.8857C73.0156 66.5166 72.8994 66.127 72.8994 65.7168H74.1709C74.1891 66.0632 74.2894 66.3389 74.4717 66.5439C74.654 66.7445 74.8773 66.888 75.1416 66.9746C75.4059 67.0566 75.668 67.0977 75.9277 67.0977C76.2741 67.0977 76.5635 67.0521 76.7959 66.9609C77.0329 66.8698 77.2129 66.7445 77.3359 66.585C77.459 66.4255 77.5205 66.2432 77.5205 66.0381Z" fill="#212121"/>
<path fill-rule="evenodd" clip-rule="evenodd" d="M101 0C101 3.86599 97.866 7 94 7H101V0Z" fill="#F9F9FF"/>
<path fill-rule="evenodd" clip-rule="evenodd" d="M94 91C97.866 91 101 94.134 101 98L101 91L94 91Z" fill="#F9F9FF"/>
</svg>
