<svg width="101" height="84" viewBox="0 0 101 84" fill="none" xmlns="http://www.w3.org/2000/svg">
<path d="M58.5 23L57.5 24.2852L44.5 29V35L46.9512 35.8887L46.668 36.6895C46.455 37.2905 46.7691 37.9491 47.3711 38.1621L49.5488 38.9336C50.1498 39.1466 50.8104 38.8305 51.0234 38.2285L51.293 37.4648L57.5 39.7148L58.5 41H60.5V23H58.5ZM40.5 29V35H42.5V29H40.5Z" fill="white"/>
<path d="M28.6641 57.835H29.9766C29.9082 58.4639 29.7282 59.0267 29.4365 59.5234C29.1449 60.0202 28.7324 60.4144 28.1992 60.7061C27.666 60.9932 27.0007 61.1367 26.2031 61.1367C25.6198 61.1367 25.0889 61.0273 24.6104 60.8086C24.1364 60.5898 23.7285 60.2799 23.3867 59.8789C23.0449 59.4733 22.7806 58.988 22.5938 58.4229C22.4115 57.8532 22.3203 57.2197 22.3203 56.5225V55.5312C22.3203 54.834 22.4115 54.2028 22.5938 53.6377C22.7806 53.068 23.0472 52.5804 23.3936 52.1748C23.7445 51.7692 24.166 51.457 24.6582 51.2383C25.1504 51.0195 25.7041 50.9102 26.3193 50.9102C27.0713 50.9102 27.707 51.0514 28.2266 51.334C28.7461 51.6165 29.1494 52.0085 29.4365 52.5098C29.7282 53.0065 29.9082 53.583 29.9766 54.2393H28.6641C28.6003 53.7744 28.4818 53.3757 28.3086 53.043C28.1354 52.7057 27.8893 52.446 27.5703 52.2637C27.2513 52.0814 26.8343 51.9902 26.3193 51.9902C25.8773 51.9902 25.4876 52.0745 25.1504 52.2432C24.8177 52.4118 24.5374 52.651 24.3096 52.9609C24.0863 53.2708 23.9176 53.6423 23.8037 54.0752C23.6898 54.5081 23.6328 54.9889 23.6328 55.5176V56.5225C23.6328 57.0101 23.6829 57.4681 23.7832 57.8965C23.888 58.3249 24.0452 58.7008 24.2549 59.0244C24.4645 59.348 24.7311 59.6032 25.0547 59.79C25.3783 59.9723 25.7611 60.0635 26.2031 60.0635C26.7637 60.0635 27.2103 59.9746 27.543 59.7969C27.8757 59.6191 28.1263 59.3639 28.2949 59.0312C28.4681 58.6986 28.5911 58.2998 28.6641 57.835ZM32.8477 50.5V61H31.583V50.5H32.8477ZM32.5469 57.0215L32.0205 57.001C32.0251 56.4951 32.1003 56.028 32.2461 55.5996C32.3919 55.1667 32.597 54.7907 32.8613 54.4717C33.1257 54.1527 33.4401 53.9066 33.8047 53.7334C34.1738 53.5557 34.5817 53.4668 35.0283 53.4668C35.3929 53.4668 35.721 53.5169 36.0127 53.6172C36.3044 53.7129 36.5527 53.8678 36.7578 54.082C36.9674 54.2962 37.127 54.5742 37.2363 54.916C37.3457 55.2533 37.4004 55.6657 37.4004 56.1533V61H36.1289V56.1396C36.1289 55.7523 36.0719 55.4424 35.958 55.21C35.8441 54.973 35.6777 54.8021 35.459 54.6973C35.2402 54.5879 34.9714 54.5332 34.6523 54.5332C34.3379 54.5332 34.0508 54.5993 33.791 54.7314C33.5358 54.8636 33.3148 55.0459 33.1279 55.2783C32.9456 55.5107 32.8021 55.7773 32.6973 56.0781C32.597 56.3743 32.5469 56.6888 32.5469 57.0215ZM43.6553 59.7354V55.9277C43.6553 55.6361 43.596 55.3831 43.4775 55.1689C43.3636 54.9502 43.1904 54.7816 42.958 54.6631C42.7256 54.5446 42.4385 54.4854 42.0967 54.4854C41.7777 54.4854 41.4974 54.54 41.2559 54.6494C41.0189 54.7588 40.832 54.9023 40.6953 55.0801C40.5632 55.2578 40.4971 55.4492 40.4971 55.6543H39.2324C39.2324 55.39 39.3008 55.1279 39.4375 54.8682C39.5742 54.6084 39.7702 54.3737 40.0254 54.1641C40.2852 53.9499 40.5951 53.7812 40.9551 53.6582C41.3197 53.5306 41.7253 53.4668 42.1719 53.4668C42.7096 53.4668 43.1836 53.5579 43.5938 53.7402C44.0085 53.9225 44.332 54.1982 44.5645 54.5674C44.8014 54.932 44.9199 55.39 44.9199 55.9414V59.3867C44.9199 59.6328 44.9404 59.8949 44.9814 60.1729C45.027 60.4508 45.0931 60.6901 45.1797 60.8906V61H43.8604C43.7965 60.8542 43.7464 60.6605 43.71 60.4189C43.6735 60.1729 43.6553 59.945 43.6553 59.7354ZM43.874 56.5156L43.8877 57.4043H42.6094C42.2493 57.4043 41.9281 57.4339 41.6455 57.4932C41.363 57.5479 41.126 57.6322 40.9346 57.7461C40.7432 57.86 40.5973 58.0036 40.4971 58.1768C40.3968 58.3454 40.3467 58.5436 40.3467 58.7715C40.3467 59.0039 40.3991 59.2158 40.5039 59.4072C40.6087 59.5986 40.766 59.7513 40.9756 59.8652C41.1898 59.9746 41.4518 60.0293 41.7617 60.0293C42.1491 60.0293 42.4909 59.9473 42.7871 59.7832C43.0833 59.6191 43.318 59.4186 43.4912 59.1816C43.6689 58.9447 43.7646 58.7145 43.7783 58.4912L44.3184 59.0996C44.2865 59.291 44.1999 59.5029 44.0586 59.7354C43.9173 59.9678 43.7282 60.1911 43.4912 60.4053C43.2588 60.6149 42.9808 60.7904 42.6572 60.9316C42.3382 61.0684 41.9782 61.1367 41.5771 61.1367C41.0758 61.1367 40.6361 61.0387 40.2578 60.8428C39.8841 60.6468 39.5924 60.3848 39.3828 60.0566C39.1777 59.724 39.0752 59.3525 39.0752 58.9424C39.0752 58.5459 39.1527 58.1973 39.3076 57.8965C39.4626 57.5911 39.6859 57.3382 39.9775 57.1377C40.2692 56.9326 40.6201 56.7777 41.0303 56.6729C41.4404 56.568 41.8984 56.5156 42.4043 56.5156H43.874ZM48.1738 55.1826V61H46.9092V53.6035H48.1055L48.1738 55.1826ZM47.873 57.0215L47.3467 57.001C47.3512 56.4951 47.4264 56.028 47.5723 55.5996C47.7181 55.1667 47.9232 54.7907 48.1875 54.4717C48.4518 54.1527 48.7663 53.9066 49.1309 53.7334C49.5 53.5557 49.9079 53.4668 50.3545 53.4668C50.7191 53.4668 51.0472 53.5169 51.3389 53.6172C51.6305 53.7129 51.8789 53.8678 52.084 54.082C52.2936 54.2962 52.4531 54.5742 52.5625 54.916C52.6719 55.2533 52.7266 55.6657 52.7266 56.1533V61H51.4551V56.1396C51.4551 55.7523 51.3981 55.4424 51.2842 55.21C51.1702 54.973 51.0039 54.8021 50.7852 54.6973C50.5664 54.5879 50.2975 54.5332 49.9785 54.5332C49.6641 54.5332 49.377 54.5993 49.1172 54.7314C48.862 54.8636 48.641 55.0459 48.4541 55.2783C48.2718 55.5107 48.1283 55.7773 48.0234 56.0781C47.9232 56.3743 47.873 56.6888 47.873 57.0215ZM55.9121 55.1826V61H54.6475V53.6035H55.8438L55.9121 55.1826ZM55.6113 57.0215L55.085 57.001C55.0895 56.4951 55.1647 56.028 55.3105 55.5996C55.4564 55.1667 55.6615 54.7907 55.9258 54.4717C56.1901 54.1527 56.5046 53.9066 56.8691 53.7334C57.2383 53.5557 57.6462 53.4668 58.0928 53.4668C58.4574 53.4668 58.7855 53.5169 59.0771 53.6172C59.3688 53.7129 59.6172 53.8678 59.8223 54.082C60.0319 54.2962 60.1914 54.5742 60.3008 54.916C60.4102 55.2533 60.4648 55.6657 60.4648 56.1533V61H59.1934V56.1396C59.1934 55.7523 59.1364 55.4424 59.0225 55.21C58.9085 54.973 58.7422 54.8021 58.5234 54.6973C58.3047 54.5879 58.0358 54.5332 57.7168 54.5332C57.4023 54.5332 57.1152 54.5993 56.8555 54.7314C56.6003 54.8636 56.3792 55.0459 56.1924 55.2783C56.0101 55.5107 55.8665 55.7773 55.7617 56.0781C55.6615 56.3743 55.6113 56.6888 55.6113 57.0215ZM65.4551 61.1367C64.9401 61.1367 64.473 61.0501 64.0537 60.877C63.639 60.6992 63.2812 60.4508 62.9805 60.1318C62.6842 59.8128 62.4564 59.4346 62.2969 58.9971C62.1374 58.5596 62.0576 58.0811 62.0576 57.5615V57.2744C62.0576 56.6729 62.1465 56.1374 62.3242 55.668C62.502 55.194 62.7435 54.793 63.0488 54.4648C63.3542 54.1367 63.7005 53.8883 64.0879 53.7197C64.4753 53.5511 64.8763 53.4668 65.291 53.4668C65.8197 53.4668 66.2754 53.5579 66.6582 53.7402C67.0456 53.9225 67.3623 54.1777 67.6084 54.5059C67.8545 54.8294 68.0368 55.2122 68.1553 55.6543C68.2738 56.0918 68.333 56.5703 68.333 57.0898V57.6572H62.8096V56.625H67.0684V56.5293C67.0501 56.2012 66.9818 55.8822 66.8633 55.5723C66.7493 55.2624 66.5671 55.0072 66.3164 54.8066C66.0658 54.6061 65.724 54.5059 65.291 54.5059C65.0039 54.5059 64.7396 54.5674 64.498 54.6904C64.2565 54.8089 64.0492 54.9867 63.876 55.2236C63.7028 55.4606 63.5684 55.75 63.4727 56.0918C63.377 56.4336 63.3291 56.8278 63.3291 57.2744V57.5615C63.3291 57.9124 63.377 58.2428 63.4727 58.5527C63.5729 58.8581 63.7165 59.127 63.9033 59.3594C64.0947 59.5918 64.3249 59.7741 64.5938 59.9062C64.8672 60.0384 65.1771 60.1045 65.5234 60.1045C65.9701 60.1045 66.3483 60.0133 66.6582 59.8311C66.9681 59.6488 67.2393 59.4049 67.4717 59.0996L68.2373 59.708C68.0778 59.9495 67.875 60.1797 67.6289 60.3984C67.3828 60.6172 67.0798 60.7949 66.7197 60.9316C66.3643 61.0684 65.9427 61.1367 65.4551 61.1367ZM71.1836 50.5V61H69.9121V50.5H71.1836ZM77.5205 59.0381C77.5205 58.8558 77.4795 58.6872 77.3975 58.5322C77.32 58.3727 77.1582 58.2292 76.9121 58.1016C76.6706 57.9694 76.306 57.8555 75.8184 57.7598C75.4082 57.6732 75.0368 57.5706 74.7041 57.4521C74.376 57.3337 74.0957 57.1901 73.8633 57.0215C73.6354 56.8529 73.46 56.6546 73.3369 56.4268C73.2139 56.1989 73.1523 55.9323 73.1523 55.627C73.1523 55.3353 73.2161 55.0596 73.3438 54.7998C73.4759 54.54 73.6605 54.3099 73.8975 54.1094C74.139 53.9089 74.4284 53.7516 74.7656 53.6377C75.1029 53.5238 75.4788 53.4668 75.8936 53.4668C76.486 53.4668 76.9919 53.5716 77.4111 53.7812C77.8304 53.9909 78.1517 54.2712 78.375 54.6221C78.5983 54.9684 78.71 55.3535 78.71 55.7773H77.4453C77.4453 55.5723 77.3838 55.374 77.2607 55.1826C77.1423 54.9867 76.9668 54.8249 76.7344 54.6973C76.5065 54.5697 76.2262 54.5059 75.8936 54.5059C75.5426 54.5059 75.2578 54.5605 75.0391 54.6699C74.8249 54.7747 74.6676 54.9092 74.5674 55.0732C74.4717 55.2373 74.4238 55.4105 74.4238 55.5928C74.4238 55.7295 74.4466 55.8525 74.4922 55.9619C74.5423 56.0667 74.6289 56.1647 74.752 56.2559C74.875 56.3424 75.0482 56.4245 75.2715 56.502C75.4948 56.5794 75.7796 56.6569 76.126 56.7344C76.7321 56.8711 77.2311 57.0352 77.623 57.2266C78.015 57.418 78.3066 57.6527 78.498 57.9307C78.6895 58.2087 78.7852 58.5459 78.7852 58.9424C78.7852 59.266 78.7168 59.5622 78.5801 59.8311C78.4479 60.0999 78.2542 60.3324 77.999 60.5283C77.7484 60.7197 77.4476 60.8701 77.0967 60.9795C76.7503 61.0843 76.3607 61.1367 75.9277 61.1367C75.276 61.1367 74.7246 61.0205 74.2734 60.7881C73.8223 60.5557 73.4805 60.2549 73.248 59.8857C73.0156 59.5166 72.8994 59.127 72.8994 58.7168H74.1709C74.1891 59.0632 74.2894 59.3389 74.4717 59.5439C74.654 59.7445 74.8773 59.888 75.1416 59.9746C75.4059 60.0566 75.668 60.0977 75.9277 60.0977C76.2741 60.0977 76.5635 60.0521 76.7959 59.9609C77.0329 59.8698 77.2129 59.7445 77.3359 59.585C77.459 59.4255 77.5205 59.2432 77.5205 59.0381Z" fill="white"/>
</svg>
