<svg version="1.2" xmlns="http://www.w3.org/2000/svg" viewBox="0 0 101 96" width="101" height="96"><style>.a{fill:#f5f5f5}.b{fill:#212121}.c{fill:#f9f9ff}</style><path class="a" d="m0 6h101v84h-101z"/><path class="b" d="m58.5 29l-1 1.3-13 4.7v6l2.5 0.9-0.3 0.8c-0.2 0.6 0.1 1.2 0.7 1.5l2.1 0.7c0.6 0.2 1.3-0.1 1.5-0.7l0.3-0.7 6.2 2.2 1 1.3h2v-18zm-18 6v6h2v-6z"/><path class="b" d="m28.7 63.8h1.3q-0.1 1-0.6 1.7-0.4 0.8-1.2 1.2-0.8 0.4-2 0.4-0.9 0-1.6-0.3-0.7-0.3-1.2-0.9-0.5-0.6-0.8-1.5-0.3-0.8-0.3-1.9v-1q0-1 0.3-1.9 0.3-0.8 0.8-1.4 0.5-0.6 1.3-1 0.7-0.3 1.6-0.3 1.1 0 1.9 0.4 0.8 0.5 1.2 1.2 0.5 0.8 0.6 1.7h-1.3q-0.1-0.7-0.4-1.2-0.3-0.5-0.7-0.7-0.5-0.3-1.3-0.3-0.6 0-1.1 0.2-0.5 0.3-0.9 0.8-0.3 0.4-0.5 1.1-0.2 0.6-0.2 1.4v1q0 0.8 0.2 1.4 0.1 0.6 0.5 1.1 0.3 0.5 0.8 0.8 0.4 0.3 1.1 0.3 0.8 0 1.3-0.3 0.5-0.3 0.8-0.8 0.3-0.5 0.4-1.2zm4.1-7.3v10.5h-1.2v-10.5zm-0.3 6.5h-0.5q0-0.8 0.2-1.4 0.2-0.6 0.6-1.1 0.4-0.5 0.9-0.8 0.6-0.2 1.3-0.2 0.5 0 0.9 0.1 0.5 0.2 0.8 0.5 0.3 0.3 0.5 0.8 0.1 0.5 0.1 1.3v4.8h-1.2v-4.9q0-0.5-0.2-0.9-0.2-0.3-0.5-0.5-0.3-0.2-0.8-0.2-0.5 0-0.9 0.2-0.4 0.2-0.6 0.6-0.3 0.3-0.5 0.8-0.1 0.4-0.1 0.9zm11.1 2.7v-3.8q0-0.4-0.2-0.7-0.2-0.4-0.5-0.5-0.4-0.2-0.9-0.2-0.4 0-0.8 0.1-0.4 0.2-0.6 0.5-0.2 0.2-0.2 0.6h-1.2q0-0.4 0.2-0.8 0.2-0.4 0.6-0.7 0.4-0.4 0.9-0.5 0.5-0.2 1.2-0.2 0.8 0 1.4 0.2 0.7 0.3 1 0.9 0.4 0.5 0.4 1.3v3.5q0 0.4 0 0.8 0.1 0.4 0.2 0.7v0.1h-1.3q-0.1-0.2-0.2-0.6 0-0.4 0-0.7zm0.2-3.2v0.9h-1.3q-0.5 0-0.9 0.1-0.4 0.1-0.7 0.2-0.3 0.2-0.5 0.5-0.1 0.2-0.1 0.6 0 0.3 0.1 0.6 0.2 0.3 0.5 0.5 0.3 0.1 0.8 0.1 0.6 0 1-0.2 0.5-0.3 0.7-0.6 0.3-0.4 0.3-0.7l0.6 0.6q-0.1 0.3-0.3 0.6-0.2 0.4-0.6 0.7-0.3 0.3-0.8 0.5-0.5 0.2-1.1 0.2-0.7 0-1.3-0.3-0.6-0.3-0.9-0.7-0.3-0.5-0.3-1.2 0-0.6 0.2-1 0.3-0.5 0.7-0.8 0.5-0.3 1.1-0.4 0.6-0.2 1.3-0.2zm4.3-1.3v5.8h-1.2v-7.4h1.2zm-0.3 1.8h-0.6q0.1-0.7 0.3-1.4 0.2-0.6 0.6-1.1 0.4-0.5 0.9-0.7 0.6-0.3 1.3-0.3 0.5 0 0.9 0.1 0.5 0.2 0.8 0.5 0.3 0.3 0.5 0.8 0.1 0.5 0.1 1.3v4.8h-1.2v-4.8q0-0.6-0.2-1-0.2-0.3-0.5-0.5-0.3-0.1-0.8-0.1-0.5 0-0.9 0.2-0.4 0.2-0.6 0.5-0.3 0.3-0.5 0.8-0.1 0.4-0.1 0.9zm8-1.8v5.8h-1.3v-7.4h1.2zm-0.3 1.9l-0.5-0.1q0-0.7 0.2-1.4 0.3-0.6 0.7-1.1 0.4-0.5 0.9-0.7 0.6-0.3 1.2-0.3 0.6 0 1 0.2 0.4 0.1 0.8 0.4 0.3 0.3 0.4 0.9 0.2 0.5 0.2 1.2v4.8h-1.3v-4.8q0-0.6-0.1-0.9-0.2-0.4-0.5-0.6-0.4-0.1-0.9-0.1-0.4 0-0.8 0.2-0.4 0.2-0.7 0.5-0.3 0.4-0.4 0.8-0.2 0.5-0.2 1zm9.9 4.1q-0.8 0-1.4-0.3-0.6-0.2-1.1-0.7-0.4-0.5-0.7-1.2-0.2-0.6-0.2-1.4v-0.3q0-0.9 0.3-1.6 0.2-0.7 0.7-1.2 0.4-0.5 1-0.7 0.6-0.3 1.2-0.3 0.8 0 1.4 0.3 0.6 0.3 0.9 0.7 0.4 0.5 0.6 1.2 0.2 0.7 0.2 1.4v0.6h-5.6v-1h4.3v-0.1q0-0.5-0.2-1-0.2-0.5-0.6-0.8-0.3-0.3-1-0.3-0.4 0-0.8 0.2-0.3 0.2-0.6 0.6-0.3 0.3-0.4 0.8-0.1 0.5-0.1 1.2v0.3q0 0.5 0.1 1 0.2 0.5 0.4 0.8 0.3 0.3 0.7 0.5 0.4 0.2 1 0.2 0.6 0 1.1-0.2 0.5-0.3 0.8-0.8l0.8 0.6q-0.3 0.4-0.6 0.7-0.4 0.4-1 0.6-0.5 0.2-1.2 0.2zm5.7-10.7v10.5h-1.3v-10.5zm6.4 8.6q0-0.3-0.1-0.5-0.2-0.3-0.5-0.5-0.4-0.2-1.1-0.3-0.6-0.1-1.1-0.3-0.5-0.2-0.9-0.4-0.3-0.3-0.5-0.6-0.2-0.4-0.2-0.8 0-0.5 0.2-0.9 0.2-0.3 0.6-0.6 0.3-0.3 0.8-0.5 0.5-0.2 1.2-0.2 0.8 0 1.5 0.3 0.6 0.3 0.9 0.9 0.4 0.5 0.4 1.1h-1.3q0-0.3-0.2-0.6-0.2-0.3-0.5-0.5-0.3-0.2-0.8-0.2-0.6 0-0.9 0.2-0.3 0.2-0.5 0.4-0.1 0.3-0.1 0.5 0 0.2 0 0.4 0.1 0.2 0.3 0.3 0.2 0.1 0.5 0.2 0.4 0.2 0.9 0.3 0.9 0.2 1.5 0.5 0.6 0.3 0.9 0.7 0.2 0.4 0.2 1 0 0.5-0.2 0.9-0.2 0.4-0.5 0.7-0.4 0.3-0.9 0.4-0.6 0.2-1.2 0.2-1 0-1.7-0.4-0.6-0.3-1-0.9-0.3-0.5-0.3-1.1h1.2q0.1 0.5 0.3 0.8 0.3 0.3 0.7 0.4 0.4 0.1 0.8 0.1 0.5 0 0.9-0.1 0.3-0.1 0.5-0.4 0.2-0.2 0.2-0.5z"/><path fill-rule="evenodd" class="c" d="m101-1c0 3.9-3.1 7-7 7h7z"/><path fill-rule="evenodd" class="c" d="m94 90c3.9 0 7 3.1 7 7v-7z"/></svg>