<svg width="101" height="84" viewBox="0 0 101 84" fill="none" xmlns="http://www.w3.org/2000/svg">
<rect width="101" height="84" fill="#707FDA"/>
<path d="M41.6992 23.9992C41.6992 23.5574 42.0574 23.1992 42.4992 23.1992H48.8992C49.341 23.1992 49.6992 23.5574 49.6992 23.9992V32.7992C49.6992 33.241 49.341 33.5992 48.8992 33.5992H42.4992C42.0574 33.5992 41.6992 33.241 41.6992 32.7992V23.9992Z" fill="white"/>
<path d="M59.2992 39.9992C59.2992 40.441 58.941 40.7992 58.4992 40.7992H52.0992C51.6574 40.7992 51.2992 40.441 51.2992 39.9992L51.2992 31.1992C51.2992 30.7574 51.6574 30.3992 52.0992 30.3992L58.4992 30.3992C58.941 30.3992 59.2992 30.7574 59.2992 31.1992L59.2992 39.9992Z" fill="white"/>
<path d="M41.6992 35.9992C41.6992 35.5574 42.0574 35.1992 42.4992 35.1992H48.8992C49.341 35.1992 49.6992 35.5574 49.6992 35.9992V39.9992C49.6992 40.441 49.341 40.7992 48.8992 40.7992H42.4992C42.0574 40.7992 41.6992 40.441 41.6992 39.9992V35.9992Z" fill="white"/>
<path d="M59.2992 27.9992C59.2992 28.441 58.941 28.7992 58.4992 28.7992L52.0992 28.7992C51.6574 28.7992 51.2992 28.441 51.2992 27.9992L51.2992 23.9992C51.2992 23.5574 51.6574 23.1992 52.0992 23.1992L58.4992 23.1992C58.941 23.1992 59.2992 23.5574 59.2992 23.9992V27.9992Z" fill="white"/>
<path d="M20.3486 61H18.2705L18.2842 59.9268H20.3486C21.0596 59.9268 21.652 59.7786 22.126 59.4824C22.5999 59.1816 22.9554 58.7624 23.1924 58.2246C23.4339 57.6823 23.5547 57.0488 23.5547 56.3242V55.7158C23.5547 55.1462 23.4863 54.6403 23.3496 54.1982C23.2129 53.7516 23.0124 53.3757 22.748 53.0703C22.4837 52.7604 22.1602 52.5257 21.7773 52.3662C21.3991 52.2067 20.9639 52.127 20.4717 52.127H18.2295V51.0469H20.4717C21.1234 51.0469 21.7181 51.1562 22.2559 51.375C22.7936 51.5892 23.2562 51.9014 23.6436 52.3115C24.0355 52.7171 24.3363 53.2093 24.5459 53.7881C24.7555 54.3623 24.8604 55.0094 24.8604 55.7295V56.3242C24.8604 57.0443 24.7555 57.6937 24.5459 58.2725C24.3363 58.8467 24.0332 59.3366 23.6367 59.7422C23.2448 60.1478 22.7708 60.46 22.2148 60.6787C21.6634 60.8929 21.0413 61 20.3486 61ZM18.9746 51.0469V61H17.6553V51.0469H18.9746ZM31.0127 59.7354V55.9277C31.0127 55.6361 30.9535 55.3831 30.835 55.1689C30.721 54.9502 30.5479 54.7816 30.3154 54.6631C30.083 54.5446 29.7959 54.4854 29.4541 54.4854C29.1351 54.4854 28.8548 54.54 28.6133 54.6494C28.3763 54.7588 28.1895 54.9023 28.0527 55.0801C27.9206 55.2578 27.8545 55.4492 27.8545 55.6543H26.5898C26.5898 55.39 26.6582 55.1279 26.7949 54.8682C26.9316 54.6084 27.1276 54.3737 27.3828 54.1641C27.6426 53.9499 27.9525 53.7812 28.3125 53.6582C28.6771 53.5306 29.0827 53.4668 29.5293 53.4668C30.0671 53.4668 30.541 53.5579 30.9512 53.7402C31.3659 53.9225 31.6895 54.1982 31.9219 54.5674C32.1589 54.932 32.2773 55.39 32.2773 55.9414V59.3867C32.2773 59.6328 32.2979 59.8949 32.3389 60.1729C32.3844 60.4508 32.4505 60.6901 32.5371 60.8906V61H31.2178C31.154 60.8542 31.1038 60.6605 31.0674 60.4189C31.0309 60.1729 31.0127 59.945 31.0127 59.7354ZM31.2314 56.5156L31.2451 57.4043H29.9668C29.6068 57.4043 29.2855 57.4339 29.0029 57.4932C28.7204 57.5479 28.4834 57.6322 28.292 57.7461C28.1006 57.86 27.9548 58.0036 27.8545 58.1768C27.7542 58.3454 27.7041 58.5436 27.7041 58.7715C27.7041 59.0039 27.7565 59.2158 27.8613 59.4072C27.9661 59.5986 28.1234 59.7513 28.333 59.8652C28.5472 59.9746 28.8092 60.0293 29.1191 60.0293C29.5065 60.0293 29.8483 59.9473 30.1445 59.7832C30.4408 59.6191 30.6755 59.4186 30.8486 59.1816C31.0264 58.9447 31.1221 58.7145 31.1357 58.4912L31.6758 59.0996C31.6439 59.291 31.5573 59.5029 31.416 59.7354C31.2747 59.9678 31.0856 60.1911 30.8486 60.4053C30.6162 60.6149 30.3382 60.7904 30.0146 60.9316C29.6956 61.0684 29.3356 61.1367 28.9346 61.1367C28.4333 61.1367 27.9935 61.0387 27.6152 60.8428C27.2415 60.6468 26.9499 60.3848 26.7402 60.0566C26.5352 59.724 26.4326 59.3525 26.4326 58.9424C26.4326 58.5459 26.5101 58.1973 26.665 57.8965C26.82 57.5911 27.0433 57.3382 27.335 57.1377C27.6266 56.9326 27.9775 56.7777 28.3877 56.6729C28.7979 56.568 29.2559 56.5156 29.7617 56.5156H31.2314ZM38.5732 59.0381C38.5732 58.8558 38.5322 58.6872 38.4502 58.5322C38.3727 58.3727 38.2109 58.2292 37.9648 58.1016C37.7233 57.9694 37.3587 57.8555 36.8711 57.7598C36.4609 57.6732 36.0895 57.5706 35.7568 57.4521C35.4287 57.3337 35.1484 57.1901 34.916 57.0215C34.6882 56.8529 34.5127 56.6546 34.3896 56.4268C34.2666 56.1989 34.2051 55.9323 34.2051 55.627C34.2051 55.3353 34.2689 55.0596 34.3965 54.7998C34.5286 54.54 34.7132 54.3099 34.9502 54.1094C35.1917 53.9089 35.4811 53.7516 35.8184 53.6377C36.1556 53.5238 36.5316 53.4668 36.9463 53.4668C37.5387 53.4668 38.0446 53.5716 38.4639 53.7812C38.8831 53.9909 39.2044 54.2712 39.4277 54.6221C39.651 54.9684 39.7627 55.3535 39.7627 55.7773H38.498C38.498 55.5723 38.4365 55.374 38.3135 55.1826C38.195 54.9867 38.0195 54.8249 37.7871 54.6973C37.5592 54.5697 37.279 54.5059 36.9463 54.5059C36.5954 54.5059 36.3105 54.5605 36.0918 54.6699C35.8776 54.7747 35.7204 54.9092 35.6201 55.0732C35.5244 55.2373 35.4766 55.4105 35.4766 55.5928C35.4766 55.7295 35.4993 55.8525 35.5449 55.9619C35.5951 56.0667 35.6816 56.1647 35.8047 56.2559C35.9277 56.3424 36.1009 56.4245 36.3242 56.502C36.5475 56.5794 36.8324 56.6569 37.1787 56.7344C37.7848 56.8711 38.2839 57.0352 38.6758 57.2266C39.0677 57.418 39.3594 57.6527 39.5508 57.9307C39.7422 58.2087 39.8379 58.5459 39.8379 58.9424C39.8379 59.266 39.7695 59.5622 39.6328 59.8311C39.5007 60.0999 39.307 60.3324 39.0518 60.5283C38.8011 60.7197 38.5003 60.8701 38.1494 60.9795C37.8031 61.0843 37.4134 61.1367 36.9805 61.1367C36.3288 61.1367 35.7773 61.0205 35.3262 60.7881C34.875 60.5557 34.5332 60.2549 34.3008 59.8857C34.0684 59.5166 33.9521 59.127 33.9521 58.7168H35.2236C35.2419 59.0632 35.3421 59.3389 35.5244 59.5439C35.7067 59.7445 35.93 59.888 36.1943 59.9746C36.4587 60.0566 36.7207 60.0977 36.9805 60.0977C37.3268 60.0977 37.6162 60.0521 37.8486 59.9609C38.0856 59.8698 38.2656 59.7445 38.3887 59.585C38.5117 59.4255 38.5732 59.2432 38.5732 59.0381ZM42.7637 50.5V61H41.499V50.5H42.7637ZM42.4629 57.0215L41.9365 57.001C41.9411 56.4951 42.0163 56.028 42.1621 55.5996C42.3079 55.1667 42.513 54.7907 42.7773 54.4717C43.0417 54.1527 43.3561 53.9066 43.7207 53.7334C44.0898 53.5557 44.4977 53.4668 44.9443 53.4668C45.3089 53.4668 45.637 53.5169 45.9287 53.6172C46.2204 53.7129 46.4688 53.8678 46.6738 54.082C46.8835 54.2962 47.043 54.5742 47.1523 54.916C47.2617 55.2533 47.3164 55.6657 47.3164 56.1533V61H46.0449V56.1396C46.0449 55.7523 45.988 55.4424 45.874 55.21C45.7601 54.973 45.5938 54.8021 45.375 54.6973C45.1562 54.5879 44.8874 54.5332 44.5684 54.5332C44.2539 54.5332 43.9668 54.5993 43.707 54.7314C43.4518 54.8636 43.2308 55.0459 43.0439 55.2783C42.8617 55.5107 42.7181 55.7773 42.6133 56.0781C42.513 56.3743 42.4629 56.6888 42.4629 57.0215ZM49.2031 50.5H50.4746V59.5645L50.3652 61H49.2031V50.5ZM55.4717 57.2402V57.3838C55.4717 57.9215 55.4079 58.4206 55.2803 58.8809C55.1527 59.3366 54.9658 59.7331 54.7197 60.0703C54.4736 60.4076 54.1729 60.6696 53.8174 60.8564C53.4619 61.0433 53.054 61.1367 52.5938 61.1367C52.1243 61.1367 51.7119 61.057 51.3564 60.8975C51.0055 60.7334 50.7093 60.4987 50.4678 60.1934C50.2262 59.888 50.0326 59.5189 49.8867 59.0859C49.7454 58.653 49.6475 58.1654 49.5928 57.623V56.9941C49.6475 56.4473 49.7454 55.9574 49.8867 55.5244C50.0326 55.0915 50.2262 54.7223 50.4678 54.417C50.7093 54.1071 51.0055 53.8724 51.3564 53.7129C51.7074 53.5488 52.1152 53.4668 52.5801 53.4668C53.0449 53.4668 53.4574 53.5579 53.8174 53.7402C54.1774 53.918 54.4782 54.1732 54.7197 54.5059C54.9658 54.8385 55.1527 55.2373 55.2803 55.7021C55.4079 56.1624 55.4717 56.6751 55.4717 57.2402ZM54.2002 57.3838V57.2402C54.2002 56.8711 54.166 56.5247 54.0977 56.2012C54.0293 55.873 53.9199 55.5859 53.7695 55.3398C53.6191 55.0892 53.4209 54.8932 53.1748 54.752C52.9287 54.6061 52.6257 54.5332 52.2656 54.5332C51.9466 54.5332 51.6686 54.5879 51.4316 54.6973C51.1992 54.8066 51.001 54.9548 50.8369 55.1416C50.6729 55.3239 50.5384 55.5335 50.4336 55.7705C50.3333 56.0029 50.2581 56.2445 50.208 56.4951V58.1426C50.2809 58.4616 50.3994 58.7692 50.5635 59.0654C50.7321 59.3571 50.9554 59.5964 51.2334 59.7832C51.516 59.9701 51.8646 60.0635 52.2793 60.0635C52.6211 60.0635 52.9128 59.9951 53.1543 59.8584C53.4004 59.7171 53.5986 59.5234 53.749 59.2773C53.904 59.0312 54.0179 58.7464 54.0908 58.4229C54.1637 58.0993 54.2002 57.7529 54.2002 57.3838ZM56.7363 57.3838V57.2266C56.7363 56.6934 56.8138 56.1989 56.9688 55.7432C57.1237 55.2829 57.347 54.8841 57.6387 54.5469C57.9303 54.2051 58.2835 53.9408 58.6982 53.7539C59.113 53.5625 59.5778 53.4668 60.0928 53.4668C60.6123 53.4668 61.0794 53.5625 61.4941 53.7539C61.9134 53.9408 62.2689 54.2051 62.5605 54.5469C62.8568 54.8841 63.0824 55.2829 63.2373 55.7432C63.3923 56.1989 63.4697 56.6934 63.4697 57.2266V57.3838C63.4697 57.917 63.3923 58.4115 63.2373 58.8672C63.0824 59.3229 62.8568 59.7217 62.5605 60.0635C62.2689 60.4007 61.9157 60.665 61.501 60.8564C61.0908 61.0433 60.626 61.1367 60.1064 61.1367C59.5869 61.1367 59.1198 61.0433 58.7051 60.8564C58.2904 60.665 57.9349 60.4007 57.6387 60.0635C57.347 59.7217 57.1237 59.3229 56.9688 58.8672C56.8138 58.4115 56.7363 57.917 56.7363 57.3838ZM58.001 57.2266V57.3838C58.001 57.7529 58.0443 58.1016 58.1309 58.4297C58.2174 58.7533 58.3473 59.0404 58.5205 59.291C58.6982 59.5417 58.9193 59.7399 59.1836 59.8857C59.4479 60.027 59.7555 60.0977 60.1064 60.0977C60.4528 60.0977 60.7559 60.027 61.0156 59.8857C61.2799 59.7399 61.4987 59.5417 61.6719 59.291C61.8451 59.0404 61.9749 58.7533 62.0615 58.4297C62.1527 58.1016 62.1982 57.7529 62.1982 57.3838V57.2266C62.1982 56.862 62.1527 56.5179 62.0615 56.1943C61.9749 55.8662 61.8428 55.5768 61.665 55.3262C61.4919 55.071 61.2731 54.8704 61.0088 54.7246C60.749 54.5788 60.4437 54.5059 60.0928 54.5059C59.7464 54.5059 59.4411 54.5788 59.1768 54.7246C58.917 54.8704 58.6982 55.071 58.5205 55.3262C58.3473 55.5768 58.2174 55.8662 58.1309 56.1943C58.0443 56.5179 58.001 56.862 58.001 57.2266ZM69.417 59.7354V55.9277C69.417 55.6361 69.3577 55.3831 69.2393 55.1689C69.1253 54.9502 68.9521 54.7816 68.7197 54.6631C68.4873 54.5446 68.2002 54.4854 67.8584 54.4854C67.5394 54.4854 67.2591 54.54 67.0176 54.6494C66.7806 54.7588 66.5938 54.9023 66.457 55.0801C66.3249 55.2578 66.2588 55.4492 66.2588 55.6543H64.9941C64.9941 55.39 65.0625 55.1279 65.1992 54.8682C65.3359 54.6084 65.5319 54.3737 65.7871 54.1641C66.0469 53.9499 66.3568 53.7812 66.7168 53.6582C67.0814 53.5306 67.487 53.4668 67.9336 53.4668C68.4714 53.4668 68.9453 53.5579 69.3555 53.7402C69.7702 53.9225 70.0938 54.1982 70.3262 54.5674C70.5632 54.932 70.6816 55.39 70.6816 55.9414V59.3867C70.6816 59.6328 70.7021 59.8949 70.7432 60.1729C70.7887 60.4508 70.8548 60.6901 70.9414 60.8906V61H69.6221C69.5583 60.8542 69.5081 60.6605 69.4717 60.4189C69.4352 60.1729 69.417 59.945 69.417 59.7354ZM69.6357 56.5156L69.6494 57.4043H68.3711C68.0111 57.4043 67.6898 57.4339 67.4072 57.4932C67.1247 57.5479 66.8877 57.6322 66.6963 57.7461C66.5049 57.86 66.359 58.0036 66.2588 58.1768C66.1585 58.3454 66.1084 58.5436 66.1084 58.7715C66.1084 59.0039 66.1608 59.2158 66.2656 59.4072C66.3704 59.5986 66.5277 59.7513 66.7373 59.8652C66.9515 59.9746 67.2135 60.0293 67.5234 60.0293C67.9108 60.0293 68.2526 59.9473 68.5488 59.7832C68.8451 59.6191 69.0798 59.4186 69.2529 59.1816C69.4307 58.9447 69.5264 58.7145 69.54 58.4912L70.0801 59.0996C70.0482 59.291 69.9616 59.5029 69.8203 59.7354C69.679 59.9678 69.4899 60.1911 69.2529 60.4053C69.0205 60.6149 68.7425 60.7904 68.4189 60.9316C68.0999 61.0684 67.7399 61.1367 67.3389 61.1367C66.8376 61.1367 66.3978 61.0387 66.0195 60.8428C65.6458 60.6468 65.3542 60.3848 65.1445 60.0566C64.9395 59.724 64.8369 59.3525 64.8369 58.9424C64.8369 58.5459 64.9144 58.1973 65.0693 57.8965C65.2243 57.5911 65.4476 57.3382 65.7393 57.1377C66.0309 56.9326 66.3818 56.7777 66.792 56.6729C67.2021 56.568 67.6602 56.5156 68.166 56.5156H69.6357ZM73.9355 54.7656V61H72.6709V53.6035H73.9014L73.9355 54.7656ZM76.2461 53.5625L76.2393 54.7383C76.1344 54.7155 76.0342 54.7018 75.9385 54.6973C75.8473 54.6882 75.7425 54.6836 75.624 54.6836C75.3324 54.6836 75.0749 54.7292 74.8516 54.8203C74.6283 54.9115 74.4391 55.0391 74.2842 55.2031C74.1292 55.3672 74.0062 55.5632 73.915 55.791C73.8285 56.0143 73.7715 56.2604 73.7441 56.5293L73.3887 56.7344C73.3887 56.2878 73.432 55.8685 73.5186 55.4766C73.6097 55.0846 73.7487 54.7383 73.9355 54.4375C74.1224 54.1322 74.3594 53.8952 74.6465 53.7266C74.9382 53.5534 75.2845 53.4668 75.6855 53.4668C75.7767 53.4668 75.8815 53.4782 76 53.501C76.1185 53.5192 76.2005 53.5397 76.2461 53.5625ZM81.9404 59.5645V50.5H83.2119V61H82.0498L81.9404 59.5645ZM76.9639 57.3838V57.2402C76.9639 56.6751 77.0322 56.1624 77.1689 55.7021C77.3102 55.2373 77.5085 54.8385 77.7637 54.5059C78.0234 54.1732 78.3311 53.918 78.6865 53.7402C79.0465 53.5579 79.4476 53.4668 79.8896 53.4668C80.3545 53.4668 80.7601 53.5488 81.1064 53.7129C81.4574 53.8724 81.7536 54.1071 81.9951 54.417C82.2412 54.7223 82.4349 55.0915 82.5762 55.5244C82.7174 55.9574 82.8154 56.4473 82.8701 56.9941V57.623C82.82 58.1654 82.722 58.653 82.5762 59.0859C82.4349 59.5189 82.2412 59.888 81.9951 60.1934C81.7536 60.4987 81.4574 60.7334 81.1064 60.8975C80.7555 61.057 80.3454 61.1367 79.876 61.1367C79.443 61.1367 79.0465 61.0433 78.6865 60.8564C78.3311 60.6696 78.0234 60.4076 77.7637 60.0703C77.5085 59.7331 77.3102 59.3366 77.1689 58.8809C77.0322 58.4206 76.9639 57.9215 76.9639 57.3838ZM78.2354 57.2402V57.3838C78.2354 57.7529 78.2718 58.0993 78.3447 58.4229C78.4222 58.7464 78.5407 59.0312 78.7002 59.2773C78.8597 59.5234 79.0625 59.7171 79.3086 59.8584C79.5547 59.9951 79.8486 60.0635 80.1904 60.0635C80.6097 60.0635 80.9538 59.9746 81.2227 59.7969C81.4961 59.6191 81.7148 59.3844 81.8789 59.0928C82.043 58.8011 82.1706 58.4844 82.2617 58.1426V56.4951C82.207 56.2445 82.1273 56.0029 82.0225 55.7705C81.9222 55.5335 81.79 55.3239 81.626 55.1416C81.4665 54.9548 81.2682 54.8066 81.0312 54.6973C80.7988 54.5879 80.5231 54.5332 80.2041 54.5332C79.8577 54.5332 79.5592 54.6061 79.3086 54.752C79.0625 54.8932 78.8597 55.0892 78.7002 55.3398C78.5407 55.5859 78.4222 55.873 78.3447 56.2012C78.2718 56.5247 78.2354 56.8711 78.2354 57.2402Z" fill="white"/>
</svg>
