<svg width="101" height="98" viewBox="0 0 101 98" fill="none" xmlns="http://www.w3.org/2000/svg">
<rect width="101" height="84" transform="translate(0 7)" fill="#F9F9FF"/>
<path d="M58.7272 37.8H53.0714L54.3468 27.6683C54.4163 27.0898 53.6513 26.7682 53.2321 27.1979L41.7019 38.9952C41.2519 39.4584 41.6029 40.2 42.2728 40.2H47.9286L47.9389 50.3317C47.8695 50.9102 48.6344 51.2318 49.0536 50.8021L59.2981 39.0048C59.7481 38.5416 59.3971 37.8 58.7272 37.8Z" fill="#212121"/>
<path d="M22.1553 58.0469H25.4502C26.1976 58.0469 26.8288 58.1608 27.3438 58.3887C27.8633 58.6165 28.2575 58.9538 28.5264 59.4004C28.7998 59.8424 28.9365 60.387 28.9365 61.0342C28.9365 61.4899 28.8431 61.9069 28.6562 62.2852C28.474 62.6589 28.2096 62.9779 27.8633 63.2422C27.5215 63.502 27.1113 63.6956 26.6328 63.8232L26.2637 63.9668H23.167L23.1533 62.8936H25.4912C25.9652 62.8936 26.3594 62.8115 26.6738 62.6475C26.9883 62.4788 27.2253 62.2533 27.3848 61.9707C27.5443 61.6882 27.624 61.376 27.624 61.0342C27.624 60.6514 27.5488 60.3164 27.3984 60.0293C27.248 59.7422 27.0111 59.5212 26.6875 59.3662C26.3685 59.2067 25.9561 59.127 25.4502 59.127H23.4746V68H22.1553V58.0469ZM27.9727 68L25.5527 63.4883L26.9268 63.4814L29.3809 67.918V68H27.9727ZM33.6602 68.1367C33.1452 68.1367 32.6781 68.0501 32.2588 67.877C31.8441 67.6992 31.4863 67.4508 31.1855 67.1318C30.8893 66.8128 30.6615 66.4346 30.502 65.9971C30.3424 65.5596 30.2627 65.0811 30.2627 64.5615V64.2744C30.2627 63.6729 30.3516 63.1374 30.5293 62.668C30.707 62.194 30.9486 61.793 31.2539 61.4648C31.5592 61.1367 31.9056 60.8883 32.293 60.7197C32.6803 60.5511 33.0814 60.4668 33.4961 60.4668C34.0247 60.4668 34.4805 60.5579 34.8633 60.7402C35.2507 60.9225 35.5674 61.1777 35.8135 61.5059C36.0596 61.8294 36.2419 62.2122 36.3604 62.6543C36.4788 63.0918 36.5381 63.5703 36.5381 64.0898V64.6572H31.0146V63.625H35.2734V63.5293C35.2552 63.2012 35.1868 62.8822 35.0684 62.5723C34.9544 62.2624 34.7721 62.0072 34.5215 61.8066C34.2708 61.6061 33.929 61.5059 33.4961 61.5059C33.209 61.5059 32.9447 61.5674 32.7031 61.6904C32.4616 61.8089 32.2542 61.9867 32.0811 62.2236C31.9079 62.4606 31.7734 62.75 31.6777 63.0918C31.582 63.4336 31.5342 63.8278 31.5342 64.2744V64.5615C31.5342 64.9124 31.582 65.2428 31.6777 65.5527C31.778 65.8581 31.9215 66.127 32.1084 66.3594C32.2998 66.5918 32.5299 66.7741 32.7988 66.9062C33.0723 67.0384 33.3822 67.1045 33.7285 67.1045C34.1751 67.1045 34.5534 67.0133 34.8633 66.8311C35.1732 66.6488 35.4443 66.4049 35.6768 66.0996L36.4424 66.708C36.2829 66.9495 36.0801 67.1797 35.834 67.3984C35.5879 67.6172 35.2848 67.7949 34.9248 67.9316C34.5693 68.0684 34.1478 68.1367 33.6602 68.1367ZM42.6699 70.8438V62.0254L42.7793 60.6035H43.9414V70.8438H42.6699ZM37.7002 64.3838V64.2402C37.7002 63.6751 37.7663 63.1624 37.8984 62.7021C38.0306 62.2373 38.2243 61.8385 38.4795 61.5059C38.7347 61.1732 39.0423 60.918 39.4023 60.7402C39.7669 60.5579 40.1816 60.4668 40.6465 60.4668C41.1113 60.4668 41.5192 60.5488 41.8701 60.7129C42.2256 60.8724 42.5264 61.1071 42.7725 61.417C43.0231 61.7223 43.2214 62.0915 43.3672 62.5244C43.513 62.9574 43.6133 63.4473 43.668 63.9941V64.623C43.6178 65.1654 43.5199 65.653 43.374 66.0859C43.2282 66.5189 43.0299 66.888 42.7793 67.1934C42.5332 67.4987 42.2301 67.7334 41.8701 67.8975C41.5146 68.057 41.1022 68.1367 40.6328 68.1367C40.1771 68.1367 39.7669 68.0433 39.4023 67.8564C39.0423 67.6696 38.7347 67.4076 38.4795 67.0703C38.2288 66.7331 38.0352 66.3366 37.8984 65.8809C37.7663 65.4206 37.7002 64.9215 37.7002 64.3838ZM38.9717 64.2402V64.3838C38.9717 64.7529 39.0104 65.1016 39.0879 65.4297C39.1654 65.7533 39.2839 66.0404 39.4434 66.291C39.6074 66.5417 39.8125 66.7399 40.0586 66.8857C40.3092 67.027 40.6055 67.0977 40.9473 67.0977C41.3665 67.0977 41.7152 67.0065 41.9932 66.8242C42.2757 66.6419 42.5013 66.4027 42.6699 66.1064C42.8385 65.8057 42.9684 65.4844 43.0596 65.1426V63.4951C43.0094 63.2445 42.9297 63.0007 42.8203 62.7637C42.7155 62.5267 42.5788 62.3148 42.4102 62.1279C42.2415 61.9365 42.0365 61.7861 41.7949 61.6768C41.5579 61.5628 41.2799 61.5059 40.9609 61.5059C40.6146 61.5059 40.3161 61.5788 40.0654 61.7246C39.8148 61.8704 39.6074 62.071 39.4434 62.3262C39.2839 62.5768 39.1654 62.8662 39.0879 63.1943C39.0104 63.5225 38.9717 63.8711 38.9717 64.2402ZM50.4971 66.291V60.6035H51.7686V68H50.5586L50.4971 66.291ZM50.7363 64.7324L51.2627 64.7188C51.2627 65.2109 51.2103 65.6667 51.1055 66.0859C51.0052 66.5007 50.8411 66.8607 50.6133 67.166C50.3854 67.4714 50.0869 67.7106 49.7178 67.8838C49.3486 68.0524 48.8997 68.1367 48.3711 68.1367C48.0111 68.1367 47.6807 68.0843 47.3799 67.9795C47.0837 67.8747 46.8285 67.7129 46.6143 67.4941C46.4001 67.2754 46.2337 66.9906 46.1152 66.6396C46.0013 66.2887 45.9443 65.8672 45.9443 65.375V60.6035H47.209V65.3887C47.209 65.7214 47.2454 65.9971 47.3184 66.2158C47.3958 66.43 47.4984 66.6009 47.626 66.7285C47.7581 66.8516 47.904 66.9382 48.0635 66.9883C48.2275 67.0384 48.3962 67.0635 48.5693 67.0635C49.1071 67.0635 49.5332 66.9609 49.8477 66.7559C50.1621 66.5462 50.3877 66.266 50.5244 65.915C50.6657 65.5596 50.7363 65.1654 50.7363 64.7324ZM56.7656 68.1367C56.2507 68.1367 55.7835 68.0501 55.3643 67.877C54.9495 67.6992 54.5918 67.4508 54.291 67.1318C53.9948 66.8128 53.7669 66.4346 53.6074 65.9971C53.4479 65.5596 53.3682 65.0811 53.3682 64.5615V64.2744C53.3682 63.6729 53.457 63.1374 53.6348 62.668C53.8125 62.194 54.054 61.793 54.3594 61.4648C54.6647 61.1367 55.0111 60.8883 55.3984 60.7197C55.7858 60.5511 56.1868 60.4668 56.6016 60.4668C57.1302 60.4668 57.5859 60.5579 57.9688 60.7402C58.3561 60.9225 58.6729 61.1777 58.9189 61.5059C59.165 61.8294 59.3473 62.2122 59.4658 62.6543C59.5843 63.0918 59.6436 63.5703 59.6436 64.0898V64.6572H54.1201V63.625H58.3789V63.5293C58.3607 63.2012 58.2923 62.8822 58.1738 62.5723C58.0599 62.2624 57.8776 62.0072 57.627 61.8066C57.3763 61.6061 57.0345 61.5059 56.6016 61.5059C56.3145 61.5059 56.0501 61.5674 55.8086 61.6904C55.5671 61.8089 55.3597 61.9867 55.1865 62.2236C55.0133 62.4606 54.8789 62.75 54.7832 63.0918C54.6875 63.4336 54.6396 63.8278 54.6396 64.2744V64.5615C54.6396 64.9124 54.6875 65.2428 54.7832 65.5527C54.8835 65.8581 55.027 66.127 55.2139 66.3594C55.4053 66.5918 55.6354 66.7741 55.9043 66.9062C56.1777 67.0384 56.4876 67.1045 56.834 67.1045C57.2806 67.1045 57.6589 67.0133 57.9688 66.8311C58.2786 66.6488 58.5498 66.4049 58.7822 66.0996L59.5479 66.708C59.3883 66.9495 59.1855 67.1797 58.9395 67.3984C58.6934 67.6172 58.3903 67.7949 58.0303 67.9316C57.6748 68.0684 57.2533 68.1367 56.7656 68.1367ZM65.4268 66.0381C65.4268 65.8558 65.3857 65.6872 65.3037 65.5322C65.2262 65.3727 65.0645 65.2292 64.8184 65.1016C64.5768 64.9694 64.2122 64.8555 63.7246 64.7598C63.3145 64.6732 62.943 64.5706 62.6104 64.4521C62.2822 64.3337 62.002 64.1901 61.7695 64.0215C61.5417 63.8529 61.3662 63.6546 61.2432 63.4268C61.1201 63.1989 61.0586 62.9323 61.0586 62.627C61.0586 62.3353 61.1224 62.0596 61.25 61.7998C61.3822 61.54 61.5667 61.3099 61.8037 61.1094C62.0452 60.9089 62.3346 60.7516 62.6719 60.6377C63.0091 60.5238 63.3851 60.4668 63.7998 60.4668C64.3923 60.4668 64.8981 60.5716 65.3174 60.7812C65.7367 60.9909 66.0579 61.2712 66.2812 61.6221C66.5046 61.9684 66.6162 62.3535 66.6162 62.7773H65.3516C65.3516 62.5723 65.29 62.374 65.167 62.1826C65.0485 61.9867 64.873 61.8249 64.6406 61.6973C64.4128 61.5697 64.1325 61.5059 63.7998 61.5059C63.4489 61.5059 63.1641 61.5605 62.9453 61.6699C62.7311 61.7747 62.5739 61.9092 62.4736 62.0732C62.3779 62.2373 62.3301 62.4105 62.3301 62.5928C62.3301 62.7295 62.3529 62.8525 62.3984 62.9619C62.4486 63.0667 62.5352 63.1647 62.6582 63.2559C62.7812 63.3424 62.9544 63.4245 63.1777 63.502C63.401 63.5794 63.6859 63.6569 64.0322 63.7344C64.6383 63.8711 65.1374 64.0352 65.5293 64.2266C65.9212 64.418 66.2129 64.6527 66.4043 64.9307C66.5957 65.2087 66.6914 65.5459 66.6914 65.9424C66.6914 66.266 66.623 66.5622 66.4863 66.8311C66.3542 67.0999 66.1605 67.3324 65.9053 67.5283C65.6546 67.7197 65.3538 67.8701 65.0029 67.9795C64.6566 68.0843 64.2669 68.1367 63.834 68.1367C63.1823 68.1367 62.6309 68.0205 62.1797 67.7881C61.7285 67.5557 61.3867 67.2549 61.1543 66.8857C60.9219 66.5166 60.8057 66.127 60.8057 65.7168H62.0771C62.0954 66.0632 62.1956 66.3389 62.3779 66.5439C62.5602 66.7445 62.7835 66.888 63.0479 66.9746C63.3122 67.0566 63.5742 67.0977 63.834 67.0977C64.1803 67.0977 64.4697 67.0521 64.7021 66.9609C64.9391 66.8698 65.1191 66.7445 65.2422 66.585C65.3652 66.4255 65.4268 66.2432 65.4268 66.0381ZM71.4492 60.6035V61.5742H67.4502V60.6035H71.4492ZM68.8037 58.8057H70.0684V66.168C70.0684 66.4186 70.1071 66.6077 70.1846 66.7354C70.262 66.863 70.3623 66.9473 70.4854 66.9883C70.6084 67.0293 70.7406 67.0498 70.8818 67.0498C70.9867 67.0498 71.096 67.0407 71.21 67.0225C71.3285 66.9997 71.4173 66.9814 71.4766 66.9678L71.4834 68C71.3831 68.0319 71.251 68.0615 71.0869 68.0889C70.9274 68.1208 70.7337 68.1367 70.5059 68.1367C70.196 68.1367 69.9111 68.0752 69.6514 67.9521C69.3916 67.8291 69.1842 67.624 69.0293 67.3369C68.8789 67.0452 68.8037 66.6533 68.8037 66.1611V58.8057ZM77.2393 66.0381C77.2393 65.8558 77.1982 65.6872 77.1162 65.5322C77.0387 65.3727 76.877 65.2292 76.6309 65.1016C76.3893 64.9694 76.0247 64.8555 75.5371 64.7598C75.127 64.6732 74.7555 64.5706 74.4229 64.4521C74.0947 64.3337 73.8145 64.1901 73.582 64.0215C73.3542 63.8529 73.1787 63.6546 73.0557 63.4268C72.9326 63.1989 72.8711 62.9323 72.8711 62.627C72.8711 62.3353 72.9349 62.0596 73.0625 61.7998C73.1947 61.54 73.3792 61.3099 73.6162 61.1094C73.8577 60.9089 74.1471 60.7516 74.4844 60.6377C74.8216 60.5238 75.1976 60.4668 75.6123 60.4668C76.2048 60.4668 76.7106 60.5716 77.1299 60.7812C77.5492 60.9909 77.8704 61.2712 78.0938 61.6221C78.3171 61.9684 78.4287 62.3535 78.4287 62.7773H77.1641C77.1641 62.5723 77.1025 62.374 76.9795 62.1826C76.861 61.9867 76.6855 61.8249 76.4531 61.6973C76.2253 61.5697 75.945 61.5059 75.6123 61.5059C75.2614 61.5059 74.9766 61.5605 74.7578 61.6699C74.5436 61.7747 74.3864 61.9092 74.2861 62.0732C74.1904 62.2373 74.1426 62.4105 74.1426 62.5928C74.1426 62.7295 74.1654 62.8525 74.2109 62.9619C74.2611 63.0667 74.3477 63.1647 74.4707 63.2559C74.5938 63.3424 74.7669 63.4245 74.9902 63.502C75.2135 63.5794 75.4984 63.6569 75.8447 63.7344C76.4508 63.8711 76.9499 64.0352 77.3418 64.2266C77.7337 64.418 78.0254 64.6527 78.2168 64.9307C78.4082 65.2087 78.5039 65.5459 78.5039 65.9424C78.5039 66.266 78.4355 66.5622 78.2988 66.8311C78.1667 67.0999 77.973 67.3324 77.7178 67.5283C77.4671 67.7197 77.1663 67.8701 76.8154 67.9795C76.4691 68.0843 76.0794 68.1367 75.6465 68.1367C74.9948 68.1367 74.4434 68.0205 73.9922 67.7881C73.541 67.5557 73.1992 67.2549 72.9668 66.8857C72.7344 66.5166 72.6182 66.127 72.6182 65.7168H73.8896C73.9079 66.0632 74.0081 66.3389 74.1904 66.5439C74.3727 66.7445 74.596 66.888 74.8604 66.9746C75.1247 67.0566 75.3867 67.0977 75.6465 67.0977C75.9928 67.0977 76.2822 67.0521 76.5146 66.9609C76.7516 66.8698 76.9316 66.7445 77.0547 66.585C77.1777 66.4255 77.2393 66.2432 77.2393 66.0381Z" fill="#212121"/>
<path fill-rule="evenodd" clip-rule="evenodd" d="M101 0C101 3.86599 97.866 7 94 7H101V0Z" fill="#F9F9FF"/>
<path fill-rule="evenodd" clip-rule="evenodd" d="M94 91C97.866 91 101 94.134 101 98L101 91L94 91Z" fill="#F9F9FF"/>
</svg>
