<svg width="101" height="98" viewBox="0 0 101 98" fill="none" xmlns="http://www.w3.org/2000/svg">
<rect width="101" height="84" transform="translate(0 7)" fill="#F9F9FF"/>
<path d="M41.6992 30.9992C41.6992 30.5574 42.0574 30.1992 42.4992 30.1992H48.8992C49.341 30.1992 49.6992 30.5574 49.6992 30.9992V39.7992C49.6992 40.241 49.341 40.5992 48.8992 40.5992H42.4992C42.0574 40.5992 41.6992 40.241 41.6992 39.7992V30.9992Z" fill="#212121"/>
<path d="M59.2992 46.9992C59.2992 47.441 58.941 47.7992 58.4992 47.7992H52.0992C51.6574 47.7992 51.2992 47.441 51.2992 46.9992L51.2992 38.1992C51.2992 37.7574 51.6574 37.3992 52.0992 37.3992L58.4992 37.3992C58.941 37.3992 59.2992 37.7574 59.2992 38.1992L59.2992 46.9992Z" fill="#212121"/>
<path d="M41.6992 42.9992C41.6992 42.5574 42.0574 42.1992 42.4992 42.1992H48.8992C49.341 42.1992 49.6992 42.5574 49.6992 42.9992V46.9992C49.6992 47.441 49.341 47.7992 48.8992 47.7992H42.4992C42.0574 47.7992 41.6992 47.441 41.6992 46.9992V42.9992Z" fill="#212121"/>
<path d="M59.2992 34.9992C59.2992 35.441 58.941 35.7992 58.4992 35.7992L52.0992 35.7992C51.6574 35.7992 51.2992 35.441 51.2992 34.9992L51.2992 30.9992C51.2992 30.5574 51.6574 30.1992 52.0992 30.1992L58.4992 30.1992C58.941 30.1992 59.2992 30.5574 59.2992 30.9992V34.9992Z" fill="#212121"/>
<path d="M20.3486 68H18.2705L18.2842 66.9268H20.3486C21.0596 66.9268 21.652 66.7786 22.126 66.4824C22.5999 66.1816 22.9554 65.7624 23.1924 65.2246C23.4339 64.6823 23.5547 64.0488 23.5547 63.3242V62.7158C23.5547 62.1462 23.4863 61.6403 23.3496 61.1982C23.2129 60.7516 23.0124 60.3757 22.748 60.0703C22.4837 59.7604 22.1602 59.5257 21.7773 59.3662C21.3991 59.2067 20.9639 59.127 20.4717 59.127H18.2295V58.0469H20.4717C21.1234 58.0469 21.7181 58.1562 22.2559 58.375C22.7936 58.5892 23.2562 58.9014 23.6436 59.3115C24.0355 59.7171 24.3363 60.2093 24.5459 60.7881C24.7555 61.3623 24.8604 62.0094 24.8604 62.7295V63.3242C24.8604 64.0443 24.7555 64.6937 24.5459 65.2725C24.3363 65.8467 24.0332 66.3366 23.6367 66.7422C23.2448 67.1478 22.7708 67.46 22.2148 67.6787C21.6634 67.8929 21.0413 68 20.3486 68ZM18.9746 58.0469V68H17.6553V58.0469H18.9746ZM31.0127 66.7354V62.9277C31.0127 62.6361 30.9535 62.3831 30.835 62.1689C30.721 61.9502 30.5479 61.7816 30.3154 61.6631C30.083 61.5446 29.7959 61.4854 29.4541 61.4854C29.1351 61.4854 28.8548 61.54 28.6133 61.6494C28.3763 61.7588 28.1895 61.9023 28.0527 62.0801C27.9206 62.2578 27.8545 62.4492 27.8545 62.6543H26.5898C26.5898 62.39 26.6582 62.1279 26.7949 61.8682C26.9316 61.6084 27.1276 61.3737 27.3828 61.1641C27.6426 60.9499 27.9525 60.7812 28.3125 60.6582C28.6771 60.5306 29.0827 60.4668 29.5293 60.4668C30.0671 60.4668 30.541 60.5579 30.9512 60.7402C31.3659 60.9225 31.6895 61.1982 31.9219 61.5674C32.1589 61.932 32.2773 62.39 32.2773 62.9414V66.3867C32.2773 66.6328 32.2979 66.8949 32.3389 67.1729C32.3844 67.4508 32.4505 67.6901 32.5371 67.8906V68H31.2178C31.154 67.8542 31.1038 67.6605 31.0674 67.4189C31.0309 67.1729 31.0127 66.945 31.0127 66.7354ZM31.2314 63.5156L31.2451 64.4043H29.9668C29.6068 64.4043 29.2855 64.4339 29.0029 64.4932C28.7204 64.5479 28.4834 64.6322 28.292 64.7461C28.1006 64.86 27.9548 65.0036 27.8545 65.1768C27.7542 65.3454 27.7041 65.5436 27.7041 65.7715C27.7041 66.0039 27.7565 66.2158 27.8613 66.4072C27.9661 66.5986 28.1234 66.7513 28.333 66.8652C28.5472 66.9746 28.8092 67.0293 29.1191 67.0293C29.5065 67.0293 29.8483 66.9473 30.1445 66.7832C30.4408 66.6191 30.6755 66.4186 30.8486 66.1816C31.0264 65.9447 31.1221 65.7145 31.1357 65.4912L31.6758 66.0996C31.6439 66.291 31.5573 66.5029 31.416 66.7354C31.2747 66.9678 31.0856 67.1911 30.8486 67.4053C30.6162 67.6149 30.3382 67.7904 30.0146 67.9316C29.6956 68.0684 29.3356 68.1367 28.9346 68.1367C28.4333 68.1367 27.9935 68.0387 27.6152 67.8428C27.2415 67.6468 26.9499 67.3848 26.7402 67.0566C26.5352 66.724 26.4326 66.3525 26.4326 65.9424C26.4326 65.5459 26.5101 65.1973 26.665 64.8965C26.82 64.5911 27.0433 64.3382 27.335 64.1377C27.6266 63.9326 27.9775 63.7777 28.3877 63.6729C28.7979 63.568 29.2559 63.5156 29.7617 63.5156H31.2314ZM38.5732 66.0381C38.5732 65.8558 38.5322 65.6872 38.4502 65.5322C38.3727 65.3727 38.2109 65.2292 37.9648 65.1016C37.7233 64.9694 37.3587 64.8555 36.8711 64.7598C36.4609 64.6732 36.0895 64.5706 35.7568 64.4521C35.4287 64.3337 35.1484 64.1901 34.916 64.0215C34.6882 63.8529 34.5127 63.6546 34.3896 63.4268C34.2666 63.1989 34.2051 62.9323 34.2051 62.627C34.2051 62.3353 34.2689 62.0596 34.3965 61.7998C34.5286 61.54 34.7132 61.3099 34.9502 61.1094C35.1917 60.9089 35.4811 60.7516 35.8184 60.6377C36.1556 60.5238 36.5316 60.4668 36.9463 60.4668C37.5387 60.4668 38.0446 60.5716 38.4639 60.7812C38.8831 60.9909 39.2044 61.2712 39.4277 61.6221C39.651 61.9684 39.7627 62.3535 39.7627 62.7773H38.498C38.498 62.5723 38.4365 62.374 38.3135 62.1826C38.195 61.9867 38.0195 61.8249 37.7871 61.6973C37.5592 61.5697 37.279 61.5059 36.9463 61.5059C36.5954 61.5059 36.3105 61.5605 36.0918 61.6699C35.8776 61.7747 35.7204 61.9092 35.6201 62.0732C35.5244 62.2373 35.4766 62.4105 35.4766 62.5928C35.4766 62.7295 35.4993 62.8525 35.5449 62.9619C35.5951 63.0667 35.6816 63.1647 35.8047 63.2559C35.9277 63.3424 36.1009 63.4245 36.3242 63.502C36.5475 63.5794 36.8324 63.6569 37.1787 63.7344C37.7848 63.8711 38.2839 64.0352 38.6758 64.2266C39.0677 64.418 39.3594 64.6527 39.5508 64.9307C39.7422 65.2087 39.8379 65.5459 39.8379 65.9424C39.8379 66.266 39.7695 66.5622 39.6328 66.8311C39.5007 67.0999 39.307 67.3324 39.0518 67.5283C38.8011 67.7197 38.5003 67.8701 38.1494 67.9795C37.8031 68.0843 37.4134 68.1367 36.9805 68.1367C36.3288 68.1367 35.7773 68.0205 35.3262 67.7881C34.875 67.5557 34.5332 67.2549 34.3008 66.8857C34.0684 66.5166 33.9521 66.127 33.9521 65.7168H35.2236C35.2419 66.0632 35.3421 66.3389 35.5244 66.5439C35.7067 66.7445 35.93 66.888 36.1943 66.9746C36.4587 67.0566 36.7207 67.0977 36.9805 67.0977C37.3268 67.0977 37.6162 67.0521 37.8486 66.9609C38.0856 66.8698 38.2656 66.7445 38.3887 66.585C38.5117 66.4255 38.5732 66.2432 38.5732 66.0381ZM42.7637 57.5V68H41.499V57.5H42.7637ZM42.4629 64.0215L41.9365 64.001C41.9411 63.4951 42.0163 63.028 42.1621 62.5996C42.3079 62.1667 42.513 61.7907 42.7773 61.4717C43.0417 61.1527 43.3561 60.9066 43.7207 60.7334C44.0898 60.5557 44.4977 60.4668 44.9443 60.4668C45.3089 60.4668 45.637 60.5169 45.9287 60.6172C46.2204 60.7129 46.4688 60.8678 46.6738 61.082C46.8835 61.2962 47.043 61.5742 47.1523 61.916C47.2617 62.2533 47.3164 62.6657 47.3164 63.1533V68H46.0449V63.1396C46.0449 62.7523 45.988 62.4424 45.874 62.21C45.7601 61.973 45.5938 61.8021 45.375 61.6973C45.1562 61.5879 44.8874 61.5332 44.5684 61.5332C44.2539 61.5332 43.9668 61.5993 43.707 61.7314C43.4518 61.8636 43.2308 62.0459 43.0439 62.2783C42.8617 62.5107 42.7181 62.7773 42.6133 63.0781C42.513 63.3743 42.4629 63.6888 42.4629 64.0215ZM49.2031 57.5H50.4746V66.5645L50.3652 68H49.2031V57.5ZM55.4717 64.2402V64.3838C55.4717 64.9215 55.4079 65.4206 55.2803 65.8809C55.1527 66.3366 54.9658 66.7331 54.7197 67.0703C54.4736 67.4076 54.1729 67.6696 53.8174 67.8564C53.4619 68.0433 53.054 68.1367 52.5938 68.1367C52.1243 68.1367 51.7119 68.057 51.3564 67.8975C51.0055 67.7334 50.7093 67.4987 50.4678 67.1934C50.2262 66.888 50.0326 66.5189 49.8867 66.0859C49.7454 65.653 49.6475 65.1654 49.5928 64.623V63.9941C49.6475 63.4473 49.7454 62.9574 49.8867 62.5244C50.0326 62.0915 50.2262 61.7223 50.4678 61.417C50.7093 61.1071 51.0055 60.8724 51.3564 60.7129C51.7074 60.5488 52.1152 60.4668 52.5801 60.4668C53.0449 60.4668 53.4574 60.5579 53.8174 60.7402C54.1774 60.918 54.4782 61.1732 54.7197 61.5059C54.9658 61.8385 55.1527 62.2373 55.2803 62.7021C55.4079 63.1624 55.4717 63.6751 55.4717 64.2402ZM54.2002 64.3838V64.2402C54.2002 63.8711 54.166 63.5247 54.0977 63.2012C54.0293 62.873 53.9199 62.5859 53.7695 62.3398C53.6191 62.0892 53.4209 61.8932 53.1748 61.752C52.9287 61.6061 52.6257 61.5332 52.2656 61.5332C51.9466 61.5332 51.6686 61.5879 51.4316 61.6973C51.1992 61.8066 51.001 61.9548 50.8369 62.1416C50.6729 62.3239 50.5384 62.5335 50.4336 62.7705C50.3333 63.0029 50.2581 63.2445 50.208 63.4951V65.1426C50.2809 65.4616 50.3994 65.7692 50.5635 66.0654C50.7321 66.3571 50.9554 66.5964 51.2334 66.7832C51.516 66.9701 51.8646 67.0635 52.2793 67.0635C52.6211 67.0635 52.9128 66.9951 53.1543 66.8584C53.4004 66.7171 53.5986 66.5234 53.749 66.2773C53.904 66.0312 54.0179 65.7464 54.0908 65.4229C54.1637 65.0993 54.2002 64.7529 54.2002 64.3838ZM56.7363 64.3838V64.2266C56.7363 63.6934 56.8138 63.1989 56.9688 62.7432C57.1237 62.2829 57.347 61.8841 57.6387 61.5469C57.9303 61.2051 58.2835 60.9408 58.6982 60.7539C59.113 60.5625 59.5778 60.4668 60.0928 60.4668C60.6123 60.4668 61.0794 60.5625 61.4941 60.7539C61.9134 60.9408 62.2689 61.2051 62.5605 61.5469C62.8568 61.8841 63.0824 62.2829 63.2373 62.7432C63.3923 63.1989 63.4697 63.6934 63.4697 64.2266V64.3838C63.4697 64.917 63.3923 65.4115 63.2373 65.8672C63.0824 66.3229 62.8568 66.7217 62.5605 67.0635C62.2689 67.4007 61.9157 67.665 61.501 67.8564C61.0908 68.0433 60.626 68.1367 60.1064 68.1367C59.5869 68.1367 59.1198 68.0433 58.7051 67.8564C58.2904 67.665 57.9349 67.4007 57.6387 67.0635C57.347 66.7217 57.1237 66.3229 56.9688 65.8672C56.8138 65.4115 56.7363 64.917 56.7363 64.3838ZM58.001 64.2266V64.3838C58.001 64.7529 58.0443 65.1016 58.1309 65.4297C58.2174 65.7533 58.3473 66.0404 58.5205 66.291C58.6982 66.5417 58.9193 66.7399 59.1836 66.8857C59.4479 67.027 59.7555 67.0977 60.1064 67.0977C60.4528 67.0977 60.7559 67.027 61.0156 66.8857C61.2799 66.7399 61.4987 66.5417 61.6719 66.291C61.8451 66.0404 61.9749 65.7533 62.0615 65.4297C62.1527 65.1016 62.1982 64.7529 62.1982 64.3838V64.2266C62.1982 63.862 62.1527 63.5179 62.0615 63.1943C61.9749 62.8662 61.8428 62.5768 61.665 62.3262C61.4919 62.071 61.2731 61.8704 61.0088 61.7246C60.749 61.5788 60.4437 61.5059 60.0928 61.5059C59.7464 61.5059 59.4411 61.5788 59.1768 61.7246C58.917 61.8704 58.6982 62.071 58.5205 62.3262C58.3473 62.5768 58.2174 62.8662 58.1309 63.1943C58.0443 63.5179 58.001 63.862 58.001 64.2266ZM69.417 66.7354V62.9277C69.417 62.6361 69.3577 62.3831 69.2393 62.1689C69.1253 61.9502 68.9521 61.7816 68.7197 61.6631C68.4873 61.5446 68.2002 61.4854 67.8584 61.4854C67.5394 61.4854 67.2591 61.54 67.0176 61.6494C66.7806 61.7588 66.5938 61.9023 66.457 62.0801C66.3249 62.2578 66.2588 62.4492 66.2588 62.6543H64.9941C64.9941 62.39 65.0625 62.1279 65.1992 61.8682C65.3359 61.6084 65.5319 61.3737 65.7871 61.1641C66.0469 60.9499 66.3568 60.7812 66.7168 60.6582C67.0814 60.5306 67.487 60.4668 67.9336 60.4668C68.4714 60.4668 68.9453 60.5579 69.3555 60.7402C69.7702 60.9225 70.0938 61.1982 70.3262 61.5674C70.5632 61.932 70.6816 62.39 70.6816 62.9414V66.3867C70.6816 66.6328 70.7021 66.8949 70.7432 67.1729C70.7887 67.4508 70.8548 67.6901 70.9414 67.8906V68H69.6221C69.5583 67.8542 69.5081 67.6605 69.4717 67.4189C69.4352 67.1729 69.417 66.945 69.417 66.7354ZM69.6357 63.5156L69.6494 64.4043H68.3711C68.0111 64.4043 67.6898 64.4339 67.4072 64.4932C67.1247 64.5479 66.8877 64.6322 66.6963 64.7461C66.5049 64.86 66.359 65.0036 66.2588 65.1768C66.1585 65.3454 66.1084 65.5436 66.1084 65.7715C66.1084 66.0039 66.1608 66.2158 66.2656 66.4072C66.3704 66.5986 66.5277 66.7513 66.7373 66.8652C66.9515 66.9746 67.2135 67.0293 67.5234 67.0293C67.9108 67.0293 68.2526 66.9473 68.5488 66.7832C68.8451 66.6191 69.0798 66.4186 69.2529 66.1816C69.4307 65.9447 69.5264 65.7145 69.54 65.4912L70.0801 66.0996C70.0482 66.291 69.9616 66.5029 69.8203 66.7354C69.679 66.9678 69.4899 67.1911 69.2529 67.4053C69.0205 67.6149 68.7425 67.7904 68.4189 67.9316C68.0999 68.0684 67.7399 68.1367 67.3389 68.1367C66.8376 68.1367 66.3978 68.0387 66.0195 67.8428C65.6458 67.6468 65.3542 67.3848 65.1445 67.0566C64.9395 66.724 64.8369 66.3525 64.8369 65.9424C64.8369 65.5459 64.9144 65.1973 65.0693 64.8965C65.2243 64.5911 65.4476 64.3382 65.7393 64.1377C66.0309 63.9326 66.3818 63.7777 66.792 63.6729C67.2021 63.568 67.6602 63.5156 68.166 63.5156H69.6357ZM73.9355 61.7656V68H72.6709V60.6035H73.9014L73.9355 61.7656ZM76.2461 60.5625L76.2393 61.7383C76.1344 61.7155 76.0342 61.7018 75.9385 61.6973C75.8473 61.6882 75.7425 61.6836 75.624 61.6836C75.3324 61.6836 75.0749 61.7292 74.8516 61.8203C74.6283 61.9115 74.4391 62.0391 74.2842 62.2031C74.1292 62.3672 74.0062 62.5632 73.915 62.791C73.8285 63.0143 73.7715 63.2604 73.7441 63.5293L73.3887 63.7344C73.3887 63.2878 73.432 62.8685 73.5186 62.4766C73.6097 62.0846 73.7487 61.7383 73.9355 61.4375C74.1224 61.1322 74.3594 60.8952 74.6465 60.7266C74.9382 60.5534 75.2845 60.4668 75.6855 60.4668C75.7767 60.4668 75.8815 60.4782 76 60.501C76.1185 60.5192 76.2005 60.5397 76.2461 60.5625ZM81.9404 66.5645V57.5H83.2119V68H82.0498L81.9404 66.5645ZM76.9639 64.3838V64.2402C76.9639 63.6751 77.0322 63.1624 77.1689 62.7021C77.3102 62.2373 77.5085 61.8385 77.7637 61.5059C78.0234 61.1732 78.3311 60.918 78.6865 60.7402C79.0465 60.5579 79.4476 60.4668 79.8896 60.4668C80.3545 60.4668 80.7601 60.5488 81.1064 60.7129C81.4574 60.8724 81.7536 61.1071 81.9951 61.417C82.2412 61.7223 82.4349 62.0915 82.5762 62.5244C82.7174 62.9574 82.8154 63.4473 82.8701 63.9941V64.623C82.82 65.1654 82.722 65.653 82.5762 66.0859C82.4349 66.5189 82.2412 66.888 81.9951 67.1934C81.7536 67.4987 81.4574 67.7334 81.1064 67.8975C80.7555 68.057 80.3454 68.1367 79.876 68.1367C79.443 68.1367 79.0465 68.0433 78.6865 67.8564C78.3311 67.6696 78.0234 67.4076 77.7637 67.0703C77.5085 66.7331 77.3102 66.3366 77.1689 65.8809C77.0322 65.4206 76.9639 64.9215 76.9639 64.3838ZM78.2354 64.2402V64.3838C78.2354 64.7529 78.2718 65.0993 78.3447 65.4229C78.4222 65.7464 78.5407 66.0312 78.7002 66.2773C78.8597 66.5234 79.0625 66.7171 79.3086 66.8584C79.5547 66.9951 79.8486 67.0635 80.1904 67.0635C80.6097 67.0635 80.9538 66.9746 81.2227 66.7969C81.4961 66.6191 81.7148 66.3844 81.8789 66.0928C82.043 65.8011 82.1706 65.4844 82.2617 65.1426V63.4951C82.207 63.2445 82.1273 63.0029 82.0225 62.7705C81.9222 62.5335 81.79 62.3239 81.626 62.1416C81.4665 61.9548 81.2682 61.8066 81.0312 61.6973C80.7988 61.5879 80.5231 61.5332 80.2041 61.5332C79.8577 61.5332 79.5592 61.6061 79.3086 61.752C79.0625 61.8932 78.8597 62.0892 78.7002 62.3398C78.5407 62.5859 78.4222 62.873 78.3447 63.2012C78.2718 63.5247 78.2354 63.8711 78.2354 64.2402Z" fill="#212121"/>
<path fill-rule="evenodd" clip-rule="evenodd" d="M101 0C101 3.86599 97.866 7 94 7H101V0Z" fill="#F5F5F5"/>
<path fill-rule="evenodd" clip-rule="evenodd" d="M94 91C97.866 91 101 94.134 101 98L101 91L94 91Z" fill="#F5F5F5"/>
</svg>
