<svg version="1.2" xmlns="http://www.w3.org/2000/svg" viewBox="0 0 101 96" width="101" height="96"><style>.a{fill:#f5f5f5}.b{fill:#212121}.c{fill:#e5e5e5}</style><path class="a" d="m0 6h101v84h-101z"/><path class="b" d="m41.7 30c0-0.4 0.4-0.8 0.8-0.8h6.4c0.4 0 0.8 0.4 0.8 0.8v8.8c0 0.4-0.4 0.8-0.8 0.8h-6.4c-0.4 0-0.8-0.4-0.8-0.8z"/><path class="b" d="m59.3 46c0 0.4-0.4 0.8-0.8 0.8h-6.4c-0.4 0-0.8-0.4-0.8-0.8v-8.8c0-0.4 0.4-0.8 0.8-0.8h6.4c0.4 0 0.8 0.4 0.8 0.8z"/><path class="b" d="m41.7 42c0-0.4 0.4-0.8 0.8-0.8h6.4c0.4 0 0.8 0.4 0.8 0.8v4c0 0.4-0.4 0.8-0.8 0.8h-6.4c-0.4 0-0.8-0.4-0.8-0.8z"/><path class="b" d="m59.3 34c0 0.4-0.4 0.8-0.8 0.8h-6.4c-0.4 0-0.8-0.4-0.8-0.8v-4c0-0.4 0.4-0.8 0.8-0.8h6.4c0.4 0 0.8 0.4 0.8 0.8z"/><path fill-rule="evenodd" class="b" d="m20.3 67h-2.6v-10h2.8q0.9 0 1.8 0.4 0.8 0.3 1.3 0.9 0.6 0.6 0.9 1.5 0.4 0.8 0.4 1.9v0.6q0 1.1-0.4 2-0.3 0.8-0.9 1.4-0.6 0.7-1.4 1-0.8 0.3-1.9 0.3zm0-1.1q1.1 0 1.8-0.4 0.7-0.5 1.1-1.3 0.4-0.8 0.4-1.9v-0.6q0-0.8-0.3-1.5-0.2-0.7-0.6-1.1-0.3-0.5-0.9-0.7-0.6-0.3-1.3-0.3h-1.5v7.8zm10.6-4q0-0.4-0.1-0.7-0.2-0.4-0.6-0.5-0.3-0.2-0.8-0.2-0.5 0-0.9 0.1-0.3 0.2-0.5 0.5-0.2 0.2-0.2 0.6h-1.3q0-0.4 0.2-0.8 0.2-0.4 0.6-0.7 0.4-0.4 0.9-0.5 0.6-0.2 1.3-0.2 0.8 0 1.4 0.2 0.6 0.3 0.9 0.9 0.4 0.5 0.4 1.3v3.5q0 0.4 0.1 0.8 0 0.4 0.2 0.7v0.1h-1.4q-0.1-0.2-0.1-0.6 0-0.1 0-0.2-0.1 0.1-0.2 0.2-0.4 0.3-0.9 0.5-0.4 0.2-1 0.2-0.8 0-1.4-0.3-0.5-0.3-0.8-0.7-0.3-0.5-0.3-1.2 0-0.6 0.2-1 0.2-0.5 0.7-0.8 0.4-0.3 1-0.4 0.6-0.2 1.4-0.2h1.2zm-1 1.5q-0.5 0-1 0.1-0.4 0.1-0.7 0.2-0.3 0.2-0.4 0.5-0.2 0.2-0.2 0.6 0 0.3 0.2 0.6 0.1 0.3 0.5 0.5 0.3 0.1 0.7 0.1 0.6 0 1.1-0.2 0.4-0.3 0.7-0.6 0.1-0.2 0.1-0.3v-1.5zm8.6 1.6q0-0.2-0.1-0.5-0.1-0.2-0.5-0.4-0.3-0.2-1.1-0.4-0.6-0.1-1.1-0.3-0.5-0.1-0.8-0.4-0.4-0.2-0.5-0.6-0.2-0.3-0.2-0.8 0-0.4 0.2-0.8 0.2-0.4 0.5-0.7 0.4-0.3 0.9-0.5 0.5-0.1 1.1-0.1 0.9 0 1.5 0.3 0.7 0.3 1 0.8 0.3 0.5 0.3 1.2h-1.2q0-0.3-0.2-0.6-0.2-0.3-0.5-0.5-0.4-0.2-0.9-0.2-0.5 0-0.8 0.2-0.4 0.1-0.5 0.4-0.2 0.2-0.2 0.5 0 0.2 0.1 0.3 0.1 0.2 0.3 0.3 0.2 0.2 0.5 0.3 0.3 0.1 0.9 0.2 0.9 0.2 1.4 0.5 0.6 0.3 0.9 0.7 0.3 0.4 0.3 1 0 0.5-0.2 0.9-0.2 0.4-0.6 0.7-0.4 0.3-0.9 0.5-0.5 0.1-1.1 0.1-1 0-1.7-0.3-0.7-0.4-1-0.9-0.4-0.6-0.4-1.2h1.3q0 0.5 0.3 0.8 0.3 0.3 0.7 0.5 0.4 0.1 0.8 0.1 0.5 0 0.8-0.2 0.4-0.1 0.6-0.3 0.1-0.3 0.1-0.6zm4.2-8.5v4q0 0 0 0 0.4-0.5 1-0.8 0.5-0.2 1.2-0.2 0.6 0 1 0.1 0.4 0.1 0.7 0.5 0.4 0.3 0.5 0.8 0.2 0.5 0.2 1.2v4.9h-1.3v-4.9q0-0.6-0.2-0.9-0.1-0.4-0.5-0.5-0.3-0.2-0.8-0.2-0.4 0-0.8 0.2-0.4 0.2-0.7 0.6-0.1 0.2-0.3 0.4v5.3h-1.2v-10.5zm6.4 0h1.3v3.9q0.3-0.5 0.9-0.7 0.5-0.2 1.2-0.2 0.7 0 1.2 0.2 0.6 0.3 0.9 0.8 0.4 0.5 0.6 1.2 0.2 0.7 0.2 1.5v0.2q0 0.8-0.2 1.5-0.2 0.7-0.6 1.2-0.3 0.5-0.9 0.7-0.5 0.3-1.2 0.3-0.7 0-1.2-0.2-0.6-0.3-0.9-0.7 0 0-0.1-0.1v0.9h-1.2zm5 6.9v-0.2q0-0.5-0.1-1-0.1-0.5-0.3-0.9-0.2-0.3-0.6-0.6-0.4-0.2-0.9-0.2-0.5 0-0.9 0.2-0.3 0.1-0.6 0.4-0.2 0.3-0.4 0.7-0.1 0.3-0.2 0.7v1.6q0.1 0.5 0.4 1 0.2 0.4 0.6 0.7 0.5 0.3 1.1 0.3 0.5 0 0.9-0.3 0.3-0.2 0.6-0.5 0.2-0.4 0.3-0.9 0.1-0.5 0.1-1zm2.5 0v-0.2q0-0.8 0.3-1.5 0.2-0.7 0.6-1.2 0.5-0.5 1.1-0.8 0.6-0.2 1.4-0.2 0.8 0 1.4 0.2 0.6 0.3 1.1 0.8 0.4 0.5 0.6 1.2 0.3 0.7 0.3 1.5v0.2q0 0.8-0.3 1.5-0.2 0.6-0.6 1.2-0.5 0.5-1.1 0.7-0.6 0.3-1.4 0.3-0.8 0-1.4-0.3-0.6-0.2-1.1-0.7-0.4-0.6-0.6-1.2-0.3-0.7-0.3-1.5zm1.3-0.2v0.2q0 0.5 0.1 1 0.2 0.5 0.4 0.9 0.3 0.4 0.7 0.6 0.4 0.2 0.9 0.2 0.5 0 0.9-0.2 0.4-0.2 0.7-0.6 0.2-0.4 0.4-0.9 0.1-0.5 0.1-1v-0.2q0-0.5-0.1-1-0.2-0.5-0.4-0.9-0.3-0.4-0.7-0.6-0.4-0.2-0.9-0.2-0.5 0-0.9 0.2-0.4 0.2-0.7 0.6-0.2 0.4-0.4 0.9-0.1 0.5-0.1 1zm11.4-1.3q0-0.4-0.2-0.7-0.1-0.4-0.5-0.5-0.3-0.2-0.8-0.2-0.5 0-0.9 0.1-0.3 0.2-0.5 0.5-0.2 0.2-0.2 0.5h-1.3q0-0.4 0.2-0.7 0.2-0.4 0.6-0.7 0.4-0.4 0.9-0.6 0.6-0.1 1.2-0.1 0.8 0 1.5 0.2 0.6 0.3 0.9 0.9 0.4 0.5 0.4 1.3v3.5q0 0.3 0.1 0.8 0 0.4 0.1 0.7v0.1h-1.3q-0.1-0.2-0.1-0.6 0-0.1 0-0.2-0.1 0.1-0.2 0.2-0.4 0.3-0.9 0.5-0.5 0.2-1.1 0.2-0.7 0-1.3-0.3-0.5-0.3-0.8-0.8-0.4-0.5-0.4-1.1 0-0.6 0.3-1 0.2-0.5 0.6-0.8 0.5-0.3 1.1-0.4 0.6-0.2 1.4-0.2h1.2zm-1 1.5q-0.6 0-1 0.1-0.4 0.1-0.7 0.2-0.3 0.2-0.4 0.5-0.2 0.2-0.2 0.5 0 0.4 0.2 0.7 0.1 0.3 0.4 0.4 0.4 0.2 0.8 0.2 0.6 0 1.1-0.2 0.4-0.3 0.7-0.6 0.1-0.2 0.1-0.3v-1.5zm5.6 3.6h-1.3v-7.4h1.3v0.8q0 0 0 0 0.3-0.4 0.7-0.7 0.4-0.3 1-0.3 0.2 0 0.4 0.1 0.1 0 0.2 0v1.2q-0.2 0-0.3 0-0.1 0-0.3 0-0.5 0-0.8 0.1-0.3 0.1-0.6 0.4-0.2 0.2-0.3 0.5zm8-10.5h1.3v10.5h-1.2l-0.1-0.8q-0.3 0.5-0.8 0.7-0.6 0.3-1.3 0.3-0.6 0-1.2-0.3-0.5-0.3-0.9-0.8-0.4-0.5-0.6-1.2-0.2-0.7-0.2-1.5v-0.1q0-0.9 0.2-1.6 0.2-0.7 0.6-1.2 0.4-0.5 0.9-0.7 0.6-0.3 1.2-0.3 0.7 0 1.3 0.2 0.4 0.3 0.8 0.7zm-3.7 6.7v0.2q0 0.5 0.1 1 0.1 0.5 0.4 0.8 0.2 0.4 0.6 0.6 0.3 0.2 0.8 0.2 0.7 0 1.1-0.2 0.4-0.3 0.6-0.7 0.3-0.5 0.4-1v-1.6q-0.1-0.4-0.2-0.8-0.2-0.3-0.4-0.6-0.3-0.3-0.6-0.4-0.4-0.2-0.8-0.2-0.6 0-0.9 0.2-0.4 0.2-0.6 0.6-0.3 0.4-0.4 0.9-0.1 0.5-0.1 1z"/><path fill-rule="evenodd" class="c" d="m101-1c0 3.9-3.1 7-7 7h7z"/><path fill-rule="evenodd" class="c" d="m94 90c3.9 0 7 3.1 7 7v-7z"/></svg>