<svg version="1.2" xmlns="http://www.w3.org/2000/svg" viewBox="0 0 123 120" width="123" height="120"><style>.a{fill:#fff}</style><path fill-rule="evenodd" class="a" d="m85.5 1.5v55.5c0 1.7-1.3 3-3 3h-42c-1.7 0-3-1.3-3-3v-55.5c0-0.7 0.7-1.1 1.3-0.8l10.3 5.1c0.3 0.1 0.5 0.1 0.8 0l11.2-5.6c0.3-0.1 0.5-0.1 0.8 0l11.2 5.6c0.3 0.1 0.5 0.1 0.8 0l10.3-5.1c0.6-0.3 1.3 0.1 1.3 0.8zm-36 19.5h24c1.7 0 3-1.3 3-3 0-1.7-1.3-3-3-3h-24c-1.7 0-3 1.3-3 3 0 1.7 1.3 3 3 3zm0 15h24c1.7 0 3-1.3 3-3 0-1.7-1.3-3-3-3h-24c-1.7 0-3 1.3-3 3 0 1.7 1.3 3 3 3zm0 15h15c1.7 0 3-1.3 3-3 0-1.7-1.3-3-3-3h-15c-1.7 0-3 1.3-3 3 0 1.7 1.3 3 3 3z"/><path fill-rule="evenodd" class="a" d="m25 101.1v1.9q0 3.4-0.9 6-0.8 2.7-2.4 4.6-1.6 1.8-3.8 2.8-2.2 1-4.9 1-2.7 0-4.9-1-2.2-1-3.8-2.8-1.6-1.9-2.5-4.6-0.9-2.6-0.9-6v-1.9q0-3.3 0.9-6 0.9-2.6 2.5-4.5 1.6-1.9 3.8-2.9 2.2-1 4.8-1 2.8 0 5 1 2.2 1 3.8 2.9 1.6 1.9 2.4 4.5 0.9 2.7 0.9 6zm-4 1.9v-1.9q0-2.7-0.5-4.7-0.5-2.1-1.6-3.5-1-1.4-2.6-2.1-1.5-0.7-3.4-0.7-1.8 0-3.3 0.7-1.5 0.7-2.5 2.1-1.1 1.4-1.7 3.5-0.5 2-0.5 4.7v1.9q0 2.7 0.5 4.8 0.6 2 1.7 3.4 1.1 1.4 2.5 2.1 1.5 0.8 3.4 0.8 1.9 0 3.4-0.8 1.5-0.7 2.5-2.1 1.1-1.4 1.6-3.4 0.5-2.1 0.5-4.8zm13.1 14h-3.8v-22.2h3.7l0.1 2.6q0-0.1 0-0.1 0.8-1.4 2.1-2.1 1.3-0.8 3.2-0.8 0.4 0 0.9 0.1 0.5 0.1 0.7 0.2v3.5q-0.5-0.1-0.9-0.1-0.4 0-0.9 0-1.3 0-2.4 0.4-1 0.4-1.7 1.1-0.6 0.7-1 1.6zm24-31.5h3.8v31.5h-3.5l-0.1-2.4q-1.1 1.4-2.7 2.1-1.6 0.7-3.7 0.7-1.9 0-3.5-0.8-1.6-0.8-2.8-2.4-1.2-1.5-1.8-3.5-0.6-2.1-0.6-4.5v-0.5q0-2.5 0.6-4.6 0.6-2.1 1.8-3.6 1.2-1.5 2.8-2.3 1.6-0.8 3.6-0.8 2.1 0 3.6 0.8 1.5 0.6 2.5 1.9zm-11.1 20.2v0.4q0 1.7 0.3 3.1 0.4 1.5 1.1 2.6 0.7 1.1 1.8 1.7 1.1 0.7 2.7 0.7 1.9 0 3.1-0.8 1.2-0.8 1.9-2.1 0.8-1.4 1.2-2.9v-4.9q-0.3-1.2-0.7-2.2-0.5-1.1-1.2-1.9-0.7-0.8-1.8-1.3-1.1-0.5-2.5-0.5-1.6 0-2.7 0.6-1.1 0.7-1.8 1.8-0.7 1.1-1.1 2.6-0.3 1.4-0.3 3.1zm30 11.7q-2.3 0-4.2-0.8-1.8-0.8-3.2-2.2-1.3-1.5-2-3.4-0.7-2-0.7-4.3v-0.9q0-2.7 0.8-4.8 0.8-2.2 2.1-3.6 1.4-1.5 3.1-2.3 1.8-0.7 3.7-0.7 2.3 0 4.1 0.8 1.7 0.8 2.8 2.3 1.1 1.4 1.6 3.4 0.6 2 0.6 4.3v1.7h-15q0 1.5 0.4 2.7 0.4 1.4 1.3 2.5 0.9 1 2.1 1.6 1.2 0.6 2.7 0.6 2.1 0 3.5-0.8 1.3-0.9 2.4-2.2l2.3 1.8q-0.7 1.1-1.8 2.1-1.1 1-2.8 1.6-1.6 0.6-3.8 0.6zm-6.3-10.5q0-0.1 0-0.2v-0.9q0-1 0.1-2h-1.7v3.1zm11.2-3.1v-0.2q-0.1-1.5-0.6-2.9-0.5-1.4-1.6-2.3-1.2-0.9-3.1-0.9-1.3 0-2.4 0.5-1.1 0.6-1.9 1.6-0.7 1.1-1.2 2.6-0.2 0.8-0.3 1.6zm12 13.2h-3.8v-22.2h3.7l0.1 2.5q0 0 0 0 0.9-1.4 2.2-2.1 1.3-0.8 3.1-0.8 0.4 0 0.9 0.1 0.6 0.1 0.8 0.2l-0.1 3.5q-0.4-0.1-0.9-0.1-0.4-0.1-0.9-0.1-1.3 0-2.3 0.4-1 0.4-1.7 1.2-0.7 0.7-1.1 1.6zm23.4-5.9q0-0.8-0.4-1.5-0.3-0.7-1.4-1.3-1.1-0.6-3.3-1-1.9-0.4-3.4-0.9-1.4-0.6-2.5-1.3-1-0.8-1.6-1.8-0.5-1-0.5-2.4 0-1.3 0.6-2.5 0.6-1.2 1.6-2.1 1.1-0.9 2.6-1.4 1.5-0.5 3.4-0.5 2.7 0 4.6 0.9 1.9 1 2.9 2.6 1 1.5 1 3.4h-3.8q0-0.9-0.6-1.8-0.5-0.8-1.6-1.4-1-0.6-2.5-0.6-1.6 0-2.5 0.5-1 0.5-1.5 1.2-0.4 0.8-0.4 1.6 0 0.6 0.2 1.1 0.2 0.5 0.8 0.9 0.5 0.4 1.5 0.7 1.1 0.4 2.6 0.7 2.7 0.6 4.5 1.5 1.8 0.8 2.6 2.1 0.9 1.2 0.9 3 0 1.5-0.6 2.7-0.6 1.2-1.8 2.1-1.1 0.8-2.7 1.3-1.5 0.5-3.5 0.5-2.9 0-4.9-1-2.1-1.1-3.1-2.7-1.1-1.7-1.1-3.6h3.8q0.1 1.6 0.9 2.5 0.9 0.9 2.1 1.3 1.1 0.4 2.3 0.4 1.6 0 2.6-0.4 1.1-0.4 1.6-1.1 0.6-0.8 0.6-1.7z"/></svg>