<svg width="101" height="84" viewBox="0 0 101 84" fill="none" xmlns="http://www.w3.org/2000/svg">
<path fill-rule="evenodd" clip-rule="evenodd" d="M58.5 22.4852V40.9997C58.5 41.552 58.0523 41.9997 57.5 41.9997H43.5C42.9477 41.9997 42.5 41.552 42.5 40.9997V22.4852C42.5 22.2621 42.7347 22.1171 42.9342 22.2168L46.3658 23.9327C46.4503 23.9749 46.5497 23.9749 46.6342 23.9327L50.3658 22.0668C50.4503 22.0246 50.5497 22.0246 50.6342 22.0668L54.3658 23.9327C54.4503 23.9749 54.5497 23.9749 54.6342 23.9327L58.0658 22.2168C58.2653 22.1171 58.5 22.2621 58.5 22.4852ZM45.5 27.9997C45.5 27.4475 45.9477 26.9997 46.5 26.9997H54.5C55.0523 26.9997 55.5 27.4475 55.5 27.9997C55.5 28.552 55.0523 28.9997 54.5 28.9997H46.5C45.9477 28.9997 45.5 28.552 45.5 27.9997ZM45.5 32.9997C45.5 32.4475 45.9477 31.9997 46.5 31.9997H54.5C55.0523 31.9997 55.5 32.4475 55.5 32.9997C55.5 33.552 55.0523 33.9997 54.5 33.9997H46.5C45.9477 33.9997 45.5 33.552 45.5 32.9997ZM45.5 37.9997C45.5 37.4475 45.9477 36.9997 46.5 36.9997H51.5C52.0523 36.9997 52.5 37.4475 52.5 37.9997C52.5 38.552 52.0523 38.9997 51.5 38.9997H46.5C45.9477 38.9997 45.5 38.552 45.5 37.9997Z" fill="white"/>
<path d="M38.3184 55.709V56.3379C38.3184 57.0853 38.2249 57.7552 38.0381 58.3477C37.8512 58.9401 37.5824 59.4437 37.2314 59.8584C36.8805 60.2731 36.459 60.5898 35.9668 60.8086C35.4792 61.0273 34.9323 61.1367 34.3262 61.1367C33.7383 61.1367 33.1982 61.0273 32.7061 60.8086C32.2184 60.5898 31.7946 60.2731 31.4346 59.8584C31.0791 59.4437 30.8034 58.9401 30.6074 58.3477C30.4115 57.7552 30.3135 57.0853 30.3135 56.3379V55.709C30.3135 54.9616 30.4092 54.2939 30.6006 53.7061C30.7965 53.1136 31.0723 52.61 31.4277 52.1953C31.7832 51.776 32.2048 51.457 32.6924 51.2383C33.1846 51.0195 33.7246 50.9102 34.3125 50.9102C34.9186 50.9102 35.4655 51.0195 35.9531 51.2383C36.4453 51.457 36.8669 51.776 37.2178 52.1953C37.5732 52.61 37.8444 53.1136 38.0312 53.7061C38.2227 54.2939 38.3184 54.9616 38.3184 55.709ZM37.0127 56.3379V55.6953C37.0127 55.1029 36.9512 54.5788 36.8281 54.123C36.7096 53.6673 36.5342 53.2845 36.3018 52.9746C36.0693 52.6647 35.7845 52.43 35.4473 52.2705C35.1146 52.111 34.7363 52.0312 34.3125 52.0312C33.9023 52.0312 33.5309 52.111 33.1982 52.2705C32.8701 52.43 32.5876 52.6647 32.3506 52.9746C32.1182 53.2845 31.9382 53.6673 31.8105 54.123C31.6829 54.5788 31.6191 55.1029 31.6191 55.6953V56.3379C31.6191 56.9349 31.6829 57.4635 31.8105 57.9238C31.9382 58.3796 32.1204 58.7646 32.3574 59.0791C32.599 59.389 32.8838 59.6237 33.2119 59.7832C33.5446 59.9427 33.916 60.0225 34.3262 60.0225C34.7546 60.0225 35.1351 59.9427 35.4678 59.7832C35.8005 59.6237 36.0807 59.389 36.3086 59.0791C36.541 58.7646 36.7165 58.3796 36.835 57.9238C36.9535 57.4635 37.0127 56.9349 37.0127 56.3379ZM41.3672 54.7656V61H40.1025V53.6035H41.333L41.3672 54.7656ZM43.6777 53.5625L43.6709 54.7383C43.5661 54.7155 43.4658 54.7018 43.3701 54.6973C43.279 54.6882 43.1742 54.6836 43.0557 54.6836C42.764 54.6836 42.5065 54.7292 42.2832 54.8203C42.0599 54.9115 41.8708 55.0391 41.7158 55.2031C41.5609 55.3672 41.4378 55.5632 41.3467 55.791C41.2601 56.0143 41.2031 56.2604 41.1758 56.5293L40.8203 56.7344C40.8203 56.2878 40.8636 55.8685 40.9502 55.4766C41.0413 55.0846 41.1803 54.7383 41.3672 54.4375C41.554 54.1322 41.791 53.8952 42.0781 53.7266C42.3698 53.5534 42.7161 53.4668 43.1172 53.4668C43.2083 53.4668 43.3132 53.4782 43.4316 53.501C43.5501 53.5192 43.6322 53.5397 43.6777 53.5625ZM49.3721 59.5645V50.5H50.6436V61H49.4814L49.3721 59.5645ZM44.3955 57.3838V57.2402C44.3955 56.6751 44.4639 56.1624 44.6006 55.7021C44.7419 55.2373 44.9401 54.8385 45.1953 54.5059C45.4551 54.1732 45.7627 53.918 46.1182 53.7402C46.4782 53.5579 46.8792 53.4668 47.3213 53.4668C47.7861 53.4668 48.1917 53.5488 48.5381 53.7129C48.889 53.8724 49.1852 54.1071 49.4268 54.417C49.6729 54.7223 49.8665 55.0915 50.0078 55.5244C50.1491 55.9574 50.2471 56.4473 50.3018 56.9941V57.623C50.2516 58.1654 50.1536 58.653 50.0078 59.0859C49.8665 59.5189 49.6729 59.888 49.4268 60.1934C49.1852 60.4987 48.889 60.7334 48.5381 60.8975C48.1872 61.057 47.777 61.1367 47.3076 61.1367C46.8747 61.1367 46.4782 61.0433 46.1182 60.8564C45.7627 60.6696 45.4551 60.4076 45.1953 60.0703C44.9401 59.7331 44.7419 59.3366 44.6006 58.8809C44.4639 58.4206 44.3955 57.9215 44.3955 57.3838ZM45.667 57.2402V57.3838C45.667 57.7529 45.7035 58.0993 45.7764 58.4229C45.8538 58.7464 45.9723 59.0312 46.1318 59.2773C46.2913 59.5234 46.4941 59.7171 46.7402 59.8584C46.9863 59.9951 47.2803 60.0635 47.6221 60.0635C48.0413 60.0635 48.3854 59.9746 48.6543 59.7969C48.9277 59.6191 49.1465 59.3844 49.3105 59.0928C49.4746 58.8011 49.6022 58.4844 49.6934 58.1426V56.4951C49.6387 56.2445 49.5589 56.0029 49.4541 55.7705C49.3538 55.5335 49.2217 55.3239 49.0576 55.1416C48.8981 54.9548 48.6999 54.8066 48.4629 54.6973C48.2305 54.5879 47.9548 54.5332 47.6357 54.5332C47.2894 54.5332 46.9909 54.6061 46.7402 54.752C46.4941 54.8932 46.2913 55.0892 46.1318 55.3398C45.9723 55.5859 45.8538 55.873 45.7764 56.2012C45.7035 56.5247 45.667 56.8711 45.667 57.2402ZM55.6816 61.1367C55.1667 61.1367 54.6995 61.0501 54.2803 60.877C53.8656 60.6992 53.5078 60.4508 53.207 60.1318C52.9108 59.8128 52.6829 59.4346 52.5234 58.9971C52.3639 58.5596 52.2842 58.0811 52.2842 57.5615V57.2744C52.2842 56.6729 52.373 56.1374 52.5508 55.668C52.7285 55.194 52.9701 54.793 53.2754 54.4648C53.5807 54.1367 53.9271 53.8883 54.3145 53.7197C54.7018 53.5511 55.1029 53.4668 55.5176 53.4668C56.0462 53.4668 56.502 53.5579 56.8848 53.7402C57.2721 53.9225 57.5889 54.1777 57.835 54.5059C58.0811 54.8294 58.2633 55.2122 58.3818 55.6543C58.5003 56.0918 58.5596 56.5703 58.5596 57.0898V57.6572H53.0361V56.625H57.2949V56.5293C57.2767 56.2012 57.2083 55.8822 57.0898 55.5723C56.9759 55.2624 56.7936 55.0072 56.543 54.8066C56.2923 54.6061 55.9505 54.5059 55.5176 54.5059C55.2305 54.5059 54.9661 54.5674 54.7246 54.6904C54.4831 54.8089 54.2757 54.9867 54.1025 55.2236C53.9294 55.4606 53.7949 55.75 53.6992 56.0918C53.6035 56.4336 53.5557 56.8278 53.5557 57.2744V57.5615C53.5557 57.9124 53.6035 58.2428 53.6992 58.5527C53.7995 58.8581 53.943 59.127 54.1299 59.3594C54.3213 59.5918 54.5514 59.7741 54.8203 59.9062C55.0938 60.0384 55.4036 60.1045 55.75 60.1045C56.1966 60.1045 56.5749 60.0133 56.8848 59.8311C57.1947 59.6488 57.4658 59.4049 57.6982 59.0996L58.4639 59.708C58.3044 59.9495 58.1016 60.1797 57.8555 60.3984C57.6094 60.6172 57.3063 60.7949 56.9463 60.9316C56.5908 61.0684 56.1693 61.1367 55.6816 61.1367ZM61.3008 54.7656V61H60.0361V53.6035H61.2666L61.3008 54.7656ZM63.6113 53.5625L63.6045 54.7383C63.4997 54.7155 63.3994 54.7018 63.3037 54.6973C63.2126 54.6882 63.1077 54.6836 62.9893 54.6836C62.6976 54.6836 62.4401 54.7292 62.2168 54.8203C61.9935 54.9115 61.8044 55.0391 61.6494 55.2031C61.4945 55.3672 61.3714 55.5632 61.2803 55.791C61.1937 56.0143 61.1367 56.2604 61.1094 56.5293L60.7539 56.7344C60.7539 56.2878 60.7972 55.8685 60.8838 55.4766C60.9749 55.0846 61.1139 54.7383 61.3008 54.4375C61.4876 54.1322 61.7246 53.8952 62.0117 53.7266C62.3034 53.5534 62.6497 53.4668 63.0508 53.4668C63.1419 53.4668 63.2467 53.4782 63.3652 53.501C63.4837 53.5192 63.5658 53.5397 63.6113 53.5625ZM69.0869 59.0381C69.0869 58.8558 69.0459 58.6872 68.9639 58.5322C68.8864 58.3727 68.7246 58.2292 68.4785 58.1016C68.237 57.9694 67.8724 57.8555 67.3848 57.7598C66.9746 57.6732 66.6032 57.5706 66.2705 57.4521C65.9424 57.3337 65.6621 57.1901 65.4297 57.0215C65.2018 56.8529 65.0264 56.6546 64.9033 56.4268C64.7803 56.1989 64.7188 55.9323 64.7188 55.627C64.7188 55.3353 64.7826 55.0596 64.9102 54.7998C65.0423 54.54 65.2269 54.3099 65.4639 54.1094C65.7054 53.9089 65.9948 53.7516 66.332 53.6377C66.6693 53.5238 67.0452 53.4668 67.46 53.4668C68.0524 53.4668 68.5583 53.5716 68.9775 53.7812C69.3968 53.9909 69.7181 54.2712 69.9414 54.6221C70.1647 54.9684 70.2764 55.3535 70.2764 55.7773H69.0117C69.0117 55.5723 68.9502 55.374 68.8271 55.1826C68.7087 54.9867 68.5332 54.8249 68.3008 54.6973C68.0729 54.5697 67.7926 54.5059 67.46 54.5059C67.109 54.5059 66.8242 54.5605 66.6055 54.6699C66.3913 54.7747 66.234 54.9092 66.1338 55.0732C66.0381 55.2373 65.9902 55.4105 65.9902 55.5928C65.9902 55.7295 66.013 55.8525 66.0586 55.9619C66.1087 56.0667 66.1953 56.1647 66.3184 56.2559C66.4414 56.3424 66.6146 56.4245 66.8379 56.502C67.0612 56.5794 67.346 56.6569 67.6924 56.7344C68.2985 56.8711 68.7975 57.0352 69.1895 57.2266C69.5814 57.418 69.873 57.6527 70.0645 57.9307C70.2559 58.2087 70.3516 58.5459 70.3516 58.9424C70.3516 59.266 70.2832 59.5622 70.1465 59.8311C70.0143 60.0999 69.8206 60.3324 69.5654 60.5283C69.3148 60.7197 69.014 60.8701 68.6631 60.9795C68.3167 61.0843 67.9271 61.1367 67.4941 61.1367C66.8424 61.1367 66.291 61.0205 65.8398 60.7881C65.3887 60.5557 65.0469 60.2549 64.8145 59.8857C64.582 59.5166 64.4658 59.127 64.4658 58.7168H65.7373C65.7555 59.0632 65.8558 59.3389 66.0381 59.5439C66.2204 59.7445 66.4437 59.888 66.708 59.9746C66.9723 60.0566 67.2344 60.0977 67.4941 60.0977C67.8405 60.0977 68.1299 60.0521 68.3623 59.9609C68.5993 59.8698 68.7793 59.7445 68.9023 59.585C69.0254 59.4255 69.0869 59.2432 69.0869 59.0381Z" fill="white"/>
<rect x="55" y="11" width="14" height="13" rx="4" fill="#F5A200"/>
<path d="M64.3516 19.9014V21H59.4883V20.0625L61.7881 17.5967C62.0192 17.3395 62.2015 17.1133 62.335 16.918C62.4684 16.7194 62.5645 16.542 62.623 16.3857C62.6849 16.2262 62.7158 16.0749 62.7158 15.9316C62.7158 15.7168 62.68 15.5329 62.6084 15.3799C62.5368 15.2236 62.431 15.1032 62.291 15.0186C62.1543 14.9339 61.985 14.8916 61.7832 14.8916C61.5684 14.8916 61.3828 14.9437 61.2266 15.0479C61.0736 15.152 60.9564 15.2969 60.875 15.4824C60.7969 15.668 60.7578 15.8779 60.7578 16.1123H59.3467C59.3467 15.6891 59.4476 15.3018 59.6494 14.9502C59.8512 14.5954 60.1361 14.3138 60.5039 14.1055C60.8717 13.8939 61.3079 13.7881 61.8125 13.7881C62.3105 13.7881 62.7305 13.8695 63.0723 14.0322C63.4173 14.1917 63.6777 14.4229 63.8535 14.7256C64.0326 15.0251 64.1221 15.3831 64.1221 15.7998C64.1221 16.0342 64.0846 16.2637 64.0098 16.4883C63.9349 16.7096 63.8275 16.931 63.6875 17.1523C63.5508 17.3704 63.3848 17.5918 63.1895 17.8164C62.9941 18.041 62.7777 18.2738 62.54 18.5146L61.3047 19.9014H64.3516Z" fill="white"/>
</svg>
