<svg version="1.2" xmlns="http://www.w3.org/2000/svg" viewBox="0 0 101 96" width="101" height="96"><style>.a{fill:#f5f5f5}.b{fill:#212121}.c{fill:#f9f9ff}</style><path class="a" d="m0 6h101v84h-101z"/><path fill-rule="evenodd" class="b" d="m58.5 28.5v18.5c0 0.6-0.4 1-1 1h-14c-0.6 0-1-0.4-1-1v-18.5c0-0.2 0.2-0.4 0.4-0.3l3.5 1.7q0.1 0.1 0.2 0l3.8-1.8q0.1-0.1 0.2 0l3.8 1.8q0.1 0.1 0.2 0l3.5-1.7c0.2-0.1 0.4 0.1 0.4 0.3zm-12 6.5h8c0.6 0 1-0.4 1-1 0-0.6-0.4-1-1-1h-8c-0.6 0-1 0.4-1 1 0 0.6 0.4 1 1 1zm0 5h8c0.6 0 1-0.4 1-1 0-0.6-0.4-1-1-1h-8c-0.6 0-1 0.4-1 1 0 0.6 0.4 1 1 1zm0 5h5c0.6 0 1-0.4 1-1 0-0.6-0.4-1-1-1h-5c-0.6 0-1 0.4-1 1 0 0.6 0.4 1 1 1z"/><path fill-rule="evenodd" class="b" d="m38.3 61.7v0.6q0 1.2-0.3 2-0.2 0.9-0.8 1.6-0.5 0.6-1.2 0.9-0.8 0.3-1.7 0.3-0.9 0-1.6-0.3-0.7-0.3-1.3-0.9-0.5-0.7-0.8-1.6-0.3-0.8-0.3-2v-0.6q0-1.1 0.3-2 0.3-0.9 0.8-1.5 0.6-0.6 1.3-1 0.7-0.3 1.6-0.3 0.9 0 1.7 0.3 0.7 0.4 1.2 1 0.6 0.6 0.8 1.5 0.3 0.9 0.3 2zm-1.3 0.6v-0.6q0-0.9-0.2-1.6-0.1-0.7-0.5-1.1-0.3-0.5-0.9-0.7-0.5-0.3-1.1-0.3-0.6 0-1.1 0.3-0.5 0.2-0.8 0.7-0.4 0.4-0.6 1.1-0.2 0.7-0.2 1.6v0.6q0 0.9 0.2 1.6 0.2 0.7 0.6 1.2 0.3 0.4 0.8 0.7 0.5 0.2 1.1 0.2 0.7 0 1.2-0.2 0.5-0.3 0.8-0.7 0.4-0.5 0.5-1.2 0.2-0.7 0.2-1.6zm4.4 4.7h-1.3v-7.4h1.2l0.1 0.9q0-0.1 0-0.1 0.2-0.4 0.7-0.7 0.4-0.2 1-0.2 0.2 0 0.3 0 0.2 0 0.3 0.1v1.1q-0.2 0-0.3 0-0.2 0-0.3 0-0.5 0-0.8 0.1-0.4 0.2-0.6 0.4-0.2 0.2-0.3 0.5zm8-10.5h1.2v10.5h-1.1l-0.1-0.8q-0.3 0.5-0.9 0.7-0.5 0.3-1.2 0.3-0.6 0-1.2-0.3-0.5-0.3-0.9-0.8-0.4-0.5-0.6-1.2-0.2-0.7-0.2-1.5v-0.1q0-0.9 0.2-1.6 0.2-0.7 0.6-1.2 0.4-0.5 0.9-0.7 0.6-0.3 1.2-0.3 0.7 0 1.2 0.3 0.5 0.2 0.9 0.6zm-3.7 6.7v0.2q0 0.5 0.1 1 0.1 0.5 0.3 0.9 0.3 0.3 0.6 0.5 0.4 0.3 0.9 0.3 0.7 0 1.1-0.3 0.4-0.3 0.6-0.7 0.3-0.5 0.4-1v-1.6q-0.1-0.4-0.2-0.7-0.2-0.4-0.4-0.7-0.3-0.2-0.6-0.4-0.4-0.2-0.9-0.2-0.5 0-0.9 0.2-0.3 0.3-0.6 0.6-0.2 0.4-0.3 0.9-0.1 0.5-0.1 1zm10 3.9q-0.8 0-1.4-0.2-0.6-0.3-1.1-0.8-0.4-0.5-0.7-1.1-0.2-0.7-0.2-1.4v-0.3q0-0.9 0.3-1.6 0.2-0.8 0.7-1.2 0.4-0.5 1-0.8 0.6-0.2 1.2-0.2 0.8 0 1.4 0.2 0.6 0.3 0.9 0.8 0.4 0.5 0.6 1.1 0.2 0.7 0.2 1.5v0.5h-5q0 0.5 0.1 0.9 0.1 0.5 0.4 0.9 0.3 0.3 0.7 0.5 0.4 0.2 0.9 0.2 0.7 0 1.2-0.3 0.4-0.3 0.8-0.7l0.8 0.6q-0.3 0.4-0.6 0.7-0.4 0.3-1 0.5-0.5 0.2-1.2 0.2zm-2.1-3.5q0 0 0 0v-0.3q0-0.4 0-0.7h-0.6v1zm3.8-1v-0.1q-0.1-0.5-0.2-0.9-0.2-0.5-0.6-0.8-0.4-0.3-1-0.3-0.4 0-0.8 0.2-0.4 0.2-0.6 0.5-0.3 0.4-0.4 0.9-0.1 0.2-0.1 0.5zm4 4.4h-1.3v-7.4h1.2l0.1 0.8q0 0 0 0 0.3-0.4 0.7-0.7 0.4-0.2 1-0.2 0.2 0 0.3 0 0.2 0 0.3 0.1v1.1q-0.2 0-0.3 0-0.2 0-0.3 0-0.5 0-0.8 0.1-0.3 0.1-0.6 0.4-0.2 0.2-0.3 0.5zm7.8-1.9q0-0.3-0.2-0.5-0.1-0.3-0.4-0.5-0.4-0.2-1.1-0.3-0.7-0.1-1.2-0.3-0.4-0.2-0.8-0.4-0.3-0.3-0.5-0.6-0.2-0.4-0.2-0.8 0-0.5 0.2-0.9 0.2-0.4 0.5-0.7 0.4-0.3 0.9-0.4 0.5-0.2 1.1-0.2 0.9 0 1.6 0.3 0.6 0.3 0.9 0.9 0.4 0.5 0.4 1.1h-1.3q0-0.3-0.2-0.6-0.2-0.3-0.5-0.5-0.4-0.2-0.9-0.2-0.5 0-0.8 0.2-0.3 0.2-0.5 0.4-0.1 0.3-0.1 0.5 0 0.2 0 0.4 0.1 0.2 0.3 0.3 0.2 0.1 0.5 0.2 0.4 0.2 0.9 0.3 0.9 0.2 1.5 0.5 0.6 0.2 0.8 0.7 0.3 0.4 0.3 1 0 0.5-0.2 0.9-0.2 0.4-0.6 0.7-0.3 0.2-0.9 0.4-0.5 0.2-1.1 0.2-1 0-1.7-0.4-0.7-0.3-1-0.9-0.4-0.5-0.4-1.2h1.3q0 0.6 0.3 0.9 0.3 0.3 0.7 0.4 0.4 0.1 0.8 0.1 0.5 0 0.8-0.1 0.4-0.1 0.6-0.4 0.2-0.2 0.2-0.5z"/><path fill-rule="evenodd" class="c" d="m101-1c0 3.9-3.1 7-7 7h7z"/><path fill-rule="evenodd" class="a" d="m94 90c3.9 0 7 3.1 7 7v-7z"/></svg>