<svg width="41" height="12" viewBox="0 0 41 12" fill="none" xmlns="http://www.w3.org/2000/svg">
<path d="M8.31836 5.70898V6.33789C8.31836 7.08529 8.22493 7.75521 8.03809 8.34766C7.85124 8.9401 7.58236 9.44368 7.23145 9.8584C6.88053 10.2731 6.45898 10.5898 5.9668 10.8086C5.47917 11.0273 4.93229 11.1367 4.32617 11.1367C3.73828 11.1367 3.19824 11.0273 2.70605 10.8086C2.21842 10.5898 1.7946 10.2731 1.43457 9.8584C1.0791 9.44368 0.803385 8.9401 0.607422 8.34766C0.411458 7.75521 0.313477 7.08529 0.313477 6.33789V5.70898C0.313477 4.96159 0.40918 4.29395 0.600586 3.70605C0.796549 3.11361 1.07227 2.61003 1.42773 2.19531C1.7832 1.77604 2.20475 1.45703 2.69238 1.23828C3.18457 1.01953 3.72461 0.910156 4.3125 0.910156C4.91862 0.910156 5.46549 1.01953 5.95312 1.23828C6.44531 1.45703 6.86686 1.77604 7.21777 2.19531C7.57324 2.61003 7.8444 3.11361 8.03125 3.70605C8.22266 4.29395 8.31836 4.96159 8.31836 5.70898ZM7.0127 6.33789V5.69531C7.0127 5.10286 6.95117 4.57878 6.82812 4.12305C6.70964 3.66732 6.53418 3.28451 6.30176 2.97461C6.06934 2.66471 5.78451 2.43001 5.44727 2.27051C5.11458 2.111 4.73633 2.03125 4.3125 2.03125C3.90234 2.03125 3.53092 2.111 3.19824 2.27051C2.87012 2.43001 2.58757 2.66471 2.35059 2.97461C2.11816 3.28451 1.93815 3.66732 1.81055 4.12305C1.68294 4.57878 1.61914 5.10286 1.61914 5.69531V6.33789C1.61914 6.9349 1.68294 7.46354 1.81055 7.92383C1.93815 8.37956 2.12044 8.76465 2.35742 9.0791C2.59896 9.389 2.88379 9.6237 3.21191 9.7832C3.5446 9.94271 3.91602 10.0225 4.32617 10.0225C4.75456 10.0225 5.13509 9.94271 5.46777 9.7832C5.80046 9.6237 6.08073 9.389 6.30859 9.0791C6.54102 8.76465 6.71647 8.37956 6.83496 7.92383C6.95345 7.46354 7.0127 6.9349 7.0127 6.33789ZM11.3672 4.76562V11H10.1025V3.60352H11.333L11.3672 4.76562ZM13.6777 3.5625L13.6709 4.73828C13.5661 4.71549 13.4658 4.70182 13.3701 4.69727C13.279 4.68815 13.1742 4.68359 13.0557 4.68359C12.764 4.68359 12.5065 4.72917 12.2832 4.82031C12.0599 4.91146 11.8708 5.03906 11.7158 5.20312C11.5609 5.36719 11.4378 5.56315 11.3467 5.79102C11.2601 6.01432 11.2031 6.26042 11.1758 6.5293L10.8203 6.73438C10.8203 6.28776 10.8636 5.86849 10.9502 5.47656C11.0413 5.08464 11.1803 4.73828 11.3672 4.4375C11.554 4.13216 11.791 3.89518 12.0781 3.72656C12.3698 3.55339 12.7161 3.4668 13.1172 3.4668C13.2083 3.4668 13.3132 3.47819 13.4316 3.50098C13.5501 3.51921 13.6322 3.53971 13.6777 3.5625ZM19.3721 9.56445V0.5H20.6436V11H19.4814L19.3721 9.56445ZM14.3955 7.38379V7.24023C14.3955 6.67513 14.4639 6.16243 14.6006 5.70215C14.7419 5.2373 14.9401 4.83854 15.1953 4.50586C15.4551 4.17318 15.7627 3.91797 16.1182 3.74023C16.4782 3.55794 16.8792 3.4668 17.3213 3.4668C17.7861 3.4668 18.1917 3.54883 18.5381 3.71289C18.889 3.8724 19.1852 4.1071 19.4268 4.41699C19.6729 4.72233 19.8665 5.09147 20.0078 5.52441C20.1491 5.95736 20.2471 6.44727 20.3018 6.99414V7.62305C20.2516 8.16536 20.1536 8.65299 20.0078 9.08594C19.8665 9.51888 19.6729 9.88802 19.4268 10.1934C19.1852 10.4987 18.889 10.7334 18.5381 10.8975C18.1872 11.057 17.777 11.1367 17.3076 11.1367C16.8747 11.1367 16.4782 11.0433 16.1182 10.8564C15.7627 10.6696 15.4551 10.4076 15.1953 10.0703C14.9401 9.73307 14.7419 9.33659 14.6006 8.88086C14.4639 8.42057 14.3955 7.92155 14.3955 7.38379ZM15.667 7.24023V7.38379C15.667 7.75293 15.7035 8.09928 15.7764 8.42285C15.8538 8.74642 15.9723 9.03125 16.1318 9.27734C16.2913 9.52344 16.4941 9.71712 16.7402 9.8584C16.9863 9.99512 17.2803 10.0635 17.6221 10.0635C18.0413 10.0635 18.3854 9.97461 18.6543 9.79688C18.9277 9.61914 19.1465 9.38444 19.3105 9.09277C19.4746 8.80111 19.6022 8.48438 19.6934 8.14258V6.49512C19.6387 6.24447 19.5589 6.00293 19.4541 5.77051C19.3538 5.53353 19.2217 5.32389 19.0576 5.1416C18.8981 4.95475 18.6999 4.80664 18.4629 4.69727C18.2305 4.58789 17.9548 4.5332 17.6357 4.5332C17.2894 4.5332 16.9909 4.60612 16.7402 4.75195C16.4941 4.89323 16.2913 5.08919 16.1318 5.33984C15.9723 5.58594 15.8538 5.87305 15.7764 6.20117C15.7035 6.52474 15.667 6.87109 15.667 7.24023ZM25.6816 11.1367C25.1667 11.1367 24.6995 11.0501 24.2803 10.877C23.8656 10.6992 23.5078 10.4508 23.207 10.1318C22.9108 9.81283 22.6829 9.43457 22.5234 8.99707C22.3639 8.55957 22.2842 8.08105 22.2842 7.56152V7.27441C22.2842 6.67285 22.373 6.13737 22.5508 5.66797C22.7285 5.19401 22.9701 4.79297 23.2754 4.46484C23.5807 4.13672 23.9271 3.88835 24.3145 3.71973C24.7018 3.55111 25.1029 3.4668 25.5176 3.4668C26.0462 3.4668 26.502 3.55794 26.8848 3.74023C27.2721 3.92253 27.5889 4.17773 27.835 4.50586C28.0811 4.82943 28.2633 5.21224 28.3818 5.6543C28.5003 6.0918 28.5596 6.57031 28.5596 7.08984V7.65723H23.0361V6.625H27.2949V6.5293C27.2767 6.20117 27.2083 5.88216 27.0898 5.57227C26.9759 5.26237 26.7936 5.00716 26.543 4.80664C26.2923 4.60612 25.9505 4.50586 25.5176 4.50586C25.2305 4.50586 24.9661 4.56738 24.7246 4.69043C24.4831 4.80892 24.2757 4.98665 24.1025 5.22363C23.9294 5.46061 23.7949 5.75 23.6992 6.0918C23.6035 6.43359 23.5557 6.8278 23.5557 7.27441V7.56152C23.5557 7.91243 23.6035 8.24284 23.6992 8.55273C23.7995 8.85807 23.943 9.12695 24.1299 9.35938C24.3213 9.5918 24.5514 9.77409 24.8203 9.90625C25.0938 10.0384 25.4036 10.1045 25.75 10.1045C26.1966 10.1045 26.5749 10.0133 26.8848 9.83105C27.1947 9.64876 27.4658 9.40495 27.6982 9.09961L28.4639 9.70801C28.3044 9.94954 28.1016 10.1797 27.8555 10.3984C27.6094 10.6172 27.3063 10.7949 26.9463 10.9316C26.5908 11.0684 26.1693 11.1367 25.6816 11.1367ZM31.3008 4.76562V11H30.0361V3.60352H31.2666L31.3008 4.76562ZM33.6113 3.5625L33.6045 4.73828C33.4997 4.71549 33.3994 4.70182 33.3037 4.69727C33.2126 4.68815 33.1077 4.68359 32.9893 4.68359C32.6976 4.68359 32.4401 4.72917 32.2168 4.82031C31.9935 4.91146 31.8044 5.03906 31.6494 5.20312C31.4945 5.36719 31.3714 5.56315 31.2803 5.79102C31.1937 6.01432 31.1367 6.26042 31.1094 6.5293L30.7539 6.73438C30.7539 6.28776 30.7972 5.86849 30.8838 5.47656C30.9749 5.08464 31.1139 4.73828 31.3008 4.4375C31.4876 4.13216 31.7246 3.89518 32.0117 3.72656C32.3034 3.55339 32.6497 3.4668 33.0508 3.4668C33.1419 3.4668 33.2467 3.47819 33.3652 3.50098C33.4837 3.51921 33.5658 3.53971 33.6113 3.5625ZM39.0869 9.03809C39.0869 8.85579 39.0459 8.68717 38.9639 8.53223C38.8864 8.37272 38.7246 8.22917 38.4785 8.10156C38.237 7.9694 37.8724 7.85547 37.3848 7.75977C36.9746 7.67318 36.6032 7.57064 36.2705 7.45215C35.9424 7.33366 35.6621 7.1901 35.4297 7.02148C35.2018 6.85286 35.0264 6.65462 34.9033 6.42676C34.7803 6.19889 34.7188 5.93229 34.7188 5.62695C34.7188 5.33529 34.7826 5.05957 34.9102 4.7998C35.0423 4.54004 35.2269 4.3099 35.4639 4.10938C35.7054 3.90885 35.9948 3.75163 36.332 3.6377C36.6693 3.52376 37.0452 3.4668 37.46 3.4668C38.0524 3.4668 38.5583 3.57161 38.9775 3.78125C39.3968 3.99089 39.7181 4.27116 39.9414 4.62207C40.1647 4.96842 40.2764 5.35352 40.2764 5.77734H39.0117C39.0117 5.57227 38.9502 5.37402 38.8271 5.18262C38.7087 4.98665 38.5332 4.82487 38.3008 4.69727C38.0729 4.56966 37.7926 4.50586 37.46 4.50586C37.109 4.50586 36.8242 4.56055 36.6055 4.66992C36.3913 4.77474 36.234 4.90918 36.1338 5.07324C36.0381 5.2373 35.9902 5.41048 35.9902 5.59277C35.9902 5.72949 36.013 5.85254 36.0586 5.96191C36.1087 6.06673 36.1953 6.16471 36.3184 6.25586C36.4414 6.34245 36.6146 6.42448 36.8379 6.50195C37.0612 6.57943 37.346 6.6569 37.6924 6.73438C38.2985 6.87109 38.7975 7.03516 39.1895 7.22656C39.5814 7.41797 39.873 7.65267 40.0645 7.93066C40.2559 8.20866 40.3516 8.5459 40.3516 8.94238C40.3516 9.26595 40.2832 9.56217 40.1465 9.83105C40.0143 10.0999 39.8206 10.3324 39.5654 10.5283C39.3148 10.7197 39.014 10.8701 38.6631 10.9795C38.3167 11.0843 37.9271 11.1367 37.4941 11.1367C36.8424 11.1367 36.291 11.0205 35.8398 10.7881C35.3887 10.5557 35.0469 10.2549 34.8145 9.88574C34.582 9.5166 34.4658 9.12695 34.4658 8.7168H35.7373C35.7555 9.06315 35.8558 9.33887 36.0381 9.54395C36.2204 9.74447 36.4437 9.88802 36.708 9.97461C36.9723 10.0566 37.2344 10.0977 37.4941 10.0977C37.8405 10.0977 38.1299 10.0521 38.3623 9.96094C38.5993 9.86979 38.7793 9.74447 38.9023 9.58496C39.0254 9.42546 39.0869 9.24316 39.0869 9.03809Z" fill="white"/>
</svg>
