<svg width="101" height="98" viewBox="0 0 101 98" fill="none" xmlns="http://www.w3.org/2000/svg">
<rect width="101" height="84" transform="translate(0 7)" fill="#F9F9FF"/>
<path fill-rule="evenodd" clip-rule="evenodd" d="M58.5 29.4852V47.9997C58.5 48.552 58.0523 48.9997 57.5 48.9997H43.5C42.9477 48.9997 42.5 48.552 42.5 47.9997V29.4852C42.5 29.2621 42.7347 29.1171 42.9342 29.2168L46.3658 30.9327C46.4503 30.9749 46.5497 30.9749 46.6342 30.9327L50.3658 29.0668C50.4503 29.0246 50.5497 29.0246 50.6342 29.0668L54.3658 30.9327C54.4503 30.9749 54.5497 30.9749 54.6342 30.9327L58.0658 29.2168C58.2653 29.1171 58.5 29.2621 58.5 29.4852ZM45.5 34.9997C45.5 34.4475 45.9477 33.9997 46.5 33.9997H54.5C55.0523 33.9997 55.5 34.4475 55.5 34.9997C55.5 35.552 55.0523 35.9997 54.5 35.9997H46.5C45.9477 35.9997 45.5 35.552 45.5 34.9997ZM45.5 39.9997C45.5 39.4475 45.9477 38.9997 46.5 38.9997H54.5C55.0523 38.9997 55.5 39.4475 55.5 39.9997C55.5 40.552 55.0523 40.9997 54.5 40.9997H46.5C45.9477 40.9997 45.5 40.552 45.5 39.9997ZM45.5 44.9997C45.5 44.4475 45.9477 43.9997 46.5 43.9997H51.5C52.0523 43.9997 52.5 44.4475 52.5 44.9997C52.5 45.552 52.0523 45.9997 51.5 45.9997H46.5C45.9477 45.9997 45.5 45.552 45.5 44.9997Z" fill="#212121"/>
<path d="M38.3184 62.709V63.3379C38.3184 64.0853 38.2249 64.7552 38.0381 65.3477C37.8512 65.9401 37.5824 66.4437 37.2314 66.8584C36.8805 67.2731 36.459 67.5898 35.9668 67.8086C35.4792 68.0273 34.9323 68.1367 34.3262 68.1367C33.7383 68.1367 33.1982 68.0273 32.7061 67.8086C32.2184 67.5898 31.7946 67.2731 31.4346 66.8584C31.0791 66.4437 30.8034 65.9401 30.6074 65.3477C30.4115 64.7552 30.3135 64.0853 30.3135 63.3379V62.709C30.3135 61.9616 30.4092 61.2939 30.6006 60.7061C30.7965 60.1136 31.0723 59.61 31.4277 59.1953C31.7832 58.776 32.2048 58.457 32.6924 58.2383C33.1846 58.0195 33.7246 57.9102 34.3125 57.9102C34.9186 57.9102 35.4655 58.0195 35.9531 58.2383C36.4453 58.457 36.8669 58.776 37.2178 59.1953C37.5732 59.61 37.8444 60.1136 38.0312 60.7061C38.2227 61.2939 38.3184 61.9616 38.3184 62.709ZM37.0127 63.3379V62.6953C37.0127 62.1029 36.9512 61.5788 36.8281 61.123C36.7096 60.6673 36.5342 60.2845 36.3018 59.9746C36.0693 59.6647 35.7845 59.43 35.4473 59.2705C35.1146 59.111 34.7363 59.0312 34.3125 59.0312C33.9023 59.0312 33.5309 59.111 33.1982 59.2705C32.8701 59.43 32.5876 59.6647 32.3506 59.9746C32.1182 60.2845 31.9382 60.6673 31.8105 61.123C31.6829 61.5788 31.6191 62.1029 31.6191 62.6953V63.3379C31.6191 63.9349 31.6829 64.4635 31.8105 64.9238C31.9382 65.3796 32.1204 65.7646 32.3574 66.0791C32.599 66.389 32.8838 66.6237 33.2119 66.7832C33.5446 66.9427 33.916 67.0225 34.3262 67.0225C34.7546 67.0225 35.1351 66.9427 35.4678 66.7832C35.8005 66.6237 36.0807 66.389 36.3086 66.0791C36.541 65.7646 36.7165 65.3796 36.835 64.9238C36.9535 64.4635 37.0127 63.9349 37.0127 63.3379ZM41.3672 61.7656V68H40.1025V60.6035H41.333L41.3672 61.7656ZM43.6777 60.5625L43.6709 61.7383C43.5661 61.7155 43.4658 61.7018 43.3701 61.6973C43.279 61.6882 43.1742 61.6836 43.0557 61.6836C42.764 61.6836 42.5065 61.7292 42.2832 61.8203C42.0599 61.9115 41.8708 62.0391 41.7158 62.2031C41.5609 62.3672 41.4378 62.5632 41.3467 62.791C41.2601 63.0143 41.2031 63.2604 41.1758 63.5293L40.8203 63.7344C40.8203 63.2878 40.8636 62.8685 40.9502 62.4766C41.0413 62.0846 41.1803 61.7383 41.3672 61.4375C41.554 61.1322 41.791 60.8952 42.0781 60.7266C42.3698 60.5534 42.7161 60.4668 43.1172 60.4668C43.2083 60.4668 43.3132 60.4782 43.4316 60.501C43.5501 60.5192 43.6322 60.5397 43.6777 60.5625ZM49.3721 66.5645V57.5H50.6436V68H49.4814L49.3721 66.5645ZM44.3955 64.3838V64.2402C44.3955 63.6751 44.4639 63.1624 44.6006 62.7021C44.7419 62.2373 44.9401 61.8385 45.1953 61.5059C45.4551 61.1732 45.7627 60.918 46.1182 60.7402C46.4782 60.5579 46.8792 60.4668 47.3213 60.4668C47.7861 60.4668 48.1917 60.5488 48.5381 60.7129C48.889 60.8724 49.1852 61.1071 49.4268 61.417C49.6729 61.7223 49.8665 62.0915 50.0078 62.5244C50.1491 62.9574 50.2471 63.4473 50.3018 63.9941V64.623C50.2516 65.1654 50.1536 65.653 50.0078 66.0859C49.8665 66.5189 49.6729 66.888 49.4268 67.1934C49.1852 67.4987 48.889 67.7334 48.5381 67.8975C48.1872 68.057 47.777 68.1367 47.3076 68.1367C46.8747 68.1367 46.4782 68.0433 46.1182 67.8564C45.7627 67.6696 45.4551 67.4076 45.1953 67.0703C44.9401 66.7331 44.7419 66.3366 44.6006 65.8809C44.4639 65.4206 44.3955 64.9215 44.3955 64.3838ZM45.667 64.2402V64.3838C45.667 64.7529 45.7035 65.0993 45.7764 65.4229C45.8538 65.7464 45.9723 66.0312 46.1318 66.2773C46.2913 66.5234 46.4941 66.7171 46.7402 66.8584C46.9863 66.9951 47.2803 67.0635 47.6221 67.0635C48.0413 67.0635 48.3854 66.9746 48.6543 66.7969C48.9277 66.6191 49.1465 66.3844 49.3105 66.0928C49.4746 65.8011 49.6022 65.4844 49.6934 65.1426V63.4951C49.6387 63.2445 49.5589 63.0029 49.4541 62.7705C49.3538 62.5335 49.2217 62.3239 49.0576 62.1416C48.8981 61.9548 48.6999 61.8066 48.4629 61.6973C48.2305 61.5879 47.9548 61.5332 47.6357 61.5332C47.2894 61.5332 46.9909 61.6061 46.7402 61.752C46.4941 61.8932 46.2913 62.0892 46.1318 62.3398C45.9723 62.5859 45.8538 62.873 45.7764 63.2012C45.7035 63.5247 45.667 63.8711 45.667 64.2402ZM55.6816 68.1367C55.1667 68.1367 54.6995 68.0501 54.2803 67.877C53.8656 67.6992 53.5078 67.4508 53.207 67.1318C52.9108 66.8128 52.6829 66.4346 52.5234 65.9971C52.3639 65.5596 52.2842 65.0811 52.2842 64.5615V64.2744C52.2842 63.6729 52.373 63.1374 52.5508 62.668C52.7285 62.194 52.9701 61.793 53.2754 61.4648C53.5807 61.1367 53.9271 60.8883 54.3145 60.7197C54.7018 60.5511 55.1029 60.4668 55.5176 60.4668C56.0462 60.4668 56.502 60.5579 56.8848 60.7402C57.2721 60.9225 57.5889 61.1777 57.835 61.5059C58.0811 61.8294 58.2633 62.2122 58.3818 62.6543C58.5003 63.0918 58.5596 63.5703 58.5596 64.0898V64.6572H53.0361V63.625H57.2949V63.5293C57.2767 63.2012 57.2083 62.8822 57.0898 62.5723C56.9759 62.2624 56.7936 62.0072 56.543 61.8066C56.2923 61.6061 55.9505 61.5059 55.5176 61.5059C55.2305 61.5059 54.9661 61.5674 54.7246 61.6904C54.4831 61.8089 54.2757 61.9867 54.1025 62.2236C53.9294 62.4606 53.7949 62.75 53.6992 63.0918C53.6035 63.4336 53.5557 63.8278 53.5557 64.2744V64.5615C53.5557 64.9124 53.6035 65.2428 53.6992 65.5527C53.7995 65.8581 53.943 66.127 54.1299 66.3594C54.3213 66.5918 54.5514 66.7741 54.8203 66.9062C55.0938 67.0384 55.4036 67.1045 55.75 67.1045C56.1966 67.1045 56.5749 67.0133 56.8848 66.8311C57.1947 66.6488 57.4658 66.4049 57.6982 66.0996L58.4639 66.708C58.3044 66.9495 58.1016 67.1797 57.8555 67.3984C57.6094 67.6172 57.3063 67.7949 56.9463 67.9316C56.5908 68.0684 56.1693 68.1367 55.6816 68.1367ZM61.3008 61.7656V68H60.0361V60.6035H61.2666L61.3008 61.7656ZM63.6113 60.5625L63.6045 61.7383C63.4997 61.7155 63.3994 61.7018 63.3037 61.6973C63.2126 61.6882 63.1077 61.6836 62.9893 61.6836C62.6976 61.6836 62.4401 61.7292 62.2168 61.8203C61.9935 61.9115 61.8044 62.0391 61.6494 62.2031C61.4945 62.3672 61.3714 62.5632 61.2803 62.791C61.1937 63.0143 61.1367 63.2604 61.1094 63.5293L60.7539 63.7344C60.7539 63.2878 60.7972 62.8685 60.8838 62.4766C60.9749 62.0846 61.1139 61.7383 61.3008 61.4375C61.4876 61.1322 61.7246 60.8952 62.0117 60.7266C62.3034 60.5534 62.6497 60.4668 63.0508 60.4668C63.1419 60.4668 63.2467 60.4782 63.3652 60.501C63.4837 60.5192 63.5658 60.5397 63.6113 60.5625ZM69.0869 66.0381C69.0869 65.8558 69.0459 65.6872 68.9639 65.5322C68.8864 65.3727 68.7246 65.2292 68.4785 65.1016C68.237 64.9694 67.8724 64.8555 67.3848 64.7598C66.9746 64.6732 66.6032 64.5706 66.2705 64.4521C65.9424 64.3337 65.6621 64.1901 65.4297 64.0215C65.2018 63.8529 65.0264 63.6546 64.9033 63.4268C64.7803 63.1989 64.7188 62.9323 64.7188 62.627C64.7188 62.3353 64.7826 62.0596 64.9102 61.7998C65.0423 61.54 65.2269 61.3099 65.4639 61.1094C65.7054 60.9089 65.9948 60.7516 66.332 60.6377C66.6693 60.5238 67.0452 60.4668 67.46 60.4668C68.0524 60.4668 68.5583 60.5716 68.9775 60.7812C69.3968 60.9909 69.7181 61.2712 69.9414 61.6221C70.1647 61.9684 70.2764 62.3535 70.2764 62.7773H69.0117C69.0117 62.5723 68.9502 62.374 68.8271 62.1826C68.7087 61.9867 68.5332 61.8249 68.3008 61.6973C68.0729 61.5697 67.7926 61.5059 67.46 61.5059C67.109 61.5059 66.8242 61.5605 66.6055 61.6699C66.3913 61.7747 66.234 61.9092 66.1338 62.0732C66.0381 62.2373 65.9902 62.4105 65.9902 62.5928C65.9902 62.7295 66.013 62.8525 66.0586 62.9619C66.1087 63.0667 66.1953 63.1647 66.3184 63.2559C66.4414 63.3424 66.6146 63.4245 66.8379 63.502C67.0612 63.5794 67.346 63.6569 67.6924 63.7344C68.2985 63.8711 68.7975 64.0352 69.1895 64.2266C69.5814 64.418 69.873 64.6527 70.0645 64.9307C70.2559 65.2087 70.3516 65.5459 70.3516 65.9424C70.3516 66.266 70.2832 66.5622 70.1465 66.8311C70.0143 67.0999 69.8206 67.3324 69.5654 67.5283C69.3148 67.7197 69.014 67.8701 68.6631 67.9795C68.3167 68.0843 67.9271 68.1367 67.4941 68.1367C66.8424 68.1367 66.291 68.0205 65.8398 67.7881C65.3887 67.5557 65.0469 67.2549 64.8145 66.8857C64.582 66.5166 64.4658 66.127 64.4658 65.7168H65.7373C65.7555 66.0632 65.8558 66.3389 66.0381 66.5439C66.2204 66.7445 66.4437 66.888 66.708 66.9746C66.9723 67.0566 67.2344 67.0977 67.4941 67.0977C67.8405 67.0977 68.1299 67.0521 68.3623 66.9609C68.5993 66.8698 68.7793 66.7445 68.9023 66.585C69.0254 66.4255 69.0869 66.2432 69.0869 66.0381Z" fill="#212121"/>
<path fill-rule="evenodd" clip-rule="evenodd" d="M101 0C101 3.86599 97.866 7 94 7H101V0Z" fill="#F9F9FF"/>
<path fill-rule="evenodd" clip-rule="evenodd" d="M94 91C97.866 91 101 94.134 101 98L101 91L94 91Z" fill="#F9F9FF"/>
</svg>
