<svg width="101" height="84" viewBox="0 0 101 84" fill="none" xmlns="http://www.w3.org/2000/svg">
<path d="M39.5 38.8824V32.7227C39.5 31.9301 39.8535 31.1792 40.4634 30.6764L44.2069 27.5903C44.3789 27.4485 44.6375 27.5714 44.6375 27.7949V34.6415C44.6375 36.1183 46.273 37.0016 47.499 36.187L52.3368 32.9728C52.6092 32.7918 52.9708 32.8285 53.2017 33.0605C54.0738 33.9367 54.0738 35.3574 53.2017 36.2337L49.4609 39.9921C48.8186 40.6375 47.9474 41 47.0391 41H41.6077C40.4437 41 39.5 40.0519 39.5 38.8824Z" fill="white"/>
<path d="M46.7452 32.7903V28.2941H61.4992V32.7941C61.4992 33.8175 60.6735 34.6471 59.6549 34.6471H58.2743C57.9789 34.6471 57.697 34.5225 57.4974 34.3037L54.3661 30.8717C53.845 30.3005 52.9896 30.1905 52.3421 30.6114L47.965 33.457C47.4391 33.7989 46.7452 33.4197 46.7452 32.7903Z" fill="white"/>
<path d="M61.4797 26.167C60.9846 26.0745 51.5505 26.1338 46.7452 26.1765V25.1176C46.7452 23.9481 47.6889 23 48.8529 23H59.3055C60.5026 23 61.45 24.001 61.4417 25.2037C61.4382 25.7042 61.4472 26.0918 61.4797 26.167C61.4958 26.17 61.5025 26.1732 61.4992 26.1765C61.4919 26.1838 61.4854 26.1803 61.4797 26.167Z" fill="white"/>
<path d="M23.8262 57.0967H21.167V56.0234H23.8262C24.3411 56.0234 24.7581 55.9414 25.0771 55.7773C25.3962 55.6133 25.6286 55.3854 25.7744 55.0938C25.9248 54.8021 26 54.4694 26 54.0957C26 53.7539 25.9248 53.4326 25.7744 53.1318C25.6286 52.8311 25.3962 52.5895 25.0771 52.4072C24.7581 52.2204 24.3411 52.127 23.8262 52.127H21.4746V61H20.1553V51.0469H23.8262C24.5781 51.0469 25.2139 51.1768 25.7334 51.4365C26.2529 51.6963 26.6471 52.0563 26.916 52.5166C27.1849 52.9723 27.3193 53.4941 27.3193 54.082C27.3193 54.7201 27.1849 55.2646 26.916 55.7158C26.6471 56.167 26.2529 56.5111 25.7334 56.748C25.2139 56.9805 24.5781 57.0967 23.8262 57.0967ZM33.0752 59.7354V55.9277C33.0752 55.6361 33.016 55.3831 32.8975 55.1689C32.7835 54.9502 32.6104 54.7816 32.3779 54.6631C32.1455 54.5446 31.8584 54.4854 31.5166 54.4854C31.1976 54.4854 30.9173 54.54 30.6758 54.6494C30.4388 54.7588 30.252 54.9023 30.1152 55.0801C29.9831 55.2578 29.917 55.4492 29.917 55.6543H28.6523C28.6523 55.39 28.7207 55.1279 28.8574 54.8682C28.9941 54.6084 29.1901 54.3737 29.4453 54.1641C29.7051 53.9499 30.015 53.7812 30.375 53.6582C30.7396 53.5306 31.1452 53.4668 31.5918 53.4668C32.1296 53.4668 32.6035 53.5579 33.0137 53.7402C33.4284 53.9225 33.752 54.1982 33.9844 54.5674C34.2214 54.932 34.3398 55.39 34.3398 55.9414V59.3867C34.3398 59.6328 34.3604 59.8949 34.4014 60.1729C34.4469 60.4508 34.513 60.6901 34.5996 60.8906V61H33.2803C33.2165 60.8542 33.1663 60.6605 33.1299 60.4189C33.0934 60.1729 33.0752 59.945 33.0752 59.7354ZM33.2939 56.5156L33.3076 57.4043H32.0293C31.6693 57.4043 31.348 57.4339 31.0654 57.4932C30.7829 57.5479 30.5459 57.6322 30.3545 57.7461C30.1631 57.86 30.0173 58.0036 29.917 58.1768C29.8167 58.3454 29.7666 58.5436 29.7666 58.7715C29.7666 59.0039 29.819 59.2158 29.9238 59.4072C30.0286 59.5986 30.1859 59.7513 30.3955 59.8652C30.6097 59.9746 30.8717 60.0293 31.1816 60.0293C31.569 60.0293 31.9108 59.9473 32.207 59.7832C32.5033 59.6191 32.738 59.4186 32.9111 59.1816C33.0889 58.9447 33.1846 58.7145 33.1982 58.4912L33.7383 59.0996C33.7064 59.291 33.6198 59.5029 33.4785 59.7354C33.3372 59.9678 33.1481 60.1911 32.9111 60.4053C32.6787 60.6149 32.4007 60.7904 32.0771 60.9316C31.7581 61.0684 31.3981 61.1367 30.9971 61.1367C30.4958 61.1367 30.056 61.0387 29.6777 60.8428C29.304 60.6468 29.0124 60.3848 28.8027 60.0566C28.5977 59.724 28.4951 59.3525 28.4951 58.9424C28.4951 58.5459 28.5726 58.1973 28.7275 57.8965C28.8825 57.5911 29.1058 57.3382 29.3975 57.1377C29.6891 56.9326 30.04 56.7777 30.4502 56.6729C30.8604 56.568 31.3184 56.5156 31.8242 56.5156H33.2939ZM38.2979 60.2344L40.3555 53.6035H41.709L38.7422 62.1416C38.6738 62.3239 38.5827 62.5199 38.4688 62.7295C38.3594 62.9437 38.2181 63.1465 38.0449 63.3379C37.8717 63.5293 37.6621 63.6842 37.416 63.8027C37.1745 63.9258 36.8851 63.9873 36.5479 63.9873C36.4476 63.9873 36.32 63.9736 36.165 63.9463C36.0101 63.9189 35.9007 63.8962 35.8369 63.8779L35.8301 62.8525C35.8665 62.8571 35.9235 62.8617 36.001 62.8662C36.083 62.8753 36.14 62.8799 36.1719 62.8799C36.459 62.8799 36.7028 62.8411 36.9033 62.7637C37.1038 62.6908 37.2725 62.5654 37.4092 62.3877C37.5505 62.2145 37.6712 61.9753 37.7715 61.6699L38.2979 60.2344ZM36.7871 53.6035L38.708 59.3457L39.0361 60.6787L38.127 61.1436L35.4062 53.6035H36.7871ZM44.1084 55.0732V61H42.8369V53.6035H44.04L44.1084 55.0732ZM43.8486 57.0215L43.2607 57.001C43.2653 56.4951 43.3314 56.028 43.459 55.5996C43.5866 55.1667 43.7757 54.7907 44.0264 54.4717C44.277 54.1527 44.5892 53.9066 44.9629 53.7334C45.3366 53.5557 45.7695 53.4668 46.2617 53.4668C46.6081 53.4668 46.9271 53.5169 47.2188 53.6172C47.5104 53.7129 47.7633 53.8656 47.9775 54.0752C48.1917 54.2848 48.3581 54.5537 48.4766 54.8818C48.5951 55.21 48.6543 55.6064 48.6543 56.0713V61H47.3896V56.1328C47.3896 55.7454 47.3236 55.4355 47.1914 55.2031C47.0638 54.9707 46.8815 54.8021 46.6445 54.6973C46.4076 54.5879 46.1296 54.5332 45.8105 54.5332C45.4368 54.5332 45.1247 54.5993 44.874 54.7314C44.6234 54.8636 44.4229 55.0459 44.2725 55.2783C44.1221 55.5107 44.0127 55.7773 43.9443 56.0781C43.8805 56.3743 43.8486 56.6888 43.8486 57.0215ZM48.6406 56.3242L47.793 56.584C47.7975 56.1784 47.8636 55.7887 47.9912 55.415C48.1234 55.0413 48.3125 54.7087 48.5586 54.417C48.8092 54.1253 49.1169 53.8952 49.4814 53.7266C49.846 53.5534 50.263 53.4668 50.7324 53.4668C51.1289 53.4668 51.4798 53.5192 51.7852 53.624C52.0951 53.7288 52.3548 53.8906 52.5645 54.1094C52.7786 54.3236 52.9404 54.5993 53.0498 54.9365C53.1592 55.2738 53.2139 55.6748 53.2139 56.1396V61H51.9424V56.126C51.9424 55.7113 51.8763 55.39 51.7441 55.1621C51.6165 54.9297 51.4342 54.7679 51.1973 54.6768C50.9648 54.5811 50.6868 54.5332 50.3633 54.5332C50.0853 54.5332 49.8392 54.5811 49.625 54.6768C49.4108 54.7725 49.2308 54.9046 49.085 55.0732C48.9391 55.2373 48.8275 55.4264 48.75 55.6406C48.6771 55.8548 48.6406 56.0827 48.6406 56.3242ZM58.1973 61.1367C57.6823 61.1367 57.2152 61.0501 56.7959 60.877C56.3812 60.6992 56.0234 60.4508 55.7227 60.1318C55.4264 59.8128 55.1986 59.4346 55.0391 58.9971C54.8796 58.5596 54.7998 58.0811 54.7998 57.5615V57.2744C54.7998 56.6729 54.8887 56.1374 55.0664 55.668C55.2441 55.194 55.4857 54.793 55.791 54.4648C56.0964 54.1367 56.4427 53.8883 56.8301 53.7197C57.2174 53.5511 57.6185 53.4668 58.0332 53.4668C58.5618 53.4668 59.0176 53.5579 59.4004 53.7402C59.7878 53.9225 60.1045 54.1777 60.3506 54.5059C60.5967 54.8294 60.779 55.2122 60.8975 55.6543C61.016 56.0918 61.0752 56.5703 61.0752 57.0898V57.6572H55.5518V56.625H59.8105V56.5293C59.7923 56.2012 59.724 55.8822 59.6055 55.5723C59.4915 55.2624 59.3092 55.0072 59.0586 54.8066C58.8079 54.6061 58.4661 54.5059 58.0332 54.5059C57.7461 54.5059 57.4818 54.5674 57.2402 54.6904C56.9987 54.8089 56.7913 54.9867 56.6182 55.2236C56.445 55.4606 56.3105 55.75 56.2148 56.0918C56.1191 56.4336 56.0713 56.8278 56.0713 57.2744V57.5615C56.0713 57.9124 56.1191 58.2428 56.2148 58.5527C56.3151 58.8581 56.4587 59.127 56.6455 59.3594C56.8369 59.5918 57.0671 59.7741 57.3359 59.9062C57.6094 60.0384 57.9193 60.1045 58.2656 60.1045C58.7122 60.1045 59.0905 60.0133 59.4004 59.8311C59.7103 59.6488 59.9814 59.4049 60.2139 59.0996L60.9795 59.708C60.82 59.9495 60.6172 60.1797 60.3711 60.3984C60.125 60.6172 59.8219 60.7949 59.4619 60.9316C59.1064 61.0684 58.6849 61.1367 58.1973 61.1367ZM63.8164 55.1826V61H62.5518V53.6035H63.748L63.8164 55.1826ZM63.5156 57.0215L62.9893 57.001C62.9938 56.4951 63.069 56.028 63.2148 55.5996C63.3607 55.1667 63.5658 54.7907 63.8301 54.4717C64.0944 54.1527 64.4089 53.9066 64.7734 53.7334C65.1426 53.5557 65.5505 53.4668 65.9971 53.4668C66.3617 53.4668 66.6898 53.5169 66.9814 53.6172C67.2731 53.7129 67.5215 53.8678 67.7266 54.082C67.9362 54.2962 68.0957 54.5742 68.2051 54.916C68.3145 55.2533 68.3691 55.6657 68.3691 56.1533V61H67.0977V56.1396C67.0977 55.7523 67.0407 55.4424 66.9268 55.21C66.8128 54.973 66.6465 54.8021 66.4277 54.6973C66.209 54.5879 65.9401 54.5332 65.6211 54.5332C65.3066 54.5332 65.0195 54.5993 64.7598 54.7314C64.5046 54.8636 64.2835 55.0459 64.0967 55.2783C63.9144 55.5107 63.7708 55.7773 63.666 56.0781C63.5658 56.3743 63.5156 56.6888 63.5156 57.0215ZM73.3867 53.6035V54.5742H69.3877V53.6035H73.3867ZM70.7412 51.8057H72.0059V59.168C72.0059 59.4186 72.0446 59.6077 72.1221 59.7354C72.1995 59.863 72.2998 59.9473 72.4229 59.9883C72.5459 60.0293 72.6781 60.0498 72.8193 60.0498C72.9242 60.0498 73.0335 60.0407 73.1475 60.0225C73.266 59.9997 73.3548 59.9814 73.4141 59.9678L73.4209 61C73.3206 61.0319 73.1885 61.0615 73.0244 61.0889C72.8649 61.1208 72.6712 61.1367 72.4434 61.1367C72.1335 61.1367 71.8486 61.0752 71.5889 60.9521C71.3291 60.8291 71.1217 60.624 70.9668 60.3369C70.8164 60.0452 70.7412 59.6533 70.7412 59.1611V51.8057ZM79.1768 59.0381C79.1768 58.8558 79.1357 58.6872 79.0537 58.5322C78.9762 58.3727 78.8145 58.2292 78.5684 58.1016C78.3268 57.9694 77.9622 57.8555 77.4746 57.7598C77.0645 57.6732 76.693 57.5706 76.3604 57.4521C76.0322 57.3337 75.752 57.1901 75.5195 57.0215C75.2917 56.8529 75.1162 56.6546 74.9932 56.4268C74.8701 56.1989 74.8086 55.9323 74.8086 55.627C74.8086 55.3353 74.8724 55.0596 75 54.7998C75.1322 54.54 75.3167 54.3099 75.5537 54.1094C75.7952 53.9089 76.0846 53.7516 76.4219 53.6377C76.7591 53.5238 77.1351 53.4668 77.5498 53.4668C78.1423 53.4668 78.6481 53.5716 79.0674 53.7812C79.4867 53.9909 79.8079 54.2712 80.0312 54.6221C80.2546 54.9684 80.3662 55.3535 80.3662 55.7773H79.1016C79.1016 55.5723 79.04 55.374 78.917 55.1826C78.7985 54.9867 78.623 54.8249 78.3906 54.6973C78.1628 54.5697 77.8825 54.5059 77.5498 54.5059C77.1989 54.5059 76.9141 54.5605 76.6953 54.6699C76.4811 54.7747 76.3239 54.9092 76.2236 55.0732C76.1279 55.2373 76.0801 55.4105 76.0801 55.5928C76.0801 55.7295 76.1029 55.8525 76.1484 55.9619C76.1986 56.0667 76.2852 56.1647 76.4082 56.2559C76.5312 56.3424 76.7044 56.4245 76.9277 56.502C77.151 56.5794 77.4359 56.6569 77.7822 56.7344C78.3883 56.8711 78.8874 57.0352 79.2793 57.2266C79.6712 57.418 79.9629 57.6527 80.1543 57.9307C80.3457 58.2087 80.4414 58.5459 80.4414 58.9424C80.4414 59.266 80.373 59.5622 80.2363 59.8311C80.1042 60.0999 79.9105 60.3324 79.6553 60.5283C79.4046 60.7197 79.1038 60.8701 78.7529 60.9795C78.4066 61.0843 78.0169 61.1367 77.584 61.1367C76.9323 61.1367 76.3809 61.0205 75.9297 60.7881C75.4785 60.5557 75.1367 60.2549 74.9043 59.8857C74.6719 59.5166 74.5557 59.127 74.5557 58.7168H75.8271C75.8454 59.0632 75.9456 59.3389 76.1279 59.5439C76.3102 59.7445 76.5335 59.888 76.7979 59.9746C77.0622 60.0566 77.3242 60.0977 77.584 60.0977C77.9303 60.0977 78.2197 60.0521 78.4521 59.9609C78.6891 59.8698 78.8691 59.7445 78.9922 59.585C79.1152 59.4255 79.1768 59.2432 79.1768 59.0381Z" fill="white"/>
</svg>
