<svg version="1.2" xmlns="http://www.w3.org/2000/svg" viewBox="0 0 101 96" width="101" height="96"><style>.a{fill:#f5f5f5}.b{fill:#212121}.c{fill:#f9f9ff}</style><path class="a" d="m0 6h101v84h-101z"/><path class="b" d="m39.5 44.9v-6.2c0-0.8 0.4-1.5 1-2l3.7-3.1c0.2-0.2 0.4 0 0.4 0.2v6.8c0 1.5 1.7 2.4 2.9 1.6l4.8-3.2c0.3-0.2 0.7-0.2 0.9 0.1 0.9 0.8 0.9 2.3 0 3.1l-3.7 3.8c-0.7 0.6-1.6 1-2.5 1h-5.4c-1.2 0-2.1-0.9-2.1-2.1z"/><path class="b" d="m46.7 38.8v-4.5h14.8v4.5c0 1-0.8 1.8-1.8 1.8h-1.4c-0.3 0-0.6-0.1-0.8-0.3l-3.1-3.4c-0.6-0.6-1.4-0.7-2.1-0.3l-4.3 2.9c-0.6 0.3-1.3-0.1-1.3-0.7z"/><path class="b" d="m61.5 32.2c-0.5-0.1-9.9-0.1-14.8 0v-1.1c0-1.2 1-2.1 2.2-2.1h10.4c1.2 0 2.1 1 2.1 2.2 0 0.5 0 0.9 0.1 1q0 0 0 0 0 0 0 0z"/><path class="b" d="m23.8 63.1h-2.6v-1.1h2.6q0.8 0 1.3-0.2 0.5-0.3 0.7-0.7 0.2-0.4 0.2-1 0-0.5-0.2-1-0.2-0.4-0.7-0.7-0.5-0.3-1.3-0.3h-2.3v8.9h-1.3v-10h3.6q1.2 0 1.9 0.4 0.8 0.4 1.2 1.1 0.4 0.7 0.4 1.6 0 0.9-0.4 1.6-0.4 0.7-1.2 1-0.7 0.4-1.9 0.4zm9.3 2.6v-3.8q0-0.4-0.2-0.7-0.2-0.4-0.5-0.5-0.4-0.2-0.9-0.2-0.5 0-0.8 0.1-0.4 0.2-0.6 0.5-0.2 0.2-0.2 0.6h-1.2q0-0.4 0.2-0.8 0.2-0.4 0.5-0.7 0.4-0.4 1-0.5 0.5-0.2 1.2-0.2 0.8 0 1.4 0.2 0.6 0.3 1 0.9 0.3 0.5 0.3 1.3v3.5q0 0.4 0.1 0.8 0.1 0.4 0.2 0.7v0.1h-1.3q-0.1-0.2-0.2-0.6 0-0.4 0-0.7zm0.2-3.2v0.9h-1.3q-0.5 0-0.9 0.1-0.5 0.1-0.7 0.2-0.3 0.2-0.5 0.5-0.1 0.2-0.1 0.6 0 0.3 0.1 0.6 0.2 0.3 0.5 0.5 0.3 0.1 0.8 0.1 0.6 0 1-0.2 0.5-0.3 0.7-0.6 0.3-0.4 0.3-0.7l0.5 0.6q0 0.3-0.2 0.6-0.2 0.4-0.6 0.7-0.3 0.3-0.8 0.5-0.5 0.2-1.1 0.2-0.8 0-1.3-0.3-0.6-0.3-0.9-0.7-0.3-0.5-0.3-1.2 0-0.6 0.2-1 0.3-0.5 0.7-0.8 0.4-0.3 1.1-0.4 0.6-0.2 1.3-0.2zm5 3.7l2.1-6.6h1.3l-2.9 8.5q-0.1 0.3-0.3 0.6-0.2 0.4-0.4 0.6-0.3 0.3-0.7 0.5-0.3 0.2-0.8 0.2-0.2 0-0.4-0.1-0.2 0-0.3 0v-1q0 0 0.1 0 0.2 0 0.2 0 0.4 0 0.7-0.1 0.3-0.1 0.5-0.4 0.3-0.3 0.4-0.7zm-1.5-6.7l1.9 5.8 0.3 1.3-0.9 0.5-2.7-7.6zm7.3 1.5v5.9h-1.2v-7.4h1.2zm-0.3 2h-0.6q0-0.8 0.2-1.4 0.2-0.7 0.6-1.2 0.4-0.4 0.9-0.7 0.6-0.3 1.3-0.3 0.5 0 1 0.2 0.4 0.1 0.7 0.4 0.4 0.4 0.5 0.8 0.2 0.5 0.2 1.2v5h-1.3v-4.9q0-0.6-0.2-0.9-0.1-0.4-0.5-0.5-0.4-0.2-0.8-0.2-0.6 0-1 0.2-0.3 0.2-0.6 0.5-0.2 0.4-0.3 0.8-0.1 0.5-0.1 1zm4.8-0.7l-0.9 0.2q0.1-0.6 0.2-1.1 0.2-0.6 0.6-1 0.4-0.5 0.9-0.7 0.6-0.3 1.3-0.3 0.6 0 1 0.2 0.5 0.1 0.8 0.5 0.3 0.3 0.5 0.8 0.2 0.5 0.2 1.2v4.9h-1.3v-4.9q0-0.6-0.2-1-0.2-0.3-0.5-0.5-0.4-0.1-0.9-0.1-0.4 0-0.7 0.1-0.3 0.2-0.6 0.4-0.2 0.3-0.3 0.6-0.1 0.3-0.1 0.7zm9.6 4.8q-0.8 0-1.4-0.3-0.7-0.2-1.1-0.7-0.5-0.5-0.7-1.1-0.2-0.7-0.2-1.5v-0.3q0-0.9 0.2-1.6 0.3-0.7 0.7-1.2 0.5-0.5 1.1-0.7 0.6-0.3 1.2-0.3 0.8 0 1.4 0.3 0.5 0.3 0.9 0.8 0.4 0.5 0.6 1.1 0.1 0.7 0.1 1.5v0.5h-5.5v-1h4.3v-0.1q-0.1-0.5-0.2-1-0.2-0.4-0.6-0.7-0.4-0.3-1-0.3-0.4 0-0.8 0.2-0.4 0.1-0.6 0.5-0.3 0.3-0.4 0.9-0.2 0.5-0.2 1.1v0.3q0 0.6 0.2 1 0.1 0.5 0.4 0.8 0.3 0.4 0.7 0.6 0.4 0.2 0.9 0.2 0.7 0 1.2-0.3 0.4-0.3 0.8-0.7l0.7 0.6q-0.2 0.3-0.6 0.7-0.3 0.3-0.9 0.5-0.5 0.2-1.2 0.2zm5.6-6v5.9h-1.3v-7.4h1.2zm-0.3 1.8h-0.5q0-0.8 0.2-1.4 0.2-0.7 0.6-1.1 0.4-0.5 1-0.8 0.5-0.2 1.2-0.2 0.5 0 1 0.1 0.4 0.1 0.7 0.5 0.3 0.3 0.5 0.8 0.2 0.5 0.2 1.2v4.9h-1.3v-4.9q0-0.6-0.2-0.9-0.2-0.4-0.5-0.5-0.3-0.2-0.8-0.2-0.5 0-0.9 0.2-0.3 0.2-0.6 0.6-0.3 0.3-0.4 0.8-0.2 0.4-0.2 0.9zm9.9-3.4v1h-4v-1zm-2.7-1.8h1.3v7.4q0 0.3 0.1 0.5 0.1 0.2 0.3 0.3 0.2 0 0.4 0 0.2 0 0.3 0 0.2 0 0.3 0v1q-0.1 0-0.4 0.1-0.2 0-0.6 0-0.4 0-0.8-0.2-0.4-0.1-0.6-0.6-0.3-0.4-0.3-1.2zm8.5 7.3q0-0.3-0.2-0.5-0.1-0.3-0.4-0.5-0.4-0.2-1.1-0.3-0.7-0.1-1.2-0.3-0.4-0.2-0.8-0.4-0.3-0.3-0.5-0.6-0.2-0.4-0.2-0.8 0-0.5 0.2-0.9 0.2-0.3 0.5-0.6 0.4-0.3 0.9-0.5 0.5-0.2 1.1-0.2 0.9 0 1.6 0.3 0.6 0.3 0.9 0.9 0.4 0.5 0.4 1.1h-1.3q0-0.3-0.2-0.6-0.2-0.3-0.5-0.5-0.4-0.2-0.9-0.2-0.5 0-0.8 0.2-0.3 0.2-0.5 0.4-0.1 0.3-0.1 0.5 0 0.2 0 0.4 0.1 0.2 0.3 0.3 0.2 0.1 0.5 0.2 0.3 0.2 0.9 0.3 0.9 0.2 1.5 0.5 0.6 0.3 0.8 0.7 0.3 0.4 0.3 1 0 0.5-0.2 0.9-0.2 0.4-0.6 0.7-0.3 0.3-0.9 0.4-0.5 0.2-1.1 0.2-1 0-1.7-0.4-0.7-0.3-1-0.9-0.4-0.5-0.4-1.1h1.3q0 0.5 0.3 0.8 0.3 0.3 0.7 0.4 0.4 0.1 0.8 0.1 0.5 0 0.8-0.1 0.4-0.1 0.6-0.4 0.2-0.2 0.2-0.5z"/><path fill-rule="evenodd" class="a" d="m101-1c0 3.9-3.1 7-7 7h7z"/><path fill-rule="evenodd" class="c" d="m94 90c3.9 0 7 3.1 7 7v-7z"/></svg>