<svg width="101" height="98" viewBox="0 0 101 98" fill="none" xmlns="http://www.w3.org/2000/svg">
<rect width="101" height="84" transform="translate(0 7)" fill="#F9F9FF"/>
<path d="M39.5 45.8824V39.7227C39.5 38.9301 39.8535 38.1792 40.4634 37.6764L44.2069 34.5903C44.3789 34.4485 44.6375 34.5714 44.6375 34.7949V41.6415C44.6375 43.1183 46.273 44.0016 47.499 43.187L52.3368 39.9728C52.6092 39.7918 52.9708 39.8285 53.2017 40.0605C54.0738 40.9367 54.0738 42.3574 53.2017 43.2337L49.4609 46.9921C48.8186 47.6375 47.9474 48 47.0391 48H41.6077C40.4437 48 39.5 47.0519 39.5 45.8824Z" fill="#212121"/>
<path d="M46.7452 39.7903V35.2941H61.4992V39.7941C61.4992 40.8175 60.6735 41.6471 59.6549 41.6471H58.2743C57.9789 41.6471 57.697 41.5225 57.4974 41.3037L54.3661 37.8717C53.845 37.3005 52.9896 37.1905 52.3421 37.6114L47.965 40.457C47.4391 40.7989 46.7452 40.4197 46.7452 39.7903Z" fill="#212121"/>
<path d="M61.4797 33.167C60.9846 33.0745 51.5505 33.1338 46.7452 33.1765V32.1176C46.7452 30.9481 47.6889 30 48.8529 30H59.3055C60.5026 30 61.45 31.001 61.4417 32.2037C61.4382 32.7042 61.4472 33.0918 61.4797 33.167C61.4958 33.17 61.5025 33.1732 61.4992 33.1765C61.4919 33.1838 61.4854 33.1803 61.4797 33.167Z" fill="#212121"/>
<path d="M23.8262 64.0967H21.167V63.0234H23.8262C24.3411 63.0234 24.7581 62.9414 25.0771 62.7773C25.3962 62.6133 25.6286 62.3854 25.7744 62.0938C25.9248 61.8021 26 61.4694 26 61.0957C26 60.7539 25.9248 60.4326 25.7744 60.1318C25.6286 59.8311 25.3962 59.5895 25.0771 59.4072C24.7581 59.2204 24.3411 59.127 23.8262 59.127H21.4746V68H20.1553V58.0469H23.8262C24.5781 58.0469 25.2139 58.1768 25.7334 58.4365C26.2529 58.6963 26.6471 59.0563 26.916 59.5166C27.1849 59.9723 27.3193 60.4941 27.3193 61.082C27.3193 61.7201 27.1849 62.2646 26.916 62.7158C26.6471 63.167 26.2529 63.5111 25.7334 63.748C25.2139 63.9805 24.5781 64.0967 23.8262 64.0967ZM33.0752 66.7354V62.9277C33.0752 62.6361 33.016 62.3831 32.8975 62.1689C32.7835 61.9502 32.6104 61.7816 32.3779 61.6631C32.1455 61.5446 31.8584 61.4854 31.5166 61.4854C31.1976 61.4854 30.9173 61.54 30.6758 61.6494C30.4388 61.7588 30.252 61.9023 30.1152 62.0801C29.9831 62.2578 29.917 62.4492 29.917 62.6543H28.6523C28.6523 62.39 28.7207 62.1279 28.8574 61.8682C28.9941 61.6084 29.1901 61.3737 29.4453 61.1641C29.7051 60.9499 30.015 60.7812 30.375 60.6582C30.7396 60.5306 31.1452 60.4668 31.5918 60.4668C32.1296 60.4668 32.6035 60.5579 33.0137 60.7402C33.4284 60.9225 33.752 61.1982 33.9844 61.5674C34.2214 61.932 34.3398 62.39 34.3398 62.9414V66.3867C34.3398 66.6328 34.3604 66.8949 34.4014 67.1729C34.4469 67.4508 34.513 67.6901 34.5996 67.8906V68H33.2803C33.2165 67.8542 33.1663 67.6605 33.1299 67.4189C33.0934 67.1729 33.0752 66.945 33.0752 66.7354ZM33.2939 63.5156L33.3076 64.4043H32.0293C31.6693 64.4043 31.348 64.4339 31.0654 64.4932C30.7829 64.5479 30.5459 64.6322 30.3545 64.7461C30.1631 64.86 30.0173 65.0036 29.917 65.1768C29.8167 65.3454 29.7666 65.5436 29.7666 65.7715C29.7666 66.0039 29.819 66.2158 29.9238 66.4072C30.0286 66.5986 30.1859 66.7513 30.3955 66.8652C30.6097 66.9746 30.8717 67.0293 31.1816 67.0293C31.569 67.0293 31.9108 66.9473 32.207 66.7832C32.5033 66.6191 32.738 66.4186 32.9111 66.1816C33.0889 65.9447 33.1846 65.7145 33.1982 65.4912L33.7383 66.0996C33.7064 66.291 33.6198 66.5029 33.4785 66.7354C33.3372 66.9678 33.1481 67.1911 32.9111 67.4053C32.6787 67.6149 32.4007 67.7904 32.0771 67.9316C31.7581 68.0684 31.3981 68.1367 30.9971 68.1367C30.4958 68.1367 30.056 68.0387 29.6777 67.8428C29.304 67.6468 29.0124 67.3848 28.8027 67.0566C28.5977 66.724 28.4951 66.3525 28.4951 65.9424C28.4951 65.5459 28.5726 65.1973 28.7275 64.8965C28.8825 64.5911 29.1058 64.3382 29.3975 64.1377C29.6891 63.9326 30.04 63.7777 30.4502 63.6729C30.8604 63.568 31.3184 63.5156 31.8242 63.5156H33.2939ZM38.2979 67.2344L40.3555 60.6035H41.709L38.7422 69.1416C38.6738 69.3239 38.5827 69.5199 38.4688 69.7295C38.3594 69.9437 38.2181 70.1465 38.0449 70.3379C37.8717 70.5293 37.6621 70.6842 37.416 70.8027C37.1745 70.9258 36.8851 70.9873 36.5479 70.9873C36.4476 70.9873 36.32 70.9736 36.165 70.9463C36.0101 70.9189 35.9007 70.8962 35.8369 70.8779L35.8301 69.8525C35.8665 69.8571 35.9235 69.8617 36.001 69.8662C36.083 69.8753 36.14 69.8799 36.1719 69.8799C36.459 69.8799 36.7028 69.8411 36.9033 69.7637C37.1038 69.6908 37.2725 69.5654 37.4092 69.3877C37.5505 69.2145 37.6712 68.9753 37.7715 68.6699L38.2979 67.2344ZM36.7871 60.6035L38.708 66.3457L39.0361 67.6787L38.127 68.1436L35.4062 60.6035H36.7871ZM44.1084 62.0732V68H42.8369V60.6035H44.04L44.1084 62.0732ZM43.8486 64.0215L43.2607 64.001C43.2653 63.4951 43.3314 63.028 43.459 62.5996C43.5866 62.1667 43.7757 61.7907 44.0264 61.4717C44.277 61.1527 44.5892 60.9066 44.9629 60.7334C45.3366 60.5557 45.7695 60.4668 46.2617 60.4668C46.6081 60.4668 46.9271 60.5169 47.2188 60.6172C47.5104 60.7129 47.7633 60.8656 47.9775 61.0752C48.1917 61.2848 48.3581 61.5537 48.4766 61.8818C48.5951 62.21 48.6543 62.6064 48.6543 63.0713V68H47.3896V63.1328C47.3896 62.7454 47.3236 62.4355 47.1914 62.2031C47.0638 61.9707 46.8815 61.8021 46.6445 61.6973C46.4076 61.5879 46.1296 61.5332 45.8105 61.5332C45.4368 61.5332 45.1247 61.5993 44.874 61.7314C44.6234 61.8636 44.4229 62.0459 44.2725 62.2783C44.1221 62.5107 44.0127 62.7773 43.9443 63.0781C43.8805 63.3743 43.8486 63.6888 43.8486 64.0215ZM48.6406 63.3242L47.793 63.584C47.7975 63.1784 47.8636 62.7887 47.9912 62.415C48.1234 62.0413 48.3125 61.7087 48.5586 61.417C48.8092 61.1253 49.1169 60.8952 49.4814 60.7266C49.846 60.5534 50.263 60.4668 50.7324 60.4668C51.1289 60.4668 51.4798 60.5192 51.7852 60.624C52.0951 60.7288 52.3548 60.8906 52.5645 61.1094C52.7786 61.3236 52.9404 61.5993 53.0498 61.9365C53.1592 62.2738 53.2139 62.6748 53.2139 63.1396V68H51.9424V63.126C51.9424 62.7113 51.8763 62.39 51.7441 62.1621C51.6165 61.9297 51.4342 61.7679 51.1973 61.6768C50.9648 61.5811 50.6868 61.5332 50.3633 61.5332C50.0853 61.5332 49.8392 61.5811 49.625 61.6768C49.4108 61.7725 49.2308 61.9046 49.085 62.0732C48.9391 62.2373 48.8275 62.4264 48.75 62.6406C48.6771 62.8548 48.6406 63.0827 48.6406 63.3242ZM58.1973 68.1367C57.6823 68.1367 57.2152 68.0501 56.7959 67.877C56.3812 67.6992 56.0234 67.4508 55.7227 67.1318C55.4264 66.8128 55.1986 66.4346 55.0391 65.9971C54.8796 65.5596 54.7998 65.0811 54.7998 64.5615V64.2744C54.7998 63.6729 54.8887 63.1374 55.0664 62.668C55.2441 62.194 55.4857 61.793 55.791 61.4648C56.0964 61.1367 56.4427 60.8883 56.8301 60.7197C57.2174 60.5511 57.6185 60.4668 58.0332 60.4668C58.5618 60.4668 59.0176 60.5579 59.4004 60.7402C59.7878 60.9225 60.1045 61.1777 60.3506 61.5059C60.5967 61.8294 60.779 62.2122 60.8975 62.6543C61.016 63.0918 61.0752 63.5703 61.0752 64.0898V64.6572H55.5518V63.625H59.8105V63.5293C59.7923 63.2012 59.724 62.8822 59.6055 62.5723C59.4915 62.2624 59.3092 62.0072 59.0586 61.8066C58.8079 61.6061 58.4661 61.5059 58.0332 61.5059C57.7461 61.5059 57.4818 61.5674 57.2402 61.6904C56.9987 61.8089 56.7913 61.9867 56.6182 62.2236C56.445 62.4606 56.3105 62.75 56.2148 63.0918C56.1191 63.4336 56.0713 63.8278 56.0713 64.2744V64.5615C56.0713 64.9124 56.1191 65.2428 56.2148 65.5527C56.3151 65.8581 56.4587 66.127 56.6455 66.3594C56.8369 66.5918 57.0671 66.7741 57.3359 66.9062C57.6094 67.0384 57.9193 67.1045 58.2656 67.1045C58.7122 67.1045 59.0905 67.0133 59.4004 66.8311C59.7103 66.6488 59.9814 66.4049 60.2139 66.0996L60.9795 66.708C60.82 66.9495 60.6172 67.1797 60.3711 67.3984C60.125 67.6172 59.8219 67.7949 59.4619 67.9316C59.1064 68.0684 58.6849 68.1367 58.1973 68.1367ZM63.8164 62.1826V68H62.5518V60.6035H63.748L63.8164 62.1826ZM63.5156 64.0215L62.9893 64.001C62.9938 63.4951 63.069 63.028 63.2148 62.5996C63.3607 62.1667 63.5658 61.7907 63.8301 61.4717C64.0944 61.1527 64.4089 60.9066 64.7734 60.7334C65.1426 60.5557 65.5505 60.4668 65.9971 60.4668C66.3617 60.4668 66.6898 60.5169 66.9814 60.6172C67.2731 60.7129 67.5215 60.8678 67.7266 61.082C67.9362 61.2962 68.0957 61.5742 68.2051 61.916C68.3145 62.2533 68.3691 62.6657 68.3691 63.1533V68H67.0977V63.1396C67.0977 62.7523 67.0407 62.4424 66.9268 62.21C66.8128 61.973 66.6465 61.8021 66.4277 61.6973C66.209 61.5879 65.9401 61.5332 65.6211 61.5332C65.3066 61.5332 65.0195 61.5993 64.7598 61.7314C64.5046 61.8636 64.2835 62.0459 64.0967 62.2783C63.9144 62.5107 63.7708 62.7773 63.666 63.0781C63.5658 63.3743 63.5156 63.6888 63.5156 64.0215ZM73.3867 60.6035V61.5742H69.3877V60.6035H73.3867ZM70.7412 58.8057H72.0059V66.168C72.0059 66.4186 72.0446 66.6077 72.1221 66.7354C72.1995 66.863 72.2998 66.9473 72.4229 66.9883C72.5459 67.0293 72.6781 67.0498 72.8193 67.0498C72.9242 67.0498 73.0335 67.0407 73.1475 67.0225C73.266 66.9997 73.3548 66.9814 73.4141 66.9678L73.4209 68C73.3206 68.0319 73.1885 68.0615 73.0244 68.0889C72.8649 68.1208 72.6712 68.1367 72.4434 68.1367C72.1335 68.1367 71.8486 68.0752 71.5889 67.9521C71.3291 67.8291 71.1217 67.624 70.9668 67.3369C70.8164 67.0452 70.7412 66.6533 70.7412 66.1611V58.8057ZM79.1768 66.0381C79.1768 65.8558 79.1357 65.6872 79.0537 65.5322C78.9762 65.3727 78.8145 65.2292 78.5684 65.1016C78.3268 64.9694 77.9622 64.8555 77.4746 64.7598C77.0645 64.6732 76.693 64.5706 76.3604 64.4521C76.0322 64.3337 75.752 64.1901 75.5195 64.0215C75.2917 63.8529 75.1162 63.6546 74.9932 63.4268C74.8701 63.1989 74.8086 62.9323 74.8086 62.627C74.8086 62.3353 74.8724 62.0596 75 61.7998C75.1322 61.54 75.3167 61.3099 75.5537 61.1094C75.7952 60.9089 76.0846 60.7516 76.4219 60.6377C76.7591 60.5238 77.1351 60.4668 77.5498 60.4668C78.1423 60.4668 78.6481 60.5716 79.0674 60.7812C79.4867 60.9909 79.8079 61.2712 80.0312 61.6221C80.2546 61.9684 80.3662 62.3535 80.3662 62.7773H79.1016C79.1016 62.5723 79.04 62.374 78.917 62.1826C78.7985 61.9867 78.623 61.8249 78.3906 61.6973C78.1628 61.5697 77.8825 61.5059 77.5498 61.5059C77.1989 61.5059 76.9141 61.5605 76.6953 61.6699C76.4811 61.7747 76.3239 61.9092 76.2236 62.0732C76.1279 62.2373 76.0801 62.4105 76.0801 62.5928C76.0801 62.7295 76.1029 62.8525 76.1484 62.9619C76.1986 63.0667 76.2852 63.1647 76.4082 63.2559C76.5312 63.3424 76.7044 63.4245 76.9277 63.502C77.151 63.5794 77.4359 63.6569 77.7822 63.7344C78.3883 63.8711 78.8874 64.0352 79.2793 64.2266C79.6712 64.418 79.9629 64.6527 80.1543 64.9307C80.3457 65.2087 80.4414 65.5459 80.4414 65.9424C80.4414 66.266 80.373 66.5622 80.2363 66.8311C80.1042 67.0999 79.9105 67.3324 79.6553 67.5283C79.4046 67.7197 79.1038 67.8701 78.7529 67.9795C78.4066 68.0843 78.0169 68.1367 77.584 68.1367C76.9323 68.1367 76.3809 68.0205 75.9297 67.7881C75.4785 67.5557 75.1367 67.2549 74.9043 66.8857C74.6719 66.5166 74.5557 66.127 74.5557 65.7168H75.8271C75.8454 66.0632 75.9456 66.3389 76.1279 66.5439C76.3102 66.7445 76.5335 66.888 76.7979 66.9746C77.0622 67.0566 77.3242 67.0977 77.584 67.0977C77.9303 67.0977 78.2197 67.0521 78.4521 66.9609C78.6891 66.8698 78.8691 66.7445 78.9922 66.585C79.1152 66.4255 79.1768 66.2432 79.1768 66.0381Z" fill="#212121"/>
<path fill-rule="evenodd" clip-rule="evenodd" d="M101 0C101 3.86599 97.866 7 94 7H101V0Z" fill="#F5F5F5"/>
<path fill-rule="evenodd" clip-rule="evenodd" d="M94 91C97.866 91 101 94.134 101 98L101 91L94 91Z" fill="#F5F5F5"/>
</svg>
