<svg width="101" height="84" viewBox="0 0 101 84" fill="none" xmlns="http://www.w3.org/2000/svg">
<g clip-path="url(#clip0_14993_13246)">
<path d="M51.7 20C51.1348 20 50.6628 20.4321 50.6172 20.9961L50.5985 21.2234C50.5952 21.263 50.6116 21.2972 50.6125 21.3359C49.6721 21.5546 48.8435 22.0469 48.2055 22.7281C48.172 22.7077 48.1505 22.6749 48.1141 22.6578L47.9102 22.5617C47.399 22.3205 46.7871 22.5104 46.5039 23C46.2207 23.4896 46.3606 24.1128 46.825 24.4344L47.0125 24.5656C47.0485 24.5905 47.0898 24.5948 47.1274 24.6148C46.9936 25.0561 46.9 25.5151 46.9 26C46.9 26.4849 46.9936 26.9439 47.1274 27.3852C47.0898 27.4051 47.0485 27.4095 47.0125 27.4344L46.825 27.5633C46.3606 27.8861 46.2207 28.5104 46.5039 29C46.7871 29.4896 47.399 29.6795 47.9102 29.4383L48.1141 29.3422C48.1504 29.3251 48.1721 29.2923 48.2055 29.2719C48.843 29.9526 49.6707 30.4451 50.6102 30.6641C50.6092 30.7028 50.5929 30.737 50.5961 30.7766L50.6172 31.0039C50.664 31.5679 51.1348 32 51.7 32C52.2652 32 52.7373 31.5679 52.7829 31.0039L52.8016 30.7766C52.8049 30.737 52.7885 30.7028 52.7875 30.6641C53.7279 30.4454 54.5566 29.9531 55.1946 29.2719C55.2281 29.2924 55.2496 29.325 55.286 29.3422L55.4899 29.4406C56.0011 29.6818 56.6129 29.4919 56.8962 29.0023C57.1794 28.5127 57.0395 27.8884 56.5751 27.5656L56.3876 27.4344C56.3516 27.4095 56.3103 27.4052 56.2727 27.3852C56.4065 26.9439 56.5001 26.4849 56.5001 26C56.5001 25.5151 56.4065 25.0561 56.2727 24.6148C56.3103 24.5949 56.3516 24.5905 56.3876 24.5656L56.5751 24.4367C57.0395 24.1139 57.1794 23.4896 56.8962 23C56.6129 22.5104 56.0011 22.3205 55.4899 22.5617L55.286 22.6578C55.2497 22.6749 55.228 22.7077 55.1946 22.7281C54.5571 22.0474 53.7294 21.5549 52.7899 21.3359C52.7909 21.2972 52.8072 21.263 52.804 21.2234L52.7829 20.9961C52.7361 20.4321 52.2652 20 51.7 20ZM51.7 24.2C52.6936 24.2 53.5 25.0064 53.5 26C53.5 26.9936 52.6936 27.8 51.7 27.8C50.7064 27.8 49.9 26.9936 49.9 26C49.9 25.0064 50.7064 24.2 51.7 24.2ZM60.8032 32C60.3688 32 59.9344 32.1657 59.6032 32.4969L54.1 38H49.3C48.9688 38 48.7 37.7312 48.7 37.4C48.7 37.0688 48.9688 36.8 49.3 36.8H52.3C53.29 36.8 54.1 35.99 54.1 35C54.1 34.01 53.29 33.2 52.3 33.2H46.4875C45.2155 33.2 43.9961 33.7063 43.0961 34.6063L38.5 39.2L43.3 44L45.7 41.6H54.3063C54.9423 41.6 55.5532 41.3469 56.0032 40.8969L62.0032 34.8969C62.6656 34.2345 62.6656 33.1593 62.0032 32.4969C61.672 32.1657 61.2376 32 60.8032 32Z" fill="white"/>
</g>
<path d="M30.46 58.4844C30.46 58.252 30.4235 58.0469 30.3506 57.8691C30.2822 57.6868 30.1592 57.5228 29.9814 57.377C29.8083 57.2311 29.5667 57.0921 29.2568 56.96C28.9515 56.8278 28.5641 56.6934 28.0947 56.5566C27.6025 56.4108 27.1582 56.249 26.7617 56.0713C26.3652 55.889 26.0257 55.6816 25.7432 55.4492C25.4606 55.2168 25.2441 54.9502 25.0938 54.6494C24.9434 54.3486 24.8682 54.0046 24.8682 53.6172C24.8682 53.2298 24.9479 52.8721 25.1074 52.5439C25.2669 52.2158 25.4948 51.931 25.791 51.6895C26.0918 51.4434 26.4495 51.252 26.8643 51.1152C27.279 50.9785 27.7415 50.9102 28.252 50.9102C28.9993 50.9102 29.6328 51.0537 30.1523 51.3408C30.6764 51.6234 31.0752 51.9948 31.3486 52.4551C31.6221 52.9108 31.7588 53.3984 31.7588 53.918H30.4463C30.4463 53.5443 30.3665 53.2139 30.207 52.9268C30.0475 52.6351 29.806 52.4072 29.4824 52.2432C29.1589 52.0745 28.7487 51.9902 28.252 51.9902C27.7826 51.9902 27.3952 52.0609 27.0898 52.2021C26.7845 52.3434 26.5566 52.5348 26.4062 52.7764C26.2604 53.0179 26.1875 53.2936 26.1875 53.6035C26.1875 53.8132 26.2308 54.0046 26.3174 54.1777C26.4085 54.3464 26.5475 54.5036 26.7344 54.6494C26.9258 54.7952 27.1673 54.9297 27.459 55.0527C27.7552 55.1758 28.1084 55.2943 28.5186 55.4082C29.0837 55.5677 29.5713 55.7454 29.9814 55.9414C30.3916 56.1374 30.7288 56.3584 30.9932 56.6045C31.262 56.846 31.4603 57.1217 31.5879 57.4316C31.7201 57.737 31.7861 58.0833 31.7861 58.4707C31.7861 58.8763 31.7041 59.2432 31.54 59.5713C31.376 59.8994 31.1413 60.1797 30.8359 60.4121C30.5306 60.6445 30.1637 60.8245 29.7354 60.9521C29.3115 61.0752 28.8376 61.1367 28.3135 61.1367C27.8532 61.1367 27.3997 61.0729 26.9531 60.9453C26.5111 60.8177 26.1077 60.6263 25.7432 60.3711C25.3831 60.1159 25.0938 59.8014 24.875 59.4277C24.6608 59.0495 24.5537 58.612 24.5537 58.1152H25.8662C25.8662 58.457 25.9323 58.751 26.0645 58.9971C26.1966 59.2386 26.3766 59.4391 26.6045 59.5986C26.8369 59.7581 27.099 59.8766 27.3906 59.9541C27.6868 60.027 27.9945 60.0635 28.3135 60.0635C28.7738 60.0635 29.1634 59.9997 29.4824 59.8721C29.8014 59.7445 30.043 59.5622 30.207 59.3252C30.3757 59.0882 30.46 58.8079 30.46 58.4844ZM36.3457 61.1367C35.8307 61.1367 35.3636 61.0501 34.9443 60.877C34.5296 60.6992 34.1719 60.4508 33.8711 60.1318C33.5749 59.8128 33.347 59.4346 33.1875 58.9971C33.028 58.5596 32.9482 58.0811 32.9482 57.5615V57.2744C32.9482 56.6729 33.0371 56.1374 33.2148 55.668C33.3926 55.194 33.6341 54.793 33.9395 54.4648C34.2448 54.1367 34.5911 53.8883 34.9785 53.7197C35.3659 53.5511 35.7669 53.4668 36.1816 53.4668C36.7103 53.4668 37.166 53.5579 37.5488 53.7402C37.9362 53.9225 38.2529 54.1777 38.499 54.5059C38.7451 54.8294 38.9274 55.2122 39.0459 55.6543C39.1644 56.0918 39.2236 56.5703 39.2236 57.0898V57.6572H33.7002V56.625H37.959V56.5293C37.9408 56.2012 37.8724 55.8822 37.7539 55.5723C37.64 55.2624 37.4577 55.0072 37.207 54.8066C36.9564 54.6061 36.6146 54.5059 36.1816 54.5059C35.8945 54.5059 35.6302 54.5674 35.3887 54.6904C35.1471 54.8089 34.9398 54.9867 34.7666 55.2236C34.5934 55.4606 34.459 55.75 34.3633 56.0918C34.2676 56.4336 34.2197 56.8278 34.2197 57.2744V57.5615C34.2197 57.9124 34.2676 58.2428 34.3633 58.5527C34.4635 58.8581 34.6071 59.127 34.7939 59.3594C34.9854 59.5918 35.2155 59.7741 35.4844 59.9062C35.7578 60.0384 36.0677 60.1045 36.4141 60.1045C36.8607 60.1045 37.2389 60.0133 37.5488 59.8311C37.8587 59.6488 38.1299 59.4049 38.3623 59.0996L39.1279 59.708C38.9684 59.9495 38.7656 60.1797 38.5195 60.3984C38.2734 60.6172 37.9704 60.7949 37.6104 60.9316C37.2549 61.0684 36.8333 61.1367 36.3457 61.1367ZM41.9648 54.7656V61H40.7002V53.6035H41.9307L41.9648 54.7656ZM44.2754 53.5625L44.2686 54.7383C44.1637 54.7155 44.0635 54.7018 43.9678 54.6973C43.8766 54.6882 43.7718 54.6836 43.6533 54.6836C43.3617 54.6836 43.1042 54.7292 42.8809 54.8203C42.6576 54.9115 42.4684 55.0391 42.3135 55.2031C42.1585 55.3672 42.0355 55.5632 41.9443 55.791C41.8577 56.0143 41.8008 56.2604 41.7734 56.5293L41.418 56.7344C41.418 56.2878 41.4613 55.8685 41.5479 55.4766C41.639 55.0846 41.778 54.7383 41.9648 54.4375C42.1517 54.1322 42.3887 53.8952 42.6758 53.7266C42.9674 53.5534 43.3138 53.4668 43.7148 53.4668C43.806 53.4668 43.9108 53.4782 44.0293 53.501C44.1478 53.5192 44.2298 53.5397 44.2754 53.5625ZM47.8164 59.8584L49.8398 53.6035H51.1318L48.4727 61H47.625L47.8164 59.8584ZM46.1279 53.6035L48.2129 59.8926L48.3564 61H47.5088L44.8291 53.6035H46.1279ZM53.7227 53.6035V61H52.4512V53.6035H53.7227ZM52.3555 51.6416C52.3555 51.4365 52.417 51.2633 52.54 51.1221C52.6676 50.9808 52.8545 50.9102 53.1006 50.9102C53.3421 50.9102 53.5267 50.9808 53.6543 51.1221C53.7865 51.2633 53.8525 51.4365 53.8525 51.6416C53.8525 51.8376 53.7865 52.0062 53.6543 52.1475C53.5267 52.2842 53.3421 52.3525 53.1006 52.3525C52.8545 52.3525 52.6676 52.2842 52.54 52.1475C52.417 52.0062 52.3555 51.8376 52.3555 51.6416ZM58.7129 60.0977C59.0137 60.0977 59.2917 60.0361 59.5469 59.9131C59.8021 59.79 60.0117 59.6214 60.1758 59.4072C60.3398 59.1885 60.4333 58.9401 60.4561 58.6621H61.6592C61.6364 59.0996 61.4883 59.5075 61.2148 59.8857C60.946 60.2594 60.5928 60.5625 60.1553 60.7949C59.7178 61.0228 59.237 61.1367 58.7129 61.1367C58.1569 61.1367 57.6715 61.0387 57.2568 60.8428C56.8467 60.6468 56.5049 60.3779 56.2314 60.0361C55.9626 59.6943 55.7598 59.3024 55.623 58.8604C55.4909 58.4137 55.4248 57.9421 55.4248 57.4453V57.1582C55.4248 56.6615 55.4909 56.1921 55.623 55.75C55.7598 55.3034 55.9626 54.9092 56.2314 54.5674C56.5049 54.2256 56.8467 53.9567 57.2568 53.7607C57.6715 53.5648 58.1569 53.4668 58.7129 53.4668C59.2917 53.4668 59.7975 53.5853 60.2305 53.8223C60.6634 54.0547 61.0029 54.3737 61.249 54.7793C61.4997 55.1803 61.6364 55.6361 61.6592 56.1465H60.4561C60.4333 55.8411 60.3467 55.5654 60.1963 55.3193C60.0505 55.0732 59.8499 54.8773 59.5947 54.7314C59.3441 54.5811 59.0501 54.5059 58.7129 54.5059C58.3255 54.5059 57.9997 54.5833 57.7354 54.7383C57.4756 54.8887 57.2682 55.0938 57.1133 55.3535C56.9629 55.6087 56.8535 55.8936 56.7852 56.208C56.7214 56.5179 56.6895 56.8346 56.6895 57.1582V57.4453C56.6895 57.7689 56.7214 58.0879 56.7852 58.4023C56.849 58.7168 56.9561 59.0016 57.1064 59.2568C57.2614 59.512 57.4688 59.7171 57.7285 59.8721C57.9928 60.0225 58.321 60.0977 58.7129 60.0977ZM66.1504 61.1367C65.6354 61.1367 65.1683 61.0501 64.749 60.877C64.3343 60.6992 63.9766 60.4508 63.6758 60.1318C63.3796 59.8128 63.1517 59.4346 62.9922 58.9971C62.8327 58.5596 62.7529 58.0811 62.7529 57.5615V57.2744C62.7529 56.6729 62.8418 56.1374 63.0195 55.668C63.1973 55.194 63.4388 54.793 63.7441 54.4648C64.0495 54.1367 64.3958 53.8883 64.7832 53.7197C65.1706 53.5511 65.5716 53.4668 65.9863 53.4668C66.515 53.4668 66.9707 53.5579 67.3535 53.7402C67.7409 53.9225 68.0576 54.1777 68.3037 54.5059C68.5498 54.8294 68.7321 55.2122 68.8506 55.6543C68.9691 56.0918 69.0283 56.5703 69.0283 57.0898V57.6572H63.5049V56.625H67.7637V56.5293C67.7454 56.2012 67.6771 55.8822 67.5586 55.5723C67.4447 55.2624 67.2624 55.0072 67.0117 54.8066C66.7611 54.6061 66.4193 54.5059 65.9863 54.5059C65.6992 54.5059 65.4349 54.5674 65.1934 54.6904C64.9518 54.8089 64.7445 54.9867 64.5713 55.2236C64.3981 55.4606 64.2637 55.75 64.168 56.0918C64.0723 56.4336 64.0244 56.8278 64.0244 57.2744V57.5615C64.0244 57.9124 64.0723 58.2428 64.168 58.5527C64.2682 58.8581 64.4118 59.127 64.5986 59.3594C64.79 59.5918 65.0202 59.7741 65.2891 59.9062C65.5625 60.0384 65.8724 60.1045 66.2188 60.1045C66.6654 60.1045 67.0436 60.0133 67.3535 59.8311C67.6634 59.6488 67.9346 59.4049 68.167 59.0996L68.9326 59.708C68.7731 59.9495 68.5703 60.1797 68.3242 60.3984C68.0781 60.6172 67.7751 60.7949 67.415 60.9316C67.0596 61.0684 66.638 61.1367 66.1504 61.1367ZM74.8115 59.0381C74.8115 58.8558 74.7705 58.6872 74.6885 58.5322C74.611 58.3727 74.4492 58.2292 74.2031 58.1016C73.9616 57.9694 73.597 57.8555 73.1094 57.7598C72.6992 57.6732 72.3278 57.5706 71.9951 57.4521C71.667 57.3337 71.3867 57.1901 71.1543 57.0215C70.9264 56.8529 70.751 56.6546 70.6279 56.4268C70.5049 56.1989 70.4434 55.9323 70.4434 55.627C70.4434 55.3353 70.5072 55.0596 70.6348 54.7998C70.7669 54.54 70.9515 54.3099 71.1885 54.1094C71.43 53.9089 71.7194 53.7516 72.0566 53.6377C72.3939 53.5238 72.7699 53.4668 73.1846 53.4668C73.777 53.4668 74.2829 53.5716 74.7021 53.7812C75.1214 53.9909 75.4427 54.2712 75.666 54.6221C75.8893 54.9684 76.001 55.3535 76.001 55.7773H74.7363C74.7363 55.5723 74.6748 55.374 74.5518 55.1826C74.4333 54.9867 74.2578 54.8249 74.0254 54.6973C73.7975 54.5697 73.5173 54.5059 73.1846 54.5059C72.8337 54.5059 72.5488 54.5605 72.3301 54.6699C72.1159 54.7747 71.9587 54.9092 71.8584 55.0732C71.7627 55.2373 71.7148 55.4105 71.7148 55.5928C71.7148 55.7295 71.7376 55.8525 71.7832 55.9619C71.8333 56.0667 71.9199 56.1647 72.043 56.2559C72.166 56.3424 72.3392 56.4245 72.5625 56.502C72.7858 56.5794 73.0706 56.6569 73.417 56.7344C74.0231 56.8711 74.5221 57.0352 74.9141 57.2266C75.306 57.418 75.5977 57.6527 75.7891 57.9307C75.9805 58.2087 76.0762 58.5459 76.0762 58.9424C76.0762 59.266 76.0078 59.5622 75.8711 59.8311C75.7389 60.0999 75.5452 60.3324 75.29 60.5283C75.0394 60.7197 74.7386 60.8701 74.3877 60.9795C74.0413 61.0843 73.6517 61.1367 73.2188 61.1367C72.5671 61.1367 72.0156 61.0205 71.5645 60.7881C71.1133 60.5557 70.7715 60.2549 70.5391 59.8857C70.3066 59.5166 70.1904 59.127 70.1904 58.7168H71.4619C71.4801 59.0632 71.5804 59.3389 71.7627 59.5439C71.945 59.7445 72.1683 59.888 72.4326 59.9746C72.6969 60.0566 72.959 60.0977 73.2188 60.0977C73.5651 60.0977 73.8545 60.0521 74.0869 59.9609C74.3239 59.8698 74.5039 59.7445 74.627 59.585C74.75 59.4255 74.8115 59.2432 74.8115 59.0381Z" fill="white"/>
<defs>
<clipPath id="clip0_14993_13246">
<rect width="24" height="24" fill="white" transform="translate(38.5 20)"/>
</clipPath>
</defs>
</svg>
