<svg width="101" height="98" viewBox="0 0 101 98" fill="none" xmlns="http://www.w3.org/2000/svg">
<rect width="101" height="84" transform="translate(0 7)" fill="#F9F9FF"/>
<g clip-path="url(#clip0_14993_13586)">
<path d="M51.7 27C51.1348 27 50.6628 27.4321 50.6172 27.9961L50.5985 28.2234C50.5952 28.263 50.6116 28.2972 50.6125 28.3359C49.6721 28.5546 48.8435 29.0469 48.2055 29.7281C48.172 29.7077 48.1505 29.6749 48.1141 29.6578L47.9102 29.5617C47.399 29.3205 46.7871 29.5104 46.5039 30C46.2207 30.4896 46.3606 31.1128 46.825 31.4344L47.0125 31.5656C47.0485 31.5905 47.0898 31.5948 47.1274 31.6148C46.9936 32.0561 46.9 32.5151 46.9 33C46.9 33.4849 46.9936 33.9439 47.1274 34.3852C47.0898 34.4051 47.0485 34.4095 47.0125 34.4344L46.825 34.5633C46.3606 34.8861 46.2207 35.5104 46.5039 36C46.7871 36.4896 47.399 36.6795 47.9102 36.4383L48.1141 36.3422C48.1504 36.3251 48.1721 36.2923 48.2055 36.2719C48.843 36.9526 49.6707 37.4451 50.6102 37.6641C50.6092 37.7028 50.5929 37.737 50.5961 37.7766L50.6172 38.0039C50.664 38.5679 51.1348 39 51.7 39C52.2652 39 52.7373 38.5679 52.7829 38.0039L52.8016 37.7766C52.8049 37.737 52.7885 37.7028 52.7875 37.6641C53.7279 37.4454 54.5566 36.9531 55.1946 36.2719C55.2281 36.2924 55.2496 36.325 55.286 36.3422L55.4899 36.4406C56.0011 36.6818 56.6129 36.4919 56.8962 36.0023C57.1794 35.5127 57.0395 34.8884 56.5751 34.5656L56.3876 34.4344C56.3516 34.4095 56.3103 34.4052 56.2727 34.3852C56.4065 33.9439 56.5001 33.4849 56.5001 33C56.5001 32.5151 56.4065 32.0561 56.2727 31.6148C56.3103 31.5949 56.3516 31.5905 56.3876 31.5656L56.5751 31.4367C57.0395 31.1139 57.1794 30.4896 56.8962 30C56.6129 29.5104 56.0011 29.3205 55.4899 29.5617L55.286 29.6578C55.2497 29.6749 55.228 29.7077 55.1946 29.7281C54.5571 29.0474 53.7294 28.5549 52.7899 28.3359C52.7909 28.2972 52.8072 28.263 52.804 28.2234L52.7829 27.9961C52.7361 27.4321 52.2652 27 51.7 27ZM51.7 31.2C52.6936 31.2 53.5 32.0064 53.5 33C53.5 33.9936 52.6936 34.8 51.7 34.8C50.7064 34.8 49.9 33.9936 49.9 33C49.9 32.0064 50.7064 31.2 51.7 31.2ZM60.8032 39C60.3688 39 59.9344 39.1657 59.6032 39.4969L54.1 45H49.3C48.9688 45 48.7 44.7312 48.7 44.4C48.7 44.0688 48.9688 43.8 49.3 43.8H52.3C53.29 43.8 54.1 42.99 54.1 42C54.1 41.01 53.29 40.2 52.3 40.2H46.4875C45.2155 40.2 43.9961 40.7063 43.0961 41.6063L38.5 46.2L43.3 51L45.7 48.6H54.3063C54.9423 48.6 55.5532 48.3469 56.0032 47.8969L62.0032 41.8969C62.6656 41.2345 62.6656 40.1593 62.0032 39.4969C61.672 39.1657 61.2376 39 60.8032 39Z" fill="#212121"/>
</g>
<path d="M30.46 65.4844C30.46 65.252 30.4235 65.0469 30.3506 64.8691C30.2822 64.6868 30.1592 64.5228 29.9814 64.377C29.8083 64.2311 29.5667 64.0921 29.2568 63.96C28.9515 63.8278 28.5641 63.6934 28.0947 63.5566C27.6025 63.4108 27.1582 63.249 26.7617 63.0713C26.3652 62.889 26.0257 62.6816 25.7432 62.4492C25.4606 62.2168 25.2441 61.9502 25.0938 61.6494C24.9434 61.3486 24.8682 61.0046 24.8682 60.6172C24.8682 60.2298 24.9479 59.8721 25.1074 59.5439C25.2669 59.2158 25.4948 58.931 25.791 58.6895C26.0918 58.4434 26.4495 58.252 26.8643 58.1152C27.279 57.9785 27.7415 57.9102 28.252 57.9102C28.9993 57.9102 29.6328 58.0537 30.1523 58.3408C30.6764 58.6234 31.0752 58.9948 31.3486 59.4551C31.6221 59.9108 31.7588 60.3984 31.7588 60.918H30.4463C30.4463 60.5443 30.3665 60.2139 30.207 59.9268C30.0475 59.6351 29.806 59.4072 29.4824 59.2432C29.1589 59.0745 28.7487 58.9902 28.252 58.9902C27.7826 58.9902 27.3952 59.0609 27.0898 59.2021C26.7845 59.3434 26.5566 59.5348 26.4062 59.7764C26.2604 60.0179 26.1875 60.2936 26.1875 60.6035C26.1875 60.8132 26.2308 61.0046 26.3174 61.1777C26.4085 61.3464 26.5475 61.5036 26.7344 61.6494C26.9258 61.7952 27.1673 61.9297 27.459 62.0527C27.7552 62.1758 28.1084 62.2943 28.5186 62.4082C29.0837 62.5677 29.5713 62.7454 29.9814 62.9414C30.3916 63.1374 30.7288 63.3584 30.9932 63.6045C31.262 63.846 31.4603 64.1217 31.5879 64.4316C31.7201 64.737 31.7861 65.0833 31.7861 65.4707C31.7861 65.8763 31.7041 66.2432 31.54 66.5713C31.376 66.8994 31.1413 67.1797 30.8359 67.4121C30.5306 67.6445 30.1637 67.8245 29.7354 67.9521C29.3115 68.0752 28.8376 68.1367 28.3135 68.1367C27.8532 68.1367 27.3997 68.0729 26.9531 67.9453C26.5111 67.8177 26.1077 67.6263 25.7432 67.3711C25.3831 67.1159 25.0938 66.8014 24.875 66.4277C24.6608 66.0495 24.5537 65.612 24.5537 65.1152H25.8662C25.8662 65.457 25.9323 65.751 26.0645 65.9971C26.1966 66.2386 26.3766 66.4391 26.6045 66.5986C26.8369 66.7581 27.099 66.8766 27.3906 66.9541C27.6868 67.027 27.9945 67.0635 28.3135 67.0635C28.7738 67.0635 29.1634 66.9997 29.4824 66.8721C29.8014 66.7445 30.043 66.5622 30.207 66.3252C30.3757 66.0882 30.46 65.8079 30.46 65.4844ZM36.3457 68.1367C35.8307 68.1367 35.3636 68.0501 34.9443 67.877C34.5296 67.6992 34.1719 67.4508 33.8711 67.1318C33.5749 66.8128 33.347 66.4346 33.1875 65.9971C33.028 65.5596 32.9482 65.0811 32.9482 64.5615V64.2744C32.9482 63.6729 33.0371 63.1374 33.2148 62.668C33.3926 62.194 33.6341 61.793 33.9395 61.4648C34.2448 61.1367 34.5911 60.8883 34.9785 60.7197C35.3659 60.5511 35.7669 60.4668 36.1816 60.4668C36.7103 60.4668 37.166 60.5579 37.5488 60.7402C37.9362 60.9225 38.2529 61.1777 38.499 61.5059C38.7451 61.8294 38.9274 62.2122 39.0459 62.6543C39.1644 63.0918 39.2236 63.5703 39.2236 64.0898V64.6572H33.7002V63.625H37.959V63.5293C37.9408 63.2012 37.8724 62.8822 37.7539 62.5723C37.64 62.2624 37.4577 62.0072 37.207 61.8066C36.9564 61.6061 36.6146 61.5059 36.1816 61.5059C35.8945 61.5059 35.6302 61.5674 35.3887 61.6904C35.1471 61.8089 34.9398 61.9867 34.7666 62.2236C34.5934 62.4606 34.459 62.75 34.3633 63.0918C34.2676 63.4336 34.2197 63.8278 34.2197 64.2744V64.5615C34.2197 64.9124 34.2676 65.2428 34.3633 65.5527C34.4635 65.8581 34.6071 66.127 34.7939 66.3594C34.9854 66.5918 35.2155 66.7741 35.4844 66.9062C35.7578 67.0384 36.0677 67.1045 36.4141 67.1045C36.8607 67.1045 37.2389 67.0133 37.5488 66.8311C37.8587 66.6488 38.1299 66.4049 38.3623 66.0996L39.1279 66.708C38.9684 66.9495 38.7656 67.1797 38.5195 67.3984C38.2734 67.6172 37.9704 67.7949 37.6104 67.9316C37.2549 68.0684 36.8333 68.1367 36.3457 68.1367ZM41.9648 61.7656V68H40.7002V60.6035H41.9307L41.9648 61.7656ZM44.2754 60.5625L44.2686 61.7383C44.1637 61.7155 44.0635 61.7018 43.9678 61.6973C43.8766 61.6882 43.7718 61.6836 43.6533 61.6836C43.3617 61.6836 43.1042 61.7292 42.8809 61.8203C42.6576 61.9115 42.4684 62.0391 42.3135 62.2031C42.1585 62.3672 42.0355 62.5632 41.9443 62.791C41.8577 63.0143 41.8008 63.2604 41.7734 63.5293L41.418 63.7344C41.418 63.2878 41.4613 62.8685 41.5479 62.4766C41.639 62.0846 41.778 61.7383 41.9648 61.4375C42.1517 61.1322 42.3887 60.8952 42.6758 60.7266C42.9674 60.5534 43.3138 60.4668 43.7148 60.4668C43.806 60.4668 43.9108 60.4782 44.0293 60.501C44.1478 60.5192 44.2298 60.5397 44.2754 60.5625ZM47.8164 66.8584L49.8398 60.6035H51.1318L48.4727 68H47.625L47.8164 66.8584ZM46.1279 60.6035L48.2129 66.8926L48.3564 68H47.5088L44.8291 60.6035H46.1279ZM53.7227 60.6035V68H52.4512V60.6035H53.7227ZM52.3555 58.6416C52.3555 58.4365 52.417 58.2633 52.54 58.1221C52.6676 57.9808 52.8545 57.9102 53.1006 57.9102C53.3421 57.9102 53.5267 57.9808 53.6543 58.1221C53.7865 58.2633 53.8525 58.4365 53.8525 58.6416C53.8525 58.8376 53.7865 59.0062 53.6543 59.1475C53.5267 59.2842 53.3421 59.3525 53.1006 59.3525C52.8545 59.3525 52.6676 59.2842 52.54 59.1475C52.417 59.0062 52.3555 58.8376 52.3555 58.6416ZM58.7129 67.0977C59.0137 67.0977 59.2917 67.0361 59.5469 66.9131C59.8021 66.79 60.0117 66.6214 60.1758 66.4072C60.3398 66.1885 60.4333 65.9401 60.4561 65.6621H61.6592C61.6364 66.0996 61.4883 66.5075 61.2148 66.8857C60.946 67.2594 60.5928 67.5625 60.1553 67.7949C59.7178 68.0228 59.237 68.1367 58.7129 68.1367C58.1569 68.1367 57.6715 68.0387 57.2568 67.8428C56.8467 67.6468 56.5049 67.3779 56.2314 67.0361C55.9626 66.6943 55.7598 66.3024 55.623 65.8604C55.4909 65.4137 55.4248 64.9421 55.4248 64.4453V64.1582C55.4248 63.6615 55.4909 63.1921 55.623 62.75C55.7598 62.3034 55.9626 61.9092 56.2314 61.5674C56.5049 61.2256 56.8467 60.9567 57.2568 60.7607C57.6715 60.5648 58.1569 60.4668 58.7129 60.4668C59.2917 60.4668 59.7975 60.5853 60.2305 60.8223C60.6634 61.0547 61.0029 61.3737 61.249 61.7793C61.4997 62.1803 61.6364 62.6361 61.6592 63.1465H60.4561C60.4333 62.8411 60.3467 62.5654 60.1963 62.3193C60.0505 62.0732 59.8499 61.8773 59.5947 61.7314C59.3441 61.5811 59.0501 61.5059 58.7129 61.5059C58.3255 61.5059 57.9997 61.5833 57.7354 61.7383C57.4756 61.8887 57.2682 62.0938 57.1133 62.3535C56.9629 62.6087 56.8535 62.8936 56.7852 63.208C56.7214 63.5179 56.6895 63.8346 56.6895 64.1582V64.4453C56.6895 64.7689 56.7214 65.0879 56.7852 65.4023C56.849 65.7168 56.9561 66.0016 57.1064 66.2568C57.2614 66.512 57.4688 66.7171 57.7285 66.8721C57.9928 67.0225 58.321 67.0977 58.7129 67.0977ZM66.1504 68.1367C65.6354 68.1367 65.1683 68.0501 64.749 67.877C64.3343 67.6992 63.9766 67.4508 63.6758 67.1318C63.3796 66.8128 63.1517 66.4346 62.9922 65.9971C62.8327 65.5596 62.7529 65.0811 62.7529 64.5615V64.2744C62.7529 63.6729 62.8418 63.1374 63.0195 62.668C63.1973 62.194 63.4388 61.793 63.7441 61.4648C64.0495 61.1367 64.3958 60.8883 64.7832 60.7197C65.1706 60.5511 65.5716 60.4668 65.9863 60.4668C66.515 60.4668 66.9707 60.5579 67.3535 60.7402C67.7409 60.9225 68.0576 61.1777 68.3037 61.5059C68.5498 61.8294 68.7321 62.2122 68.8506 62.6543C68.9691 63.0918 69.0283 63.5703 69.0283 64.0898V64.6572H63.5049V63.625H67.7637V63.5293C67.7454 63.2012 67.6771 62.8822 67.5586 62.5723C67.4447 62.2624 67.2624 62.0072 67.0117 61.8066C66.7611 61.6061 66.4193 61.5059 65.9863 61.5059C65.6992 61.5059 65.4349 61.5674 65.1934 61.6904C64.9518 61.8089 64.7445 61.9867 64.5713 62.2236C64.3981 62.4606 64.2637 62.75 64.168 63.0918C64.0723 63.4336 64.0244 63.8278 64.0244 64.2744V64.5615C64.0244 64.9124 64.0723 65.2428 64.168 65.5527C64.2682 65.8581 64.4118 66.127 64.5986 66.3594C64.79 66.5918 65.0202 66.7741 65.2891 66.9062C65.5625 67.0384 65.8724 67.1045 66.2188 67.1045C66.6654 67.1045 67.0436 67.0133 67.3535 66.8311C67.6634 66.6488 67.9346 66.4049 68.167 66.0996L68.9326 66.708C68.7731 66.9495 68.5703 67.1797 68.3242 67.3984C68.0781 67.6172 67.7751 67.7949 67.415 67.9316C67.0596 68.0684 66.638 68.1367 66.1504 68.1367ZM74.8115 66.0381C74.8115 65.8558 74.7705 65.6872 74.6885 65.5322C74.611 65.3727 74.4492 65.2292 74.2031 65.1016C73.9616 64.9694 73.597 64.8555 73.1094 64.7598C72.6992 64.6732 72.3278 64.5706 71.9951 64.4521C71.667 64.3337 71.3867 64.1901 71.1543 64.0215C70.9264 63.8529 70.751 63.6546 70.6279 63.4268C70.5049 63.1989 70.4434 62.9323 70.4434 62.627C70.4434 62.3353 70.5072 62.0596 70.6348 61.7998C70.7669 61.54 70.9515 61.3099 71.1885 61.1094C71.43 60.9089 71.7194 60.7516 72.0566 60.6377C72.3939 60.5238 72.7699 60.4668 73.1846 60.4668C73.777 60.4668 74.2829 60.5716 74.7021 60.7812C75.1214 60.9909 75.4427 61.2712 75.666 61.6221C75.8893 61.9684 76.001 62.3535 76.001 62.7773H74.7363C74.7363 62.5723 74.6748 62.374 74.5518 62.1826C74.4333 61.9867 74.2578 61.8249 74.0254 61.6973C73.7975 61.5697 73.5173 61.5059 73.1846 61.5059C72.8337 61.5059 72.5488 61.5605 72.3301 61.6699C72.1159 61.7747 71.9587 61.9092 71.8584 62.0732C71.7627 62.2373 71.7148 62.4105 71.7148 62.5928C71.7148 62.7295 71.7376 62.8525 71.7832 62.9619C71.8333 63.0667 71.9199 63.1647 72.043 63.2559C72.166 63.3424 72.3392 63.4245 72.5625 63.502C72.7858 63.5794 73.0706 63.6569 73.417 63.7344C74.0231 63.8711 74.5221 64.0352 74.9141 64.2266C75.306 64.418 75.5977 64.6527 75.7891 64.9307C75.9805 65.2087 76.0762 65.5459 76.0762 65.9424C76.0762 66.266 76.0078 66.5622 75.8711 66.8311C75.7389 67.0999 75.5452 67.3324 75.29 67.5283C75.0394 67.7197 74.7386 67.8701 74.3877 67.9795C74.0413 68.0843 73.6517 68.1367 73.2188 68.1367C72.5671 68.1367 72.0156 68.0205 71.5645 67.7881C71.1133 67.5557 70.7715 67.2549 70.5391 66.8857C70.3066 66.5166 70.1904 66.127 70.1904 65.7168H71.4619C71.4801 66.0632 71.5804 66.3389 71.7627 66.5439C71.945 66.7445 72.1683 66.888 72.4326 66.9746C72.6969 67.0566 72.959 67.0977 73.2188 67.0977C73.5651 67.0977 73.8545 67.0521 74.0869 66.9609C74.3239 66.8698 74.5039 66.7445 74.627 66.585C74.75 66.4255 74.8115 66.2432 74.8115 66.0381Z" fill="#212121"/>
<path fill-rule="evenodd" clip-rule="evenodd" d="M101 0C101 3.86599 97.866 7 94 7H101V0Z" fill="#F9F9FF"/>
<path fill-rule="evenodd" clip-rule="evenodd" d="M94 91C97.866 91 101 94.134 101 98L101 91L94 91Z" fill="#F9F9FF"/>
<defs>
<clipPath id="clip0_14993_13586">
<rect width="24" height="24" fill="white" transform="translate(38.5 27)"/>
</clipPath>
</defs>
</svg>
