<svg version="1.2" xmlns="http://www.w3.org/2000/svg" viewBox="0 0 101 96" width="101" height="96"><defs><clipPath clipPathUnits="userSpaceOnUse" id="cp1"><path d="m38.5 26h24v24h-24z"/></clipPath></defs><style>.a{fill:#f5f5f5}.b{fill:#212121}.c{fill:#f9f9ff}</style><path class="a" d="m0 6h101v84h-101z"/><g clip-path="url(#cp1)"><path fill-rule="evenodd" class="b" d="m52.8 27v0.2q0 0.1 0 0.1c0.9 0.3 1.8 0.7 2.4 1.4q0 0 0.1 0l0.2-0.1c0.5-0.3 1.1-0.1 1.4 0.4 0.3 0.5 0.1 1.1-0.3 1.4l-0.2 0.2q-0.1 0-0.1 0 0.2 0.7 0.2 1.4 0 0.7-0.2 1.4 0 0 0.1 0l0.2 0.2c0.4 0.3 0.6 0.9 0.3 1.4-0.3 0.5-0.9 0.7-1.4 0.4l-0.2-0.1q-0.1 0-0.1 0c-0.6 0.7-1.5 1.1-2.4 1.4q0 0 0 0.1v0.2c-0.1 0.6-0.5 1-1.1 1-0.6 0-1-0.4-1.1-1v-0.2q0-0.1 0-0.1c-0.9-0.3-1.8-0.7-2.4-1.4q0 0-0.1 0l-0.2 0.1c-0.5 0.3-1.1 0.1-1.4-0.4-0.3-0.5-0.1-1.1 0.3-1.4l0.2-0.2q0.1 0 0.1 0-0.2-0.7-0.2-1.4 0-0.7 0.2-1.4 0 0-0.1 0l-0.2-0.2c-0.4-0.3-0.6-0.9-0.3-1.4 0.3-0.5 0.9-0.7 1.4-0.4l0.2 0.1q0.1 0 0.1 0c0.6-0.7 1.5-1.1 2.4-1.4q0 0 0-0.1v-0.2c0.1-0.6 0.5-1 1.1-1 0.6 0 1 0.4 1.1 1zm-2.9 5c0 1 0.8 1.8 1.8 1.8 1 0 1.8-0.8 1.8-1.8 0-1-0.8-1.8-1.8-1.8-1 0-1.8 0.8-1.8 1.8zm12.1 6.5c0.7 0.7 0.7 1.7 0 2.4l-6 6c-0.4 0.4-1.1 0.7-1.7 0.7h-8.6l-2.4 2.4-4.8-4.8 4.6-4.6c0.9-0.9 2.1-1.4 3.4-1.4h5.8c1 0 1.8 0.8 1.8 1.8 0 1-0.8 1.8-1.8 1.8h-3c-0.3 0-0.6 0.3-0.6 0.6 0 0.3 0.3 0.6 0.6 0.6h4.8l5.5-5.5c0.3-0.3 0.8-0.5 1.2-0.5 0.4 0 0.9 0.2 1.2 0.5z"/></g><path class="b" d="m30.5 64.5q0-0.4-0.1-0.6-0.2-0.3-0.4-0.5-0.3-0.2-0.7-0.4-0.5-0.2-1.2-0.4-0.7-0.3-1.3-0.5-0.6-0.3-1.1-0.7-0.4-0.3-0.6-0.8-0.2-0.4-0.2-1 0-0.6 0.2-1.1 0.2-0.4 0.7-0.8 0.4-0.4 1.1-0.6 0.6-0.2 1.4-0.2 1.1 0 1.9 0.4 0.7 0.5 1.1 1.2 0.5 0.6 0.5 1.4h-1.4q0-0.5-0.2-1-0.2-0.4-0.7-0.7-0.5-0.2-1.2-0.2-0.8 0-1.2 0.2-0.5 0.2-0.7 0.6-0.2 0.3-0.2 0.8 0 0.3 0.1 0.6 0.2 0.2 0.4 0.4 0.3 0.3 0.8 0.5 0.4 0.1 1 0.3 0.9 0.2 1.5 0.5 0.6 0.3 1 0.7 0.4 0.4 0.6 0.8 0.2 0.5 0.2 1.1 0 0.6-0.3 1.1-0.2 0.5-0.7 0.8-0.4 0.4-1.1 0.6-0.6 0.1-1.4 0.1-0.7 0-1.3-0.2-0.7-0.1-1.3-0.5-0.5-0.4-0.8-1-0.3-0.5-0.3-1.3h1.3q0 0.5 0.2 0.9 0.2 0.4 0.5 0.6 0.4 0.2 0.8 0.4 0.4 0.1 0.9 0.1 0.7 0 1.2-0.2 0.5-0.2 0.7-0.6 0.3-0.3 0.3-0.8zm5.8 2.6q-0.7 0-1.4-0.2-0.6-0.3-1-0.8-0.5-0.4-0.7-1.1-0.3-0.7-0.3-1.4v-0.3q0-0.9 0.3-1.6 0.3-0.7 0.7-1.2 0.5-0.5 1.1-0.8 0.6-0.2 1.2-0.2 0.8 0 1.3 0.2 0.6 0.3 1 0.8 0.4 0.5 0.5 1.2 0.2 0.6 0.2 1.4v0.6h-5.5v-1.1h4.3v-0.1q-0.1-0.5-0.2-0.9-0.2-0.5-0.6-0.8-0.4-0.3-1-0.3-0.4 0-0.8 0.2-0.4 0.2-0.6 0.5-0.3 0.4-0.4 0.9-0.2 0.5-0.2 1.2v0.3q0 0.5 0.2 1 0.1 0.4 0.4 0.8 0.3 0.3 0.7 0.5 0.4 0.2 0.9 0.2 0.7 0 1.1-0.3 0.5-0.2 0.9-0.7l0.7 0.6q-0.2 0.4-0.6 0.7-0.3 0.3-0.9 0.5-0.5 0.2-1.3 0.2zm5.7-6.3v6.2h-1.3v-7.4h1.2zm2.3-1.2v1.2q-0.1-0.1-0.3-0.1-0.1 0-0.3 0-0.4 0-0.8 0.2-0.3 0.1-0.5 0.3-0.3 0.3-0.4 0.6-0.1 0.4-0.2 0.8l-0.3 0.2q0-0.7 0.1-1.3 0.2-0.6 0.4-1 0.3-0.5 0.7-0.7 0.5-0.3 1.1-0.3 0.1 0 0.3 0 0.2 0.1 0.2 0.1zm3.6 6.3l2-6.3h1.3l-2.7 7.4h-0.8zm-1.7-6.2l2.1 6.3 0.1 1.1h-0.8l-2.7-7.4zm7.6 0v7.4h-1.3v-7.4zm-1.3-2q0-0.3 0.1-0.5 0.2-0.2 0.6-0.2 0.4 0 0.6 0.2 0.2 0.2 0.2 0.5 0 0.3-0.2 0.5-0.2 0.2-0.6 0.2-0.4 0-0.6-0.2-0.1-0.2-0.1-0.5zm6.3 8.5q0.5 0 0.9-0.2 0.3-0.2 0.6-0.5 0.2-0.3 0.3-0.8h1.2q-0.1 0.7-0.5 1.3-0.4 0.5-1 0.9-0.7 0.3-1.5 0.3-0.8 0-1.4-0.3-0.7-0.3-1.1-0.8-0.4-0.5-0.6-1.2-0.2-0.6-0.2-1.4v-0.3q0-0.7 0.2-1.4 0.2-0.6 0.6-1.2 0.4-0.5 1.1-0.8 0.6-0.3 1.4-0.3 0.9 0 1.5 0.4 0.7 0.4 1.1 1 0.3 0.6 0.4 1.3h-1.2q-0.1-0.4-0.3-0.8-0.2-0.4-0.6-0.6-0.4-0.2-0.9-0.2-0.6 0-1 0.2-0.4 0.2-0.6 0.6-0.2 0.4-0.3 0.9-0.1 0.5-0.1 0.9v0.3q0 0.5 0.1 1 0.1 0.5 0.3 0.8 0.2 0.4 0.6 0.7 0.4 0.2 1 0.2zm7.5 1q-0.8 0-1.4-0.2-0.7-0.3-1.1-0.8-0.5-0.5-0.7-1.1-0.2-0.7-0.2-1.5v-0.2q0-0.9 0.2-1.7 0.3-0.7 0.7-1.2 0.5-0.4 1.1-0.7 0.6-0.3 1.2-0.3 0.8 0 1.4 0.3 0.5 0.3 0.9 0.8 0.4 0.5 0.6 1.1 0.1 0.7 0.1 1.5v0.5h-5.5v-1h4.3v-0.1q-0.1-0.5-0.2-0.9-0.2-0.5-0.6-0.8-0.4-0.3-1-0.3-0.4 0-0.8 0.2-0.4 0.1-0.6 0.5-0.3 0.4-0.4 0.9-0.2 0.5-0.2 1.2v0.2q0 0.6 0.2 1 0.1 0.5 0.4 0.8 0.3 0.4 0.7 0.6 0.4 0.2 0.9 0.2 0.7 0 1.2-0.3 0.4-0.3 0.8-0.7l0.7 0.6q-0.2 0.3-0.6 0.7-0.3 0.3-0.9 0.5-0.5 0.2-1.2 0.2zm8.6-2.1q0-0.3-0.1-0.5-0.1-0.2-0.5-0.4-0.4-0.2-1.1-0.4-0.6-0.1-1.1-0.3-0.5-0.1-0.8-0.4-0.4-0.3-0.6-0.6-0.2-0.3-0.2-0.8 0-0.4 0.2-0.8 0.2-0.4 0.6-0.7 0.4-0.3 0.9-0.5 0.5-0.2 1.1-0.2 0.9 0 1.5 0.4 0.6 0.3 1 0.8 0.3 0.5 0.3 1.2h-1.3q0-0.4-0.1-0.6-0.2-0.3-0.6-0.5-0.3-0.2-0.8-0.2-0.5 0-0.9 0.1-0.3 0.2-0.4 0.5-0.2 0.2-0.2 0.5 0 0.2 0.1 0.3 0.1 0.2 0.2 0.3 0.2 0.2 0.6 0.3 0.3 0.1 0.8 0.2 0.9 0.2 1.5 0.5 0.6 0.3 0.9 0.7 0.3 0.4 0.3 1 0 0.5-0.2 0.9-0.2 0.4-0.6 0.7-0.4 0.3-0.9 0.5-0.5 0.1-1.2 0.1-1 0-1.6-0.3-0.7-0.4-1.1-0.9-0.3-0.6-0.3-1.2h1.3q0 0.5 0.3 0.8 0.2 0.3 0.6 0.5 0.4 0.1 0.8 0.1 0.5 0 0.9-0.2 0.3-0.1 0.5-0.3 0.2-0.3 0.2-0.6z"/><path fill-rule="evenodd" class="c" d="m101-1c0 3.9-3.1 7-7 7h7z"/><path fill-rule="evenodd" class="a" d="m94 90c3.9 0 7 3.1 7 7v-7z"/></svg>