<svg width="101" height="84" viewBox="0 0 101 84" fill="none" xmlns="http://www.w3.org/2000/svg">
<path d="M52.6205 42H48.8705C48.6205 42 48.4038 41.9167 48.2205 41.75C48.0371 41.5833 47.9288 41.375 47.8955 41.125L47.5955 38.8C47.3788 38.7167 47.1748 38.6167 46.9835 38.5C46.7915 38.3833 46.6038 38.2583 46.4205 38.125L44.2455 39.025C44.0121 39.1083 43.7788 39.1167 43.5455 39.05C43.3121 38.9833 43.1288 38.8417 42.9955 38.625L41.1455 35.4C41.0121 35.1833 40.9705 34.95 41.0205 34.7C41.0705 34.45 41.1955 34.25 41.3955 34.1L43.2705 32.675C43.2538 32.5583 43.2455 32.4457 43.2455 32.337V31.662C43.2455 31.554 43.2538 31.4417 43.2705 31.325L41.3955 29.9C41.1955 29.75 41.0705 29.55 41.0205 29.3C40.9705 29.05 41.0121 28.8167 41.1455 28.6L42.9955 25.375C43.1121 25.1417 43.2911 24.9957 43.5325 24.937C43.7745 24.879 44.0121 24.8917 44.2455 24.975L46.4205 25.875C46.6038 25.7417 46.7955 25.6167 46.9955 25.5C47.1955 25.3833 47.3955 25.2833 47.5955 25.2L47.8955 22.875C47.9288 22.625 48.0371 22.4167 48.2205 22.25C48.4038 22.0833 48.6205 22 48.8705 22H52.6205C52.8705 22 53.0871 22.0833 53.2705 22.25C53.4538 22.4167 53.5621 22.625 53.5955 22.875L53.8955 25.2C54.1121 25.2833 54.3165 25.3833 54.5085 25.5C54.6998 25.6167 54.8871 25.7417 55.0705 25.875L57.2455 24.975C57.4788 24.8917 57.7121 24.8833 57.9455 24.95C58.1788 25.0167 58.3621 25.1583 58.4955 25.375L60.3455 28.6C60.4788 28.8167 60.5205 29.05 60.4705 29.3C60.4205 29.55 60.2955 29.75 60.0955 29.9L58.2205 31.325C58.2371 31.4417 58.2455 31.554 58.2455 31.662V32.337C58.2455 32.4457 58.2288 32.5583 58.1955 32.675L60.0705 34.1C60.2705 34.25 60.3955 34.45 60.4455 34.7C60.4955 34.95 60.4538 35.1833 60.3205 35.4L58.4705 38.6C58.3371 38.8167 58.1498 38.9627 57.9085 39.038C57.6665 39.1127 57.4288 39.1083 57.1955 39.025L55.0705 38.125C54.8871 38.2583 54.6955 38.3833 54.4955 38.5C54.2955 38.6167 54.0955 38.7167 53.8955 38.8L53.5955 41.125C53.5621 41.375 53.4538 41.5833 53.2705 41.75C53.0871 41.9167 52.8705 42 52.6205 42ZM50.7955 35.5C51.7621 35.5 52.5871 35.1583 53.2705 34.475C53.9538 33.7917 54.2955 32.9667 54.2955 32C54.2955 31.0333 53.9538 30.2083 53.2705 29.525C52.5871 28.8417 51.7621 28.5 50.7955 28.5C49.8121 28.5 48.9828 28.8417 48.3075 29.525C47.6328 30.2083 47.2955 31.0333 47.2955 32C47.2955 32.9667 47.6328 33.7917 48.3075 34.475C48.9828 35.1583 49.8121 35.5 50.7955 35.5Z" fill="white"/>
<path d="M30.96 58.4844C30.96 58.252 30.9235 58.0469 30.8506 57.8691C30.7822 57.6868 30.6592 57.5228 30.4814 57.377C30.3083 57.2311 30.0667 57.0921 29.7568 56.96C29.4515 56.8278 29.0641 56.6934 28.5947 56.5566C28.1025 56.4108 27.6582 56.249 27.2617 56.0713C26.8652 55.889 26.5257 55.6816 26.2432 55.4492C25.9606 55.2168 25.7441 54.9502 25.5938 54.6494C25.4434 54.3486 25.3682 54.0046 25.3682 53.6172C25.3682 53.2298 25.4479 52.8721 25.6074 52.5439C25.7669 52.2158 25.9948 51.931 26.291 51.6895C26.5918 51.4434 26.9495 51.252 27.3643 51.1152C27.779 50.9785 28.2415 50.9102 28.752 50.9102C29.4993 50.9102 30.1328 51.0537 30.6523 51.3408C31.1764 51.6234 31.5752 51.9948 31.8486 52.4551C32.1221 52.9108 32.2588 53.3984 32.2588 53.918H30.9463C30.9463 53.5443 30.8665 53.2139 30.707 52.9268C30.5475 52.6351 30.306 52.4072 29.9824 52.2432C29.6589 52.0745 29.2487 51.9902 28.752 51.9902C28.2826 51.9902 27.8952 52.0609 27.5898 52.2021C27.2845 52.3434 27.0566 52.5348 26.9062 52.7764C26.7604 53.0179 26.6875 53.2936 26.6875 53.6035C26.6875 53.8132 26.7308 54.0046 26.8174 54.1777C26.9085 54.3464 27.0475 54.5036 27.2344 54.6494C27.4258 54.7952 27.6673 54.9297 27.959 55.0527C28.2552 55.1758 28.6084 55.2943 29.0186 55.4082C29.5837 55.5677 30.0713 55.7454 30.4814 55.9414C30.8916 56.1374 31.2288 56.3584 31.4932 56.6045C31.762 56.846 31.9603 57.1217 32.0879 57.4316C32.2201 57.737 32.2861 58.0833 32.2861 58.4707C32.2861 58.8763 32.2041 59.2432 32.04 59.5713C31.876 59.8994 31.6413 60.1797 31.3359 60.4121C31.0306 60.6445 30.6637 60.8245 30.2354 60.9521C29.8115 61.0752 29.3376 61.1367 28.8135 61.1367C28.3532 61.1367 27.8997 61.0729 27.4531 60.9453C27.0111 60.8177 26.6077 60.6263 26.2432 60.3711C25.8831 60.1159 25.5938 59.8014 25.375 59.4277C25.1608 59.0495 25.0537 58.612 25.0537 58.1152H26.3662C26.3662 58.457 26.4323 58.751 26.5645 58.9971C26.6966 59.2386 26.8766 59.4391 27.1045 59.5986C27.3369 59.7581 27.599 59.8766 27.8906 59.9541C28.1868 60.027 28.4945 60.0635 28.8135 60.0635C29.2738 60.0635 29.6634 59.9997 29.9824 59.8721C30.3014 59.7445 30.543 59.5622 30.707 59.3252C30.8757 59.0882 30.96 58.8079 30.96 58.4844ZM36.8457 61.1367C36.3307 61.1367 35.8636 61.0501 35.4443 60.877C35.0296 60.6992 34.6719 60.4508 34.3711 60.1318C34.0749 59.8128 33.847 59.4346 33.6875 58.9971C33.528 58.5596 33.4482 58.0811 33.4482 57.5615V57.2744C33.4482 56.6729 33.5371 56.1374 33.7148 55.668C33.8926 55.194 34.1341 54.793 34.4395 54.4648C34.7448 54.1367 35.0911 53.8883 35.4785 53.7197C35.8659 53.5511 36.2669 53.4668 36.6816 53.4668C37.2103 53.4668 37.666 53.5579 38.0488 53.7402C38.4362 53.9225 38.7529 54.1777 38.999 54.5059C39.2451 54.8294 39.4274 55.2122 39.5459 55.6543C39.6644 56.0918 39.7236 56.5703 39.7236 57.0898V57.6572H34.2002V56.625H38.459V56.5293C38.4408 56.2012 38.3724 55.8822 38.2539 55.5723C38.14 55.2624 37.9577 55.0072 37.707 54.8066C37.4564 54.6061 37.1146 54.5059 36.6816 54.5059C36.3945 54.5059 36.1302 54.5674 35.8887 54.6904C35.6471 54.8089 35.4398 54.9867 35.2666 55.2236C35.0934 55.4606 34.959 55.75 34.8633 56.0918C34.7676 56.4336 34.7197 56.8278 34.7197 57.2744V57.5615C34.7197 57.9124 34.7676 58.2428 34.8633 58.5527C34.9635 58.8581 35.1071 59.127 35.2939 59.3594C35.4854 59.5918 35.7155 59.7741 35.9844 59.9062C36.2578 60.0384 36.5677 60.1045 36.9141 60.1045C37.3607 60.1045 37.7389 60.0133 38.0488 59.8311C38.3587 59.6488 38.6299 59.4049 38.8623 59.0996L39.6279 59.708C39.4684 59.9495 39.2656 60.1797 39.0195 60.3984C38.7734 60.6172 38.4704 60.7949 38.1104 60.9316C37.7549 61.0684 37.3333 61.1367 36.8457 61.1367ZM44.2969 53.6035V54.5742H40.2979V53.6035H44.2969ZM41.6514 51.8057H42.916V59.168C42.916 59.4186 42.9548 59.6077 43.0322 59.7354C43.1097 59.863 43.21 59.9473 43.333 59.9883C43.4561 60.0293 43.5882 60.0498 43.7295 60.0498C43.8343 60.0498 43.9437 60.0407 44.0576 60.0225C44.1761 59.9997 44.265 59.9814 44.3242 59.9678L44.3311 61C44.2308 61.0319 44.0986 61.0615 43.9346 61.0889C43.7751 61.1208 43.5814 61.1367 43.3535 61.1367C43.0436 61.1367 42.7588 61.0752 42.499 60.9521C42.2393 60.8291 42.0319 60.624 41.877 60.3369C41.7266 60.0452 41.6514 59.6533 41.6514 59.1611V51.8057ZM48.877 53.6035V54.5742H44.8779V53.6035H48.877ZM46.2314 51.8057H47.4961V59.168C47.4961 59.4186 47.5348 59.6077 47.6123 59.7354C47.6898 59.863 47.79 59.9473 47.9131 59.9883C48.0361 60.0293 48.1683 60.0498 48.3096 60.0498C48.4144 60.0498 48.5238 60.0407 48.6377 60.0225C48.7562 59.9997 48.8451 59.9814 48.9043 59.9678L48.9111 61C48.8109 61.0319 48.6787 61.0615 48.5146 61.0889C48.3551 61.1208 48.1615 61.1367 47.9336 61.1367C47.6237 61.1367 47.3389 61.0752 47.0791 60.9521C46.8193 60.8291 46.612 60.624 46.457 60.3369C46.3066 60.0452 46.2314 59.6533 46.2314 59.1611V51.8057ZM51.7344 53.6035V61H50.4629V53.6035H51.7344ZM50.3672 51.6416C50.3672 51.4365 50.4287 51.2633 50.5518 51.1221C50.6794 50.9808 50.8662 50.9102 51.1123 50.9102C51.3538 50.9102 51.5384 50.9808 51.666 51.1221C51.7982 51.2633 51.8643 51.4365 51.8643 51.6416C51.8643 51.8376 51.7982 52.0062 51.666 52.1475C51.5384 52.2842 51.3538 52.3525 51.1123 52.3525C50.8662 52.3525 50.6794 52.2842 50.5518 52.1475C50.4287 52.0062 50.3672 51.8376 50.3672 51.6416ZM55.0293 55.1826V61H53.7646V53.6035H54.9609L55.0293 55.1826ZM54.7285 57.0215L54.2021 57.001C54.2067 56.4951 54.2819 56.028 54.4277 55.5996C54.5736 55.1667 54.7786 54.7907 55.043 54.4717C55.3073 54.1527 55.6217 53.9066 55.9863 53.7334C56.3555 53.5557 56.7633 53.4668 57.21 53.4668C57.5745 53.4668 57.9027 53.5169 58.1943 53.6172C58.486 53.7129 58.7344 53.8678 58.9395 54.082C59.1491 54.2962 59.3086 54.5742 59.418 54.916C59.5273 55.2533 59.582 55.6657 59.582 56.1533V61H58.3105V56.1396C58.3105 55.7523 58.2536 55.4424 58.1396 55.21C58.0257 54.973 57.8594 54.8021 57.6406 54.6973C57.4219 54.5879 57.153 54.5332 56.834 54.5332C56.5195 54.5332 56.2324 54.5993 55.9727 54.7314C55.7174 54.8636 55.4964 55.0459 55.3096 55.2783C55.1273 55.5107 54.9837 55.7773 54.8789 56.0781C54.7786 56.3743 54.7285 56.6888 54.7285 57.0215ZM66.2949 53.6035H67.4434V60.8428C67.4434 61.4945 67.3112 62.0505 67.0469 62.5107C66.7826 62.971 66.4134 63.3197 65.9395 63.5566C65.4701 63.7982 64.9277 63.9189 64.3125 63.9189C64.0573 63.9189 63.7565 63.8779 63.4102 63.7959C63.0684 63.7184 62.7311 63.584 62.3984 63.3926C62.0703 63.2057 61.7946 62.9528 61.5713 62.6338L62.2344 61.8818C62.5443 62.2555 62.8678 62.5153 63.2051 62.6611C63.5469 62.807 63.8841 62.8799 64.2168 62.8799C64.6178 62.8799 64.9642 62.8047 65.2559 62.6543C65.5475 62.5039 65.7731 62.2806 65.9326 61.9844C66.0967 61.6927 66.1787 61.3327 66.1787 60.9043V55.2305L66.2949 53.6035ZM61.2021 57.3838V57.2402C61.2021 56.6751 61.2682 56.1624 61.4004 55.7021C61.5371 55.2373 61.7308 54.8385 61.9814 54.5059C62.2367 54.1732 62.5443 53.918 62.9043 53.7402C63.2643 53.5579 63.6699 53.4668 64.1211 53.4668C64.5859 53.4668 64.9915 53.5488 65.3379 53.7129C65.6888 53.8724 65.985 54.1071 66.2266 54.417C66.4727 54.7223 66.6663 55.0915 66.8076 55.5244C66.9489 55.9574 67.0469 56.4473 67.1016 56.9941V57.623C67.0514 58.1654 66.9535 58.653 66.8076 59.0859C66.6663 59.5189 66.4727 59.888 66.2266 60.1934C65.985 60.4987 65.6888 60.7334 65.3379 60.8975C64.987 61.057 64.5768 61.1367 64.1074 61.1367C63.6654 61.1367 63.2643 61.0433 62.9043 60.8564C62.5488 60.6696 62.2435 60.4076 61.9883 60.0703C61.7331 59.7331 61.5371 59.3366 61.4004 58.8809C61.2682 58.4206 61.2021 57.9215 61.2021 57.3838ZM62.4668 57.2402V57.3838C62.4668 57.7529 62.5033 58.0993 62.5762 58.4229C62.6536 58.7464 62.7699 59.0312 62.9248 59.2773C63.0843 59.5234 63.2871 59.7171 63.5332 59.8584C63.7793 59.9951 64.0732 60.0635 64.415 60.0635C64.8343 60.0635 65.1807 59.9746 65.4541 59.7969C65.7275 59.6191 65.944 59.3844 66.1035 59.0928C66.2676 58.8011 66.3952 58.4844 66.4863 58.1426V56.4951C66.4362 56.2445 66.3587 56.0029 66.2539 55.7705C66.1536 55.5335 66.0215 55.3239 65.8574 55.1416C65.6979 54.9548 65.4997 54.8066 65.2627 54.6973C65.0257 54.5879 64.7477 54.5332 64.4287 54.5332C64.0824 54.5332 63.7839 54.6061 63.5332 54.752C63.2871 54.8932 63.0843 55.0892 62.9248 55.3398C62.7699 55.5859 62.6536 55.873 62.5762 56.2012C62.5033 56.5247 62.4668 56.8711 62.4668 57.2402ZM73.6709 59.0381C73.6709 58.8558 73.6299 58.6872 73.5479 58.5322C73.4704 58.3727 73.3086 58.2292 73.0625 58.1016C72.821 57.9694 72.4564 57.8555 71.9688 57.7598C71.5586 57.6732 71.1872 57.5706 70.8545 57.4521C70.5264 57.3337 70.2461 57.1901 70.0137 57.0215C69.7858 56.8529 69.6104 56.6546 69.4873 56.4268C69.3643 56.1989 69.3027 55.9323 69.3027 55.627C69.3027 55.3353 69.3665 55.0596 69.4941 54.7998C69.6263 54.54 69.8109 54.3099 70.0479 54.1094C70.2894 53.9089 70.5788 53.7516 70.916 53.6377C71.2533 53.5238 71.6292 53.4668 72.0439 53.4668C72.6364 53.4668 73.1423 53.5716 73.5615 53.7812C73.9808 53.9909 74.3021 54.2712 74.5254 54.6221C74.7487 54.9684 74.8604 55.3535 74.8604 55.7773H73.5957C73.5957 55.5723 73.5342 55.374 73.4111 55.1826C73.2926 54.9867 73.1172 54.8249 72.8848 54.6973C72.6569 54.5697 72.3766 54.5059 72.0439 54.5059C71.693 54.5059 71.4082 54.5605 71.1895 54.6699C70.9753 54.7747 70.818 54.9092 70.7178 55.0732C70.6221 55.2373 70.5742 55.4105 70.5742 55.5928C70.5742 55.7295 70.597 55.8525 70.6426 55.9619C70.6927 56.0667 70.7793 56.1647 70.9023 56.2559C71.0254 56.3424 71.1986 56.4245 71.4219 56.502C71.6452 56.5794 71.93 56.6569 72.2764 56.7344C72.8825 56.8711 73.3815 57.0352 73.7734 57.2266C74.1654 57.418 74.457 57.6527 74.6484 57.9307C74.8398 58.2087 74.9355 58.5459 74.9355 58.9424C74.9355 59.266 74.8672 59.5622 74.7305 59.8311C74.5983 60.0999 74.4046 60.3324 74.1494 60.5283C73.8988 60.7197 73.598 60.8701 73.2471 60.9795C72.9007 61.0843 72.5111 61.1367 72.0781 61.1367C71.4264 61.1367 70.875 61.0205 70.4238 60.7881C69.9727 60.5557 69.6309 60.2549 69.3984 59.8857C69.166 59.5166 69.0498 59.127 69.0498 58.7168H70.3213C70.3395 59.0632 70.4398 59.3389 70.6221 59.5439C70.8044 59.7445 71.0277 59.888 71.292 59.9746C71.5563 60.0566 71.8184 60.0977 72.0781 60.0977C72.4245 60.0977 72.7139 60.0521 72.9463 59.9609C73.1833 59.8698 73.3633 59.7445 73.4863 59.585C73.6094 59.4255 73.6709 59.2432 73.6709 59.0381Z" fill="white"/>
</svg>
