<svg version="1.2" xmlns="http://www.w3.org/2000/svg" viewBox="0 0 101 96" width="101" height="96"><style>.a{fill:#f5f5f5}.b{fill:#212121}.c{fill:#f9f9ff}</style><path class="a" d="m0 6h101v84h-101z"/><path fill-rule="evenodd" class="b" d="m52.6 48h-3.7q-0.4 0-0.7-0.3-0.3-0.2-0.3-0.6l-0.3-2.3q-0.3-0.1-0.6-0.3-0.3-0.2-0.6-0.4l-2.2 0.9q-0.3 0.1-0.7 0-0.3-0.1-0.5-0.4l-1.9-3.2q-0.2-0.3-0.1-0.7 0.1-0.4 0.4-0.6l1.9-1.4q-0.1-0.2-0.1-0.4v-0.6q0-0.2 0.1-0.4l-1.9-1.4q-0.3-0.2-0.4-0.6-0.1-0.4 0.1-0.7l1.9-3.2q0.2-0.4 0.5-0.5 0.4 0 0.7 0.1l2.2 0.9q0.3-0.2 0.6-0.4 0.3-0.2 0.6-0.3l0.3-2.3q0-0.4 0.3-0.7 0.3-0.2 0.7-0.2h3.7q0.4 0 0.7 0.2 0.2 0.3 0.3 0.7l0.3 2.3q0.3 0.1 0.6 0.3 0.3 0.2 0.6 0.4l2.1-0.9q0.4-0.1 0.7-0.1 0.4 0.1 0.6 0.5l1.8 3.2q0.2 0.3 0.2 0.7-0.1 0.4-0.4 0.6l-1.9 1.4q0 0.2 0 0.4v0.6q0 0.2 0 0.4l1.9 1.4q0.3 0.2 0.3 0.6 0.1 0.4-0.1 0.7l-1.8 3.2q-0.2 0.3-0.6 0.4-0.4 0.1-0.7 0l-2.1-0.9q-0.3 0.2-0.6 0.4-0.3 0.2-0.6 0.3l-0.3 2.3q-0.1 0.4-0.3 0.6-0.3 0.3-0.7 0.3zm-1.8-6.5q1.4 0 2.5-1 1-1 1-2.5 0-1.5-1-2.5-1.1-1-2.5-1-1.5 0-2.5 1-1 1-1 2.5 0 1.5 1 2.5 1 1 2.5 1z"/><path fill-rule="evenodd" class="b" d="m31 64.5q0-0.4-0.1-0.6-0.2-0.3-0.4-0.5-0.3-0.2-0.7-0.4-0.5-0.2-1.2-0.4-0.7-0.3-1.3-0.5-0.6-0.3-1.1-0.7-0.4-0.3-0.6-0.8-0.2-0.4-0.2-1 0-0.6 0.2-1.1 0.2-0.4 0.7-0.8 0.4-0.4 1.1-0.6 0.6-0.2 1.4-0.2 1.1 0 1.9 0.4 0.7 0.5 1.1 1.2 0.5 0.6 0.5 1.4h-1.4q0-0.5-0.2-1-0.2-0.4-0.7-0.7-0.5-0.2-1.2-0.2-0.8 0-1.2 0.2-0.5 0.2-0.7 0.6-0.2 0.3-0.2 0.8 0 0.3 0.1 0.6 0.2 0.2 0.4 0.4 0.3 0.3 0.8 0.5 0.4 0.1 1 0.3 0.9 0.2 1.5 0.5 0.6 0.3 1 0.7 0.4 0.4 0.6 0.8 0.2 0.5 0.2 1.1 0 0.6-0.3 1.1-0.2 0.5-0.7 0.8-0.4 0.4-1.1 0.6-0.6 0.1-1.4 0.1-0.7 0-1.3-0.2-0.7-0.1-1.3-0.5-0.5-0.4-0.8-1-0.3-0.5-0.3-1.3h1.3q0 0.5 0.2 0.9 0.2 0.4 0.5 0.6 0.4 0.2 0.8 0.4 0.4 0.1 0.9 0.1 0.7 0 1.2-0.2 0.5-0.2 0.7-0.6 0.3-0.3 0.3-0.8zm5.8 2.6q-0.7 0-1.4-0.2-0.6-0.3-1-0.8-0.5-0.4-0.7-1.1-0.3-0.7-0.3-1.4v-0.3q0-0.9 0.3-1.6 0.3-0.7 0.7-1.2 0.5-0.5 1.1-0.8 0.6-0.2 1.2-0.2 0.8 0 1.3 0.2 0.6 0.3 1 0.8 0.4 0.5 0.5 1.2 0.2 0.6 0.2 1.4v0.6h-5q0 0.4 0.2 0.9 0.1 0.4 0.4 0.8 0.3 0.3 0.7 0.5 0.4 0.2 0.9 0.2 0.7 0 1.1-0.3 0.5-0.2 0.9-0.7l0.7 0.6q-0.2 0.4-0.6 0.7-0.3 0.3-0.9 0.5-0.5 0.2-1.3 0.2zm-2.1-3.4q0-0.1 0-0.1v-0.3q0-0.4 0.1-0.7h-0.6v1.1zm3.7-1.1v-0.1q0-0.5-0.2-0.9-0.1-0.5-0.5-0.8-0.4-0.3-1-0.3-0.5 0-0.8 0.2-0.4 0.2-0.7 0.5-0.2 0.4-0.4 0.9 0 0.2-0.1 0.5zm5.9-3v1h-1.4v4.6q0 0.3 0.1 0.5 0.1 0.2 0.3 0.3 0.2 0 0.4 0 0.2 0 0.3 0 0.2 0 0.3 0v1q-0.1 0-0.4 0.1-0.2 0-0.6 0-0.4 0-0.8-0.1-0.4-0.2-0.6-0.7-0.3-0.4-0.3-1.1v-4.6h-1.3v-1h1.3v-1.8h1.3v1.8zm4.6 0v1h-1.4v4.6q0 0.3 0.1 0.5 0.1 0.2 0.3 0.3 0.2 0 0.4 0 0.2 0 0.3 0 0.2 0 0.3 0v1q-0.1 0-0.4 0.1-0.2 0-0.6 0-0.4 0-0.8-0.1-0.4-0.2-0.6-0.7-0.3-0.4-0.3-1.1v-4.6h-1.3v-1h1.3v-1.8h1.3v1.8zm2.9 0v7.4h-1.3v-7.4zm-1.4-2q0-0.3 0.2-0.5 0.2-0.2 0.6-0.2 0.3 0 0.5 0.2 0.2 0.2 0.2 0.5 0 0.3-0.2 0.5-0.2 0.3-0.5 0.3-0.4 0-0.6-0.3-0.2-0.2-0.2-0.5zm4.7 9.4h-1.3v-7.4h1.2v0.9q0.1 0 0.1 0 0.4-0.5 0.9-0.8 0.6-0.2 1.3-0.2 0.5 0 0.9 0.1 0.5 0.2 0.8 0.5 0.3 0.3 0.5 0.8 0.1 0.5 0.1 1.3v4.8h-1.2v-4.9q0-0.5-0.2-0.9-0.2-0.3-0.5-0.5-0.3-0.2-0.8-0.2-0.5 0-0.9 0.2-0.4 0.2-0.6 0.6-0.2 0.2-0.3 0.4zm11.2-7.4h1.2v7.3q0 0.9-0.4 1.6-0.4 0.7-1.1 1.1-0.7 0.3-1.6 0.3-0.4 0-0.9-0.1-0.6-0.1-1.1-0.4-0.4-0.3-0.8-0.7l0.7-0.8q0.4 0.6 1 0.8 0.5 0.2 1 0.2 0.6 0 1-0.2 0.4-0.2 0.7-0.7 0.2-0.4 0.2-1.1v-0.6q-0.3 0.4-0.8 0.6-0.5 0.3-1.2 0.3-0.7 0-1.3-0.3-0.5-0.3-0.9-0.8-0.3-0.5-0.6-1.2-0.2-0.7-0.2-1.5v-0.1q0-0.9 0.2-1.6 0.3-0.7 0.6-1.2 0.4-0.5 0.9-0.7 0.6-0.3 1.3-0.3 0.7 0 1.2 0.2 0.5 0.3 0.9 0.7 0 0 0 0.1zm-3.8 3.6v0.1q0 0.6 0.1 1.1 0.1 0.5 0.3 0.8 0.3 0.4 0.6 0.6 0.4 0.2 0.9 0.2 0.6 0 1-0.3 0.5-0.2 0.7-0.7 0.2-0.4 0.4-0.9v-1.7q-0.1-0.3-0.3-0.7-0.1-0.3-0.4-0.6-0.2-0.3-0.6-0.5-0.3-0.1-0.8-0.1-0.5 0-0.9 0.2-0.3 0.2-0.6 0.6-0.2 0.4-0.3 0.8-0.1 0.5-0.1 1.1zm11.2 1.8q0-0.3-0.2-0.5-0.1-0.3-0.5-0.5-0.3-0.1-1-0.3-0.7-0.1-1.2-0.3-0.5-0.2-0.8-0.4-0.3-0.3-0.5-0.6-0.2-0.4-0.2-0.8 0-0.5 0.2-0.9 0.2-0.3 0.5-0.6 0.4-0.3 0.9-0.5 0.5-0.2 1.1-0.2 0.9 0 1.5 0.3 0.7 0.3 1 0.9 0.3 0.5 0.3 1.1h-1.2q0-0.3-0.2-0.6-0.2-0.3-0.5-0.5-0.4-0.1-0.9-0.1-0.5 0-0.8 0.1-0.3 0.2-0.5 0.4-0.1 0.3-0.1 0.5 0 0.2 0 0.4 0.1 0.2 0.3 0.3 0.2 0.1 0.5 0.2 0.3 0.2 0.9 0.3 0.9 0.2 1.5 0.5 0.5 0.3 0.8 0.7 0.3 0.4 0.3 1 0 0.5-0.2 0.9-0.2 0.4-0.6 0.7-0.3 0.3-0.9 0.4-0.5 0.2-1.1 0.2-1 0-1.7-0.4-0.7-0.3-1-0.9-0.4-0.5-0.4-1.1h1.3q0 0.5 0.3 0.8 0.3 0.3 0.7 0.4 0.4 0.1 0.8 0.1 0.5 0 0.8-0.1 0.4-0.1 0.6-0.4 0.2-0.2 0.2-0.5z"/><path fill-rule="evenodd" class="c" d="m101-1c0 3.9-3.1 7-7 7h7z"/><path fill-rule="evenodd" class="c" d="m94 90c3.9 0 7 3.1 7 7v-7z"/></svg>