<svg width="101" height="98" viewBox="0 0 101 98" fill="none" xmlns="http://www.w3.org/2000/svg">
<rect width="101" height="84" transform="translate(0 7)" fill="white"/>
<path d="M52.6205 49H48.8705C48.6205 49 48.4038 48.9167 48.2205 48.75C48.0371 48.5833 47.9288 48.375 47.8955 48.125L47.5955 45.8C47.3788 45.7167 47.1748 45.6167 46.9835 45.5C46.7915 45.3833 46.6038 45.2583 46.4205 45.125L44.2455 46.025C44.0121 46.1083 43.7788 46.1167 43.5455 46.05C43.3121 45.9833 43.1288 45.8417 42.9955 45.625L41.1455 42.4C41.0121 42.1833 40.9705 41.95 41.0205 41.7C41.0705 41.45 41.1955 41.25 41.3955 41.1L43.2705 39.675C43.2538 39.5583 43.2455 39.4457 43.2455 39.337V38.662C43.2455 38.554 43.2538 38.4417 43.2705 38.325L41.3955 36.9C41.1955 36.75 41.0705 36.55 41.0205 36.3C40.9705 36.05 41.0121 35.8167 41.1455 35.6L42.9955 32.375C43.1121 32.1417 43.2911 31.9957 43.5325 31.937C43.7745 31.879 44.0121 31.8917 44.2455 31.975L46.4205 32.875C46.6038 32.7417 46.7955 32.6167 46.9955 32.5C47.1955 32.3833 47.3955 32.2833 47.5955 32.2L47.8955 29.875C47.9288 29.625 48.0371 29.4167 48.2205 29.25C48.4038 29.0833 48.6205 29 48.8705 29H52.6205C52.8705 29 53.0871 29.0833 53.2705 29.25C53.4538 29.4167 53.5621 29.625 53.5955 29.875L53.8955 32.2C54.1121 32.2833 54.3165 32.3833 54.5085 32.5C54.6998 32.6167 54.8871 32.7417 55.0705 32.875L57.2455 31.975C57.4788 31.8917 57.7121 31.8833 57.9455 31.95C58.1788 32.0167 58.3621 32.1583 58.4955 32.375L60.3455 35.6C60.4788 35.8167 60.5205 36.05 60.4705 36.3C60.4205 36.55 60.2955 36.75 60.0955 36.9L58.2205 38.325C58.2371 38.4417 58.2455 38.554 58.2455 38.662V39.337C58.2455 39.4457 58.2288 39.5583 58.1955 39.675L60.0705 41.1C60.2705 41.25 60.3955 41.45 60.4455 41.7C60.4955 41.95 60.4538 42.1833 60.3205 42.4L58.4705 45.6C58.3371 45.8167 58.1498 45.9627 57.9085 46.038C57.6665 46.1127 57.4288 46.1083 57.1955 46.025L55.0705 45.125C54.8871 45.2583 54.6955 45.3833 54.4955 45.5C54.2955 45.6167 54.0955 45.7167 53.8955 45.8L53.5955 48.125C53.5621 48.375 53.4538 48.5833 53.2705 48.75C53.0871 48.9167 52.8705 49 52.6205 49ZM50.7955 42.5C51.7621 42.5 52.5871 42.1583 53.2705 41.475C53.9538 40.7917 54.2955 39.9667 54.2955 39C54.2955 38.0333 53.9538 37.2083 53.2705 36.525C52.5871 35.8417 51.7621 35.5 50.7955 35.5C49.8121 35.5 48.9828 35.8417 48.3075 36.525C47.6328 37.2083 47.2955 38.0333 47.2955 39C47.2955 39.9667 47.6328 40.7917 48.3075 41.475C48.9828 42.1583 49.8121 42.5 50.7955 42.5Z" fill="#212121"/>
<path d="M30.96 65.4844C30.96 65.252 30.9235 65.0469 30.8506 64.8691C30.7822 64.6868 30.6592 64.5228 30.4814 64.377C30.3083 64.2311 30.0667 64.0921 29.7568 63.96C29.4515 63.8278 29.0641 63.6934 28.5947 63.5566C28.1025 63.4108 27.6582 63.249 27.2617 63.0713C26.8652 62.889 26.5257 62.6816 26.2432 62.4492C25.9606 62.2168 25.7441 61.9502 25.5938 61.6494C25.4434 61.3486 25.3682 61.0046 25.3682 60.6172C25.3682 60.2298 25.4479 59.8721 25.6074 59.5439C25.7669 59.2158 25.9948 58.931 26.291 58.6895C26.5918 58.4434 26.9495 58.252 27.3643 58.1152C27.779 57.9785 28.2415 57.9102 28.752 57.9102C29.4993 57.9102 30.1328 58.0537 30.6523 58.3408C31.1764 58.6234 31.5752 58.9948 31.8486 59.4551C32.1221 59.9108 32.2588 60.3984 32.2588 60.918H30.9463C30.9463 60.5443 30.8665 60.2139 30.707 59.9268C30.5475 59.6351 30.306 59.4072 29.9824 59.2432C29.6589 59.0745 29.2487 58.9902 28.752 58.9902C28.2826 58.9902 27.8952 59.0609 27.5898 59.2021C27.2845 59.3434 27.0566 59.5348 26.9062 59.7764C26.7604 60.0179 26.6875 60.2936 26.6875 60.6035C26.6875 60.8132 26.7308 61.0046 26.8174 61.1777C26.9085 61.3464 27.0475 61.5036 27.2344 61.6494C27.4258 61.7952 27.6673 61.9297 27.959 62.0527C28.2552 62.1758 28.6084 62.2943 29.0186 62.4082C29.5837 62.5677 30.0713 62.7454 30.4814 62.9414C30.8916 63.1374 31.2288 63.3584 31.4932 63.6045C31.762 63.846 31.9603 64.1217 32.0879 64.4316C32.2201 64.737 32.2861 65.0833 32.2861 65.4707C32.2861 65.8763 32.2041 66.2432 32.04 66.5713C31.876 66.8994 31.6413 67.1797 31.3359 67.4121C31.0306 67.6445 30.6637 67.8245 30.2354 67.9521C29.8115 68.0752 29.3376 68.1367 28.8135 68.1367C28.3532 68.1367 27.8997 68.0729 27.4531 67.9453C27.0111 67.8177 26.6077 67.6263 26.2432 67.3711C25.8831 67.1159 25.5938 66.8014 25.375 66.4277C25.1608 66.0495 25.0537 65.612 25.0537 65.1152H26.3662C26.3662 65.457 26.4323 65.751 26.5645 65.9971C26.6966 66.2386 26.8766 66.4391 27.1045 66.5986C27.3369 66.7581 27.599 66.8766 27.8906 66.9541C28.1868 67.027 28.4945 67.0635 28.8135 67.0635C29.2738 67.0635 29.6634 66.9997 29.9824 66.8721C30.3014 66.7445 30.543 66.5622 30.707 66.3252C30.8757 66.0882 30.96 65.8079 30.96 65.4844ZM36.8457 68.1367C36.3307 68.1367 35.8636 68.0501 35.4443 67.877C35.0296 67.6992 34.6719 67.4508 34.3711 67.1318C34.0749 66.8128 33.847 66.4346 33.6875 65.9971C33.528 65.5596 33.4482 65.0811 33.4482 64.5615V64.2744C33.4482 63.6729 33.5371 63.1374 33.7148 62.668C33.8926 62.194 34.1341 61.793 34.4395 61.4648C34.7448 61.1367 35.0911 60.8883 35.4785 60.7197C35.8659 60.5511 36.2669 60.4668 36.6816 60.4668C37.2103 60.4668 37.666 60.5579 38.0488 60.7402C38.4362 60.9225 38.7529 61.1777 38.999 61.5059C39.2451 61.8294 39.4274 62.2122 39.5459 62.6543C39.6644 63.0918 39.7236 63.5703 39.7236 64.0898V64.6572H34.2002V63.625H38.459V63.5293C38.4408 63.2012 38.3724 62.8822 38.2539 62.5723C38.14 62.2624 37.9577 62.0072 37.707 61.8066C37.4564 61.6061 37.1146 61.5059 36.6816 61.5059C36.3945 61.5059 36.1302 61.5674 35.8887 61.6904C35.6471 61.8089 35.4398 61.9867 35.2666 62.2236C35.0934 62.4606 34.959 62.75 34.8633 63.0918C34.7676 63.4336 34.7197 63.8278 34.7197 64.2744V64.5615C34.7197 64.9124 34.7676 65.2428 34.8633 65.5527C34.9635 65.8581 35.1071 66.127 35.2939 66.3594C35.4854 66.5918 35.7155 66.7741 35.9844 66.9062C36.2578 67.0384 36.5677 67.1045 36.9141 67.1045C37.3607 67.1045 37.7389 67.0133 38.0488 66.8311C38.3587 66.6488 38.6299 66.4049 38.8623 66.0996L39.6279 66.708C39.4684 66.9495 39.2656 67.1797 39.0195 67.3984C38.7734 67.6172 38.4704 67.7949 38.1104 67.9316C37.7549 68.0684 37.3333 68.1367 36.8457 68.1367ZM44.2969 60.6035V61.5742H40.2979V60.6035H44.2969ZM41.6514 58.8057H42.916V66.168C42.916 66.4186 42.9548 66.6077 43.0322 66.7354C43.1097 66.863 43.21 66.9473 43.333 66.9883C43.4561 67.0293 43.5882 67.0498 43.7295 67.0498C43.8343 67.0498 43.9437 67.0407 44.0576 67.0225C44.1761 66.9997 44.265 66.9814 44.3242 66.9678L44.3311 68C44.2308 68.0319 44.0986 68.0615 43.9346 68.0889C43.7751 68.1208 43.5814 68.1367 43.3535 68.1367C43.0436 68.1367 42.7588 68.0752 42.499 67.9521C42.2393 67.8291 42.0319 67.624 41.877 67.3369C41.7266 67.0452 41.6514 66.6533 41.6514 66.1611V58.8057ZM48.877 60.6035V61.5742H44.8779V60.6035H48.877ZM46.2314 58.8057H47.4961V66.168C47.4961 66.4186 47.5348 66.6077 47.6123 66.7354C47.6898 66.863 47.79 66.9473 47.9131 66.9883C48.0361 67.0293 48.1683 67.0498 48.3096 67.0498C48.4144 67.0498 48.5238 67.0407 48.6377 67.0225C48.7562 66.9997 48.8451 66.9814 48.9043 66.9678L48.9111 68C48.8109 68.0319 48.6787 68.0615 48.5146 68.0889C48.3551 68.1208 48.1615 68.1367 47.9336 68.1367C47.6237 68.1367 47.3389 68.0752 47.0791 67.9521C46.8193 67.8291 46.612 67.624 46.457 67.3369C46.3066 67.0452 46.2314 66.6533 46.2314 66.1611V58.8057ZM51.7344 60.6035V68H50.4629V60.6035H51.7344ZM50.3672 58.6416C50.3672 58.4365 50.4287 58.2633 50.5518 58.1221C50.6794 57.9808 50.8662 57.9102 51.1123 57.9102C51.3538 57.9102 51.5384 57.9808 51.666 58.1221C51.7982 58.2633 51.8643 58.4365 51.8643 58.6416C51.8643 58.8376 51.7982 59.0062 51.666 59.1475C51.5384 59.2842 51.3538 59.3525 51.1123 59.3525C50.8662 59.3525 50.6794 59.2842 50.5518 59.1475C50.4287 59.0062 50.3672 58.8376 50.3672 58.6416ZM55.0293 62.1826V68H53.7646V60.6035H54.9609L55.0293 62.1826ZM54.7285 64.0215L54.2021 64.001C54.2067 63.4951 54.2819 63.028 54.4277 62.5996C54.5736 62.1667 54.7786 61.7907 55.043 61.4717C55.3073 61.1527 55.6217 60.9066 55.9863 60.7334C56.3555 60.5557 56.7633 60.4668 57.21 60.4668C57.5745 60.4668 57.9027 60.5169 58.1943 60.6172C58.486 60.7129 58.7344 60.8678 58.9395 61.082C59.1491 61.2962 59.3086 61.5742 59.418 61.916C59.5273 62.2533 59.582 62.6657 59.582 63.1533V68H58.3105V63.1396C58.3105 62.7523 58.2536 62.4424 58.1396 62.21C58.0257 61.973 57.8594 61.8021 57.6406 61.6973C57.4219 61.5879 57.153 61.5332 56.834 61.5332C56.5195 61.5332 56.2324 61.5993 55.9727 61.7314C55.7174 61.8636 55.4964 62.0459 55.3096 62.2783C55.1273 62.5107 54.9837 62.7773 54.8789 63.0781C54.7786 63.3743 54.7285 63.6888 54.7285 64.0215ZM66.2949 60.6035H67.4434V67.8428C67.4434 68.4945 67.3112 69.0505 67.0469 69.5107C66.7826 69.971 66.4134 70.3197 65.9395 70.5566C65.4701 70.7982 64.9277 70.9189 64.3125 70.9189C64.0573 70.9189 63.7565 70.8779 63.4102 70.7959C63.0684 70.7184 62.7311 70.584 62.3984 70.3926C62.0703 70.2057 61.7946 69.9528 61.5713 69.6338L62.2344 68.8818C62.5443 69.2555 62.8678 69.5153 63.2051 69.6611C63.5469 69.807 63.8841 69.8799 64.2168 69.8799C64.6178 69.8799 64.9642 69.8047 65.2559 69.6543C65.5475 69.5039 65.7731 69.2806 65.9326 68.9844C66.0967 68.6927 66.1787 68.3327 66.1787 67.9043V62.2305L66.2949 60.6035ZM61.2021 64.3838V64.2402C61.2021 63.6751 61.2682 63.1624 61.4004 62.7021C61.5371 62.2373 61.7308 61.8385 61.9814 61.5059C62.2367 61.1732 62.5443 60.918 62.9043 60.7402C63.2643 60.5579 63.6699 60.4668 64.1211 60.4668C64.5859 60.4668 64.9915 60.5488 65.3379 60.7129C65.6888 60.8724 65.985 61.1071 66.2266 61.417C66.4727 61.7223 66.6663 62.0915 66.8076 62.5244C66.9489 62.9574 67.0469 63.4473 67.1016 63.9941V64.623C67.0514 65.1654 66.9535 65.653 66.8076 66.0859C66.6663 66.5189 66.4727 66.888 66.2266 67.1934C65.985 67.4987 65.6888 67.7334 65.3379 67.8975C64.987 68.057 64.5768 68.1367 64.1074 68.1367C63.6654 68.1367 63.2643 68.0433 62.9043 67.8564C62.5488 67.6696 62.2435 67.4076 61.9883 67.0703C61.7331 66.7331 61.5371 66.3366 61.4004 65.8809C61.2682 65.4206 61.2021 64.9215 61.2021 64.3838ZM62.4668 64.2402V64.3838C62.4668 64.7529 62.5033 65.0993 62.5762 65.4229C62.6536 65.7464 62.7699 66.0312 62.9248 66.2773C63.0843 66.5234 63.2871 66.7171 63.5332 66.8584C63.7793 66.9951 64.0732 67.0635 64.415 67.0635C64.8343 67.0635 65.1807 66.9746 65.4541 66.7969C65.7275 66.6191 65.944 66.3844 66.1035 66.0928C66.2676 65.8011 66.3952 65.4844 66.4863 65.1426V63.4951C66.4362 63.2445 66.3587 63.0029 66.2539 62.7705C66.1536 62.5335 66.0215 62.3239 65.8574 62.1416C65.6979 61.9548 65.4997 61.8066 65.2627 61.6973C65.0257 61.5879 64.7477 61.5332 64.4287 61.5332C64.0824 61.5332 63.7839 61.6061 63.5332 61.752C63.2871 61.8932 63.0843 62.0892 62.9248 62.3398C62.7699 62.5859 62.6536 62.873 62.5762 63.2012C62.5033 63.5247 62.4668 63.8711 62.4668 64.2402ZM73.6709 66.0381C73.6709 65.8558 73.6299 65.6872 73.5479 65.5322C73.4704 65.3727 73.3086 65.2292 73.0625 65.1016C72.821 64.9694 72.4564 64.8555 71.9688 64.7598C71.5586 64.6732 71.1872 64.5706 70.8545 64.4521C70.5264 64.3337 70.2461 64.1901 70.0137 64.0215C69.7858 63.8529 69.6104 63.6546 69.4873 63.4268C69.3643 63.1989 69.3027 62.9323 69.3027 62.627C69.3027 62.3353 69.3665 62.0596 69.4941 61.7998C69.6263 61.54 69.8109 61.3099 70.0479 61.1094C70.2894 60.9089 70.5788 60.7516 70.916 60.6377C71.2533 60.5238 71.6292 60.4668 72.0439 60.4668C72.6364 60.4668 73.1423 60.5716 73.5615 60.7812C73.9808 60.9909 74.3021 61.2712 74.5254 61.6221C74.7487 61.9684 74.8604 62.3535 74.8604 62.7773H73.5957C73.5957 62.5723 73.5342 62.374 73.4111 62.1826C73.2926 61.9867 73.1172 61.8249 72.8848 61.6973C72.6569 61.5697 72.3766 61.5059 72.0439 61.5059C71.693 61.5059 71.4082 61.5605 71.1895 61.6699C70.9753 61.7747 70.818 61.9092 70.7178 62.0732C70.6221 62.2373 70.5742 62.4105 70.5742 62.5928C70.5742 62.7295 70.597 62.8525 70.6426 62.9619C70.6927 63.0667 70.7793 63.1647 70.9023 63.2559C71.0254 63.3424 71.1986 63.4245 71.4219 63.502C71.6452 63.5794 71.93 63.6569 72.2764 63.7344C72.8825 63.8711 73.3815 64.0352 73.7734 64.2266C74.1654 64.418 74.457 64.6527 74.6484 64.9307C74.8398 65.2087 74.9355 65.5459 74.9355 65.9424C74.9355 66.266 74.8672 66.5622 74.7305 66.8311C74.5983 67.0999 74.4046 67.3324 74.1494 67.5283C73.8988 67.7197 73.598 67.8701 73.2471 67.9795C72.9007 68.0843 72.5111 68.1367 72.0781 68.1367C71.4264 68.1367 70.875 68.0205 70.4238 67.7881C69.9727 67.5557 69.6309 67.2549 69.3984 66.8857C69.166 66.5166 69.0498 66.127 69.0498 65.7168H70.3213C70.3395 66.0632 70.4398 66.3389 70.6221 66.5439C70.8044 66.7445 71.0277 66.888 71.292 66.9746C71.5563 67.0566 71.8184 67.0977 72.0781 67.0977C72.4245 67.0977 72.7139 67.0521 72.9463 66.9609C73.1833 66.8698 73.3633 66.7445 73.4863 66.585C73.6094 66.4255 73.6709 66.2432 73.6709 66.0381Z" fill="#212121"/>
<path fill-rule="evenodd" clip-rule="evenodd" d="M101 0C101 3.86599 97.866 7 94 7H101V0Z" fill="#F9F9FF"/>
<path fill-rule="evenodd" clip-rule="evenodd" d="M94 91C97.866 91 101 94.134 101 98L101 91L94 91Z" fill="#F9F9FF"/>
</svg>
