<svg width="32" height="32" viewBox="0 0 32 32" fill="none" xmlns="http://www.w3.org/2000/svg">
<circle cx="16" cy="16" r="16" fill="white"/>
<path d="M15.4305 23.5549L15.4298 23.5542C13.3602 21.6365 11.682 20.0786 10.5154 18.6202C9.35468 17.1692 8.75 15.8759 8.75 14.4959C8.75 12.2366 10.4717 10.5 12.65 10.5C13.8868 10.5 15.0852 11.0909 15.8671 12.0219L16.25 12.4777L16.6329 12.0219C17.4148 11.0909 18.6132 10.5 19.85 10.5C22.0283 10.5 23.75 12.2366 23.75 14.4959C23.75 15.8759 23.1453 17.1692 21.9846 18.6202C20.818 20.0786 19.1398 21.6365 17.0702 23.5542L17.0695 23.5549L16.25 24.3171L15.4305 23.5549Z" stroke="#707FDA"/>
</svg>
